<svg width="65" height="24" viewBox="0 0 65 24" fill="none" xmlns="http://www.w3.org/2000/svg">
<path d="M12.8143 12L15.6433 14.829L14.2293 16.243L9.98633 12.001L14.2293 7.758L15.6433 9.172L12.8143 12.001V12Z" fill="#646670"/>
<path d="M33.6582 18H30.1582V6.5625C31.6999 6.48958 32.7806 6.45312 33.4004 6.45312C34.5879 6.45312 35.515 6.70833 36.1816 7.21875C36.8535 7.72396 37.1895 8.44792 37.1895 9.39062C37.1895 10.2969 36.7103 11.013 35.752 11.5391C37.1738 12.0339 37.8848 13.0547 37.8848 14.6016C37.8848 15.6432 37.4915 16.4714 36.7051 17.0859C35.9186 17.6953 34.903 18 33.6582 18ZM32.1895 8.1875V10.9297C32.502 10.9505 32.8301 10.9609 33.1738 10.9609C34.4967 10.9609 35.1582 10.4635 35.1582 9.46875C35.1582 8.58854 34.5566 8.14844 33.3535 8.14844C33.0358 8.14844 32.6478 8.16146 32.1895 8.1875ZM32.1895 12.5156V16.2969C32.6009 16.3333 32.9342 16.3516 33.1895 16.3516C34.0957 16.3516 34.752 16.1979 35.1582 15.8906C35.5697 15.5833 35.7754 15.0729 35.7754 14.3594C35.7754 13.7083 35.5853 13.2344 35.2051 12.9375C34.8249 12.6406 34.1608 12.4922 33.2129 12.4922C33.015 12.4922 32.6738 12.5 32.1895 12.5156ZM44.2285 17.1641C44.0514 17.4557 43.7415 17.6953 43.2988 17.8828C42.8613 18.0651 42.403 18.1562 41.9238 18.1562C41.0228 18.1562 40.3145 17.9323 39.7988 17.4844C39.2832 17.0312 39.0254 16.3906 39.0254 15.5625C39.0254 14.5938 39.3874 13.8359 40.1113 13.2891C40.8405 12.7422 41.8743 12.4688 43.2129 12.4688C43.4421 12.4688 43.7129 12.5078 44.0254 12.5859C44.0254 11.6016 43.403 11.1094 42.1582 11.1094C41.4238 11.1094 40.8092 11.2318 40.3145 11.4766L39.8926 9.96094C40.5645 9.63802 41.3639 9.47656 42.291 9.47656C43.5671 9.47656 44.502 9.76823 45.0957 10.3516C45.6895 10.9297 45.9863 12.0286 45.9863 13.6484V15.4375C45.9863 16.5521 46.2103 17.2526 46.6582 17.5391C46.4967 17.8203 46.3171 17.9922 46.1191 18.0547C45.9212 18.1224 45.6947 18.1562 45.4395 18.1562C45.1582 18.1562 44.9056 18.0521 44.6816 17.8438C44.4577 17.6354 44.3066 17.4089 44.2285 17.1641ZM44.041 14.0625C43.7077 13.9948 43.4577 13.9609 43.291 13.9609C41.7493 13.9609 40.9785 14.4661 40.9785 15.4766C40.9785 16.2266 41.4134 16.6016 42.2832 16.6016C43.4551 16.6016 44.041 16.0156 44.041 14.8438V14.0625ZM54.666 10.2969L53.8301 11.7578C53.3717 11.3255 52.7572 11.1094 51.9863 11.1094C51.2467 11.1094 50.6608 11.3568 50.2285 11.8516C49.8014 12.3411 49.5879 13.0208 49.5879 13.8906C49.5879 15.6458 50.4238 16.5234 52.0957 16.5234C52.8197 16.5234 53.4577 16.2839 54.0098 15.8047L54.7285 17.3438C54.1608 17.6979 53.6634 17.9219 53.2363 18.0156C52.8145 18.1094 52.3145 18.1562 51.7363 18.1562C50.4447 18.1562 49.4238 17.7812 48.6738 17.0312C47.929 16.276 47.5566 15.2292 47.5566 13.8906C47.5566 12.5729 47.9655 11.5078 48.7832 10.6953C49.6009 9.88281 50.7155 9.47656 52.127 9.47656C53.1009 9.47656 53.9473 9.75 54.666 10.2969ZM61.6426 18L59.1816 14.2109L58.2441 15.2031V18H56.291V6.51562L58.2441 6.04688V12.8438L61.0332 9.63281H63.3848L60.5566 12.8047L63.9629 18H61.6426Z" fill="#646670"/>
</svg>
