<svg width="359" height="160" viewBox="0 0 359 160" fill="none" xmlns="http://www.w3.org/2000/svg">
<rect width="359" height="160" rx="16" fill="#F6F7FA"/>
<circle cx="342.417" cy="3.41725" r="38.4248" transform="rotate(-110.422 342.417 3.41725)" fill="#F1D39F"/>
<path d="M371.17 -7.22785C365.25 -23.1259 347.564 -31.2153 331.666 -25.296C315.768 -19.3767 307.678 -1.69024 313.598 14.2078C319.517 30.1059 337.203 38.1953 353.101 32.276C368.999 26.3567 377.089 8.67022 371.17 -7.22785Z" fill="url(#paint0_radial_501_3565)"/>
<path style="mix-blend-mode:screen" d="M354.578 30.7889C338.681 36.7079 320.993 28.6181 315.074 12.7208C310.885 1.46887 313.714 -10.6781 321.36 -18.9173C312.612 -10.7009 309.148 2.25757 313.598 14.2078C319.517 30.1051 337.204 38.195 353.101 32.276C357.75 30.5452 361.726 27.8083 364.886 24.4059C361.996 27.122 358.528 29.3182 354.578 30.7889Z" fill="url(#paint1_radial_501_3565)"/>
<path style="mix-blend-mode:screen" opacity="0.34" d="M323.846 -2.81346C324.994 -2.81856 326.153 -2.62193 327.193 -2.12849C328.521 -1.4977 329.572 -0.429907 330.574 0.652184C331.116 1.01869 331.643 1.40463 332.167 1.79173C333.636 2.87764 335.13 3.98269 336.246 5.42716C336.945 6.33137 337.489 7.35359 338.117 8.30553C338.501 8.79432 338.851 9.29588 339.291 9.79959C340.115 10.7458 341.363 11.3035 342.368 12.0298C346.217 14.8143 348.645 21.4218 346.47 25.8879C343.302 32.3854 333.489 30.1815 328.273 27.8424C322.632 25.3138 318.176 20.5545 316.019 14.7618C314.726 11.2886 314.061 7.66312 314.905 4.03689C315.194 2.80052 315.719 1.57172 316.638 0.711402C316.928 0.298176 317.26 -0.0880866 317.625 -0.433385C319.276 -1.99598 321.572 -2.80828 323.849 -2.81462L323.846 -2.81346Z" fill="url(#paint2_radial_501_3565)"/>
<path style="mix-blend-mode:multiply" d="M312.625 -4.12743C315.507 -7.69281 319.349 -10.5609 323.957 -12.2766C337.653 -17.3761 352.889 -10.4075 357.989 3.28868C362.115 14.3722 358.336 26.4648 349.485 33.3741C350.698 33.0857 351.904 32.7218 353.101 32.276C369.002 26.3558 377.092 8.66831 371.173 -7.22899C365.254 -23.1263 347.566 -31.2162 331.669 -25.2972C321.873 -21.6499 315.044 -13.5338 312.629 -4.12548L312.625 -4.12743Z" fill="url(#paint3_radial_501_3565)"/>
<path style="mix-blend-mode:multiply" d="M356.288 21.6894C354.683 25.5673 352.097 29.0329 348.705 31.6801C349.625 31.4619 350.543 31.1911 351.451 30.8743C353.698 28.1847 355.345 25.0475 356.284 21.6874L356.288 21.6894Z" fill="url(#paint4_radial_501_3565)"/>
<path style="mix-blend-mode:multiply" d="M314.637 -3.99605C317.533 -11.1873 323.327 -17.1821 331.168 -20.1016C345.955 -25.6074 362.406 -18.083 367.912 -3.29564C370.133 2.66857 370.232 8.90427 368.59 14.5814C371.17 8.20015 371.469 0.871625 368.877 -6.09026C363.372 -20.8777 346.921 -28.402 332.133 -22.8962C323.298 -19.6065 317.06 -12.4098 314.64 -3.99721L314.637 -3.99605Z" fill="url(#paint5_radial_501_3565)"/>
<path style="mix-blend-mode:multiply" opacity="0.45" d="M352.747 6.40108C353.435 8.34256 353.564 10.9887 355.526 11.6143C356.077 11.7889 356.695 11.7506 357.202 12.0341C359.209 13.154 356.799 16.8914 358.53 18.4051C359.266 19.0469 360.381 18.9051 361.313 19.2044C362.909 19.7174 363.781 21.5441 363.735 23.2226C363.706 24.2878 363.39 25.3073 362.973 26.2965C365.377 24.1235 367.402 21.6016 368.994 18.84C368.948 18.7753 368.908 18.7051 368.875 18.6252C368.705 18.2163 368.789 17.7555 368.813 17.3136C368.945 14.8468 367.03 12.7269 364.938 11.4078C362.849 10.0876 360.451 9.23394 358.589 7.60899C358.351 7.39934 358.106 7.14995 358.077 6.8341C358.014 6.15099 358.91 5.82095 359.267 5.23383C359.852 4.27033 358.828 3.13951 357.867 2.55281C353.891 0.121178 349.043 -0.849612 344.436 -0.131889C347.847 1.15404 351.527 2.97171 352.745 6.40536L352.747 6.40108Z" fill="url(#paint6_radial_501_3565)"/>
<path style="mix-blend-mode:multiply" opacity="0.45" d="M329.577 -14.9158C329.133 -14.4414 328.758 -13.8937 328.256 -13.4794C326.348 -11.8995 323.5 -12.7238 321.211 -13.6645C320.101 -14.1207 318.873 -14.5761 317.675 -14.7619C315.019 -11.1601 313.171 -7.00749 312.278 -2.61743C314.718 -3.58631 316.948 -5.08369 318.743 -7.00183C319.602 -7.91796 320.514 -9.00647 321.766 -9.08569C322.796 -9.14986 323.717 -8.49861 324.667 -8.1C326.994 -7.12383 329.896 -7.73925 331.623 -9.575C332.66 -10.6784 333.314 -12.1748 334.596 -12.9825C336.437 -14.14 338.828 -13.4787 340.889 -12.787C342.939 -12.095 344.992 -11.4041 347.042 -10.7152C344.588 -12.9859 342.043 -15.3114 338.908 -16.4764C335.773 -17.6413 331.857 -17.3655 329.572 -14.9209L329.577 -14.9158Z" fill="url(#paint7_radial_501_3565)"/>
<path style="mix-blend-mode:multiply" opacity="0.45" d="M349.617 -20.5596C348.105 -21.7219 346.129 -22.2534 344.239 -22.0078C346.514 -21.133 348.583 -19.7342 350.238 -17.9474C350.631 -17.522 351.023 -17.0609 351.552 -16.8213C352.081 -16.5818 352.803 -16.6447 353.124 -17.1295C353.204 -17.2555 353.26 -17.4006 353.366 -17.5074C353.728 -17.8695 354.334 -17.52 354.712 -17.1741C355.456 -16.4894 356.221 -15.7801 356.641 -14.8609C357.156 -13.7251 357.286 -12.1474 358.467 -11.7494C359.461 -11.4165 360.54 -12.2266 361.556 -11.9766C362.489 -11.749 362.996 -10.7023 363.062 -9.74351C363.125 -8.78355 362.88 -7.82977 362.911 -6.86871C362.943 -5.90766 363.37 -4.84561 364.277 -4.52653C364.718 -4.3713 365.202 -4.41651 365.658 -4.31653C366.956 -4.03314 367.717 -2.65842 367.975 -1.35262C368.233 -0.0499417 368.166 1.32401 368.62 2.57146C368.912 3.37504 369.407 4.09265 369.98 4.72751C370.81 5.65033 371.814 6.41236 372.915 6.98577C373.455 2.3227 372.928 -2.53289 371.179 -7.23131C370.992 -7.73326 370.794 -8.22746 370.586 -8.71077C369.487 -8.15265 368.028 -7.95359 367.258 -8.88483C366.91 -9.3054 366.798 -9.86364 366.668 -10.3939C366.407 -11.4754 366.047 -12.5303 365.592 -13.543C365.287 -14.2177 364.933 -14.8917 364.385 -15.3906C363.841 -15.8907 363.07 -16.1966 362.348 -16.0274C361.683 -15.8685 361.106 -15.3306 360.424 -15.3711C359.868 -15.4055 359.414 -15.8224 359.084 -16.271C358.314 -17.3085 357.961 -18.59 357.394 -19.7525C356.829 -20.9161 355.923 -22.0521 354.655 -22.2933C353.318 -22.548 351.976 -21.7078 351.179 -20.6085C351.059 -20.4433 350.938 -20.2633 350.75 -20.1757C350.368 -20.0014 349.956 -20.3061 349.624 -20.5588L349.617 -20.5596Z" fill="url(#paint8_radial_501_3565)"/>
<path style="mix-blend-mode:multiply" opacity="0.45" d="M311.99 7.97291C312.299 10.0622 312.832 12.1502 313.598 14.2079C313.655 14.3606 313.715 14.5122 313.774 14.6607C313.924 14.4271 314.071 14.1914 314.225 13.9566C314.644 13.3179 315.128 12.6442 315.853 12.4096C316.5 12.2008 317.213 12.3898 317.821 12.6887C318.783 13.1648 319.589 13.9085 320.534 14.4157C321.479 14.9229 322.693 15.1629 323.597 14.5852C324.557 13.9719 324.813 12.7051 325.457 11.7627C326.227 10.6381 327.607 9.9965 328.97 10.0145C330.332 10.0325 331.652 10.6773 332.598 11.656C333.482 12.5696 334.044 13.7375 334.752 14.7909C335.461 15.8443 336.415 16.8449 337.655 17.1145C338.636 17.3278 339.704 17.0582 340.639 17.4236C341.607 17.8017 342.216 18.7816 342.509 19.7767C342.798 20.7731 342.839 21.8264 343.053 22.8401C343.454 24.7567 344.493 26.5355 345.967 27.8255C347.388 24.414 346.681 20.2183 344.223 17.4593C342.908 15.9859 341.117 14.8564 340.316 13.0494C339.843 11.9795 339.769 10.7683 339.312 9.69259C338.854 8.61684 337.769 7.62917 336.633 7.90335C336.238 7.99705 335.863 8.23953 335.463 8.19342C335.185 8.16201 334.939 7.9979 334.714 7.83305C333.007 6.59434 331.456 5.07019 329.498 4.28334C327.54 3.49649 324.945 3.71391 323.773 5.46725C323 6.62461 322.979 8.23697 321.975 9.20026C321.18 9.96469 319.973 10.1055 318.873 10.0216C316.478 9.83413 314.26 8.78891 311.997 7.96318L311.99 7.97291Z" fill="url(#paint9_radial_501_3565)"/>
<g style="mix-blend-mode:screen">
<path style="mix-blend-mode:multiply" opacity="0.45" d="M342.481 31.7255C342.797 30.9156 342.953 29.9628 342.809 29.0225C342.737 28.5523 342.58 28.0925 342.344 27.6765C342.107 27.2605 341.78 26.917 341.465 26.6227C340.823 26.0418 340.222 25.5626 339.936 25.0231C339.644 24.4963 339.606 23.9461 339.565 23.5706C339.534 23.1917 339.527 22.9635 339.527 22.9635C339.527 22.9635 339.514 22.7376 339.487 22.3396C339.469 22.1402 339.448 21.8925 339.398 21.6058C339.351 21.318 339.263 20.9852 339.087 20.6461C338.916 20.3014 338.613 19.974 338.222 19.7613C337.827 19.5497 337.372 19.4634 336.933 19.446C336.056 19.3996 335.159 19.5454 334.398 19.1971C333.625 18.8565 333.017 18.1776 332.401 17.5905C331.79 16.998 331.101 16.4914 330.389 16.3624C329.68 16.2322 329.079 16.4489 328.759 16.7063C328.436 16.9722 328.378 17.2174 328.39 17.2202C328.414 17.2362 328.515 17.0211 328.834 16.81C329.144 16.6056 329.707 16.4492 330.336 16.6021C330.963 16.7519 331.581 17.2389 332.154 17.8423C332.732 18.4327 333.33 19.172 334.211 19.6004C334.65 19.8168 335.146 19.8912 335.6 19.9175C336.056 19.9427 336.493 19.9329 336.895 19.9642C337.299 19.9912 337.662 20.0797 337.95 20.2423C338.236 20.4093 338.449 20.6492 338.572 20.9123C338.826 21.4425 338.844 22.004 338.872 22.3841C338.889 22.7751 338.898 22.999 338.898 22.999C338.898 22.999 338.907 23.2229 338.948 23.6299C338.97 23.8313 339 24.0829 339.068 24.37C339.093 24.5133 339.15 24.6661 339.198 24.8255C339.267 24.981 339.326 25.1505 339.429 25.3112C339.808 25.976 340.492 26.4701 341.108 27.0077C341.418 27.2791 341.708 27.5722 341.921 27.9227C342.133 28.2733 342.289 28.6731 342.364 29.0958C342.522 29.9388 342.411 30.8321 342.144 31.6025C341.876 32.3802 341.471 33.0564 341.099 33.6104C340.959 33.8078 340.827 33.9956 340.705 34.1651C340.789 34.1696 340.873 34.1772 340.96 34.1805C341.07 34.0472 341.181 33.9065 341.299 33.7561C341.71 33.2123 342.159 32.5378 342.475 31.7278L342.481 31.7255Z" fill="url(#paint10_radial_501_3565)"/>
<path style="mix-blend-mode:multiply" opacity="0.45" d="M360.972 -4.2192C360.949 -4.6721 361.011 -5.17425 361.069 -5.70367C361.125 -6.23192 361.192 -6.80375 361.1 -7.40478C361.013 -8.00073 360.666 -8.61715 360.137 -8.95247C359.613 -9.30063 359.02 -9.42429 358.478 -9.54548C357.928 -9.66008 357.399 -9.7649 356.937 -9.96573C356.475 -10.1666 356.113 -10.4929 355.851 -10.8818C355.595 -11.2729 355.427 -11.6965 355.279 -12.0925C354.997 -12.889 354.753 -13.5722 354.477 -13.9984C354.416 -14.1068 354.346 -14.1981 354.285 -14.2749C354.228 -14.353 354.172 -14.4173 354.123 -14.463C354.027 -14.5586 353.974 -14.6063 353.966 -14.5997C353.944 -14.581 354.139 -14.373 354.364 -13.9387C354.596 -13.5068 354.796 -12.8358 355.048 -12.0171C355.181 -11.6122 355.335 -11.1618 355.596 -10.7266C355.86 -10.2926 356.277 -9.89018 356.787 -9.65419C357.294 -9.41704 357.848 -9.29309 358.386 -9.16333C358.921 -9.03242 359.466 -8.89447 359.883 -8.59523C360.303 -8.30455 360.554 -7.8406 360.621 -7.33659C360.686 -6.8283 360.619 -6.29229 360.551 -5.76991C360.483 -5.24753 360.404 -4.72478 360.418 -4.20103C360.43 -3.68353 360.561 -3.15016 360.859 -2.74996C361.148 -2.34628 361.541 -2.102 361.885 -1.94973C362.235 -1.79238 362.545 -1.73052 362.796 -1.66763C363.299 -1.56404 363.574 -1.52096 363.574 -1.52096C363.574 -1.52096 363.858 -1.48447 364.326 -1.38914C364.779 -1.28801 365.467 -1.1287 365.883 -0.52731C366.084 -0.225851 366.2 0.19962 366.321 0.669103C366.441 1.13547 366.557 1.6357 366.679 2.15463C366.926 3.19134 367.216 4.32238 367.766 5.36019C368.043 5.87481 368.389 6.3565 368.784 6.77757C369.18 7.19435 369.619 7.55282 370.066 7.85837C370.927 8.43588 371.809 8.82109 372.587 9.10677C372.602 9.02309 372.617 8.93941 372.632 8.85573C371.89 8.54249 371.058 8.13871 370.265 7.57147C369.845 7.26288 369.437 6.9107 369.074 6.50958C368.714 6.10417 368.405 5.64749 368.156 5.15824C367.664 4.17002 367.406 3.07682 367.183 2.04134C367.072 1.52204 366.969 1.01716 366.854 0.537964C366.739 0.0661589 366.633 -0.419641 366.367 -0.838844C366.092 -1.25145 365.716 -1.52684 365.369 -1.68846C365.02 -1.85321 364.709 -1.92558 364.458 -1.98847C363.955 -2.09946 363.674 -2.14022 363.674 -2.14022C363.674 -2.14022 363.39 -2.17983 362.92 -2.26776C362.467 -2.36889 361.769 -2.50992 361.326 -3.08724C361.106 -3.37433 360.988 -3.7671 360.968 -4.22116L360.972 -4.2192Z" fill="url(#paint11_radial_501_3565)"/>
<path style="mix-blend-mode:multiply" opacity="0.45" d="M355.747 18.3481C355.486 17.6287 355.373 16.9925 355.306 16.5454C355.242 16.0971 355.224 15.8377 355.224 15.8377C355.224 15.8377 355.197 15.5744 355.149 15.1129C355.121 14.8749 355.085 14.5793 354.974 14.2337C354.918 14.063 354.843 13.8814 354.731 13.7031C354.679 13.6123 354.607 13.5327 354.535 13.4457C354.465 13.3618 354.394 13.2748 354.301 13.2065C353.953 12.9027 353.494 12.7186 353.024 12.6171C352.551 12.5124 352.063 12.4778 351.573 12.4295C351.083 12.3812 350.584 12.3291 350.12 12.1788C349.66 12.0306 349.252 11.7563 348.984 11.3593C348.719 10.9611 348.598 10.4663 348.552 9.96156C348.5 9.45914 348.509 8.9483 348.497 8.4487C348.485 7.9491 348.464 7.4561 348.36 6.99445C348.26 6.53475 348.104 6.11698 347.917 5.75714C347.543 5.03008 347.07 4.53174 346.71 4.23263C346.346 3.93157 346.107 3.81458 346.098 3.82858C346.082 3.8523 346.302 4.00467 346.628 4.32706C346.953 4.64633 347.377 5.15585 347.699 5.86682C347.861 6.21803 347.99 6.62095 348.066 7.05411C348.145 7.48612 348.151 7.95961 348.146 8.45138C348.141 8.94315 348.117 9.4598 348.158 9.9984C348.192 10.5288 348.302 11.1018 348.615 11.5994C348.925 12.0982 349.441 12.4529 349.966 12.6337C350.496 12.8163 351.024 12.8822 351.519 12.943C352.014 13.0037 352.485 13.0484 352.903 13.1518C353.32 13.2521 353.677 13.4102 353.922 13.6386C354.44 14.0848 354.491 14.7368 354.543 15.1718C354.583 15.6326 354.603 15.895 354.603 15.895C354.603 15.895 354.628 16.1626 354.704 16.6347C354.782 17.1025 354.912 17.7749 355.21 18.5477C355.508 19.31 356.008 20.2033 356.864 20.8431C357.719 21.5008 358.807 21.7062 359.603 22.3186C360.003 22.6279 360.365 22.9901 360.653 23.4012C360.931 23.8158 361.176 24.2536 361.329 24.7115C361.666 25.6187 361.728 26.5472 361.638 27.3156C361.633 27.36 361.627 27.4012 361.618 27.4436C361.711 27.3699 361.803 27.293 361.897 27.2192C362.006 26.4438 361.967 25.5209 361.659 24.5989C361.515 24.106 361.27 23.6293 360.981 23.1761C360.681 22.7234 360.302 22.3175 359.87 21.9672C358.981 21.2654 357.89 21.0254 357.176 20.4322C356.44 19.8577 356.006 19.0538 355.745 18.3449L355.747 18.3481Z" fill="url(#paint12_radial_501_3565)"/>
<path style="mix-blend-mode:multiply" opacity="0.45" d="M341.571 -17.7698C342.186 -17.8248 342.808 -17.9001 343.423 -17.8593C344.032 -17.8162 344.642 -17.6458 345.198 -17.3524C346.323 -16.7735 347.221 -15.8015 347.919 -14.8225C348.614 -13.8319 349.141 -12.807 349.638 -11.9589C350.127 -11.1043 350.582 -10.4148 350.939 -9.96186C351.116 -9.73327 351.264 -9.56472 351.374 -9.45271C351.48 -9.33954 351.543 -9.28488 351.551 -9.29148C351.569 -9.30896 351.365 -9.56292 351.043 -10.036C350.721 -10.5091 350.305 -11.2062 349.853 -12.0779C349.389 -12.9419 348.896 -13.9796 348.207 -15.022C347.515 -16.0496 346.61 -17.0898 345.407 -17.746C344.811 -18.078 344.139 -18.282 343.462 -18.3459C342.787 -18.4036 342.139 -18.3327 341.533 -18.2916C340.927 -18.2506 340.353 -18.2286 339.833 -18.3295C339.31 -18.4187 338.828 -18.5978 338.393 -18.7912C337.525 -19.1884 336.823 -19.6157 336.305 -19.8809C335.789 -20.1504 335.476 -20.2858 335.476 -20.2858C335.476 -20.2858 335.397 -20.3168 335.25 -20.379C335.102 -20.4339 334.884 -20.5232 334.595 -20.6037C334.021 -20.7806 333.148 -20.924 332.121 -20.7936C331.104 -20.6636 329.923 -20.2311 328.951 -19.39C327.979 -18.5699 327.201 -17.4924 326.2 -16.7113C325.204 -15.9251 323.936 -15.5454 322.742 -15.445C321.539 -15.338 320.404 -15.4976 319.448 -15.6918C319.124 -15.7595 318.832 -15.8283 318.55 -15.9006C318.503 -15.8443 318.457 -15.7879 318.412 -15.7285C318.716 -15.6359 319.038 -15.5428 319.397 -15.4563C320.357 -15.2243 321.515 -15.0203 322.767 -15.0995C324.011 -15.1722 325.37 -15.5362 326.468 -16.3637C327.555 -17.1804 328.356 -18.2525 329.283 -18.9952C330.192 -19.7562 331.264 -20.1197 332.19 -20.2266C333.124 -20.3295 333.904 -20.1902 334.417 -20.0227C334.68 -19.9466 334.878 -19.8609 335.015 -19.8087C335.151 -19.7492 335.225 -19.7203 335.225 -19.7203C335.225 -19.7203 335.519 -19.5989 336.021 -19.3458C336.529 -19.0981 337.232 -18.6783 338.161 -18.2715C338.626 -18.0718 339.152 -17.888 339.741 -17.7947C340.333 -17.6921 340.956 -17.7253 341.571 -17.7803L341.571 -17.7698Z" fill="url(#paint13_radial_501_3565)"/>
<path style="mix-blend-mode:multiply" opacity="0.45" d="M336.49 32.8734C336.677 32.3953 336.781 31.8633 336.859 31.3374C336.937 30.8147 336.995 30.2747 336.962 29.7548C336.932 29.2369 336.793 28.7312 336.553 28.3521C336.317 27.9677 336.021 27.7337 335.823 27.5837C335.62 27.4392 335.5 27.3739 335.5 27.3739C335.5 27.3739 335.379 27.3055 335.166 27.2002C334.957 27.0969 334.651 26.9623 334.318 26.7917C333.986 26.6169 333.618 26.3992 333.369 26.0551C333.109 25.7189 333.006 25.2319 332.944 24.7225C332.879 24.2142 332.833 23.6631 332.636 23.172C332.445 22.686 332.147 22.2964 331.849 22.0204C331.24 21.4625 330.682 21.3545 330.68 21.3872C330.655 21.4355 331.165 21.622 331.675 22.1917C331.926 22.4746 332.165 22.8505 332.308 23.2908C332.454 23.73 332.468 24.2358 332.505 24.7651C332.543 25.2869 332.624 25.8747 332.944 26.3446C333.255 26.8181 333.697 27.0901 334.044 27.2949C334.402 27.4951 334.692 27.6356 334.887 27.7404C335.083 27.8452 335.185 27.9101 335.185 27.9101C335.185 27.9101 335.295 27.9684 335.472 28.0802C335.643 28.1974 335.876 28.3735 336.066 28.6543C336.258 28.934 336.392 29.3314 336.443 29.7918C336.494 30.2522 336.467 30.7626 336.418 31.278C336.368 31.7934 336.301 32.301 336.16 32.7512C336.075 33.0278 335.958 33.2771 335.826 33.4933C335.927 33.5161 336.031 33.5378 336.133 33.5563C336.274 33.3515 336.396 33.1177 336.491 32.866L336.49 32.8734Z" fill="url(#paint14_radial_501_3565)"/>
<path style="mix-blend-mode:multiply" opacity="0.45" d="M340.77 4.97139C341.11 5.16065 341.366 5.39916 341.522 5.62848C341.841 6.1027 341.735 6.46847 341.772 6.46194C341.776 6.4639 341.814 6.3826 341.814 6.22257C341.819 6.06449 341.781 5.81949 341.628 5.56058C341.478 5.30052 341.218 5.03163 340.866 4.8112C340.512 4.58453 340.058 4.45186 339.581 4.31368C339.106 4.17434 338.59 4.03645 338.156 3.71887C337.72 3.40557 337.39 2.92119 337.117 2.37698C336.83 1.83742 336.606 1.23569 336.227 0.663589C336.04 0.381632 335.817 0.116722 335.552 -0.118304C335.291 -0.351372 334.976 -0.549914 334.616 -0.650049C334.258 -0.761859 333.859 -0.737486 333.506 -0.616827C333.15 -0.495008 332.854 -0.281548 332.597 -0.0547538C332.088 0.397674 331.689 0.900984 331.219 1.22151C330.761 1.54478 330.216 1.64474 329.696 1.59329C329.175 1.54612 328.686 1.37677 328.255 1.18224C327.824 0.987706 327.443 0.756694 327.097 0.55185C326.751 0.347005 326.443 0.167169 326.181 0.0267687C325.654 -0.25287 325.32 -0.369687 325.32 -0.369687C325.32 -0.369687 325.238 -0.399473 325.08 -0.450851C324.921 -0.497949 324.686 -0.566641 324.374 -0.603195C323.755 -0.692255 322.81 -0.606859 321.884 -0.0915504C320.957 0.413244 320.076 1.28805 319.421 2.38767C319.084 2.94252 318.851 3.54746 318.536 4.08367C318.231 4.62691 317.789 5.0612 317.227 5.33439C316.669 5.60954 316.032 5.74004 315.399 5.80202C314.765 5.86401 314.127 5.85667 313.512 5.84432C312.899 5.8277 312.309 5.78816 311.749 5.73389C311.758 5.83359 311.763 5.93446 311.773 6.03727C312.321 6.1067 312.899 6.1614 313.5 6.19318C314.125 6.22307 314.769 6.24599 315.433 6.19771C316.095 6.14631 316.779 6.02993 317.418 5.732C318.057 5.4477 318.609 4.91905 318.949 4.33461C319.305 3.75489 319.544 3.15815 319.863 2.65971C320.496 1.64298 321.329 0.849828 322.155 0.418001C322.985 -0.0223845 323.772 -0.0738862 324.289 0.00714629C324.551 0.0443634 324.754 0.103637 324.891 0.148347C325.029 0.193059 325.1 0.223206 325.1 0.223206C325.1 0.223206 325.395 0.319297 325.895 0.573562C326.144 0.700695 326.446 0.872337 326.794 1.0729C327.144 1.26919 327.543 1.51115 328.021 1.71669C328.494 1.92028 329.037 2.10144 329.652 2.14961C330.257 2.20126 330.965 2.06508 331.515 1.65441C332.064 1.25853 332.46 0.731077 332.918 0.312014C333.146 0.103063 333.389 -0.072754 333.659 -0.169467C333.928 -0.266179 334.22 -0.293141 334.498 -0.212276C335.063 -0.0676612 335.543 0.399935 335.899 0.899171C336.257 1.40464 336.501 2.00252 336.809 2.55187C337.107 3.1047 337.484 3.63164 337.987 3.97001C338.49 4.31151 339.044 4.43546 339.519 4.55689C340 4.676 340.434 4.78409 340.772 4.97763L340.77 4.97139Z" fill="url(#paint15_radial_501_3565)"/>
</g>
<path style="mix-blend-mode:screen" opacity="0.34" d="M325.075 18.0035C326.485 16.2503 329.939 16.6895 332.787 18.9802C335.636 21.2741 336.8 24.5538 335.389 26.3039C333.98 28.057 330.525 27.6179 327.677 25.3272C324.828 23.0333 323.664 19.7536 325.075 18.0035Z" fill="url(#paint16_radial_501_3565)"/>
<path style="mix-blend-mode:screen" opacity="0.34" d="M317.75 9.86785C318.874 9.1478 320.729 10.0403 321.902 11.865C323.073 13.6865 323.11 15.7495 321.99 16.4684C320.866 17.1884 319.011 16.2959 317.838 14.4713C316.666 12.6466 316.63 10.5867 317.75 9.86785Z" fill="url(#paint17_radial_501_3565)"/>
<path opacity="0.2" d="M36.3776 -88H-30V160.143H293C289.392 154.565 283.57 149.274 274.568 149.79C274.568 149.79 262.217 149.254 257.161 156.748C257.161 156.748 235.823 110.723 186.972 134.807C186.972 134.807 187.534 120.892 175.74 116.609C163.947 112.326 151.596 124.639 151.596 124.639C151.596 124.639 148.227 92.5288 121.833 82.891C95.4448 73.2581 73.5445 90.3849 73.5445 90.3849C73.5445 90.3849 74.6692 85.0349 65.1198 80.216C65.1198 80.216 81.4017 62.5532 58.9444 48.6373C58.9444 48.6373 76.9134 39.5404 62.3132 21.3416C62.3132 21.3416 77.4757 11.7087 70.738 -8.09306L62.6777 -13.8599C62.6777 -13.8599 59.8868 -17.582 52.3628 -14.6589C52.3628 -14.6589 45.9479 -25.0214 33.9616 -23.9593C33.9616 -23.9593 32.5662 -47.3443 4.40723 -50.2674C4.40723 -50.2674 24.4851 -60.3668 18.3513 -78.4366C18.3513 -78.4366 30.0044 -79.7468 36.3828 -88L36.3776 -88Z" fill="url(#paint18_radial_501_3565)"/>
<defs>
<radialGradient id="paint0_radial_501_3565" cx="0" cy="0" r="1" gradientUnits="userSpaceOnUse" gradientTransform="translate(325.712 22.5942) rotate(-110.422) scale(65.5317)">
<stop offset="0.06" stop-color="#FCE085"/>
<stop offset="0.96" stop-color="#E988FD"/>
</radialGradient>
<radialGradient id="paint1_radial_501_3565" cx="0" cy="0" r="1" gradientUnits="userSpaceOnUse" gradientTransform="translate(323.788 24.081) rotate(-110.422) scale(54.1307 54.1307)">
<stop offset="0.06" stop-color="#FCE085"/>
<stop offset="0.96" stop-color="#E988FD"/>
</radialGradient>
<radialGradient id="paint2_radial_501_3565" cx="0" cy="0" r="1" gradientUnits="userSpaceOnUse" gradientTransform="translate(323.635 24.4147) rotate(-110.422) scale(33.887 33.887)">
<stop offset="0.06" stop-color="#FCE085"/>
<stop offset="0.96" stop-color="#E988FD"/>
</radialGradient>
<radialGradient id="paint3_radial_501_3565" cx="0" cy="0" r="1" gradientUnits="userSpaceOnUse" gradientTransform="translate(330.149 20.9424) rotate(-110.422) scale(62.0552)">
<stop offset="0.06" stop-color="#FCE085"/>
<stop offset="0.96" stop-color="#E988FD"/>
</radialGradient>
<radialGradient id="paint4_radial_501_3565" cx="0" cy="0" r="1" gradientUnits="userSpaceOnUse" gradientTransform="translate(349.406 29.3958) rotate(-110.422) scale(9.93721 9.93721)">
<stop offset="0.06" stop-color="#FCE085"/>
<stop offset="0.96" stop-color="#E988FD"/>
</radialGradient>
<radialGradient id="paint5_radial_501_3565" cx="0" cy="0" r="1" gradientUnits="userSpaceOnUse" gradientTransform="translate(328.846 13.8979) rotate(-110.422) scale(53.4687 53.4687)">
<stop offset="0.06" stop-color="#FCE085"/>
<stop offset="0.96" stop-color="#E988FD"/>
</radialGradient>
<radialGradient id="paint6_radial_501_3565" cx="0" cy="0" r="1" gradientUnits="userSpaceOnUse" gradientTransform="translate(357.916 11.5125) rotate(-110.422) scale(12.5987 12.5987)">
<stop offset="0.06" stop-color="#FCE085"/>
<stop offset="0.96" stop-color="#E988FD"/>
</radialGradient>
<radialGradient id="paint7_radial_501_3565" cx="0" cy="0" r="1" gradientUnits="userSpaceOnUse" gradientTransform="translate(328.004 -11.1137) rotate(-110.422) scale(13.467 13.467)">
<stop offset="0.06" stop-color="#FCE085"/>
<stop offset="0.96" stop-color="#E988FD"/>
</radialGradient>
<radialGradient id="paint8_radial_501_3565" cx="0" cy="0" r="1" gradientUnits="userSpaceOnUse" gradientTransform="translate(360.135 -8.0893) rotate(-110.422) scale(14.9408 14.9408)">
<stop offset="0.06" stop-color="#FCE085"/>
<stop offset="0.96" stop-color="#E988FD"/>
</radialGradient>
<radialGradient id="paint9_radial_501_3565" cx="0" cy="0" r="1" gradientUnits="userSpaceOnUse" gradientTransform="translate(329.896 17.5647) rotate(-110.422) scale(14.6813)">
<stop offset="0.06" stop-color="#FCE085"/>
<stop offset="0.96" stop-color="#E988FD"/>
</radialGradient>
<radialGradient id="paint10_radial_501_3565" cx="0" cy="0" r="1" gradientUnits="userSpaceOnUse" gradientTransform="translate(336.297 24.8693) rotate(-110.422) scale(8.05091)">
<stop offset="0.06" stop-color="#FCE085"/>
<stop offset="0.96" stop-color="#E988FD"/>
</radialGradient>
<radialGradient id="paint11_radial_501_3565" cx="0" cy="0" r="1" gradientUnits="userSpaceOnUse" gradientTransform="translate(363.339 -2.7644) rotate(-110.422) scale(10.6691 10.6691)">
<stop offset="0.06" stop-color="#FCE085"/>
<stop offset="0.96" stop-color="#E988FD"/>
</radialGradient>
<radialGradient id="paint12_radial_501_3565" cx="0" cy="0" r="1" gradientUnits="userSpaceOnUse" gradientTransform="translate(354.157 15.5284) rotate(-110.422) scale(10.1169 10.1169)">
<stop offset="0.06" stop-color="#FCE085"/>
<stop offset="0.96" stop-color="#E988FD"/>
</radialGradient>
<radialGradient id="paint13_radial_501_3565" cx="0" cy="0" r="1" gradientUnits="userSpaceOnUse" gradientTransform="translate(334.958 -12.5634) rotate(-110.422) scale(11.9566)">
<stop offset="0.06" stop-color="#FCE085"/>
<stop offset="0.96" stop-color="#E988FD"/>
</radialGradient>
<radialGradient id="paint14_radial_501_3565" cx="0" cy="0" r="1" gradientUnits="userSpaceOnUse" gradientTransform="translate(334.461 27.0825) rotate(-110.422) scale(4.83387)">
<stop offset="0.06" stop-color="#FCE085"/>
<stop offset="0.96" stop-color="#E988FD"/>
</radialGradient>
<radialGradient id="paint15_radial_501_3565" cx="0" cy="0" r="1" gradientUnits="userSpaceOnUse" gradientTransform="translate(326.47 5.15164) rotate(-110.422) scale(10.9918 10.9918)">
<stop offset="0.06" stop-color="#FCE085"/>
<stop offset="0.96" stop-color="#E988FD"/>
</radialGradient>
<radialGradient id="paint16_radial_501_3565" cx="0" cy="0" r="1" gradientUnits="userSpaceOnUse" gradientTransform="translate(330.407 26.0788) rotate(-141.162) scale(11.1548)">
<stop offset="0.06" stop-color="#FCE085"/>
<stop offset="0.96" stop-color="#E988FD"/>
</radialGradient>
<radialGradient id="paint17_radial_501_3565" cx="0" cy="0" r="1" gradientUnits="userSpaceOnUse" gradientTransform="translate(319.229 15.4206) rotate(-122.712) scale(6.61039 6.61039)">
<stop offset="0.06" stop-color="#FCE085"/>
<stop offset="0.96" stop-color="#E988FD"/>
</radialGradient>
<radialGradient id="paint18_radial_501_3565" cx="0" cy="0" r="1" gradientUnits="userSpaceOnUse" gradientTransform="translate(74.6848 -16.3562) scale(178.883 170.499)">
<stop offset="0.06" stop-color="#FCE085"/>
<stop offset="0.96" stop-color="#E988FD"/>
</radialGradient>
</defs>
</svg>
