<svg width="245" height="234" viewBox="0 0 245 234" fill="none" xmlns="http://www.w3.org/2000/svg">
<g clip-path="url(#clip0_6_6610)">
<path d="M125.747 150.926C126.72 149.841 127.178 148.393 126.934 146.957C126.803 146.187 126.787 145.365 126.897 144.527C127.602 139.185 130.128 138.579 132.914 139.008C133.984 139.171 134.913 139.741 135.623 140.577C135.969 140.987 136.427 141.275 136.94 141.43C139.277 142.133 140.583 144.524 140.12 146.785C139.926 147.735 140.137 148.736 140.755 149.484C141.764 150.704 142.321 152.254 142.296 153.868C142.28 154.906 142.782 155.886 143.597 156.53C145.637 158.15 146.674 160.898 145.887 163.671C145.044 166.644 142.208 168.678 139.116 168.534C136.438 168.41 134.264 166.793 133.261 164.587C132.648 163.242 131.425 162.274 129.958 162.088C129.9 162.08 129.842 162.072 129.784 162.063C124.183 161.205 122.442 154.618 125.747 150.931V150.926Z" fill="#1E7DF4"/>
<path d="M126.107 146.478C126.132 146.171 126.332 145.933 126.556 145.952C126.781 145.969 126.942 146.234 126.92 146.542" stroke="#281922" stroke-width="0.98" stroke-miterlimit="10"/>
<path d="M127.987 157.436C127.987 157.436 128.605 158.036 128.262 160.951C128.087 162.415 127.333 165.991 126.418 169.409" stroke="#2D5D5E" stroke-width="1.1" stroke-miterlimit="10"/>
<path d="M138.071 149.343C136.64 152.556 133.072 154.092 130.103 152.775C127.133 151.457 125.822 147.754 127.316 144.568C128.938 141.114 131.752 140.375 134.616 141.911C137.758 143.6 139.504 146.129 138.074 149.343H138.071Z" fill="#1E7DF4"/>
<path d="M127.399 153.785C129.501 154.599 133.84 153.309 134.658 151.214C134.658 151.214 136.26 148.144 136.053 146.921C135.695 144.801 131.555 143.007 129.767 142.656C127.028 142.116 125.658 147.034 125.658 147.034C123.95 150.87 126.482 153.431 127.402 153.785H127.399Z" fill="#FF8F6A"/>
<path d="M133.507 155.434L133.826 152.29C134.184 151.964 134.458 151.604 134.611 151.214C134.611 151.214 136.213 148.144 136.005 146.921C135.648 144.801 131.508 143.007 129.72 142.656C126.981 142.116 125.611 147.034 125.611 147.034C123.903 150.87 126.434 153.431 127.355 153.785C127.848 153.976 128.467 154.048 129.132 154.023L128.874 155.778C127.266 155.994 126.265 156.232 126.265 156.232C126.265 156.232 130.141 168.465 131.874 167.499C133.604 166.533 135.592 155.47 135.592 155.47C134.88 155.434 134.184 155.426 133.513 155.434H133.507Z" fill="#121420"/>
<path d="M136.421 150.92C136.028 151.803 134.902 152.213 133.815 151.798L135.096 148.537C136.18 148.952 137.128 149.334 136.421 150.92Z" fill="#121420"/>
<path d="M136.643 144.485C135.312 143.317 129.567 140.984 129.567 140.984C129.567 140.984 129.742 143.35 131.675 145.664C132.204 146.298 132.917 146.899 133.629 147.413C134.364 147.948 134.736 148.844 134.564 149.733L134.686 149.545C135.043 148.986 135.767 148.795 136.358 149.094C136.358 149.094 137.974 145.653 136.643 144.485Z" fill="#1E7DF4"/>
<path d="M133.995 149.182C133.995 149.182 130.574 145.883 125.725 144.903C125.725 144.903 126.246 140.898 129.207 140.223C131.12 139.786 137.805 142.874 133.998 149.182H133.995Z" fill="#1E7DF4"/>
<path d="M150.961 170.848C148.402 167.541 148.08 156.998 141.736 155.916C141.736 155.916 141.728 155.949 141.714 156.002C141.187 155.924 138.465 155.542 135.587 155.47C135.587 155.47 133.602 166.536 131.869 167.499C130.139 168.465 126.26 156.232 126.26 156.232C126.26 156.232 125.14 159.484 124.704 163.046C124.632 163.641 124.591 164.2 124.577 164.729C124.338 165.504 123.235 169.193 123.082 171.449C122.972 173.065 124.549 174.1 125.703 174.637C124.84 177.557 126.099 179.841 126.692 181.501C127.494 183.746 127.807 186.342 132.335 187.048C132.645 187.673 132.834 188.039 132.834 188.039C137.541 189.453 141.822 189.173 142.352 173.181C142.363 172.822 142.36 172.193 142.346 171.388C145.416 176.057 144.201 181.23 148.343 181.227C149.45 181.227 151.773 181.116 152.827 178.758C154.207 175.67 153.182 173.718 150.961 170.848Z" fill="url(#paint0_linear_6_6610)"/>
<path d="M148.501 174.216C146.186 173.525 139.208 173.505 135.864 173.342L134.822 173.165C134.553 173.098 134.334 173.043 134.334 173.043C134.334 173.046 134.331 173.048 134.328 173.054C133.599 172.808 130.729 171.847 130.582 171.925L128.988 172.384C128.772 172.495 128.783 172.808 129.01 172.902C129.379 173.054 129.49 173.126 129.875 173.018L130.219 172.924L131.14 173.262L128.775 173.394L127.724 173.61C127.46 173.671 127.222 173.821 127.05 174.031C127.05 174.031 126.978 174.172 126.995 174.239C127.011 174.308 127.058 174.363 127.122 174.391C127.122 174.391 127.372 174.549 127.926 174.471L128.863 174.277L130.449 174.172C130.86 174.208 130.579 174.319 130.48 174.33L128.628 174.518L127.219 174.847C126.956 174.908 126.717 175.058 126.545 175.268L126.534 175.282C126.49 175.337 126.473 175.407 126.49 175.476C126.507 175.545 126.554 175.6 126.617 175.628L126.634 175.636C126.881 175.747 127.158 175.772 127.422 175.708L128.716 175.401L130.921 175.351C131.311 175.398 131.106 175.542 130.932 175.551L129.504 175.614L128.079 175.866C127.81 175.913 127.566 176.049 127.383 176.248L127.369 176.262C127.322 176.314 127.302 176.384 127.313 176.453C127.324 176.522 127.369 176.58 127.433 176.613L127.449 176.622C127.69 176.746 127.965 176.785 128.231 176.738L129.543 176.503H131.317C131.378 176.503 131.397 176.586 131.345 176.613L131.167 176.705L129.75 176.962L128.716 176.865C128.395 176.871 128.195 177.012 128.084 177.311C128.037 177.433 128.129 177.565 128.259 177.565L129.653 177.776L131.289 177.646L131.999 177.466L136.557 176.442L144.65 179.904C144.65 179.904 146.017 180.812 148.709 180.485C152.669 180.001 153.231 175.634 148.504 174.222L148.501 174.216Z" fill="#121420"/>
<path d="M122.35 211.913C122.378 212.373 122.417 212.896 122.461 213.472H133.13L133.574 209.583L135.31 195.055L137.417 213.472H148.399L148.903 209.583C149.056 206.76 149.791 203.402 149.99 199.071C150.664 184.341 144.002 180.214 144.002 180.214L142.385 177.546C135.667 181.263 128.403 182.182 125.608 178.266L125.811 181.2C122.425 187.527 122.029 206.524 122.356 211.913H122.35Z" fill="url(#paint1_linear_6_6610)"/>
<path d="M144.035 180.322L142.418 177.654C135.7 181.371 128.436 182.29 125.642 178.374L125.844 181.307C125.844 181.307 129.421 186.026 144.035 180.325V180.322Z" fill="#E8F1FF"/>
<path d="M111.03 179.857C109.849 179.204 107.573 178.706 106.561 182.046C106.549 181.944 106.538 181.842 106.527 181.745C105.867 175.761 101.343 178.196 99.948 179.016C93.1274 183.032 94.217 198.946 96.8898 213.472H107.794C107.717 208.664 107.609 202.849 107.426 197.291C108.817 203.865 110.914 210.344 111.984 213.472H121.832C121.946 207.092 123.751 186.907 111.03 179.857Z" fill="url(#paint2_linear_6_6610)"/>
<path d="M118.594 152.155L118.541 147.602L115.402 146.658L114.216 147.84C114.216 147.84 114.055 148.568 113.911 149.21C113.694 150.181 111.232 155.789 115.56 157.198C119.345 158.429 118.596 152.16 118.596 152.155H118.594Z" fill="#1E7DF4"/>
<path d="M120.679 152.138L119.481 151.767C117.82 151.255 116.373 150.151 115.566 148.615C114.615 146.807 114.723 144.936 114.898 143.002C114.898 143.002 113.755 141.87 114.596 140.801C116.054 138.944 120.989 139.373 122.899 139.968C125.825 140.879 124.571 146.342 124.571 146.342C124.33 149.406 123.31 151.072 122.411 151.82C121.935 152.218 121.275 152.321 120.681 152.138H120.679Z" fill="#1E7DF4"/>
<path d="M125.262 137.701C124.721 137.627 124.313 137.206 124.111 136.7C123.889 136.146 123.293 135.612 121.799 135.692C119.758 135.8 118.463 136.406 117.266 136.724C117.967 135.9 118.169 134.77 118.169 134.77C117.357 136.046 116.215 136.647 116.215 136.647C113.442 135.767 112.305 138.119 112.305 138.119C112.663 137.452 113.367 137.203 114.091 137.142C112.71 137.754 111.598 139.584 112.502 143.683C112.547 143.89 112.585 144.087 112.619 144.283H112.591C113.401 146.212 113.29 147.707 113.154 148.418L113.035 148.88C113.035 148.88 113.148 149.044 113.323 149.229L113.653 149.625L115.832 150.342C115.832 150.342 116.292 146.373 117.188 145.042C118.053 143.757 120.831 141.939 121.017 141.817C122.794 142.257 124.571 142.515 125.065 141.884C125.827 140.904 126.967 137.939 125.256 137.701H125.262Z" fill="#121420"/>
<path d="M115.316 145.617C115.233 146.675 116.107 147.66 117.371 147.826L117.687 145.266C117.792 144.419 116.952 143.716 116.159 144.04C115.705 144.225 115.388 144.668 115.314 145.617H115.316Z" fill="#1E7DF4"/>
<path d="M125.971 157.496C125.453 156.519 121.574 153.995 118.655 152.598C114.848 155.172 113.384 151.546 113.312 151.266C112.233 151.211 110.999 151.277 109.805 151.524C106.597 152.185 103.392 152.376 102.38 153.694C101.811 154.433 97.2752 169.326 95.4924 177.914C94.5082 182.653 95.5451 183.48 95.5451 183.48C95.9749 185.415 114.224 192.107 119.19 188.028C121.411 186.201 121.63 176.802 121.63 176.802C124.139 168.728 126.8 159.052 125.974 157.496H125.971Z" fill="url(#paint3_linear_6_6610)"/>
<path d="M102.981 173.56C102.335 171.523 100.453 156.973 101.567 154.809C103.888 150.303 109.608 152.022 111.255 159.069C111.806 161.429 112.597 167.602 112.674 171.189C112.799 176.97 109.791 177.311 108.773 177.482C106.943 177.792 103.799 176.132 102.981 173.56Z" fill="url(#paint4_linear_6_6610)"/>
<path d="M123.886 170.699L127.067 169.533L129.204 171.767C128.675 172.058 128.015 171.966 127.585 171.543L126.897 170.867L123.886 170.699Z" fill="#2F8CF2"/>
<path d="M120.18 173.45L121.685 173.569L123.886 170.699L127.067 169.985L128.816 172.561C128.386 172.799 127.846 172.672 127.568 172.265L127.494 172.154L127.79 173.12L126.997 174.045C126.812 173.787 126.784 173.447 126.92 173.162L126.986 173.024L126.64 172.633C126.64 172.633 123.74 175.584 122.456 175.946C121.788 176.135 119.703 175.617 119.703 175.617L120.18 173.45Z" fill="#1E7DF4"/>
<path d="M127.491 172.154L127.028 171.308L124.937 171.321L127.125 170.801L127.491 172.154Z" fill="#2F8CF2"/>
<path d="M126.64 172.633L126.182 172.21L125.203 172.451L126.227 172.675L126.448 172.824L126.64 172.633Z" fill="#2F8CF2"/>
<path d="M126.124 173.14L125.752 172.763L125.292 172.572L125.697 172.913L126.016 173.245L126.124 173.14Z" fill="#2F8CF2"/>
<path d="M106.156 175.404C108.302 176.732 111.537 176.35 111.537 176.35L121.923 175.885C121.826 175.542 122.497 174.908 122.619 174.374C122.78 173.674 122.431 173.057 122.564 172.597C122.564 172.597 118.602 172.536 117.523 172.224C110.933 170.311 110.442 168.858 107.803 168.639C103.55 168.288 103.001 173.45 106.156 175.401V175.404Z" fill="#1E7DF4"/>
<path d="M158.427 189.821L158.128 191.85L151.845 234H97.4942L90.1718 191.85L89.8169 189.821H158.427Z" fill="#99CBFC"/>
<path d="M111.51 189.821L111.421 191.85L109.594 234H101.656L98.6199 191.85L98.473 189.821H111.51Z" fill="#D5E8FE"/>
<path d="M128.547 189.821L128.486 191.85L127.216 234H120.498L118.339 191.85L118.233 189.821H128.547Z" fill="#D5E8FE"/>
<path d="M147.24 189.821L147.126 191.85L144.833 234H137.092L134.949 191.85L134.844 189.821H147.24Z" fill="#D5E8FE"/>
<path d="M89.0387 125.033L88.274 125.104L94.0029 186.404L94.7676 186.333L89.0387 125.033Z" fill="#1E7DF4"/>
<path d="M152.171 186.33L152.936 186.401L158.665 125.101L157.9 125.03L152.171 186.33Z" fill="#1E7DF4"/>
<path d="M163.13 189.821H83.3984L82.4252 182.924H164.508L163.13 189.821Z" fill="#1E7DF4"/>
<path d="M124.704 0.011076C113.789 -0.185435 102.826 2.56572 93.2827 7.87427C82.0121 14.1405 72.7628 23.9162 66.9875 35.4328C61.8721 45.6348 59.4655 57.3452 61.1956 68.6238C64.4533 89.8663 81.3467 106.489 87.9787 126.932C88.2588 127.796 102.69 126.91 103.949 126.907C110.281 126.888 116.614 126.868 122.944 126.852C135.609 126.813 148.271 126.777 160.937 126.738C166.878 106.691 182.213 89.9576 185.621 69.3323C188.848 49.7892 180.195 29.2552 165.326 16.1416C155.655 7.61134 143.428 1.92083 130.613 0.412401C128.65 0.179909 126.678 0.0498246 124.704 0.0138438V0.011076Z" fill="url(#paint5_linear_6_6610)"/>
<path d="M118.788 0.373657C118.788 0.373657 24.3008 15.2808 94.2281 125.158L99.4544 125.418C99.4544 125.418 46.6478 22.751 118.788 0.373657Z" fill="url(#paint6_linear_6_6610)"/>
<path d="M120.213 0.786041C120.213 0.786041 65.9006 27.4285 118.025 124.256H120.881C120.881 124.256 100.636 50.2126 120.213 0.786041Z" fill="url(#paint7_linear_6_6610)"/>
<path d="M128.145 0.373657C128.145 0.373657 222.632 15.2808 152.705 125.158L147.478 125.418C147.478 125.418 200.288 22.751 128.145 0.373657Z" fill="url(#paint8_linear_6_6610)"/>
<path d="M126.72 0.786041C126.72 0.786041 181.032 27.4285 128.908 124.256H126.052C126.052 124.256 146.297 50.2126 126.72 0.786041Z" fill="url(#paint9_linear_6_6610)"/>
<path d="M163.13 128.28H83.3984L82.4252 121.383H164.508L163.13 128.28Z" fill="#1E7DF4"/>
<path d="M123.468 78.2445C109.652 78.2445 98.4147 67.024 98.4147 53.235C98.4147 39.4461 109.655 28.2256 123.468 28.2256C137.281 28.2256 148.521 39.4461 148.521 53.235C148.521 67.024 137.281 78.2445 123.468 78.2445ZM123.468 28.8096C109.976 28.8096 98.9997 39.7671 98.9997 53.235C98.9997 66.7029 109.976 77.6605 123.468 77.6605C136.959 77.6605 147.936 66.7029 147.936 53.235C147.936 39.7671 136.959 28.8096 123.468 28.8096Z" fill="#F2F2F2"/>
<path d="M123.468 75.3743C135.718 75.3743 145.648 65.461 145.648 53.2323C145.648 41.0035 135.718 31.0902 123.468 31.0902C111.218 31.0902 101.287 41.0035 101.287 53.2323C101.287 65.461 111.218 75.3743 123.468 75.3743Z" fill="#F2F2F2"/>
<path d="M123.199 45.6874C123.199 45.6874 116.922 38.6739 112.206 42.1668C103.921 48.3029 123.326 65.3689 123.326 65.3689C123.326 65.3689 143.408 49.374 134.508 42.2803C129.487 38.2781 123.199 45.6874 123.199 45.6874Z" fill="#1E7DF4"/>
<path d="M123.39 62.5624C118.524 57.979 112.089 50.4036 112.272 46.0915C112.314 45.1338 112.682 44.4474 113.47 43.8634C113.986 43.4815 114.518 43.3043 115.153 43.3043C117.656 43.3043 120.673 46.0416 121.624 47.0989L123.246 48.898L124.815 47.0546C125.727 45.9863 128.664 43.2102 131.206 43.2102C131.927 43.2102 132.576 43.4482 133.186 43.9326C134.195 44.738 134.666 45.6708 134.666 46.872C134.666 51.7847 127.471 59.0307 123.39 62.5651V62.5624Z" fill="#4590EB"/>
<path d="M123.448 59.6756C118.092 54.3283 114.279 48.7098 114.385 46.1828C114.399 45.8811 114.44 45.7787 114.729 45.5628C114.878 45.4521 114.973 45.4217 115.15 45.4217C116.506 45.4217 118.907 47.2511 120.046 48.516L123.288 52.1113L126.426 48.4247C127.507 47.1598 129.836 45.3248 131.203 45.3248C131.403 45.3248 131.589 45.3691 131.863 45.5877C132.434 46.0416 132.545 46.4042 132.545 46.8747C132.545 49.9885 128.178 55.3219 123.446 59.6784L123.448 59.6756Z" fill="#61A1EE"/>
<path d="M165.844 143.835L163.288 143.447L162.156 141.125L161.261 142.91C160.351 140.882 158.023 137.311 152.178 133.899L152.658 135.695C152.658 135.695 150.584 133.763 144.742 134.04L149.777 136.641L147.259 137.571C147.259 137.571 153.334 135.515 160.801 143.458L158.433 143.788L160.274 145.601L159.822 148.144L162.118 146.957L164.399 148.172L163.978 145.623L165.841 143.832L165.844 143.835Z" fill="url(#paint10_linear_6_6610)"/>
<path d="M49.9648 120.036C53.1081 117.754 53.8036 113.361 51.5182 110.223C49.2328 107.086 44.8319 106.391 41.6886 108.673C38.5453 110.954 37.8498 115.347 40.1353 118.485C42.4207 121.623 46.8215 122.317 49.9648 120.036Z" fill="url(#paint11_linear_6_6610)"/>
<path d="M7.75956 210.693C7.21336 210.693 6.66161 210.632 6.1071 210.507C2.10071 209.599 -0.419566 205.606 0.489842 201.603C0.930683 199.666 2.10071 198.016 3.78644 196.956C5.47218 195.896 7.46844 195.556 9.40924 195.996C13.4156 196.904 15.9359 200.898 15.0265 204.9C14.2419 208.348 11.1615 210.693 7.75956 210.693ZM6.29286 209.696C8.01741 210.087 9.79186 209.785 11.2891 208.844C12.7863 207.903 13.826 206.436 14.2169 204.714C14.6078 202.993 14.3056 201.221 13.3629 199.727C12.4203 198.232 10.9508 197.194 9.22625 196.804C7.50171 196.411 5.72725 196.716 4.23006 197.657C2.73286 198.598 1.69314 200.065 1.30221 201.786C0.492614 205.34 2.73286 208.888 6.29286 209.696Z" fill="url(#paint12_linear_6_6610)"/>
<path d="M242.121 189.45C244.843 187.719 245.644 184.112 243.91 181.394C242.176 178.677 238.563 177.877 235.84 179.609C233.118 181.34 232.317 184.947 234.051 187.664C235.786 190.382 239.399 191.181 242.121 189.45Z" fill="url(#paint13_linear_6_6610)"/>
<path d="M192.067 220.416C191.646 220.416 191.216 220.369 190.789 220.272C187.686 219.569 185.735 216.475 186.442 213.377C186.783 211.877 187.689 210.599 188.995 209.779C190.298 208.96 191.845 208.694 193.348 209.038C196.451 209.741 198.402 212.835 197.698 215.932C197.091 218.6 194.707 220.416 192.073 220.416H192.067ZM190.93 219.646C192.264 219.948 193.639 219.716 194.798 218.988C195.957 218.26 196.761 217.125 197.066 215.791C197.368 214.457 197.135 213.087 196.406 211.93C195.677 210.773 194.54 209.97 193.204 209.666C191.867 209.361 190.495 209.597 189.336 210.325C188.177 211.053 187.373 212.187 187.068 213.521C186.442 216.273 188.174 219.021 190.93 219.646Z" fill="url(#paint14_linear_6_6610)"/>
<path d="M28.086 233.236C30.4723 231.753 31.2017 228.619 29.7153 226.236C28.2288 223.854 25.0893 223.126 22.703 224.61C20.3168 226.094 19.5873 229.228 21.0738 231.61C22.5603 233.992 25.6998 234.72 28.086 233.236Z" fill="url(#paint15_linear_6_6610)"/>
</g>
<defs>
<linearGradient id="paint0_linear_6_6610" x1="123.08" y1="172.024" x2="153.453" y2="172.024" gradientUnits="userSpaceOnUse">
<stop stop-color="#DEEBFB"/>
<stop offset="1" stop-color="#1674E6"/>
</linearGradient>
<linearGradient id="paint1_linear_6_6610" x1="136.066" y1="212.063" x2="136.296" y2="184.335" gradientUnits="userSpaceOnUse">
<stop stop-color="#DEEBFB"/>
<stop offset="0.11" stop-color="#D7E7FA"/>
<stop offset="0.25" stop-color="#C5DCF8"/>
<stop offset="0.42" stop-color="#A8CBF5"/>
<stop offset="0.61" stop-color="#80B3F1"/>
<stop offset="0.81" stop-color="#4C94EB"/>
<stop offset="1" stop-color="#1674E6"/>
</linearGradient>
<linearGradient id="paint2_linear_6_6610" x1="108.371" y1="213.496" x2="108.432" y2="186.384" gradientUnits="userSpaceOnUse">
<stop stop-color="#DEEBFB"/>
<stop offset="0.11" stop-color="#D7E7FA"/>
<stop offset="0.25" stop-color="#C5DCF8"/>
<stop offset="0.42" stop-color="#A8CBF5"/>
<stop offset="0.61" stop-color="#80B3F1"/>
<stop offset="0.81" stop-color="#4C94EB"/>
<stop offset="1" stop-color="#1674E6"/>
</linearGradient>
<linearGradient id="paint3_linear_6_6610" x1="95.0655" y1="170.286" x2="126.124" y2="170.286" gradientUnits="userSpaceOnUse">
<stop stop-color="#DEEBFB"/>
<stop offset="0.11" stop-color="#CFE2F9"/>
<stop offset="0.33" stop-color="#AACCF5"/>
<stop offset="0.62" stop-color="#6DA8EF"/>
<stop offset="0.98" stop-color="#1B77E6"/>
<stop offset="1" stop-color="#1674E6"/>
</linearGradient>
<linearGradient id="paint4_linear_6_6610" x1="111.529" y1="164.413" x2="100.14" y2="165.618" gradientUnits="userSpaceOnUse">
<stop stop-color="#DEEBFB"/>
<stop offset="0.11" stop-color="#D7E7FA"/>
<stop offset="0.25" stop-color="#C5DCF8"/>
<stop offset="0.42" stop-color="#A8CBF5"/>
<stop offset="0.61" stop-color="#80B3F1"/>
<stop offset="0.81" stop-color="#4C94EB"/>
<stop offset="1" stop-color="#1674E6"/>
</linearGradient>
<linearGradient id="paint5_linear_6_6610" x1="123.468" y1="118.72" x2="123.468" y2="-6.71734" gradientUnits="userSpaceOnUse">
<stop stop-color="#DEEBFB"/>
<stop offset="0.1" stop-color="#D7E7FA"/>
<stop offset="0.24" stop-color="#C5DCF8"/>
<stop offset="0.41" stop-color="#A8CBF5"/>
<stop offset="0.59" stop-color="#80B3F1"/>
<stop offset="0.78" stop-color="#4C94EB"/>
<stop offset="0.96" stop-color="#1674E6"/>
</linearGradient>
<linearGradient id="paint6_linear_6_6610" x1="93.6209" y1="13.1441" x2="93.6209" y2="108.07" gradientUnits="userSpaceOnUse">
<stop stop-color="#DEEBFB"/>
<stop offset="0.1" stop-color="#D6E6FA"/>
<stop offset="0.25" stop-color="#C2DAF8"/>
<stop offset="0.42" stop-color="#A1C6F4"/>
<stop offset="0.63" stop-color="#72ABEF"/>
<stop offset="0.84" stop-color="#3888E9"/>
<stop offset="0.96" stop-color="#1674E6"/>
</linearGradient>
<linearGradient id="paint7_linear_6_6610" x1="108.147" y1="23.7972" x2="108.147" y2="115.108" gradientUnits="userSpaceOnUse">
<stop stop-color="#DEEBFB"/>
<stop offset="0.14" stop-color="#C7DDF8"/>
<stop offset="0.43" stop-color="#8EBBF2"/>
<stop offset="0.84" stop-color="#3285E9"/>
<stop offset="0.96" stop-color="#1674E6"/>
</linearGradient>
<linearGradient id="paint8_linear_6_6610" x1="153.312" y1="1.00295e-05" x2="153.312" y2="108.07" gradientUnits="userSpaceOnUse">
<stop stop-color="#DEEBFB"/>
<stop offset="0.1" stop-color="#D6E6FA"/>
<stop offset="0.25" stop-color="#C2DAF8"/>
<stop offset="0.42" stop-color="#A1C6F4"/>
<stop offset="0.63" stop-color="#72ABEF"/>
<stop offset="0.84" stop-color="#3888E9"/>
<stop offset="0.96" stop-color="#1674E6"/>
</linearGradient>
<linearGradient id="paint9_linear_6_6610" x1="138.786" y1="23.7972" x2="138.786" y2="115.108" gradientUnits="userSpaceOnUse">
<stop stop-color="#DEEBFB"/>
<stop offset="0.14" stop-color="#C7DDF8"/>
<stop offset="0.43" stop-color="#8EBBF2"/>
<stop offset="0.84" stop-color="#3285E9"/>
<stop offset="0.96" stop-color="#1674E6"/>
</linearGradient>
<linearGradient id="paint10_linear_6_6610" x1="165.165" y1="144.707" x2="145.971" y2="136.964" gradientUnits="userSpaceOnUse">
<stop stop-color="#E98963"/>
<stop offset="0.17" stop-color="#E98162"/>
<stop offset="0.43" stop-color="#EA6D60"/>
<stop offset="0.73" stop-color="#EC4C5D"/>
<stop offset="1" stop-color="#EF2A5A"/>
</linearGradient>
<linearGradient id="paint11_linear_6_6610" x1="42.0146" y1="119.844" x2="49.0539" y2="109.668" gradientUnits="userSpaceOnUse">
<stop stop-color="#DEEBFB"/>
<stop offset="1" stop-color="#1E7DF4"/>
</linearGradient>
<linearGradient id="paint12_linear_6_6610" x1="3.50919" y1="209.364" x2="11.9816" y2="197.122" gradientUnits="userSpaceOnUse">
<stop stop-color="#DEEBFB"/>
<stop offset="1" stop-color="#1E7DF4"/>
</linearGradient>
<linearGradient id="paint13_linear_6_6610" x1="235.822" y1="189.089" x2="241.67" y2="180.636" gradientUnits="userSpaceOnUse">
<stop stop-color="#DEEBFB"/>
<stop offset="1" stop-color="#1E7DF4"/>
</linearGradient>
<linearGradient id="paint14_linear_6_6610" x1="188.776" y1="219.389" x2="195.337" y2="209.91" gradientUnits="userSpaceOnUse">
<stop stop-color="#DEEBFB"/>
<stop offset="1" stop-color="#1E7DF4"/>
</linearGradient>
<linearGradient id="paint15_linear_6_6610" x1="22.6238" y1="232.883" x2="27.718" y2="225.524" gradientUnits="userSpaceOnUse">
<stop stop-color="#DEEBFB"/>
<stop offset="1" stop-color="#1E7DF4"/>
</linearGradient>
<clipPath id="clip0_6_6610">
<rect width="244.522" height="234" fill="white" transform="translate(0.304077)"/>
</clipPath>
</defs>
</svg>
