<svg width="102" height="96" viewBox="0 0 102 96" fill="none" xmlns="http://www.w3.org/2000/svg">
<g clip-path="url(#clip0_6_8800)">
<g clip-path="url(#clip1_6_8800)">
<path d="M63.4283 52.3605C75.7834 45.7438 80.4352 30.3641 73.8185 18.009C67.2017 5.65397 51.822 1.00215 39.467 7.61888C27.1119 14.2356 22.4601 29.6153 29.0768 41.9703C35.6936 54.3254 51.0732 58.9772 63.4283 52.3605Z" fill="url(#paint0_radial_6_8800)"/>
<path style="mix-blend-mode:screen" opacity="0.45" d="M65.2437 40.9682C61.2134 41.4148 57.8617 37.6464 57.2519 33.4513C56.7697 30.1144 57.018 26.2488 54.6765 23.5257C52.4638 20.9602 48.6151 20.4545 46.1269 18.1493C41.7403 14.0944 45.4181 9.32027 50.1032 7.90752C56.0311 6.11394 64.3136 11.0902 68.0875 15.3932C73.7298 21.8267 77.0513 35.0816 67.7475 40.1531C66.8969 40.6192 66.0598 40.8775 65.249 40.9635L65.2437 40.9682Z" fill="url(#paint1_radial_6_8800)"/>
<path style="mix-blend-mode:multiply" opacity="0.45" d="M75.3247 38.6017C75.1613 38.7451 75.007 38.899 74.8436 39.0424C65.9105 46.8768 52.3203 45.9864 44.4905 37.0586C36.6607 28.1307 37.5465 14.5353 46.4796 6.70084C47.3233 5.96087 48.2067 5.29805 49.1298 4.71239C43.9745 5.18477 38.9152 7.22413 34.7229 10.9009C24.1867 20.1412 23.1361 36.1763 32.3765 46.7125C41.6168 57.2487 57.6519 58.2993 68.1881 49.0589C71.5367 46.1222 73.9211 42.5009 75.3254 38.5918L75.3247 38.6017Z" fill="url(#paint2_radial_6_8800)"/>
<g style="mix-blend-mode:screen">
<path style="mix-blend-mode:multiply" opacity="0.45" d="M72.5495 38.7778C72.7757 38.6634 73.0019 38.549 73.2287 38.4247C73.2768 38.2986 73.3294 38.1778 73.3774 38.0517C73.2245 38.1858 73.0861 38.3258 72.9332 38.46C72.8066 38.571 72.6807 38.6721 72.5495 38.7778Z" fill="url(#paint3_radial_6_8800)"/>
<path style="mix-blend-mode:multiply" opacity="0.45" d="M37.8359 42.9598C29.3493 33.2831 30.3144 18.5546 39.991 10.0681C40.2388 9.85073 40.4966 9.63402 40.7484 9.43182C39.1071 10.2836 37.5418 11.3391 36.0864 12.6155C26.4098 21.1021 25.4447 35.8306 33.9313 45.5072C42.4178 55.1838 56.3749 56.0884 66.0503 48.3026C56.7535 53.1161 45.0407 51.1856 37.8306 42.9644L37.8359 42.9598Z" fill="url(#paint4_radial_6_8800)"/>
</g>
<path d="M32.9592 33.4103C32.9814 33.2229 31.4133 32.8816 29.8084 32.7217C28.2088 32.5573 26.5876 32.5703 26.5876 32.5703C26.5876 32.5703 26.4424 32.5857 26.2069 32.615C26.2569 33.0656 26.3122 33.5116 26.382 33.9635C26.5608 33.9653 26.6657 33.9572 26.6657 33.9572C26.6657 33.9572 28.2174 33.7905 29.7838 33.7042C31.3507 33.6081 32.937 33.5977 32.9546 33.405L32.9592 33.4103Z" fill="url(#paint5_radial_6_8800)"/>
<path d="M37.1616 44.9783C37.1443 44.7883 35.18 44.8037 33.2308 44.7406C32.3327 44.7165 31.4406 44.678 30.7319 44.6464C31.028 45.0585 31.3346 45.4613 31.6564 45.8601C32.1657 45.8239 32.7199 45.7857 33.2708 45.7224C35.2422 45.5235 37.1843 45.1637 37.1669 44.9736L37.1616 44.9783Z" fill="url(#paint6_radial_6_8800)"/>
<path d="M45.6142 38.2555C44.7343 38.5607 43.7732 38.8158 42.7579 38.9879C40.7221 39.3366 38.4913 39.3992 36.2465 39.3714C34.0017 39.3436 31.7272 39.2393 29.5928 39.348C29.0194 39.375 28.4606 39.408 27.9149 39.4667C28.0089 39.7015 28.1029 39.9363 28.2067 40.1717C28.6706 40.1474 29.1338 40.133 29.6161 40.1299C31.7156 40.0984 33.9559 40.2701 36.2265 40.3592C38.4971 40.4483 40.7933 40.4497 42.9466 40.1285C44.0206 39.9703 45.0556 39.7249 46.0153 39.415C46.4975 39.2627 46.9519 39.0788 47.3911 38.8988C47.8258 38.7136 48.3078 38.4867 48.7132 38.0659C49.1237 37.6405 49.3316 37.0478 49.3442 36.5516C49.3674 36.0461 49.2712 35.6173 49.1474 35.2315C49.0229 34.8555 48.8662 34.5172 48.7048 34.2482C48.5442 33.9692 48.4179 33.6975 48.2527 33.4879C48.098 33.269 47.9619 33.0712 47.8436 32.9044C47.7094 32.7515 47.5892 32.6144 47.4967 32.5089C47.3071 32.2927 47.21 32.182 47.21 32.182C47.21 32.182 47.1023 32.0805 46.8916 31.8828C46.7885 31.7865 46.6624 31.664 46.5072 31.5295C46.3467 31.3997 46.1571 31.2581 45.9537 31.1006C45.1098 30.4787 43.8077 29.7174 42.1502 29.1466C40.4993 28.5513 38.5147 28.1181 36.3851 27.8493C34.2655 27.5812 31.9967 27.3878 29.7209 27.3033C28.551 27.2565 27.3791 27.2393 26.2204 27.2479C26.1865 27.5389 26.167 27.8359 26.1429 28.1276C27.3043 28.1539 28.4887 28.2067 29.6712 28.2892C34.1479 28.6173 38.6505 29.1558 41.7082 30.3552C43.2515 30.9236 44.3978 31.6349 45.1315 32.1949C45.3111 32.3359 45.4716 32.4657 45.613 32.5843C45.7497 32.6976 45.8514 32.8136 45.9406 32.894C46.1183 33.0647 46.2121 33.1504 46.2121 33.1504C46.2121 33.1504 46.3 33.2506 46.4572 33.4299C46.5358 33.5195 46.6376 33.6356 46.7532 33.7674C46.8583 33.9085 46.9766 34.0753 47.1087 34.2579C47.2561 34.4365 47.3606 34.6621 47.504 34.9001C47.6521 35.1434 47.7751 35.3901 47.8718 35.6598C48.0644 36.2092 48.1133 36.8288 47.7666 37.1888C47.5894 37.3909 47.2643 37.5734 46.8646 37.7559C46.4656 37.9286 46.0508 38.1151 45.6089 38.2602L45.6142 38.2555Z" fill="url(#paint7_radial_6_8800)"/>
<path d="M53.6935 53.4673C52.2459 52.8804 50.7521 52.3898 49.6076 52.1061C49.0367 51.9444 48.5543 51.8731 48.2216 51.7916C47.8884 51.7201 47.6923 51.6774 47.6923 51.6774C47.6923 51.6774 47.495 51.6545 47.1545 51.6173C46.8133 51.59 46.3263 51.5133 45.7364 51.4896C44.5592 51.4025 42.9881 51.4089 41.4297 51.5255C40.4797 51.6124 39.5363 51.7494 38.6958 51.908C39.0933 52.1379 39.4914 52.3578 39.8955 52.5632C40.4141 52.5375 40.9426 52.5125 41.4797 52.508C42.9947 52.5227 44.5044 52.6167 45.623 52.7645C46.1859 52.8213 46.6466 52.9211 46.9719 52.9623C47.2966 53.0133 47.4834 53.0455 47.4834 53.0455C47.4834 53.0455 47.6702 53.0776 47.9902 53.1234C48.3143 53.1844 48.7835 53.2301 49.3326 53.3456C50.4427 53.5475 51.9046 53.9167 53.3508 54.3743C53.9924 54.5952 54.6287 54.8208 55.2295 55.059C55.6563 54.9925 56.0785 54.9208 56.5066 54.8345C55.6727 54.3624 54.7003 53.8812 53.6948 53.4475L53.6935 53.4673Z" fill="url(#paint8_radial_6_8800)"/>
<path d="M60.0971 39.4828C60.0971 39.4828 60.3108 39.4073 60.7297 39.3851C61.1441 39.3576 61.7723 39.4037 62.5439 39.6133C63.3108 39.8176 64.2528 40.1577 65.2554 40.4818C66.2627 40.8113 67.3327 41.1697 68.408 41.5234C70.0918 42.0711 71.7757 42.6189 73.2027 43.0653C73.3193 42.879 73.4214 42.6869 73.528 42.5001C72.1193 41.9256 70.4333 41.2585 68.7368 40.6006C67.6852 40.1887 66.6284 39.7815 65.6442 39.4039C64.6546 39.0309 63.7549 38.6538 62.8876 38.3883C62.0354 38.1187 61.2422 38.0121 60.6695 38.0292C60.0967 38.0464 59.7676 38.1391 59.7676 38.1391C59.7676 38.1391 59.6865 38.1636 59.5348 38.2034C59.387 38.2583 59.1641 38.3232 58.9069 38.4555C58.3833 38.7095 57.6956 39.1913 57.1277 39.9692C56.5605 40.7372 56.1044 41.7809 56.0266 42.9687C55.9494 44.1466 56.2319 45.3729 56.7682 46.4419C57.2993 47.5155 58.048 48.4542 58.8439 49.2022C59.6399 49.9502 60.4666 50.5312 61.1923 50.9863C62.396 51.7312 63.2959 52.1828 63.6028 52.2775C63.6338 52.2597 63.6595 52.2464 63.6905 52.2286C63.5194 52.0335 62.6596 51.4254 61.5045 50.5446C60.8422 50.0339 60.0925 49.4132 59.3969 48.6519C58.7052 47.9058 58.078 47.0098 57.6651 46.0284C57.2417 45.0563 57.0723 44.0015 57.1781 43.069C57.2839 42.1365 57.6901 41.3232 58.15 40.7519C58.6152 40.176 59.1282 39.8567 59.4969 39.692C59.8655 39.5273 60.0964 39.4927 60.0964 39.4927L60.0971 39.4828Z" fill="url(#paint9_radial_6_8800)"/>
<path d="M30.5439 15.5825C30.6726 15.5909 30.8013 15.5994 30.9352 15.6032C33.1642 15.6448 35.3968 15.478 37.0461 15.1884C37.467 15.1365 37.8397 15.0615 38.1728 14.9839C38.5106 14.9116 38.7982 14.846 39.035 14.7969C39.5139 14.694 39.7864 14.6324 39.7864 14.6324C39.7864 14.6324 40.0555 14.5456 40.5178 14.392C40.7513 14.3178 41.031 14.2219 41.3562 14.1139C41.6807 14.0159 42.0421 13.8855 42.426 13.7168C43.9957 13.1238 46.0037 12.1371 47.8948 10.9637C49.7594 9.73892 51.4958 8.34668 52.6524 7.15503C52.8014 7.00574 52.949 6.87625 53.0776 6.73556C53.2014 6.58959 53.3194 6.45815 53.4321 6.33134C53.6476 6.07706 53.8413 5.85117 53.9928 5.66229C54.3005 5.2898 54.4547 5.06132 54.417 5.02903C54.3847 4.99212 54.1552 5.15602 53.7867 5.46986C53.6075 5.6271 53.3912 5.81672 53.1381 6.03871C53.0116 6.1497 52.8797 6.26532 52.7426 6.38557C52.6009 6.50054 52.444 6.61949 52.2864 6.74834C51.0399 7.79493 49.2538 9.0348 47.389 10.1105C45.4879 11.1341 43.5127 11.9987 41.9838 12.4999C41.6066 12.6442 41.2563 12.7555 40.9377 12.839C40.6237 12.9277 40.35 13.0092 40.127 13.0741C39.6759 13.2086 39.418 13.2762 39.418 13.2762C39.418 13.2762 39.16 13.3438 38.7049 13.4631C38.4773 13.5227 38.2042 13.5943 37.8856 13.6778C37.5717 13.7666 37.2128 13.8574 36.811 13.9205C35.3083 14.2495 33.2988 14.5005 31.2495 14.5999C31.005 14.9169 30.7698 15.2444 30.5393 15.5772L30.5439 15.5825Z" fill="url(#paint10_radial_6_8800)"/>
<path d="M51.848 37.7892C51.9329 37.0243 51.8921 35.9779 51.6706 34.9594C51.449 33.9409 51.0467 32.9502 50.6547 32.2585C50.4688 31.9084 50.2884 31.6282 50.1516 31.4403C50.0201 31.2477 49.9427 31.1383 49.9427 31.1383C49.9427 31.1383 49.8549 31.0381 49.7022 30.8641C49.5496 30.6901 49.3118 30.4508 49.0106 30.1925C48.4195 29.6567 47.5498 29.048 46.6051 28.5985C45.6551 28.1535 44.6492 27.8788 43.8797 27.7887C43.1102 27.6985 42.5996 27.7545 42.5938 27.8436C42.582 27.9472 43.0711 28.0687 43.7556 28.3173C44.4507 28.5567 45.3294 28.9523 46.131 29.4621C46.9326 29.9718 47.6472 30.5952 48.1156 31.108C48.3574 31.3625 48.5365 31.5879 48.6601 31.7501C48.7836 31.9123 48.8524 32.0013 48.8524 32.0013C48.8524 32.0013 48.9264 32.0856 49.0552 32.2432C49.1893 32.3961 49.3631 32.6262 49.5575 32.9223C49.9573 33.4952 50.3997 34.3294 50.7187 35.2251C51.0378 36.1207 51.2243 37.0674 51.301 37.7931C51.3876 38.5195 51.3994 39.0223 51.503 39.034C51.5914 39.0498 51.7624 38.5639 51.8427 37.7938L51.848 37.7892Z" fill="url(#paint11_radial_6_8800)"/>
<path d="M58.3571 5.95821C57.8263 6.77833 57.2577 7.56615 56.7932 8.13215C56.5705 8.42075 56.3622 8.64071 56.2272 8.80582C56.0875 8.96566 56.0117 9.0601 56.0117 9.0601C56.0117 9.0601 55.9359 9.15455 55.8008 9.31966C55.6658 9.48477 55.4905 9.73174 55.2493 9.99925C54.7855 10.5554 54.1172 11.272 53.412 11.9465C52.6975 12.6105 51.9354 13.2415 51.354 13.6954C50.7672 14.154 50.3737 14.4712 50.4226 14.5589C50.4669 14.6413 50.9543 14.4844 51.6468 14.157C52.3392 13.8296 53.2089 13.3001 54.0482 12.7039C54.8736 12.092 55.6534 11.4174 56.1959 10.8764C56.4767 10.6115 56.6915 10.3671 56.8464 10.2033C57.0012 10.0395 57.0869 9.94569 57.0869 9.94569C57.0869 9.94569 57.1633 9.84135 57.2944 9.66107C57.4209 9.47551 57.6265 9.22058 57.8267 8.89572C58.2614 8.25321 58.7725 7.35724 59.2155 6.43693C59.2964 6.2633 59.3728 6.0844 59.4491 5.9055C59.1521 5.81148 58.855 5.71747 58.5527 5.62807C58.4856 5.74296 58.419 5.84795 58.3519 5.96284L58.3571 5.95821Z" fill="url(#paint12_radial_6_8800)"/>
<path d="M37.8443 18.7796C37.7564 18.6049 35.4843 19.5246 33.144 20.1963C31.9738 20.5322 30.7964 20.8278 29.9038 21.0228C29.012 21.208 28.4176 21.3281 28.4176 21.3281C28.4176 21.3281 28.0693 21.4096 27.5086 21.5468C27.3435 22.0181 27.1936 22.4855 27.0582 22.9587C27.0985 22.9514 27.1433 22.9494 27.1737 22.9414C28.0973 22.8031 28.7115 22.6843 28.7115 22.6843C28.7115 22.6843 29.3183 22.5253 30.2154 22.261C31.1124 21.9967 32.2924 21.5869 33.4512 21.1211C35.7688 20.1894 37.9184 18.9386 37.8298 18.7737L37.8443 18.7796Z" fill="url(#paint13_radial_6_8800)"/>
<path d="M39.7372 50.2764C40.4754 50.1608 41.4676 50.0369 42.4527 49.9474C43.4364 49.8776 44.4274 49.8481 45.1618 49.8664C45.53 49.8607 45.8362 49.8907 46.0493 49.8997C46.2625 49.9087 46.3865 49.9119 46.3865 49.9119C46.3865 49.9119 46.5106 49.915 46.7244 49.9141C46.9428 49.9185 47.2469 49.9036 47.6138 49.9177C48.3535 49.9314 49.3328 50.0055 50.3147 50.1146C51.2954 50.2434 52.2734 50.4119 53.0093 50.5595C53.7452 50.7071 54.2461 50.7996 54.2823 50.7026C54.3125 50.6201 53.8728 50.3527 53.1724 50.0434C52.4673 49.7288 51.4943 49.4066 50.4977 49.1424C49.4998 48.8981 48.4828 48.7172 47.708 48.6316C47.3239 48.5766 46.9966 48.5651 46.7696 48.5403C46.5473 48.5208 46.414 48.5071 46.414 48.5071C46.414 48.5071 46.2846 48.5085 46.0603 48.5187C45.8307 48.5335 45.5127 48.5325 45.1227 48.5666C44.3488 48.6203 43.321 48.7567 42.309 48.9538C41.301 49.1661 40.3129 49.4543 39.594 49.7302C38.8751 50.0062 38.4215 50.2548 38.4506 50.3412C38.4791 50.4375 38.9857 50.3663 39.7286 50.256L39.7372 50.2764Z" fill="url(#paint14_radial_6_8800)"/>
<path d="M66.1647 21.5199C67.284 21.7325 68.5559 22.0444 69.7782 22.3532C72.1054 22.943 74.3906 23.6445 76.1721 24.2185C76.1177 23.9863 76.0581 23.7587 75.9984 23.5311C74.3138 22.8442 72.1975 22.0693 70.049 21.4067C68.8061 21.032 67.6074 20.6651 66.3831 20.3861C65.1621 20.1321 63.9057 20.0399 62.8109 20.4403C62.2661 20.6382 61.7967 20.9753 61.4685 21.3564C61.141 21.7276 60.9495 22.1474 60.8528 22.4841C60.751 22.8253 60.7328 23.1025 60.7205 23.2905C60.7233 23.4746 60.7168 23.5736 60.7168 23.5736C60.7168 23.5736 60.7255 23.6686 60.7435 23.8487C60.7715 24.0295 60.814 24.2907 60.9179 24.6007C61.0219 24.9107 61.1813 25.284 61.4345 25.6684C61.6929 26.0482 62.0166 26.4173 62.4162 26.7666C63.2102 27.4697 64.2474 28.0248 65.2833 28.5996C66.3338 29.1804 67.4469 29.7901 68.5324 30.4428C69.6179 31.0954 70.6764 31.7811 71.6083 32.5032C72.5454 33.2207 73.3512 33.9693 73.9868 34.6621C75.0273 35.774 75.5793 36.7546 75.8179 37.0585C75.837 36.9951 75.856 36.9318 75.8751 36.8684C75.7215 36.406 75.2783 35.4326 74.4073 34.3119C73.8172 33.5327 73.0317 32.7008 72.1051 31.8996C71.1883 31.0989 70.1403 30.3294 69.064 29.6128C67.9876 28.8961 66.8883 28.2276 65.8655 27.6039C64.8328 26.9796 63.9051 26.4218 63.2782 25.824C62.6362 25.2302 62.3419 24.6394 62.2167 24.1987C62.1465 23.9804 62.1331 23.8056 62.1158 23.6901C62.1084 23.5753 62.1077 23.5107 62.1077 23.5107C62.1077 23.5107 62.107 23.446 62.1042 23.3365C62.1113 23.2276 62.1078 23.0534 62.1604 22.858C62.2503 22.4713 62.5585 21.9398 63.2636 21.648C63.9692 21.3463 65.0382 21.3418 66.1588 21.5345L66.1647 21.5199Z" fill="url(#paint15_radial_6_8800)"/>
<path d="M57.4631 14.5977C56.5279 14.9142 55.66 15.3394 54.8879 15.8207C54.1065 16.2913 53.4183 16.8576 52.8661 17.4725C52.3185 18.0927 51.9055 18.7814 51.6873 19.458C51.4597 20.124 51.409 20.7469 51.4155 21.2543C51.4372 21.7578 51.5009 22.1496 51.5639 22.4023C51.5951 22.5336 51.6137 22.6292 51.6289 22.6998C51.6495 22.7658 51.662 22.8014 51.662 22.8014C51.662 22.8014 51.713 22.9339 51.7964 23.178C51.8328 23.3046 51.9029 23.4484 51.9863 23.6179C52.0643 23.792 52.151 23.9865 52.2766 24.1936C52.7335 25.0337 53.5575 26.1116 54.7464 27.1587C57.1756 29.2264 60.8252 31.0263 64.4925 32.7079C66.3258 33.5537 68.1446 34.3936 69.8077 35.2581C71.4655 36.1271 72.9782 37.0116 74.1768 37.9102C74.5756 38.1948 74.9356 38.4669 75.2704 38.7423C75.3303 38.5872 75.3803 38.4314 75.4302 38.2757C75.4025 38.244 75.3741 38.2223 75.341 38.1953C75.0828 37.9646 74.8159 37.7135 74.5082 37.4796C73.3299 36.4978 71.8277 35.5296 70.1804 34.5767C68.5277 33.6284 66.7234 32.7199 64.9184 31.8213C63.1187 30.9181 61.3288 30.0155 59.7204 29.0751C58.9215 28.6003 58.1522 28.1274 57.4582 27.6445C56.7431 27.1801 56.1434 26.6985 55.609 26.2062C54.5449 25.2269 53.8484 24.2518 53.4774 23.5416C53.3743 23.3708 53.3055 23.2073 53.2453 23.0642C53.185 22.921 53.1282 22.803 53.0997 22.7067C53.0335 22.5035 53.0004 22.402 53.0004 22.402C53.0004 22.402 52.9871 22.3762 52.9706 22.3255C52.9593 22.27 52.9394 22.1942 52.9162 22.0933C52.8599 21.8908 52.8094 21.5992 52.7846 21.2198C52.754 20.4722 52.9309 19.3655 53.839 18.3266C54.2805 17.8088 54.8605 17.3 55.5502 16.8631C56.2359 16.411 57.0075 16.0142 57.8583 15.6972C59.5547 15.0678 61.5114 14.7884 63.4705 14.8521C65.4355 14.9014 67.3818 15.3122 69.1594 15.871C70.8102 16.3917 72.3094 17.0268 73.6126 17.6191C73.4387 17.3145 73.2596 17.0145 73.0804 16.7144C71.9831 16.1654 70.7519 15.6125 69.4119 15.1271C67.6151 14.4825 65.5902 13.9821 63.5202 13.8663C61.4561 13.736 59.3482 13.9707 57.4724 14.6082L57.4631 14.5977Z" fill="url(#paint16_radial_6_8800)"/>
</g>
<g clip-path="url(#clip2_6_8800)">
<path d="M86.9588 147.693C106.852 127.8 106.852 95.5472 86.9588 75.6543C67.066 55.7615 34.8133 55.7615 14.9205 75.6543C-4.97231 95.5472 -4.97231 127.8 14.9205 147.693C34.8133 167.585 67.066 167.585 86.9588 147.693Z" fill="url(#paint17_linear_6_8800)"/>
<path style="mix-blend-mode:screen" d="M86.9588 147.693C106.852 127.8 106.852 95.5472 86.9588 75.6543C67.066 55.7615 34.8133 55.7615 14.9205 75.6543C-4.97231 95.5472 -4.97231 127.8 14.9205 147.693C34.8133 167.585 67.066 167.585 86.9588 147.693Z" fill="url(#paint18_linear_6_8800)"/>
<path style="mix-blend-mode:screen" d="M50.9387 68.7073C40.5083 68.7073 30.9476 72.4236 23.5059 78.6022C26.705 77.8424 30.0414 77.4351 33.4739 77.4351C57.2042 77.4351 76.4401 96.671 76.4401 120.401C76.4401 133.701 70.3942 145.591 60.9022 153.473C79.8268 148.978 93.9002 131.967 93.9002 111.669C93.9002 87.9387 74.6643 68.7028 50.9341 68.7028L50.9387 68.7073Z" fill="url(#paint19_linear_6_8800)"/>
<path style="mix-blend-mode:multiply" opacity="0.45" d="M66.5042 129.967C41.5153 129.967 21.2588 109.71 21.2588 84.7212C21.2588 78.8951 22.3618 73.3252 24.3664 68.2085C9.75297 77.1605 0 93.2797 0 111.673C0 139.807 22.8057 162.612 50.9388 162.612C79.0718 162.612 101.186 140.493 101.859 112.946C93.5662 123.317 80.811 129.962 66.4996 129.962L66.5042 129.967Z" fill="url(#paint20_linear_6_8800)"/>
</g>
</g>
<defs>
<radialGradient id="paint0_radial_6_8800" cx="0" cy="0" r="1" gradientUnits="userSpaceOnUse" gradientTransform="translate(75.5905 7.07965) rotate(48.7488) scale(81.6649)">
<stop stop-color="#D1E1EE"/>
<stop offset="0.34" stop-color="#8EE1EE"/>
<stop offset="0.94" stop-color="#732FA4"/>
</radialGradient>
<radialGradient id="paint1_radial_6_8800" cx="0" cy="0" r="1" gradientUnits="userSpaceOnUse" gradientTransform="translate(70.0671 12.5656) rotate(48.7488) scale(40.2047)">
<stop stop-color="#D1E1EE"/>
<stop offset="0.34" stop-color="#8EE1EE"/>
<stop offset="0.94" stop-color="#732FA4"/>
</radialGradient>
<radialGradient id="paint2_radial_6_8800" cx="0" cy="0" r="1" gradientUnits="userSpaceOnUse" gradientTransform="translate(66.5004 15.0407) rotate(48.7488) scale(68.0155 68.0155)">
<stop stop-color="#D1E1EE"/>
<stop offset="0.34" stop-color="#8EE1EE"/>
<stop offset="0.94" stop-color="#732FA4"/>
</radialGradient>
<radialGradient id="paint3_radial_6_8800" cx="0" cy="0" r="1" gradientUnits="userSpaceOnUse" gradientTransform="translate(73.5648 37.9993) rotate(48.7488) scale(1.62027 1.62025)">
<stop stop-color="#D1E1EE"/>
<stop offset="0.34" stop-color="#8EE1EE"/>
<stop offset="0.94" stop-color="#732FA4"/>
</radialGradient>
<radialGradient id="paint4_radial_6_8800" cx="0" cy="0" r="1" gradientUnits="userSpaceOnUse" gradientTransform="translate(58.2377 22.5761) rotate(48.7488) scale(52.5004 52.5004)">
<stop stop-color="#D1E1EE"/>
<stop offset="0.34" stop-color="#8EE1EE"/>
<stop offset="0.94" stop-color="#732FA4"/>
</radialGradient>
<radialGradient id="paint5_radial_6_8800" cx="0" cy="0" r="1" gradientUnits="userSpaceOnUse" gradientTransform="translate(90.869 20.5839) rotate(48.7488) scale(67.4474 67.4474)">
<stop offset="0.06" stop-color="#732FA4"/>
<stop offset="0.66" stop-color="#8EE1EE"/>
<stop offset="1" stop-color="#D1E1EE"/>
</radialGradient>
<radialGradient id="paint6_radial_6_8800" cx="0" cy="0" r="1" gradientUnits="userSpaceOnUse" gradientTransform="translate(90.869 20.5839) rotate(48.7488) scale(67.4403 67.4403)">
<stop offset="0.06" stop-color="#732FA4"/>
<stop offset="0.66" stop-color="#8EE1EE"/>
<stop offset="1" stop-color="#D1E1EE"/>
</radialGradient>
<radialGradient id="paint7_radial_6_8800" cx="0" cy="0" r="1" gradientUnits="userSpaceOnUse" gradientTransform="translate(90.8689 20.5839) rotate(48.7488) scale(67.4404 67.4404)">
<stop offset="0.06" stop-color="#732FA4"/>
<stop offset="0.66" stop-color="#8EE1EE"/>
<stop offset="1" stop-color="#D1E1EE"/>
</radialGradient>
<radialGradient id="paint8_radial_6_8800" cx="0" cy="0" r="1" gradientUnits="userSpaceOnUse" gradientTransform="translate(90.8691 20.5839) rotate(48.7488) scale(67.4474 67.4474)">
<stop offset="0.06" stop-color="#732FA4"/>
<stop offset="0.66" stop-color="#8EE1EE"/>
<stop offset="1" stop-color="#D1E1EE"/>
</radialGradient>
<radialGradient id="paint9_radial_6_8800" cx="0" cy="0" r="1" gradientUnits="userSpaceOnUse" gradientTransform="translate(90.8691 20.5839) rotate(48.7488) scale(67.4474 67.4474)">
<stop offset="0.06" stop-color="#732FA4"/>
<stop offset="0.66" stop-color="#8EE1EE"/>
<stop offset="1" stop-color="#D1E1EE"/>
</radialGradient>
<radialGradient id="paint10_radial_6_8800" cx="0" cy="0" r="1" gradientUnits="userSpaceOnUse" gradientTransform="translate(90.8692 20.5839) rotate(48.7488) scale(67.4404 67.4404)">
<stop offset="0.06" stop-color="#732FA4"/>
<stop offset="0.66" stop-color="#8EE1EE"/>
<stop offset="1" stop-color="#D1E1EE"/>
</radialGradient>
<radialGradient id="paint11_radial_6_8800" cx="0" cy="0" r="1" gradientUnits="userSpaceOnUse" gradientTransform="translate(90.8692 20.5839) rotate(48.7488) scale(67.4474 67.4474)">
<stop offset="0.06" stop-color="#732FA4"/>
<stop offset="0.66" stop-color="#8EE1EE"/>
<stop offset="1" stop-color="#D1E1EE"/>
</radialGradient>
<radialGradient id="paint12_radial_6_8800" cx="0" cy="0" r="1" gradientUnits="userSpaceOnUse" gradientTransform="translate(90.8691 20.5839) rotate(48.7488) scale(67.4404 67.4404)">
<stop offset="0.06" stop-color="#732FA4"/>
<stop offset="0.66" stop-color="#8EE1EE"/>
<stop offset="1" stop-color="#D1E1EE"/>
</radialGradient>
<radialGradient id="paint13_radial_6_8800" cx="0" cy="0" r="1" gradientUnits="userSpaceOnUse" gradientTransform="translate(90.8689 20.5839) rotate(48.7488) scale(67.4404 67.4403)">
<stop offset="0.06" stop-color="#732FA4"/>
<stop offset="0.66" stop-color="#8EE1EE"/>
<stop offset="1" stop-color="#D1E1EE"/>
</radialGradient>
<radialGradient id="paint14_radial_6_8800" cx="0" cy="0" r="1" gradientUnits="userSpaceOnUse" gradientTransform="translate(90.8692 20.5839) rotate(48.7488) scale(67.4403 67.4404)">
<stop offset="0.06" stop-color="#732FA4"/>
<stop offset="0.66" stop-color="#8EE1EE"/>
<stop offset="1" stop-color="#D1E1EE"/>
</radialGradient>
<radialGradient id="paint15_radial_6_8800" cx="0" cy="0" r="1" gradientUnits="userSpaceOnUse" gradientTransform="translate(90.869 20.5839) rotate(48.7488) scale(67.4404 67.4404)">
<stop offset="0.06" stop-color="#732FA4"/>
<stop offset="0.66" stop-color="#8EE1EE"/>
<stop offset="1" stop-color="#D1E1EE"/>
</radialGradient>
<radialGradient id="paint16_radial_6_8800" cx="0" cy="0" r="1" gradientUnits="userSpaceOnUse" gradientTransform="translate(90.8692 20.5839) rotate(48.7488) scale(67.4474)">
<stop offset="0.06" stop-color="#732FA4"/>
<stop offset="0.66" stop-color="#8EE1EE"/>
<stop offset="1" stop-color="#D1E1EE"/>
</radialGradient>
<linearGradient id="paint17_linear_6_8800" x1="134.827" y1="52.0121" x2="38.1621" y2="120.763" gradientUnits="userSpaceOnUse">
<stop stop-color="#2F67C5"/>
<stop offset="0.96" stop-color="#09002B"/>
</linearGradient>
<linearGradient id="paint18_linear_6_8800" x1="134.827" y1="52.0121" x2="38.1621" y2="120.763" gradientUnits="userSpaceOnUse">
<stop stop-color="#7EAEFF"/>
<stop offset="0.96" stop-color="#4C87CD"/>
</linearGradient>
<linearGradient id="paint19_linear_6_8800" x1="110.523" y1="69.2977" x2="54.4764" y2="109.156" gradientUnits="userSpaceOnUse">
<stop stop-color="#2F67C5"/>
<stop offset="0.96" stop-color="#09002B"/>
</linearGradient>
<linearGradient id="paint20_linear_6_8800" x1="8.03212" y1="178.915" x2="58.9023" y2="99.1928" gradientUnits="userSpaceOnUse">
<stop stop-color="#2F67C5"/>
<stop offset="0.96" stop-color="#09002B"/>
</linearGradient>
<clipPath id="clip0_6_8800">
<rect width="101.878" height="96" fill="white"/>
</clipPath>
<clipPath id="clip1_6_8800">
<rect width="81.686" height="54.7799" fill="white" transform="translate(44.4502 -17.6327) rotate(48.7488)"/>
</clipPath>
<clipPath id="clip2_6_8800">
<rect width="101.878" height="101.878" fill="white" transform="translate(0 60.7347)"/>
</clipPath>
</defs>
</svg>
