<svg width="18" height="19" viewBox="0 0 18 19" fill="none" xmlns="http://www.w3.org/2000/svg">
<path d="M16.8616 7.49608C16.4967 12.2365 9.57023 16.0201 9.26789 16.1825C9.18598 16.2265 9.09442 16.2496 9.00141 16.2496C8.90839 16.2496 8.81683 16.2265 8.73492 16.1825C8.42344 16.0158 1.125 12.0312 1.125 7.10936C1.1248 6.31966 1.33912 5.54473 1.74507 4.86736C2.15101 4.18998 2.73333 3.6356 3.42982 3.26342C4.12632 2.89123 4.91083 2.71523 5.69957 2.75422C6.48831 2.7932 7.25164 3.0457 7.90805 3.48475C7.94283 3.50781 7.97205 3.53833 7.99357 3.57409C8.0151 3.60984 8.0284 3.64994 8.0325 3.69148C8.03661 3.73301 8.03142 3.77494 8.01731 3.81422C8.00321 3.8535 7.98053 3.88915 7.95094 3.91858L7.01156 4.85936C6.90615 4.96484 6.84694 5.10785 6.84694 5.25697C6.84694 5.40609 6.90615 5.54911 7.01156 5.65459L9.29883 7.94186L7.80469 9.42967C7.75026 9.48138 7.70673 9.54347 7.67667 9.61227C7.64661 9.68107 7.63063 9.7552 7.62967 9.83027C7.62871 9.90534 7.64278 9.97985 7.67107 10.0494C7.69936 10.1189 7.74128 10.1821 7.79437 10.2352C7.84746 10.2883 7.91065 10.3302 7.98019 10.3585C8.04974 10.3868 8.12425 10.4009 8.19932 10.3999C8.2744 10.399 8.34852 10.383 8.41732 10.3529C8.48612 10.3229 8.54821 10.2793 8.59992 10.2249L10.4899 8.33561C10.5953 8.23013 10.6545 8.08711 10.6545 7.93799C10.6545 7.78887 10.5953 7.64585 10.4899 7.54037L8.20547 5.25522L9.43383 4.02686C9.84109 3.61751 10.3261 3.29368 10.8602 3.07441C11.3944 2.85513 11.967 2.74483 12.5445 2.74998C15.0982 2.76615 17.0571 4.95006 16.8616 7.49608Z" fill="#E48D21"/>
</svg>
