<svg width="359" height="160" viewBox="0 0 359 160" fill="none" xmlns="http://www.w3.org/2000/svg">
<rect width="359" height="160" rx="16" fill="#F6F7FA"/>
<path opacity="0.2" d="M36.3776 -88H-30V160.143H293C289.392 154.565 283.57 149.274 274.568 149.79C274.568 149.79 262.217 149.254 257.161 156.748C257.161 156.748 235.823 110.723 186.972 134.807C186.972 134.807 187.534 120.892 175.74 116.609C163.947 112.326 151.596 124.639 151.596 124.639C151.596 124.639 148.227 92.5288 121.833 82.891C95.4448 73.2581 73.5445 90.3849 73.5445 90.3849C73.5445 90.3849 74.6692 85.0349 65.1198 80.216C65.1198 80.216 81.4017 62.5532 58.9444 48.6373C58.9444 48.6373 76.9134 39.5404 62.3132 21.3416C62.3132 21.3416 77.4757 11.7087 70.738 -8.09306L62.6777 -13.8599C62.6777 -13.8599 59.8868 -17.582 52.3628 -14.6589C52.3628 -14.6589 45.9479 -25.0214 33.9616 -23.9593C33.9616 -23.9593 32.5662 -47.3443 4.40723 -50.2674C4.40723 -50.2674 24.4851 -60.3668 18.3513 -78.4366C18.3513 -78.4366 30.0044 -79.7468 36.3828 -88L36.3776 -88Z" fill="url(#paint0_radial_501_3567)"/>
<circle cx="342.425" cy="6.42478" r="38.4248" transform="rotate(90 342.425 6.42478)" fill="#E9EAF7"/>
<g opacity="0.3">
<path d="M341.4 36.8496C358.217 36.8496 371.849 23.2173 371.849 6.401C371.849 -10.4153 358.217 -24.0476 341.4 -24.0476C324.584 -24.0476 310.952 -10.4153 310.952 6.401C310.952 23.2173 324.584 36.8496 341.4 36.8496Z" fill="url(#paint1_radial_501_3567)"/>
<path style="mix-blend-mode:screen" d="M364.565 25.0177C353.192 37.4047 333.931 38.2292 321.541 26.8554C312.776 18.8068 309.804 6.80517 312.843 -3.91382C308.82 7.27942 311.595 20.2834 320.908 28.8306C333.295 40.2043 352.558 39.3798 363.932 26.9929C367.257 23.3714 369.537 19.1652 370.792 14.738C369.464 18.4376 367.392 21.9379 364.565 25.0151V25.0177Z" fill="url(#paint2_radial_501_3567)"/>
<path style="mix-blend-mode:screen" opacity="0.34" d="M322.293 9.18716C323.306 8.66711 324.419 8.31682 325.556 8.28448C327.014 8.24137 328.42 8.71292 329.797 9.2168C330.439 9.29495 331.077 9.40003 331.716 9.50512C333.502 9.80152 335.319 10.106 336.957 10.8794C337.981 11.3617 338.921 12.0218 339.905 12.5796C340.465 12.8383 340.999 13.1239 341.616 13.3718C342.772 13.8353 344.124 13.7652 345.337 13.9539C349.99 14.6787 355.11 19.4211 355.199 24.3441C355.328 31.509 345.671 33.9826 340.012 34.2655C333.893 34.5727 327.814 32.3793 323.298 28.2351C320.593 25.7507 318.372 22.8486 317.483 19.2648C317.181 18.0442 317.093 16.7185 317.518 15.5463C317.591 15.0505 317.707 14.5601 317.874 14.0913C318.628 11.968 320.291 10.2165 322.296 9.18447L322.293 9.18716Z" fill="url(#paint3_radial_501_3567)"/>
<path style="mix-blend-mode:multiply" opacity="0.34" d="M311.793 13.0808C312.73 8.6321 314.832 4.37199 318.13 0.78013C327.928 -9.89036 344.521 -10.599 355.191 -0.804276C363.827 7.12314 365.937 19.502 361.235 29.5931C362.176 28.7929 363.076 27.9252 363.932 26.9929C375.306 14.606 374.482 -4.65751 362.095 -16.0313C349.705 -27.4023 330.444 -26.5778 319.071 -14.1909C312.065 -6.55718 309.688 3.68487 311.793 13.0808Z" fill="url(#paint4_radial_501_3567)"/>
<path style="mix-blend-mode:screen" d="M313.627 12.2913C312.945 4.63604 315.362 -3.26712 320.97 -9.37571C331.549 -20.8977 349.465 -21.6629 360.987 -11.0841C365.635 -6.81587 368.529 -1.35667 369.639 4.39892C369.044 -2.39947 366.004 -9.00386 360.583 -13.9834C349.058 -24.565 331.142 -23.7997 320.563 -12.2778C314.244 -5.39314 311.975 3.77109 313.627 12.2913Z" fill="url(#paint5_radial_501_3567)"/>
<path style="mix-blend-mode:multiply" opacity="0.45" d="M351.963 4.30728C353.445 5.71115 354.749 7.99075 356.765 7.65932C357.33 7.56501 357.861 7.25244 358.433 7.274C360.709 7.36022 360.265 11.7443 362.474 12.3021C363.412 12.5392 364.334 11.9087 365.29 11.7551C366.931 11.4883 368.524 12.7089 369.238 14.2125C369.693 15.1664 369.874 16.2092 369.952 17.2708C371.097 14.2691 371.749 11.1299 371.908 7.97189C371.838 7.93417 371.771 7.89105 371.706 7.83716C371.372 7.55423 371.24 7.10693 371.062 6.70814C370.068 4.46895 367.422 3.46118 364.98 3.23754C362.542 3.01389 360.038 3.33993 357.665 2.74173C357.36 2.66629 357.031 2.55311 356.864 2.28905C356.501 1.71241 357.145 1.01991 357.196 0.338181C357.279 -0.774676 355.865 -1.31359 354.752 -1.39981C350.144 -1.7555 345.426 -0.429772 341.683 2.27827C345.272 1.87678 349.344 1.82558 351.966 4.30997L351.963 4.30728Z" fill="url(#paint6_radial_501_3567)"/>
<path style="mix-blend-mode:multiply" opacity="0.45" d="M321.903 -4.08094C321.725 -3.46119 321.639 -2.80911 321.383 -2.2163C320.41 0.0363569 317.524 0.591439 315.077 0.793531C313.889 0.890536 312.604 1.04143 311.461 1.41598C310.739 5.79465 310.979 10.2919 312.164 14.5735C313.881 12.62 315.177 10.2919 315.899 7.79132C316.244 6.59493 316.559 5.2234 317.632 4.59018C318.513 4.06743 319.618 4.2291 320.639 4.15366C323.131 3.96773 325.419 2.11656 326.117 -0.284295C326.537 -1.72858 326.44 -3.34263 327.208 -4.63333C328.31 -6.48449 330.722 -6.9776 332.853 -7.29287C334.977 -7.60813 337.1 -7.9207 339.223 -8.23596C336.033 -9.13595 332.74 -10.044 329.447 -9.6587C326.155 -9.27337 322.821 -7.26592 321.905 -4.08094H321.903Z" fill="url(#paint7_radial_501_3567)"/>
<path style="mix-blend-mode:multiply" opacity="0.45" d="M316.683 24.0504C317.898 25.756 319.304 27.3593 320.908 28.8332C321.026 28.9437 321.148 29.0488 321.266 29.1539C321.293 28.879 321.317 28.6042 321.347 28.3293C321.43 27.5776 321.552 26.7638 322.091 26.2303C322.568 25.7533 323.282 25.5997 323.955 25.5917C325.02 25.5782 326.065 25.8746 327.129 25.8962C328.194 25.9177 329.371 25.5836 329.91 24.6674C330.482 23.692 330.137 22.4579 330.282 21.3369C330.457 19.9977 331.387 18.8094 332.597 18.2112C333.809 17.6157 335.262 17.5888 336.539 18.028C337.73 18.4376 338.751 19.2163 339.853 19.828C340.955 20.4397 342.246 20.8923 343.464 20.5717C344.426 20.3184 345.248 19.6016 346.237 19.5019C347.261 19.3995 348.241 19.9897 348.947 20.7388C349.653 21.4878 350.163 22.3986 350.807 23.1989C352.025 24.7105 353.744 25.8126 355.625 26.2896C355.344 22.6384 352.828 19.2487 349.414 17.9202C347.587 17.2116 345.498 17.0202 343.979 15.7861C343.079 15.0559 342.47 14.0185 341.58 13.2748C340.691 12.5311 339.29 12.1458 338.409 12.9003C338.104 13.1616 337.881 13.5416 337.504 13.6844C337.242 13.7814 336.954 13.7463 336.679 13.7032C334.612 13.3799 332.556 12.7278 330.473 12.9164C328.391 13.105 326.194 14.4631 325.952 16.5433C325.79 17.9148 326.496 19.3457 326.044 20.6498C325.685 21.6818 324.683 22.3528 323.672 22.7705C321.474 23.6839 319.043 23.7594 316.672 24.0504H316.683Z" fill="url(#paint8_radial_501_3567)"/>
<path style="mix-blend-mode:multiply" opacity="0.45" d="M354.304 31.2933C354.218 30.4364 353.929 29.5257 353.377 28.7577C353.102 28.3751 352.755 28.0383 352.359 27.7796C351.962 27.5182 351.518 27.3619 351.108 27.2461C350.281 27.0224 349.532 26.8715 349.039 26.5212C348.546 26.1871 348.263 25.7182 348.058 25.4057C347.859 25.085 347.754 24.8856 347.754 24.8856C347.754 24.8856 347.638 24.6916 347.438 24.3548C347.333 24.185 347.204 23.9776 347.029 23.7458C346.859 23.5141 346.63 23.2608 346.323 23.0372C346.016 22.8108 345.601 22.6572 345.161 22.6437C344.719 22.633 344.278 22.765 343.881 22.9455C343.087 23.2985 342.359 23.832 341.532 23.8671C340.694 23.9129 339.853 23.5895 339.047 23.347C338.242 23.0991 337.404 22.9644 336.717 23.1692C336.035 23.374 335.598 23.8347 335.434 24.2066C335.27 24.5865 335.326 24.829 335.34 24.8263C335.369 24.829 335.361 24.5946 335.547 24.2659C335.73 23.9452 336.156 23.5545 336.781 23.4036C337.404 23.2554 338.169 23.4036 338.945 23.6785C339.724 23.9398 340.581 24.3225 341.553 24.3063C342.038 24.3009 342.51 24.1419 342.922 23.9614C343.337 23.7782 343.717 23.5707 344.089 23.4198C344.458 23.2635 344.816 23.1773 345.145 23.1907C345.474 23.2096 345.768 23.3255 345.997 23.5033C346.46 23.859 346.73 24.344 346.924 24.6674C347.115 25.0042 347.225 25.1982 347.225 25.1982C347.225 25.1982 347.336 25.3922 347.554 25.7317C347.665 25.9015 347.802 26.109 347.993 26.3299C348.08 26.4458 348.201 26.5536 348.314 26.6721C348.443 26.7799 348.575 26.9012 348.734 26.9982C349.368 27.4131 350.195 27.5452 350.982 27.7392C351.378 27.8389 351.766 27.9655 352.113 28.1811C352.461 28.394 352.776 28.6796 353.035 29.0164C353.555 29.69 353.859 30.528 353.97 31.331C354.083 32.1394 354.032 32.9181 353.948 33.5756C353.916 33.8127 353.881 34.0364 353.849 34.2439C353.924 34.2088 354.002 34.1765 354.078 34.1415C354.115 33.9744 354.15 33.7993 354.185 33.6133C354.304 32.9478 354.398 32.1502 354.312 31.2906L354.304 31.2933Z" fill="url(#paint9_radial_501_3567)"/>
<path style="mix-blend-mode:multiply" opacity="0.45" d="M359.995 13.5065C359.44 12.9918 359.055 12.4772 358.796 12.1134C358.537 11.747 358.403 11.526 358.403 11.526C358.403 11.526 358.26 11.305 358.012 10.917C357.88 10.7203 357.713 10.4751 357.462 10.2218C357.336 10.0952 357.188 9.96854 357.01 9.86345C356.921 9.80687 356.821 9.76914 356.721 9.72603C356.622 9.68291 356.519 9.6398 356.406 9.62094C355.964 9.50777 355.474 9.55358 355.013 9.67483C354.55 9.79609 354.102 9.98201 353.647 10.1625C353.191 10.3404 352.728 10.5182 352.251 10.5964C351.777 10.6718 351.294 10.6152 350.88 10.3862C350.467 10.1545 350.136 9.76914 349.869 9.34879C349.597 8.92844 349.373 8.47305 349.139 8.03653C348.904 7.60001 348.662 7.17427 348.363 6.8159C348.069 6.45482 347.743 6.15573 347.414 5.9213C346.757 5.44975 346.116 5.21802 345.663 5.11832C345.207 5.01592 344.941 5.02131 344.938 5.03748C344.935 5.06443 345.197 5.10215 345.628 5.23957C346.059 5.377 346.663 5.63568 347.266 6.11531C347.568 6.35243 347.864 6.64883 348.128 6.99913C348.395 7.34403 348.611 7.75899 348.829 8.19821C349.047 8.63473 349.257 9.10358 349.535 9.55897C349.804 10.0117 350.163 10.467 350.661 10.7688C351.16 11.0679 351.774 11.1515 352.318 11.0733C352.868 10.9979 353.364 10.8173 353.827 10.6476C354.291 10.4751 354.727 10.3054 355.142 10.2084C355.555 10.1087 355.943 10.0898 356.263 10.1787C356.921 10.3377 357.258 10.8928 357.5 11.2538C357.743 11.6446 357.88 11.8655 357.88 11.8655C357.88 11.8655 358.023 12.0919 358.3 12.4718C358.581 12.849 358.996 13.3853 359.61 13.9322C360.216 14.4712 361.06 15.0343 362.105 15.2122C363.159 15.4062 364.212 15.099 365.19 15.2795C365.681 15.3711 366.163 15.5301 366.605 15.7619C367.039 16.0017 367.451 16.2792 367.793 16.616C368.497 17.2654 368.974 18.0549 369.238 18.7771C369.254 18.8175 369.265 18.8579 369.278 18.8983C369.327 18.7906 369.375 18.6828 369.421 18.575C369.17 17.8421 368.718 17.0445 368.033 16.3681C367.683 15.999 367.254 15.6891 366.794 15.417C366.325 15.1529 365.807 14.9643 365.269 14.8511C364.166 14.6328 363.097 14.9131 362.199 14.7083C361.291 14.5331 360.548 14.0185 359.995 13.5092V13.5065Z" fill="url(#paint10_radial_501_3567)"/>
<path style="mix-blend-mode:multiply" opacity="0.45" d="M331.206 -12.003C331.727 -12.3291 332.241 -12.674 332.802 -12.9165C333.359 -13.1536 333.974 -13.2775 334.599 -13.2668C335.852 -13.2614 337.083 -12.8087 338.14 -12.2563C339.201 -11.6958 340.125 -11.0303 340.947 -10.5021C341.764 -9.96592 342.475 -9.56174 342.995 -9.32461C343.254 -9.20336 343.461 -9.11983 343.607 -9.07132C343.752 -9.02013 343.831 -8.99857 343.833 -9.00935C343.844 -9.0336 343.545 -9.16294 343.052 -9.43779C342.556 -9.70994 341.874 -10.1411 341.082 -10.7042C340.284 -11.2593 339.382 -11.9545 338.304 -12.5635C337.232 -13.159 335.962 -13.6683 334.604 -13.7087C333.928 -13.7329 333.241 -13.6117 332.618 -13.3611C331.996 -13.1078 331.457 -12.7548 330.94 -12.4449C330.422 -12.135 329.927 -11.8602 329.42 -11.7147C328.916 -11.5584 328.412 -11.4991 327.941 -11.4749C326.995 -11.4345 326.181 -11.4964 325.607 -11.4964C325.031 -11.5018 324.694 -11.4803 324.694 -11.4803C324.694 -11.4803 324.61 -11.4722 324.454 -11.4614C324.298 -11.4452 324.066 -11.4237 323.772 -11.3644C323.185 -11.262 322.349 -10.9952 321.503 -10.4186C320.665 -9.84466 319.817 -8.9339 319.337 -7.75099C318.846 -6.58963 318.647 -5.28815 318.114 -4.14565C317.591 -3.00316 316.64 -2.09778 315.632 -1.46725C314.619 -0.831336 313.544 -0.459487 312.614 -0.200809C312.299 -0.114582 312.008 -0.0445232 311.727 0.0201464C311.711 0.0929003 311.698 0.162959 311.682 0.235712C311.992 0.179127 312.318 0.11715 312.673 0.0336189C313.624 -0.192724 314.74 -0.534934 315.812 -1.16816C316.877 -1.7933 317.914 -2.72831 318.51 -3.95165C319.102 -5.1642 319.326 -6.46837 319.811 -7.5435C320.272 -8.62403 321.053 -9.4297 321.824 -9.94167C322.603 -10.4536 323.355 -10.68 323.883 -10.7635C324.147 -10.8147 324.362 -10.8282 324.508 -10.8443C324.653 -10.8551 324.731 -10.8605 324.731 -10.8605C324.731 -10.8605 325.044 -10.8848 325.602 -10.8875C326.162 -10.8955 326.971 -10.8443 327.973 -10.9009C328.471 -10.936 329.024 -11.0087 329.584 -11.1919C330.153 -11.3671 330.689 -11.6797 331.206 -12.0057V-12.003Z" fill="url(#paint11_radial_501_3567)"/>
<path style="mix-blend-mode:multiply" opacity="0.45" d="M349.532 35.0064C349.481 34.4998 349.333 33.9825 349.166 33.4867C348.999 32.9882 348.807 32.487 348.543 32.0424C348.282 31.5978 347.934 31.2151 347.552 30.9888C347.169 30.7571 346.803 30.6816 346.56 30.6412C346.315 30.6062 346.18 30.6008 346.18 30.6008C346.18 30.6008 346.043 30.5954 345.808 30.5981C345.577 30.5981 345.248 30.6197 344.876 30.6197C344.507 30.6143 344.081 30.59 343.707 30.396C343.327 30.2155 343.017 29.8328 342.731 29.4125C342.445 28.9921 342.157 28.526 341.761 28.1838C341.373 27.8415 340.934 27.6314 340.546 27.5209C339.756 27.2999 339.217 27.4589 339.228 27.4886C339.228 27.5425 339.762 27.4778 340.468 27.7499C340.815 27.8847 341.198 28.111 341.521 28.4371C341.847 28.7577 342.087 29.1996 342.359 29.6496C342.626 30.0942 342.963 30.5765 343.459 30.8487C343.946 31.1262 344.458 31.1693 344.86 31.1909C345.264 31.2071 345.587 31.199 345.808 31.2044C346.029 31.2098 346.148 31.2205 346.148 31.2205C346.148 31.2205 346.272 31.2205 346.479 31.2421C346.684 31.269 346.97 31.3175 347.263 31.4819C347.56 31.6409 347.859 31.9346 348.109 32.3172C348.363 32.6999 348.568 33.1606 348.756 33.6403C348.945 34.1172 349.112 34.5968 349.19 35.0576C349.241 35.3405 349.249 35.61 349.228 35.8633C349.327 35.8363 349.427 35.8094 349.527 35.7824C349.556 35.5372 349.562 35.2786 349.532 35.0118V35.0064Z" fill="url(#paint12_radial_501_3567)"/>
<path style="mix-blend-mode:multiply" opacity="0.45" d="M340.743 8.43802C341.128 8.45419 341.459 8.5485 341.702 8.68054C342.195 8.95538 342.268 9.32723 342.297 9.30298C342.303 9.30298 342.297 9.21406 342.23 9.07394C342.163 8.93382 342.02 8.73443 341.767 8.57275C341.516 8.41108 341.166 8.28982 340.753 8.25479C340.338 8.21438 339.875 8.3033 339.395 8.39491C338.916 8.48653 338.393 8.597 337.87 8.51078C337.345 8.42994 336.835 8.14971 336.348 7.79672C335.855 7.44912 335.383 7.01529 334.79 6.68386C334.497 6.51949 334.181 6.38477 333.842 6.29854C333.505 6.20962 333.139 6.17728 332.775 6.25004C332.408 6.31471 332.066 6.5141 331.81 6.77817C331.551 7.04493 331.382 7.36828 331.26 7.68355C331.015 8.31408 330.891 8.93652 330.619 9.42963C330.36 9.92273 329.924 10.2542 329.442 10.4428C328.959 10.6368 328.453 10.7069 327.984 10.7311C327.515 10.7554 327.076 10.7203 326.677 10.6961C326.278 10.6691 325.925 10.6503 325.631 10.6449C325.041 10.6341 324.691 10.6826 324.691 10.6826C324.691 10.6826 324.605 10.6907 324.443 10.7203C324.282 10.75 324.044 10.7958 323.751 10.9036C323.163 11.1003 322.368 11.6041 321.781 12.4745C321.191 13.3367 320.808 14.5062 320.722 15.7726C320.673 16.4139 320.744 17.0526 320.706 17.6696C320.679 18.2867 320.488 18.8687 320.11 19.3645C319.741 19.8603 319.237 20.2618 318.706 20.6013C318.176 20.9408 317.607 21.2237 317.06 21.4905C316.513 21.7519 315.971 21.9836 315.454 22.1884C315.505 22.2746 315.559 22.3609 315.61 22.4444C316.125 22.2585 316.661 22.0483 317.206 21.8031C317.769 21.5471 318.348 21.2776 318.917 20.9354C319.48 20.5932 320.032 20.181 320.461 19.6313C320.897 19.0923 321.145 18.3783 321.183 17.7046C321.234 17.0337 321.177 16.3978 321.234 15.8131C321.334 14.6301 321.714 13.555 322.25 12.8005C322.783 12.0407 323.454 11.6365 323.95 11.4775C324.198 11.3913 324.405 11.3535 324.546 11.3293C324.686 11.3077 324.764 11.2997 324.764 11.2997C324.764 11.2997 325.066 11.2512 325.623 11.2538C325.901 11.2538 326.243 11.27 326.642 11.2889C327.041 11.305 327.502 11.3374 328.016 11.3024C328.525 11.27 329.089 11.1838 329.652 10.9494C330.21 10.723 330.773 10.2838 331.075 9.67214C331.382 9.07664 331.492 8.43264 331.708 7.856C331.813 7.56768 331.95 7.30361 332.144 7.09613C332.338 6.89134 332.583 6.73506 332.864 6.68117C333.43 6.55452 334.06 6.75122 334.602 7.03146C335.146 7.31708 335.631 7.73474 336.148 8.08234C336.66 8.43533 337.229 8.73173 337.827 8.80449C338.425 8.87993 338.97 8.73982 339.444 8.63203C339.923 8.52156 340.355 8.41916 340.74 8.44072L340.743 8.43802Z" fill="url(#paint13_radial_501_3567)"/>
<path style="mix-blend-mode:screen" opacity="0.34" d="M345.601 29.7038C346.058 27.5203 343.551 25.1487 340.003 24.4067C336.454 23.6648 333.208 24.8334 332.751 27.017C332.294 29.2005 334.801 31.5721 338.349 32.314C341.898 33.056 345.144 31.8874 345.601 29.7038Z" fill="url(#paint14_radial_501_3567)"/>
<path style="mix-blend-mode:screen" opacity="0.34" d="M322.622 23.1315C323.287 21.989 325.332 21.9432 327.186 23.0237C329.04 24.107 330.005 25.9096 329.339 27.0494C328.674 28.1919 326.629 28.2377 324.775 27.1572C322.921 26.074 321.956 24.2713 322.622 23.1315Z" fill="url(#paint15_radial_501_3567)"/>
</g>
<defs>
<radialGradient id="paint0_radial_501_3567" cx="0" cy="0" r="1" gradientUnits="userSpaceOnUse" gradientTransform="translate(74.6848 -16.3562) scale(178.883 170.499)">
<stop offset="0.06" stop-color="#FCE085"/>
<stop offset="0.96" stop-color="#E988FD"/>
</radialGradient>
<radialGradient id="paint1_radial_501_3567" cx="0" cy="0" r="1" gradientUnits="userSpaceOnUse" gradientTransform="translate(319.846 19.3048) rotate(-92.44) scale(64.9606 64.9606)">
<stop stop-color="#7E67D7"/>
<stop offset="0.92" stop-color="#100148"/>
</radialGradient>
<radialGradient id="paint2_radial_501_3567" cx="0" cy="0" r="1" gradientUnits="userSpaceOnUse" gradientTransform="translate(334.354 32.9459) rotate(-137.44) scale(53.6596 53.6596)">
<stop stop-color="#7E67D7"/>
<stop offset="0.92" stop-color="#100148"/>
</radialGradient>
<radialGradient id="paint3_radial_501_3567" cx="0" cy="0" r="1" gradientUnits="userSpaceOnUse" gradientTransform="translate(334.368 33.3095) rotate(-137.44) scale(33.5932)">
<stop stop-color="#7E67D7"/>
<stop offset="0.92" stop-color="#100148"/>
</radialGradient>
<radialGradient id="paint4_radial_501_3567" cx="0" cy="0" r="1" gradientUnits="userSpaceOnUse" gradientTransform="translate(338.556 27.3107) rotate(-137.44) scale(61.5143 61.5143)">
<stop stop-color="#7E67D7"/>
<stop offset="0.92" stop-color="#100148"/>
</radialGradient>
<radialGradient id="paint5_radial_501_3567" cx="0" cy="0" r="1" gradientUnits="userSpaceOnUse" gradientTransform="translate(334.234 21.6744) rotate(-137.44) scale(53.0021 53.0021)">
<stop stop-color="#7E67D7"/>
<stop offset="0.92" stop-color="#100148"/>
</radialGradient>
<radialGradient id="paint6_radial_501_3567" cx="0" cy="0" r="1" gradientUnits="userSpaceOnUse" gradientTransform="translate(358.831 6.4777) rotate(-137.44) scale(12.4866)">
<stop stop-color="#7E67D7"/>
<stop offset="0.92" stop-color="#100148"/>
</radialGradient>
<radialGradient id="paint7_radial_501_3567" cx="0" cy="0" r="1" gradientUnits="userSpaceOnUse" gradientTransform="translate(322.226 -0.035161) rotate(-137.44) scale(13.3489)">
<stop stop-color="#7E67D7"/>
<stop offset="0.92" stop-color="#100148"/>
</radialGradient>
<radialGradient id="paint8_radial_501_3567" cx="0" cy="0" r="1" gradientUnits="userSpaceOnUse" gradientTransform="translate(336.81 24.4386) rotate(-137.44) scale(14.5507)">
<stop stop-color="#7E67D7"/>
<stop offset="0.92" stop-color="#100148"/>
</radialGradient>
<radialGradient id="paint9_radial_501_3567" cx="0" cy="0" r="1" gradientUnits="userSpaceOnUse" gradientTransform="translate(345.754 28.0089) rotate(-137.44) scale(7.98131)">
<stop stop-color="#7E67D7"/>
<stop offset="0.92" stop-color="#100148"/>
</radialGradient>
<radialGradient id="paint10_radial_501_3567" cx="0" cy="0" r="1" gradientUnits="userSpaceOnUse" gradientTransform="translate(357.32 11.7159) rotate(-137.44) scale(10.0292)">
<stop stop-color="#7E67D7"/>
<stop offset="0.92" stop-color="#100148"/>
</radialGradient>
<radialGradient id="paint11_radial_501_3567" cx="0" cy="0" r="1" gradientUnits="userSpaceOnUse" gradientTransform="translate(327.713 -4.44554) rotate(-137.44) scale(11.8534)">
<stop stop-color="#7E67D7"/>
<stop offset="0.92" stop-color="#100148"/>
</radialGradient>
<radialGradient id="paint12_radial_501_3567" cx="0" cy="0" r="1" gradientUnits="userSpaceOnUse" gradientTransform="translate(345.131 30.7911) rotate(-137.44) scale(4.79363)">
<stop stop-color="#7E67D7"/>
<stop offset="0.92" stop-color="#100148"/>
</radialGradient>
<radialGradient id="paint13_radial_501_3567" cx="0" cy="0" r="1" gradientUnits="userSpaceOnUse" gradientTransform="translate(328.195 15.0205) rotate(-137.44) scale(10.8941)">
<stop stop-color="#7E67D7"/>
<stop offset="0.92" stop-color="#100148"/>
</radialGradient>
<radialGradient id="paint14_radial_501_3567" cx="0" cy="0" r="1" gradientUnits="userSpaceOnUse" gradientTransform="translate(341.098 31.7683) rotate(-168.19) scale(11.0585)">
<stop stop-color="#7E67D7"/>
<stop offset="0.92" stop-color="#100148"/>
</radialGradient>
<radialGradient id="paint15_radial_501_3567" cx="0" cy="0" r="1" gradientUnits="userSpaceOnUse" gradientTransform="translate(326.426 27.338) rotate(-149.73) scale(6.55319)">
<stop stop-color="#7E67D7"/>
<stop offset="0.92" stop-color="#100148"/>
</radialGradient>
</defs>
</svg>
