<svg width="34" height="34" viewBox="0 0 34 34" fill="none" xmlns="http://www.w3.org/2000/svg">
<rect width="34" height="34" rx="11.1702" fill="url(#paint0_linear_149_174)"/>
<g clip-path="url(#clip0_149_174)">
<path d="M26.9037 15.1956C23.8194 13.8903 21.5683 11.2205 20.9327 8C20.2992 11.2205 18.0481 13.8903 14.9618 15.1956C14.3608 15.4491 12.8676 15.8412 12.8676 15.8412C12.8676 15.8412 14.3628 16.2314 14.9618 16.4869C18.0461 17.7921 20.2971 20.462 20.9327 23.6825C21.5663 20.462 23.8174 17.7921 26.9037 16.4869C27.5047 16.2334 28.9979 15.8412 28.9979 15.8412C28.9979 15.8412 27.5026 15.4511 26.9037 15.1956Z" fill="white"/>
<path d="M14.1653 21.9692C12.3359 21.1948 11.0015 19.6123 10.6247 17.703C10.2478 19.6123 8.91343 21.1948 7.08405 21.9692C6.72754 22.1198 5.84137 22.3515 5.84137 22.3515C5.84137 22.3515 6.72754 22.5832 7.08405 22.7338C8.91343 23.5082 10.2478 25.0907 10.6247 27C11.0015 25.0907 12.3359 23.5082 14.1653 22.7338C14.5218 22.5832 15.408 22.3515 15.408 22.3515C15.408 22.3515 14.5218 22.1198 14.1653 21.9692Z" fill="white"/>
<path d="M28.672 22.3515C28.672 22.8051 28.2951 23.1715 27.8286 23.1715C27.3621 23.1715 26.9852 22.8051 26.9852 22.3515C26.9852 21.898 27.3621 21.5316 27.8286 21.5316C28.2951 21.5316 28.672 21.898 28.672 22.3515Z" fill="white"/>
<path d="M13.1752 11.068C13.1752 11.5215 12.7983 11.8879 12.3318 11.8879C11.8653 11.8879 11.4884 11.5215 11.4884 11.068C11.4884 10.6144 11.8653 10.248 12.3318 10.248C12.7983 10.248 13.1752 10.6144 13.1752 11.068Z" fill="white"/>
<path d="M5.84339 16.6612C6.30918 16.6612 6.68678 16.2941 6.68678 15.8412C6.68678 15.3884 6.30918 15.0212 5.84339 15.0212C5.3776 15.0212 5 15.3884 5 15.8412C5 16.2941 5.3776 16.6612 5.84339 16.6612Z" fill="white"/>
</g>
<defs>
<linearGradient id="paint0_linear_149_174" x1="3.5" y1="3.5" x2="30" y2="34" gradientUnits="userSpaceOnUse">
<stop stop-color="#404065"/>
<stop offset="1" stop-color="#0085FF"/>
</linearGradient>
<clipPath id="clip0_149_174">
<rect width="24" height="19" fill="white" transform="translate(5 8)"/>
</clipPath>
</defs>
</svg>
