<svg width="19" height="18" viewBox="0 0 19 18" fill="none" xmlns="http://www.w3.org/2000/svg">
<circle cx="9.02698" cy="9.00024" r="9" fill="#F4C88E" fill-opacity="0.3"/>
<g clip-path="url(#clip0_668_17079)">
<path d="M15.9614 9.14779C15.9464 9.62815 15.8837 10.1044 15.7721 10.571C15.3662 12.2839 14.3216 13.8458 12.7308 14.8587C11.4369 15.6766 9.97284 16.0184 8.55776 15.9182C7.86316 15.8688 7.18626 15.7219 6.53661 15.4721C6.27784 15.3706 6.02724 15.2553 5.77391 15.1222C5.67176 15.0673 5.57506 15.0082 5.47973 14.9492C5.24819 14.812 5.02756 14.6596 4.81373 14.4949C4.52772 14.2808 4.25805 14.0407 4.00609 13.7717C3.69556 13.4354 3.41091 13.0758 3.16167 12.675C2.95874 12.3484 2.78441 12.0135 2.63731 11.669C2.54606 11.4522 2.46571 11.2285 2.39216 11.0006C2.29001 10.6712 2.21919 10.3391 2.17016 10.0015C2.12658 9.71736 2.1007 9.43326 2.09253 9.14779H15.9614Z" fill="#F95555"/>
<path d="M3.39048 9.14779C3.00096 9.43051 2.57058 9.73795 2.17016 10.0015C2.12658 9.71736 2.1007 9.43326 2.09253 9.14779H3.39048Z" fill="#F4C88E"/>
<path d="M4.94861 9.14779C3.91216 10.1867 3.14265 11.1118 2.63736 11.669C2.54611 11.4522 2.46576 11.2285 2.39221 11.0006C2.8117 10.2197 3.32379 9.6007 3.75826 9.14779H4.94861Z" fill="#F4C88E"/>
<path d="M11.2899 9.14779C9.9892 9.7805 9.71545 9.72834 8.85605 10.4228C6.92342 11.9792 7.12772 13.2638 5.17875 14.3165C5.0589 14.3824 4.93496 14.4442 4.81375 14.4949C4.52773 14.2808 4.25807 14.0407 4.0061 13.7717C5.17875 13.0305 6.50803 12.1727 6.36093 11.7857C6.23972 11.4673 5.07524 11.8255 4.91045 11.4508C4.74837 11.0816 7.15223 9.20131 7.15223 9.20131C7.15223 9.20131 7.19582 9.16563 7.21625 9.14779H11.2899Z" fill="#F4C88E"/>
<path d="M15.9614 9.14779C15.9464 9.62815 15.8838 10.1044 15.7721 10.571C15.3226 11.2573 14.7656 11.9614 14.1513 12.5886C12.4217 14.3604 10.2793 15.3884 8.55777 15.9182C7.86317 15.8688 7.18627 15.7219 6.53662 15.4721C7.00241 15.1688 7.43279 14.8888 7.37559 14.7708C7.3034 14.6281 6.51483 14.8779 5.77392 15.1222C5.67177 15.0673 5.57507 15.0083 5.47974 14.9492C6.14029 14.6171 7.06097 14.1546 8.06338 13.5644C9.95378 12.4472 11.7597 11.2463 11.6603 11.0596C11.5527 10.8881 9.83937 11.7308 9.72088 11.54C9.60375 11.3218 11.5173 10.0783 11.7339 9.93284C12.1411 9.66933 12.703 9.40307 13.1062 9.14779H15.9614Z" fill="#F4C88E"/>
</g>
<g clip-path="url(#clip1_668_17079)">
<path d="M2.09257 9.14778C2.10755 8.66742 2.17021 8.19117 2.28189 7.72453C2.68775 6.01168 3.73237 4.44981 5.32315 3.43692C6.61701 2.61892 8.08112 2.27718 9.4962 2.37737C10.1908 2.42678 10.8677 2.57363 11.5173 2.82342C11.7761 2.92499 12.0267 3.04028 12.28 3.17341C12.3822 3.2283 12.4789 3.28732 12.5742 3.34634C12.8058 3.48358 13.0264 3.63593 13.2402 3.80063C13.5262 4.01473 13.7959 4.25492 14.0479 4.52392C14.3584 4.86018 14.643 5.21976 14.8923 5.62053C15.0952 5.94718 15.2695 6.28206 15.4166 6.62655C15.5079 6.8434 15.5882 7.06711 15.6618 7.29495C15.7639 7.62434 15.8348 7.95648 15.8838 8.29411C15.9274 8.57821 15.9533 8.86231 15.9614 9.14779L2.09257 9.14778Z" fill="#F95555"/>
<path d="M14.6635 9.14779C15.053 8.86506 15.4834 8.55762 15.8838 8.29411C15.9274 8.57821 15.9533 8.86231 15.9614 9.14779L14.6635 9.14779Z" fill="#F4C88E"/>
<path d="M13.1053 9.14778C14.1418 8.10882 14.9113 7.18377 15.4166 6.62655C15.5078 6.8434 15.5882 7.06711 15.6617 7.29494C15.2423 8.07588 14.7302 8.69487 14.2957 9.14779L13.1053 9.14778Z" fill="#F4C88E"/>
<path d="M6.76408 9.14778C8.06476 8.51507 8.33851 8.56723 9.19791 7.87276C11.1305 6.31637 10.9262 5.03173 12.8752 3.97905C12.9951 3.91317 13.119 3.85141 13.2402 3.80063C13.5262 4.01473 13.7959 4.25492 14.0479 4.52392C12.8752 5.26506 11.5459 6.12285 11.693 6.50989C11.8142 6.8283 12.9787 6.47009 13.1435 6.84477C13.3056 7.21397 12.2964 7.92903 10.9017 9.09426C10.8799 9.1121 10.8581 9.12994 10.8377 9.14778L6.76408 9.14778Z" fill="#F4C88E"/>
<path d="M2.09256 9.15072C2.10755 8.67035 2.1702 8.1941 2.28188 7.72746C2.73132 7.04122 3.28837 6.33715 3.90261 5.70992C5.6323 3.93806 7.77467 2.91008 9.49619 2.3803C10.1908 2.42971 10.8677 2.57657 11.5173 2.82636C11.0515 3.12967 10.6212 3.40966 10.6784 3.52769C10.7506 3.67043 11.5391 3.42064 12.28 3.17634C12.3822 3.23124 12.4789 3.29025 12.5742 3.34927C11.9137 3.68141 10.993 4.14393 9.99058 4.7341C8.10018 5.85129 6.29422 7.0522 6.39364 7.23886C6.50123 7.41042 8.21458 6.56772 8.33307 6.7585C8.4502 6.97672 6.53664 8.22018 6.32009 8.36566C5.91287 8.62918 5.34722 8.89544 4.94408 9.15072L2.09256 9.15072Z" fill="#F4C88E"/>
</g>
<defs>
<clipPath id="clip0_668_17079">
<rect width="13.8689" height="6.78689" fill="white" transform="translate(2.09253 9.14779)"/>
</clipPath>
<clipPath id="clip1_668_17079">
<rect width="13.8689" height="6.78689" fill="white" transform="translate(15.9614 9.14779) rotate(-180)"/>
</clipPath>
</defs>
</svg>
