<svg width="114" height="65" viewBox="0 0 114 65" fill="none" xmlns="http://www.w3.org/2000/svg">
<circle cx="57" cy="-14" r="61" fill="#F4C88E" fill-opacity="0.3"/>
<circle cx="57" cy="-14" r="69.5" stroke="#FDF4E8"/>
<circle cx="57" cy="-14" r="78.5" stroke="#FDF4E8"/>
<g clip-path="url(#clip0_6_4606)">
<path d="M104 -13C103.898 -9.74419 103.474 -6.51628 102.717 -3.35349C99.966 8.25581 92.8858 18.8419 82.1039 25.707C73.3344 31.2512 63.411 33.5674 53.8199 32.8884C49.1121 32.5535 44.5242 31.5581 40.121 29.8651C38.3671 29.1767 36.6686 28.3953 34.9516 27.493C34.2593 27.1209 33.6039 26.7209 32.9577 26.3209C31.3884 25.3907 29.893 24.3581 28.4437 23.2419C26.5052 21.7907 24.6774 20.1628 22.9697 18.3395C20.865 16.0605 18.9357 13.6233 17.2464 10.907C15.871 8.69302 14.6894 6.42326 13.6924 4.08837C13.0739 2.6186 12.5293 1.10233 12.0308 -0.441861C11.3385 -2.67442 10.8585 -4.92558 10.5262 -7.21395C10.2308 -9.13954 10.0554 -11.0651 10 -13H104Z" fill="#F95555"/>
<path d="M29.3575 -13C22.3327 -5.95814 17.1171 0.311629 13.6924 4.08837C13.0739 2.61861 12.5293 1.10233 12.0308 -0.44186C14.874 -5.73488 18.3449 -9.93023 21.2896 -13H29.3575Z" fill="#F4C88E"/>
<path d="M72.3374 -13C63.5218 -8.71163 61.6663 -9.06512 55.8415 -4.35814C42.7426 6.1907 44.1273 14.8977 30.9176 22.0326C30.1053 22.4791 29.2653 22.8977 28.4437 23.2419C26.5052 21.7907 24.6774 20.1628 22.9697 18.3395C30.9176 13.3163 39.9271 7.50233 38.9302 4.87907C38.1086 2.72093 30.2161 5.14884 29.0991 2.6093C28.0006 0.106977 34.8408 -4.73954 44.2934 -12.6372C44.4411 -12.7581 44.5888 -12.8791 44.7273 -13L72.3374 -13Z" fill="#F4C88E"/>
<path d="M104 -13C103.898 -9.74419 103.474 -6.51628 102.717 -3.35349C99.6707 1.29768 95.8951 6.06977 91.7319 10.3209C80.0085 22.3302 65.488 29.2977 53.8199 32.8884C49.1121 32.5535 44.5242 31.5581 40.121 29.8651C43.278 27.8093 46.1951 25.9116 45.8074 25.1116C45.3181 24.1442 39.9733 25.8372 34.9516 27.493C34.2593 27.1209 33.6039 26.7209 32.9577 26.3209C37.4348 24.0698 43.675 20.9349 50.469 16.9349C63.2818 9.36279 75.5222 1.22326 74.8483 -0.0418596C74.119 -1.20465 62.5064 4.50698 61.7033 3.21395C60.9094 1.73488 73.879 -6.69302 75.3468 -7.67907C78.1069 -9.46512 80.8947 -11.2698 83.627 -13L104 -13Z" fill="#F4C88E"/>
</g>
<defs>
<clipPath id="clip0_6_4606">
<rect width="94" height="46" fill="white" transform="translate(10 -13)"/>
</clipPath>
</defs>
</svg>
