<svg width="768" height="1024" viewBox="0 0 768 1024" fill="none" xmlns="http://www.w3.org/2000/svg">
<path d="M768.299 0H-255.701V1024H768.299V0Z" fill="url(#paint0_linear_272_4004)"/>
<path d="M768.299 0H-255.701V1024H768.299V0Z" fill="url(#paint1_linear_272_4004)"/>
<g style="mix-blend-mode:soft-light" opacity="0.55">
<path d="M31.2444 166.748L35.6783 164.424L34.8387 169.359L38.4227 172.851L33.4665 173.568L31.2444 178.063L29.0326 173.568L24.0764 172.851L27.6604 169.359L26.8105 164.424L31.2444 166.748Z" fill="#E8F1FF"/>
</g>
<g style="mix-blend-mode:soft-light" opacity="0.55">
<path d="M1.46585 233.943L5.89977 231.619L5.04985 236.554L8.64409 240.046L3.68793 240.773L1.46585 245.258L-0.745992 240.773L-5.70215 240.046L-2.11815 236.554L-2.96807 231.619L1.46585 233.943Z" fill="#E8F1FF"/>
</g>
<g style="mix-blend-mode:soft-light" opacity="0.55">
<path d="M664.066 651.428L666.739 655.667L661.752 655.196L658.537 659.046L657.441 654.152L652.792 652.288L657.103 649.738L657.441 644.741L661.199 648.049L666.053 646.82L664.066 651.428Z" fill="#E8F1FF"/>
</g>
<g style="mix-blend-mode:soft-light" opacity="0.55">
<path d="M565.946 909.752L568.609 913.992L563.622 913.531L560.417 917.371L559.311 912.486L554.672 910.623L558.973 908.063L559.311 903.066L563.069 906.373L567.933 905.155L565.946 909.752Z" fill="#E8F1FF"/>
</g>
<g style="mix-blend-mode:soft-light" opacity="0.55">
<path d="M572.899 713.82L575.562 718.059L570.575 717.588L567.37 721.439L566.264 716.544L561.615 714.68L565.926 712.13L566.264 707.133L570.022 710.441L574.886 709.212L572.899 713.82Z" fill="#E8F1FF"/>
</g>
<g style="mix-blend-mode:soft-light" opacity="0.55">
<path d="M516.784 785.818L519.446 790.057L514.459 789.596L511.254 793.436L510.148 788.552L505.51 786.688L509.81 784.128L510.148 779.131L513.917 782.438L518.77 781.22L516.784 785.818Z" fill="#E8F1FF"/>
</g>
<g style="mix-blend-mode:soft-light" opacity="0.55">
<path d="M586.856 806.328L589.518 810.578L584.532 810.107L581.326 813.957L580.231 809.062L575.582 807.199L579.883 804.649L580.221 799.652L583.989 802.959L588.843 801.73L586.856 806.328Z" fill="#E8F1FF"/>
</g>
<g style="mix-blend-mode:soft-light" opacity="0.55">
<path d="M515.473 679.782L518.135 684.022L513.148 683.561L509.933 687.401L508.837 682.517L504.188 680.653L508.499 678.093L508.837 673.096L512.595 676.403L517.449 675.185L515.473 679.782Z" fill="#E8F1FF"/>
</g>
<g style="mix-blend-mode:soft-light" opacity="0.55">
<path d="M433.512 602.532L436.175 606.771L431.188 606.3L427.972 610.15L426.877 605.266L422.228 603.392L426.539 600.842L426.877 595.845L430.635 599.153L435.489 597.924L433.512 602.532Z" fill="#E8F1FF"/>
</g>
<g style="mix-blend-mode:soft-light" opacity="0.55">
<path d="M457.863 380.918L460.525 385.157L455.538 384.696L452.323 388.536L451.227 383.652L446.578 381.788L450.889 379.228L451.227 374.231L454.985 377.538L459.849 376.32L457.863 380.918Z" fill="#E8F1FF"/>
</g>
<g style="mix-blend-mode:soft-light" opacity="0.55">
<path d="M657.881 812.483L660.544 816.732L655.557 816.261L652.341 820.111L651.246 815.217L646.597 813.353L650.908 810.803L651.246 805.806L655.004 809.114L659.857 807.885L657.881 812.483Z" fill="#E8F1FF"/>
</g>
<g style="mix-blend-mode:soft-light" opacity="0.55">
<path d="M630.448 716.831L633.11 721.07L628.124 720.609L624.918 724.449L623.823 719.565L619.174 717.701L623.475 715.141L623.813 710.144L627.581 713.462L632.435 712.233L630.448 716.831Z" fill="#E8F1FF"/>
</g>
<g style="mix-blend-mode:soft-light" opacity="0.55">
<path d="M496.662 885.217L499.325 889.457L494.338 888.996L491.133 892.836L490.027 887.951L485.378 886.088L489.689 883.528L490.027 878.531L493.785 881.838L498.649 880.62L496.662 885.217Z" fill="#E8F1FF"/>
</g>
<g style="mix-blend-mode:soft-light" opacity="0.55">
<path d="M614.606 510.966L617.279 515.215L612.292 514.744L609.077 518.594L607.981 513.7L603.332 511.836L607.643 509.286L607.981 504.289L611.739 507.597L616.593 506.368L614.606 510.966Z" fill="#E8F1FF"/>
</g>
<g style="mix-blend-mode:soft-light" opacity="0.55">
<path d="M551.211 575.089L553.873 579.328L548.887 578.867L545.681 582.707L544.576 577.823L539.937 575.959L544.238 573.409L544.576 568.412L548.334 571.72L553.198 570.491L551.211 575.089Z" fill="#E8F1FF"/>
</g>
<g style="mix-blend-mode:soft-light" opacity="0.55">
<path d="M527.956 415.959L530.618 420.198L525.631 419.737L522.416 423.577L521.32 418.693L516.671 416.829L520.982 414.269L521.32 409.272L525.078 412.58L529.942 411.361L527.956 415.959Z" fill="#E8F1FF"/>
</g>
<g style="mix-blend-mode:soft-light" opacity="0.55">
<path d="M470.171 50.944L474.605 48.6093L473.766 53.5449L477.35 57.0368L472.394 57.7638L470.171 62.2489L467.96 57.7638L463.003 57.0368L466.587 53.5449L465.738 48.6093L470.171 50.944Z" fill="#E8F1FF"/>
</g>
<g style="mix-blend-mode:soft-light" opacity="0.55">
<path d="M720.212 168.591L724.646 166.257L723.806 171.192L727.39 174.694L722.434 175.411L720.212 179.907L718 175.411L713.044 174.694L716.628 171.192L715.788 166.257L720.212 168.591Z" fill="#E8F1FF"/>
</g>
<g style="mix-blend-mode:soft-light" opacity="0.55">
<path d="M525.386 146.627L529.82 144.302L528.98 149.238L532.564 152.73L527.608 153.446L525.386 157.942L523.174 153.446L518.218 152.73L521.802 149.238L520.952 144.302L525.386 146.627Z" fill="#E8F1FF"/>
</g>
<g style="mix-blend-mode:soft-light" opacity="0.55">
<path d="M592.877 208.097L597.301 205.773L596.461 210.708L600.045 214.2L595.089 214.917L592.877 219.412L590.655 214.917L585.699 214.2L589.283 210.708L588.443 205.773L592.877 208.097Z" fill="#E8F1FF"/>
</g>
<g style="mix-blend-mode:soft-light" opacity="0.55">
<path d="M618.702 139.807L623.136 137.472L622.286 142.418L625.881 145.91L620.925 146.626L618.702 151.122L616.491 146.626L611.534 145.91L615.118 142.418L614.269 137.472L618.702 139.807Z" fill="#E8F1FF"/>
</g>
<g style="mix-blend-mode:soft-light" opacity="0.55">
<path d="M487.047 201.277L491.481 198.943L490.631 203.889L494.225 207.38L489.269 208.097L487.047 212.593L484.835 208.097L479.879 207.38L483.463 203.889L482.613 198.943L487.047 201.277Z" fill="#E8F1FF"/>
</g>
<g style="mix-blend-mode:soft-light" opacity="0.55">
<path d="M403.734 277.074L408.168 274.739L407.318 279.675L410.913 283.167L405.957 283.894L403.734 288.379L401.523 283.894L396.566 283.167L400.15 279.675L399.301 274.739L403.734 277.074Z" fill="#E8F1FF"/>
</g>
<g style="mix-blend-mode:soft-light" opacity="0.55">
<path d="M184.649 235.786L189.083 233.462L188.233 238.397L191.817 241.889L186.861 242.606L184.649 247.101L182.427 242.606L177.471 241.889L181.065 238.397L180.216 233.462L184.649 235.786Z" fill="#E8F1FF"/>
</g>
<g style="mix-blend-mode:soft-light" opacity="0.55">
<path d="M630.294 69.4682L634.718 67.1437L633.878 72.0794L637.462 75.5713L632.506 76.2881L630.294 80.7834L628.072 76.2881L623.116 75.5713L626.7 72.0794L625.861 67.1437L630.294 69.4682Z" fill="#E8F1FF"/>
</g>
<g style="mix-blend-mode:soft-light" opacity="0.55">
<path d="M532.81 89.4771L537.243 87.1424L536.394 92.0883L539.988 95.5802L535.032 96.297L532.81 100.792L530.598 96.297L525.642 95.5802L529.226 92.0883L528.376 87.1424L532.81 89.4771Z" fill="#E8F1FF"/>
</g>
<g style="mix-blend-mode:soft-light" opacity="0.55">
<path d="M690.434 235.786L694.868 233.462L694.018 238.397L697.612 241.889L692.656 242.606L690.434 247.101L688.222 242.606L683.266 241.889L686.85 238.397L686 233.462L690.434 235.786Z" fill="#E8F1FF"/>
</g>
<g style="mix-blend-mode:soft-light" opacity="0.55">
<path d="M326.341 89.4771L330.774 87.1424L329.925 92.0883L333.519 95.5802L328.552 96.297L326.341 100.792L324.129 96.297L319.173 95.5802L322.757 92.0883L321.907 87.1424L326.341 89.4771Z" fill="#E8F1FF"/>
</g>
<g style="mix-blend-mode:soft-light" opacity="0.55">
<path d="M385.405 157.614L389.839 155.279L388.999 160.215L392.583 163.707L387.627 164.434L385.405 168.919L383.193 164.434L378.237 163.707L381.821 160.215L380.981 155.279L385.405 157.614Z" fill="#E8F1FF"/>
</g>
<g style="mix-blend-mode:soft-light" opacity="0.55">
<path d="M224.964 168.591L229.398 166.257L228.548 171.192L232.132 174.694L227.176 175.411L224.964 179.907L222.742 175.411L217.786 174.694L221.38 171.192L220.53 166.257L224.964 168.591Z" fill="#E8F1FF"/>
</g>
<g style="mix-blend-mode:soft-light" opacity="0.55">
<path d="M77.9077 381.583L82.3416 379.259L81.4917 384.195L85.0757 387.686L80.1196 388.403L77.9077 392.899L75.6959 388.403L70.7295 387.686L74.3237 384.195L73.4738 379.259L77.9077 381.583Z" fill="#E8F1FF"/>
</g>
<g style="mix-blend-mode:soft-light" opacity="0.55">
<path d="M327.948 499.231L332.382 496.906L331.532 501.842L335.126 505.334L330.17 506.061L327.948 510.546L325.736 506.061L320.78 505.334L324.364 501.842L323.514 496.906L327.948 499.231Z" fill="#E8F1FF"/>
</g>
<g style="mix-blend-mode:soft-light" opacity="0.55">
<path d="M133.122 477.276L137.556 474.942L136.706 479.877L140.29 483.379L135.334 484.096L133.122 488.591L130.91 484.096L125.954 483.379L129.538 479.877L128.688 474.942L133.122 477.276Z" fill="#E8F1FF"/>
</g>
<g style="mix-blend-mode:soft-light" opacity="0.55">
<path d="M200.604 538.747L205.037 536.412L204.198 541.348L207.782 544.85L202.826 545.567L200.604 550.062L198.392 545.567L193.436 544.85L197.02 541.348L196.17 536.412L200.604 538.747Z" fill="#E8F1FF"/>
</g>
<g style="mix-blend-mode:soft-light" opacity="0.55">
<path d="M226.439 470.456L230.873 468.122L230.023 473.057L233.607 476.549L228.651 477.276L226.439 481.761L224.217 477.276L219.26 476.549L222.855 473.057L222.005 468.122L226.439 470.456Z" fill="#E8F1FF"/>
</g>
<g style="mix-blend-mode:soft-light" opacity="0.55">
<path d="M94.7832 531.927L99.2171 529.592L98.3672 534.528L101.951 538.02L96.995 538.747L94.7832 543.232L92.5611 538.747L87.605 538.02L91.1992 534.528L90.3493 529.592L94.7832 531.927Z" fill="#E8F1FF"/>
</g>
<g style="mix-blend-mode:soft-light" opacity="0.55">
<path d="M11.4707 607.713L15.9046 605.389L15.0547 610.325L18.6387 613.816L13.6826 614.533L11.4707 619.029L9.24864 614.533L4.29248 613.816L7.88673 610.325L7.03679 605.389L11.4707 607.713Z" fill="#E8F1FF"/>
</g>
<g style="mix-blend-mode:soft-light" opacity="0.55">
<path d="M238.021 400.118L242.454 397.783L241.605 402.719L245.199 406.221L240.243 406.938L238.021 411.423L235.809 406.938L230.853 406.221L234.437 402.719L233.587 397.783L238.021 400.118Z" fill="#E8F1FF"/>
</g>
<g style="mix-blend-mode:soft-light" opacity="0.55">
<path d="M140.546 420.127L144.98 417.792L144.13 422.728L147.714 426.22L142.757 426.947L140.546 431.432L138.334 426.947L133.367 426.22L136.962 422.728L136.112 417.792L140.546 420.127Z" fill="#E8F1FF"/>
</g>
<g style="mix-blend-mode:soft-light" opacity="0.55">
<path d="M298.17 566.436L302.604 564.101L301.754 569.037L305.338 572.539L300.382 573.256L298.17 577.751L295.948 573.256L290.992 572.539L294.586 569.037L293.736 564.101L298.17 566.436Z" fill="#E8F1FF"/>
</g>
<g style="mix-blend-mode:soft-light" opacity="0.55">
<path d="M-6.85886 488.254L-2.42493 485.929L-3.27485 490.865L0.319395 494.357L-4.63678 495.073L-6.85886 499.569L-9.07068 495.073L-14.0269 494.357L-10.4429 490.865L-11.2928 485.929L-6.85886 488.254Z" fill="#E8F1FF"/>
</g>
<g style="mix-blend-mode:soft-light" opacity="0.55">
<path d="M112.519 737.946L116.953 735.621L116.113 740.557L119.697 744.049L114.741 744.765L112.519 749.261L110.307 744.765L105.351 744.049L108.935 740.557L108.095 735.621L112.519 737.946Z" fill="#E8F1FF"/>
</g>
<g style="mix-blend-mode:soft-light" opacity="0.55">
<path d="M362.569 855.603L367.003 853.268L366.153 858.204L369.737 861.696L364.781 862.423L362.569 866.908L360.347 862.423L355.391 861.696L358.975 858.204L358.135 853.268L362.569 855.603Z" fill="#E8F1FF"/>
</g>
<g style="mix-blend-mode:soft-light" opacity="0.55">
<path d="M167.733 833.638L172.167 831.304L171.327 836.239L174.911 839.741L169.955 840.458L167.733 844.954L165.521 840.458L160.565 839.741L164.149 836.239L163.309 831.304L167.733 833.638Z" fill="#E8F1FF"/>
</g>
<g style="mix-blend-mode:soft-light" opacity="0.55">
<path d="M235.225 895.109L239.659 892.774L238.809 897.71L242.393 901.212L237.437 901.929L235.225 906.424L233.003 901.929L228.047 901.212L231.641 897.71L230.791 892.774L235.225 895.109Z" fill="#E8F1FF"/>
</g>
<g style="mix-blend-mode:soft-light" opacity="0.55">
<path d="M261.05 826.818L265.484 824.484L264.644 829.419L268.228 832.921L263.272 833.638L261.05 838.123L258.838 833.638L253.882 832.921L257.466 829.419L256.616 824.484L261.05 826.818Z" fill="#E8F1FF"/>
</g>
<g style="mix-blend-mode:soft-light" opacity="0.55">
<path d="M129.395 888.289L133.828 885.955L132.989 890.89L136.573 894.392L131.617 895.109L129.395 899.594L127.183 895.109L122.227 894.392L125.811 890.89L124.961 885.955L129.395 888.289Z" fill="#E8F1FF"/>
</g>
<g style="mix-blend-mode:soft-light" opacity="0.55">
<path d="M46.0816 964.076L50.5155 961.751L49.6758 966.687L53.2598 970.179L48.3037 970.895L46.0816 975.391L43.8697 970.895L38.9136 970.179L42.4976 966.687L41.6477 961.751L46.0816 964.076Z" fill="#E8F1FF"/>
</g>
<g style="mix-blend-mode:soft-light" opacity="0.55">
<path d="M272.642 756.48L277.076 754.145L276.226 759.081L279.81 762.583L274.854 763.3L272.642 767.795L270.42 763.3L265.464 762.583L269.048 759.081L268.208 754.145L272.642 756.48Z" fill="#E8F1FF"/>
</g>
<g style="mix-blend-mode:soft-light" opacity="0.55">
<path d="M175.157 776.489L179.591 774.154L178.751 779.09L182.335 782.592L177.379 783.309L175.157 787.794L172.945 783.309L167.989 782.592L171.573 779.09L170.733 774.154L175.157 776.489Z" fill="#E8F1FF"/>
</g>
<g style="mix-blend-mode:soft-light" opacity="0.55">
<path d="M332.781 922.798L337.215 920.464L336.376 925.399L339.96 928.901L335.003 929.618L332.781 934.113L330.569 929.618L325.613 928.901L329.197 925.399L328.347 920.464L332.781 922.798Z" fill="#E8F1FF"/>
</g>
<g style="mix-blend-mode:soft-light" opacity="0.55">
<path d="M27.7622 844.616L32.1961 842.291L31.3462 847.227L34.9302 850.719L29.9741 851.435L27.7622 855.931L25.5401 851.435L20.584 850.719L24.168 847.227L23.3283 842.291L27.7622 844.616Z" fill="#E8F1FF"/>
</g>
<path d="M582.546 384.788C683.585 384.788 765.494 302.88 765.494 201.841C765.494 100.801 683.585 18.8928 582.546 18.8928C481.506 18.8928 399.598 100.801 399.598 201.841C399.598 302.88 481.506 384.788 582.546 384.788Z" fill="url(#paint2_linear_272_4004)"/>
<path opacity="0.65" d="M592.438 20.3878C592.263 20.3981 592.1 20.3981 591.926 20.4083L593.031 19.1488C598.899 12.4826 604.695 6.08256 610.45 0H625.912C618.242 5.50912 610.583 12.0832 602.831 19.5277C602.616 19.7325 602.401 19.9373 602.176 20.1523L602.084 20.2445C599.35 20.2445 595.878 20.2957 592.438 20.3878Z" fill="#C9E0FC"/>
<path opacity="0.55" d="M500.988 597.317C516.649 549.28 490.403 497.643 442.366 481.982C394.329 466.321 342.692 492.566 327.031 540.603C311.37 588.64 337.616 640.277 385.653 655.938C433.689 671.599 485.327 645.354 500.988 597.317Z" fill="url(#paint3_linear_272_4004)"/>
<path opacity="0.45" d="M395.374 783.382C383.814 746.728 344.729 726.384 308.075 737.943C271.42 749.502 251.076 788.587 262.636 825.242C274.195 861.897 313.28 882.24 349.934 870.681C386.589 859.122 406.933 820.037 395.374 783.382Z" fill="url(#paint4_linear_272_4004)"/>
<path opacity="0.35" d="M252.668 1060.44C276.822 1048.16 286.451 1018.63 274.174 994.474C261.897 970.32 232.364 960.691 208.21 972.968C184.056 985.245 174.427 1014.78 186.704 1038.93C198.981 1063.09 228.514 1072.71 252.668 1060.44Z" fill="url(#paint5_linear_272_4004)"/>
<path d="M639.383 905.321C643.44 903.065 651.262 901.356 654.734 912.858C654.773 912.503 654.811 912.157 654.85 911.818C657.113 891.225 672.664 899.608 677.453 902.434C700.88 916.253 697.138 971.028 687.961 1021H650.5C650.762 1004.46 651.139 984.439 651.763 965.316C646.982 987.934 639.784 1010.24 636.111 1021H602.276C601.891 999.051 595.678 929.579 639.383 905.321Z" fill="url(#paint6_linear_272_4004)"/>
<path d="M633.348 802.945L637.313 785.315L650.262 784.237L653.888 789.803C653.888 789.803 653.919 792.76 653.942 795.369C653.98 799.319 658.892 823.115 640.954 825.024C625.272 826.695 633.348 802.968 633.348 802.945Z" fill="#1E7DF4"/>
<path d="M625.28 801.167L630.23 800.72C637.089 800.097 643.602 797.009 648.006 791.713C653.187 785.477 654.311 778.132 655.227 770.472C655.227 770.472 660.585 767.023 658.214 762.173C654.096 753.759 634.61 751.364 626.719 752.104C614.633 753.228 614.987 775.469 614.987 775.469C613.393 787.563 615.972 794.869 618.836 798.518C620.353 800.458 622.832 801.398 625.28 801.174V801.167Z" fill="#1E7DF4"/>
<path d="M619.437 741.348C621.592 741.502 623.517 740.201 624.726 738.4C626.042 736.437 628.79 734.851 634.518 736.391C642.34 738.492 646.851 741.91 651.232 744.135C649.199 740.355 649.338 735.798 649.338 735.798C651.432 741.425 655.358 744.697 655.358 744.697C666.829 743.558 669.3 753.635 669.3 753.635C668.469 750.756 665.944 749.201 663.195 748.37C668.038 751.88 670.84 759.894 663.958 775.068C663.611 775.838 663.303 776.569 663.011 777.301H663.118C658.384 784.145 657.583 790.034 657.522 792.921L657.599 794.807C657.599 794.807 657.021 795.346 656.19 795.924L654.588 797.194L645.543 798.179C645.543 798.179 647.028 782.39 644.657 776.492C642.363 770.795 633.102 761.442 632.478 760.818C625.234 761.057 618.12 760.595 616.734 757.739C614.587 753.312 612.616 740.856 619.437 741.348Z" fill="#121420"/>
<path d="M651.44 780.265C650.885 784.445 646.697 787.54 641.655 787.14L642.54 776.939C642.833 773.559 646.667 771.535 649.469 773.436C651.078 774.529 651.94 776.508 651.44 780.257V780.265Z" fill="#1E7DF4"/>
<path d="M601.399 818.766C604.07 815.424 620.607 808.627 632.701 805.416C645.288 817.942 653.456 805.216 653.941 804.208C658.068 804.777 662.71 805.917 667.068 807.718C678.762 812.545 690.795 815.578 693.682 821.322C695.298 824.54 701.765 884.427 702.335 918.378C702.65 937.108 698.116 939.503 698.116 939.503C695.083 946.547 620.992 958.841 605.102 939.749C597.996 931.203 603.947 895.305 603.947 895.305C600.252 862.801 597.141 824.093 601.399 818.773V818.766Z" fill="url(#paint7_linear_272_4004)"/>
<path d="M600.229 802.298C596.302 797.91 594.455 792.051 595.432 786.247C595.956 783.136 596.033 779.818 595.579 776.416C592.73 754.813 582.545 752.373 571.29 754.097C566.963 754.759 563.214 757.061 560.358 760.441C558.964 762.096 557.117 763.266 555.046 763.89C545.607 766.738 540.334 776.392 542.204 785.546C542.99 789.38 542.135 793.429 539.648 796.455C535.576 801.39 533.328 807.656 533.428 814.177C533.497 818.373 531.465 822.33 528.185 824.94C519.948 831.484 515.767 842.6 518.939 853.809C522.334 865.827 533.79 874.057 546.269 873.472C557.078 872.971 565.847 866.427 569.896 857.505C572.367 852.062 577.302 848.151 583.23 847.397C583.461 847.366 583.7 847.335 583.931 847.296C606.541 843.824 613.563 817.187 600.221 802.29L600.229 802.298Z" fill="#1E7DF4"/>
<path d="M550.48 795.908C556.254 808.903 570.658 815.109 582.645 809.781C594.632 804.454 599.92 789.48 593.892 776.608C587.349 762.643 575.986 759.648 564.43 765.868C551.75 772.689 544.699 782.921 550.48 795.908Z" fill="#1E7DF4"/>
<path d="M557.14 802.283C558.733 805.855 563.275 807.51 567.656 805.824L562.49 792.644C558.11 794.322 554.291 795.87 557.147 802.275L557.14 802.283Z" fill="#121420"/>
<path d="M628.044 866.635C628.044 866.635 626.404 830.028 616.758 821.083C602.577 807.926 585.086 815.532 591.953 837.896C598.82 860.261 609.975 902.303 616.38 901.14C629.037 898.831 628.044 866.635 628.044 866.635Z" fill="url(#paint8_linear_272_4004)"/>
<path d="M605.571 834.987L605.04 829.097C602.214 819.82 596.787 818.388 586.956 817.765L587.025 818.234C593.515 819.112 597.549 820.074 597.549 820.074C597.549 820.074 581.898 869.538 574.915 865.635C568.88 862.263 562.074 828.412 560.334 819.266C549.518 822.422 540.387 830.39 539.879 849.483C539.663 857.597 542.312 868.46 544.983 877.213C548.078 887.36 556.315 901.656 551.273 910.987L553.467 923.451C556.577 931.381 577.448 947.671 595.463 938.964C595.463 938.964 606.926 903.311 609.074 879.099C615.187 876.875 620.445 873.11 620.807 866.735C621.422 856.042 605.571 834.987 605.571 834.987Z" fill="url(#paint9_linear_272_4004)"/>
<path d="M511.857 860.892C511.857 860.892 526.384 824.262 537.231 816.818C553.183 805.878 569.373 815.963 559.311 837.08C549.249 858.198 518.169 902.572 512.003 900.478C499.824 896.344 511.857 860.892 511.857 860.892Z" fill="url(#paint10_linear_272_4004)"/>
<path d="M568.318 816.879L567.032 804.169C565.585 802.852 564.484 801.39 563.868 799.812C563.868 799.812 557.409 787.394 558.24 782.459C559.688 773.89 576.394 766.638 583.615 765.206C594.67 763.028 600.205 782.905 600.205 782.905C607.103 798.418 596.88 808.765 593.169 810.205C591.175 810.975 588.681 811.267 585.994 811.167L587.033 818.257C593.523 819.135 597.557 820.097 597.557 820.097C597.557 820.097 581.906 869.561 574.923 865.658C567.941 861.754 559.919 817.018 559.919 817.018C562.798 816.879 565.608 816.841 568.318 816.872V816.879Z" fill="#121420"/>
<path d="M556.247 776.261C561.62 771.542 584.801 762.111 584.801 762.111C584.801 762.111 584.092 771.681 576.294 781.034C574.161 783.598 571.274 786.023 568.403 788.109C565.439 790.265 563.937 793.891 564.638 797.494L564.145 796.724C562.706 794.469 559.78 793.691 557.394 794.9C557.394 794.9 550.873 780.988 556.247 776.269V776.261Z" fill="#1E7DF4"/>
<path d="M566.932 795.254C566.932 795.254 580.744 781.912 600.321 777.955C600.321 777.955 598.212 761.765 586.271 759.032C578.549 757.261 551.566 769.749 566.932 795.254Z" fill="#1E7DF4"/>
<path d="M617.604 816.148C617.604 816.148 617.565 806.948 617.242 804.215C616.903 801.397 618.82 793.922 619.552 793.499C620.237 793.106 621.299 795.008 621.453 795.993C621.684 797.471 619.821 802.314 621.307 802.46L623.578 794.022C623.578 794.022 624.602 783.029 625.518 783.075C627.366 783.16 627.096 794.199 627.096 794.199C628.082 794.199 627.997 781.681 629.298 781.897C631.269 782.236 630.33 794.638 630.33 794.638C631.323 794.8 631.623 782.959 633.194 783.321C634.364 783.591 632.986 794.884 632.986 794.884C633.925 795.015 634.294 787.425 635.265 788.117C636.235 788.818 636.389 794.168 635.465 796.84C634.371 800.027 628.736 808.519 628.736 808.519L625.918 815.848C625.918 815.848 623.17 821.722 617.604 816.133V816.148Z" fill="#121420"/>
<path d="M540.703 1015.99C540.795 1017.47 540.911 1019.15 541.057 1021H575.362L576.786 1008.47L582.368 961.682L589.142 1021H624.456L626.073 1008.47C626.558 999.374 628.929 988.565 629.568 974.616C631.739 927.169 610.306 913.881 610.306 913.881L605.102 905.29C583.507 917.269 560.15 920.225 551.158 907.607L551.812 917.053C540.926 937.439 539.656 998.627 540.703 1015.99Z" fill="url(#paint11_linear_272_4004)"/>
<path d="M610.421 914.228L605.217 905.636C583.623 917.615 560.265 920.572 551.273 907.954L551.928 917.4C551.928 917.4 563.422 932.605 610.421 914.228Z" fill="#E8F1FF"/>
<path d="M603.57 892.657C603.377 892.071 598.858 879.461 603.5 856.242L616.149 813.577C619.567 815.24 624.91 815.624 627.658 814.2C627.658 814.2 630.276 873.972 629.037 886.382C627.043 906.36 608.574 908.1 603.577 892.657H603.57Z" fill="url(#paint12_linear_272_4004)"/>
<path d="M667.799 883.033C659.361 880.023 637.974 888.73 633.609 889.962C633.609 889.962 617.319 893.965 606.333 898.546L601.691 897.93C601.691 897.93 588.888 894.065 588.318 894.381L582.983 896.128C582.267 896.529 582.344 897.584 583.114 897.876C584.384 898.346 584.762 898.577 586.055 898.169L587.202 897.807L590.351 898.846L582.375 899.577L578.849 900.432C577.964 900.671 577.179 901.202 576.624 901.933C576.624 901.933 576.393 902.418 576.463 902.642C576.524 902.872 576.694 903.057 576.909 903.142C576.909 903.142 577.771 903.642 579.634 903.319L582.783 902.549L588.134 902.01C589.527 902.08 588.588 902.495 588.257 902.541L582.021 903.396L577.302 904.682C576.416 904.92 575.631 905.451 575.077 906.183L575.038 906.237C574.892 906.421 574.846 906.668 574.915 906.899C574.977 907.13 575.146 907.315 575.362 907.399L575.423 907.422C576.27 907.761 577.209 907.815 578.095 907.576L582.437 906.383L589.881 905.952C591.205 906.06 590.536 906.575 589.935 906.622L585.123 907.007L580.335 908.023C579.434 908.215 578.626 908.7 578.033 909.401L577.995 909.447C577.841 909.624 577.779 909.87 577.833 910.101C577.887 910.332 578.041 910.525 578.249 910.625L578.303 910.648C579.134 911.033 580.065 911.141 580.959 910.948L585.362 909.994L591.359 909.786C591.567 909.786 591.644 910.055 591.459 910.163L590.867 910.486L586.109 911.518L582.606 911.31C581.521 911.364 580.866 911.864 580.52 912.896C580.381 913.319 580.697 913.751 581.143 913.743L585.878 914.289L591.39 913.65L593.769 912.958L606.641 909.586C619.759 910.656 640.684 908.908 640.684 908.908C650.654 908.639 660.647 907.776 667.044 906.398C683.627 902.834 681.517 887.953 667.799 883.049V883.033Z" fill="#1E7DF4"/>
<path d="M592.314 896.005C592.314 896.005 601.514 896.298 604.255 896.067C607.08 895.828 614.486 898.007 614.879 898.754C615.24 899.447 613.308 900.447 612.315 900.571C610.829 900.755 606.056 898.715 605.856 900.201L614.201 902.772C614.201 902.772 625.149 904.189 625.072 905.105C624.918 906.945 613.901 906.291 613.901 906.291C613.87 907.276 626.38 907.638 626.111 908.924C625.703 910.879 613.339 909.501 613.339 909.501C613.139 910.494 624.964 911.21 624.548 912.765C624.24 913.928 613 912.149 613 912.149C612.839 913.081 620.406 913.72 619.683 914.667C618.951 915.614 613.593 915.575 610.952 914.559C607.804 913.35 599.52 907.415 599.52 907.415L592.299 904.335C592.299 904.335 586.532 901.379 592.314 896.013V896.005Z" fill="#121420"/>
<path d="M516.352 879.269C516.945 879.099 529.702 875.027 552.743 880.485L594.932 894.635C593.146 897.992 592.576 903.319 593.9 906.114C593.9 906.114 534.074 906.614 521.718 904.936C501.825 902.234 500.739 883.711 516.352 879.269Z" fill="url(#paint13_linear_272_4004)"/>
<path d="M682.804 898.069C686.73 890.793 704.375 836.826 701.711 827.796C696.161 808.996 673.203 811.406 661.871 837.011C658.076 845.587 650.624 868.491 647.737 882.063C643.087 903.95 654.257 907.415 657.999 908.8C664.72 911.295 677.853 907.245 682.804 898.069Z" fill="url(#paint14_linear_272_4004)"/>
<path opacity="0.65" d="M717.847 0C727.37 14.6842 727.626 37.1098 720.591 64.1638C719.803 67.1744 718.932 70.2464 717.97 73.3798C713.352 88.3917 706.696 104.632 698.319 121.62C695.032 128.276 691.479 135.045 687.69 141.896C687.322 142.572 686.963 143.227 686.574 143.903C675.392 163.912 662.111 184.648 647.211 205.373C619.963 243.261 587.451 279.296 555.062 307.64C537.879 322.652 520.758 335.514 504.456 345.334H504.445C500.964 347.443 497.523 349.399 494.124 351.212C459.031 369.93 428.844 372.992 412.101 351.119C400.438 335.893 397.571 313.242 406.141 283.863C406.531 282.511 406.95 281.139 407.401 279.757C408.589 276.07 409.961 272.261 411.497 268.37C409.428 262.799 407.299 254.976 405.957 249.733C351.153 333.988 344.742 395.172 370.691 429.046C404.093 472.668 477.258 442.522 552.614 379.443C557.489 375.368 562.363 371.159 567.237 366.817H567.247C585.198 350.843 603.128 333.148 620.547 314.296C637.381 296.069 653.755 276.746 669.166 256.829C669.821 255.99 670.467 255.15 671.112 254.31C671.48 253.839 671.839 253.368 672.207 252.897C672.207 252.897 672.218 252.897 672.218 252.867C672.73 252.201 673.242 251.535 673.754 250.849C677.952 245.33 682.079 239.77 686.123 234.168C686.236 234.015 686.349 233.861 686.461 233.697C686.646 233.452 686.82 233.196 687.004 232.95C689.789 229.079 692.534 225.198 695.227 221.327C706.071 205.763 716.209 190.249 725.527 174.95C725.793 174.51 726.059 174.08 726.326 173.64C736.033 157.624 744.85 141.844 752.643 126.495C755.192 121.467 757.64 116.47 759.964 111.544C762.934 105.267 765.709 99.0822 768.299 92.9894V0H717.847Z" fill="#C9E0FC"/>
<path d="M768.299 0H-255.701V249.876C-172.03 206.735 -41.613 155.29 112.52 149.279C345.111 140.216 619.01 178.135 768.299 66.9594V0Z" fill="white"/>
<defs>
<linearGradient id="paint0_linear_272_4004" x1="824.732" y1="1190.58" x2="-214.085" y2="-49.5309" gradientUnits="userSpaceOnUse">
<stop stop-color="#DEEBFB"/>
<stop offset="0.03" stop-color="#D3E4F9"/>
<stop offset="0.22" stop-color="#9AC2F3"/>
<stop offset="0.41" stop-color="#6AA6EE"/>
<stop offset="0.58" stop-color="#4690EB"/>
<stop offset="0.74" stop-color="#2B80E8"/>
<stop offset="0.89" stop-color="#1B77E6"/>
<stop offset="1" stop-color="#1674E6"/>
</linearGradient>
<linearGradient id="paint1_linear_272_4004" x1="824.732" y1="1190.58" x2="-214.085" y2="-49.5309" gradientUnits="userSpaceOnUse">
<stop stop-color="#DEEBFB"/>
<stop offset="0.03" stop-color="#D3E4F9"/>
<stop offset="0.22" stop-color="#9AC2F3"/>
<stop offset="0.41" stop-color="#6AA6EE"/>
<stop offset="0.58" stop-color="#4690EB"/>
<stop offset="0.74" stop-color="#2B80E8"/>
<stop offset="0.89" stop-color="#1B77E6"/>
<stop offset="1" stop-color="#1674E6"/>
</linearGradient>
<linearGradient id="paint2_linear_272_4004" x1="411.132" y1="172.46" x2="728.583" y2="226.883" gradientUnits="userSpaceOnUse">
<stop offset="0.03" stop-color="#DEEBFB"/>
<stop offset="0.2" stop-color="#ACCEF9"/>
<stop offset="0.4" stop-color="#79B1F7"/>
<stop offset="0.58" stop-color="#529AF5"/>
<stop offset="0.75" stop-color="#358AF4"/>
<stop offset="0.89" stop-color="#2480F4"/>
<stop offset="1" stop-color="#1E7DF4"/>
</linearGradient>
<linearGradient id="paint3_linear_272_4004" x1="489.013" y1="612.949" x2="350.082" y2="531.481" gradientUnits="userSpaceOnUse">
<stop offset="0.03" stop-color="#DEEBFB"/>
<stop offset="0.14" stop-color="#D2E4FA"/>
<stop offset="0.33" stop-color="#B4D3F9"/>
<stop offset="0.57" stop-color="#83B7F7"/>
<stop offset="0.86" stop-color="#4090F5"/>
<stop offset="1" stop-color="#1E7DF4"/>
</linearGradient>
<linearGradient id="paint4_linear_272_4004" x1="370.117" y1="752.472" x2="294.001" y2="848.476" gradientUnits="userSpaceOnUse">
<stop offset="0.03" stop-color="#DEEBFB"/>
<stop offset="0.14" stop-color="#D2E4FA"/>
<stop offset="0.33" stop-color="#B4D3F9"/>
<stop offset="0.57" stop-color="#83B7F7"/>
<stop offset="0.86" stop-color="#4090F5"/>
<stop offset="1" stop-color="#1E7DF4"/>
</linearGradient>
<linearGradient id="paint5_linear_272_4004" x1="190.222" y1="993.126" x2="264.733" y2="1036.81" gradientUnits="userSpaceOnUse">
<stop offset="0.03" stop-color="#DEEBFB"/>
<stop offset="0.14" stop-color="#D2E4FA"/>
<stop offset="0.33" stop-color="#B4D3F9"/>
<stop offset="0.57" stop-color="#83B7F7"/>
<stop offset="0.86" stop-color="#4090F5"/>
<stop offset="1" stop-color="#1E7DF4"/>
</linearGradient>
<linearGradient id="paint6_linear_272_4004" x1="702.519" y1="1020.82" x2="634.864" y2="956.562" gradientUnits="userSpaceOnUse">
<stop stop-color="#DEEBFB"/>
<stop offset="0.11" stop-color="#D7E7FA"/>
<stop offset="0.25" stop-color="#C5DCF8"/>
<stop offset="0.42" stop-color="#A8CBF5"/>
<stop offset="0.61" stop-color="#80B3F1"/>
<stop offset="0.81" stop-color="#4C94EB"/>
<stop offset="1" stop-color="#1674E6"/>
</linearGradient>
<linearGradient id="paint7_linear_272_4004" x1="709.382" y1="889.912" x2="591.506" y2="867.532" gradientUnits="userSpaceOnUse">
<stop stop-color="#DEEBFB"/>
<stop offset="0.11" stop-color="#CFE2F9"/>
<stop offset="0.33" stop-color="#AACCF5"/>
<stop offset="0.62" stop-color="#6DA8EF"/>
<stop offset="0.98" stop-color="#1B77E6"/>
<stop offset="1" stop-color="#1674E6"/>
</linearGradient>
<linearGradient id="paint8_linear_272_4004" x1="590.413" y1="857.897" x2="628.059" y2="857.897" gradientUnits="userSpaceOnUse">
<stop stop-color="#DEEBFB"/>
<stop offset="0.11" stop-color="#D7E7FA"/>
<stop offset="0.25" stop-color="#C5DCF8"/>
<stop offset="0.42" stop-color="#A8CBF5"/>
<stop offset="0.61" stop-color="#80B3F1"/>
<stop offset="0.81" stop-color="#4C94EB"/>
<stop offset="1" stop-color="#1674E6"/>
</linearGradient>
<linearGradient id="paint9_linear_272_4004" x1="539.871" y1="879.615" x2="620.83" y2="879.615" gradientUnits="userSpaceOnUse">
<stop stop-color="#DEEBFB"/>
<stop offset="0.11" stop-color="#D7E7FA"/>
<stop offset="0.25" stop-color="#C5DCF8"/>
<stop offset="0.42" stop-color="#A8CBF5"/>
<stop offset="0.61" stop-color="#80B3F1"/>
<stop offset="0.81" stop-color="#4C94EB"/>
<stop offset="1" stop-color="#1674E6"/>
</linearGradient>
<linearGradient id="paint10_linear_272_4004" x1="506.552" y1="856.45" x2="562.421" y2="856.45" gradientUnits="userSpaceOnUse">
<stop stop-color="#DEEBFB"/>
<stop offset="0.11" stop-color="#D7E7FA"/>
<stop offset="0.25" stop-color="#C5DCF8"/>
<stop offset="0.42" stop-color="#A8CBF5"/>
<stop offset="0.61" stop-color="#80B3F1"/>
<stop offset="0.81" stop-color="#4C94EB"/>
<stop offset="1" stop-color="#1674E6"/>
</linearGradient>
<linearGradient id="paint11_linear_272_4004" x1="584.8" y1="1016.47" x2="585.54" y2="927.146" gradientUnits="userSpaceOnUse">
<stop stop-color="#DEEBFB"/>
<stop offset="0.11" stop-color="#D7E7FA"/>
<stop offset="0.25" stop-color="#C5DCF8"/>
<stop offset="0.42" stop-color="#A8CBF5"/>
<stop offset="0.61" stop-color="#80B3F1"/>
<stop offset="0.81" stop-color="#4C94EB"/>
<stop offset="1" stop-color="#1674E6"/>
</linearGradient>
<linearGradient id="paint12_linear_272_4004" x1="601.414" y1="858.275" x2="629.368" y2="858.275" gradientUnits="userSpaceOnUse">
<stop stop-color="#DEEBFB"/>
<stop offset="0.11" stop-color="#D7E7FA"/>
<stop offset="0.25" stop-color="#C5DCF8"/>
<stop offset="0.42" stop-color="#A8CBF5"/>
<stop offset="0.61" stop-color="#80B3F1"/>
<stop offset="0.81" stop-color="#4C94EB"/>
<stop offset="1" stop-color="#1674E6"/>
</linearGradient>
<linearGradient id="paint13_linear_272_4004" x1="550.822" y1="878.253" x2="549.832" y2="906.189" gradientUnits="userSpaceOnUse">
<stop stop-color="#DEEBFB"/>
<stop offset="0.11" stop-color="#D7E7FA"/>
<stop offset="0.25" stop-color="#C5DCF8"/>
<stop offset="0.42" stop-color="#A8CBF5"/>
<stop offset="0.61" stop-color="#80B3F1"/>
<stop offset="0.81" stop-color="#4C94EB"/>
<stop offset="1" stop-color="#1674E6"/>
</linearGradient>
<linearGradient id="paint14_linear_272_4004" x1="656.884" y1="857.369" x2="699.257" y2="870.146" gradientUnits="userSpaceOnUse">
<stop stop-color="#DEEBFB"/>
<stop offset="0.11" stop-color="#D7E7FA"/>
<stop offset="0.25" stop-color="#C5DCF8"/>
<stop offset="0.42" stop-color="#A8CBF5"/>
<stop offset="0.61" stop-color="#80B3F1"/>
<stop offset="0.81" stop-color="#4C94EB"/>
<stop offset="1" stop-color="#1674E6"/>
</linearGradient>
</defs>
</svg>
