<svg width="390" height="842" viewBox="0 0 390 842" fill="none" xmlns="http://www.w3.org/2000/svg">
<g clip-path="url(#clip0_6_14550)">
<path d="M390 0H-452V842H390V0Z" fill="url(#paint0_linear_6_14550)"/>
<path d="M390 0H-452V842H390V0Z" fill="url(#paint1_linear_6_14550)"/>
<g style="mix-blend-mode:soft-light" opacity="0.55">
<path d="M290.655 569.677L292.853 573.163L288.752 572.776L286.108 575.941L285.207 571.917L281.385 570.384L284.93 568.288L285.207 564.179L288.298 566.898L292.289 565.888L290.655 569.677Z" fill="#E8F1FF"/>
</g>
<g style="mix-blend-mode:soft-light" opacity="0.55">
<path d="M209.975 782.088L212.164 785.574L208.063 785.195L205.428 788.353L204.518 784.336L200.704 782.804L204.241 780.699L204.518 776.59L207.609 779.31L211.608 778.308L209.975 782.088Z" fill="#E8F1FF"/>
</g>
<g style="mix-blend-mode:soft-light" opacity="0.55">
<path d="M215.692 620.98L217.881 624.466L213.78 624.079L211.145 627.245L210.236 623.22L206.413 621.687L209.958 619.591L210.236 615.482L213.326 618.201L217.325 617.191L215.692 620.98Z" fill="#E8F1FF"/>
</g>
<g style="mix-blend-mode:soft-light" opacity="0.55">
<path d="M169.55 680.181L171.739 683.667L167.639 683.288L165.003 686.446L164.094 682.429L160.28 680.897L163.816 678.792L164.094 674.683L167.192 677.402L171.183 676.4L169.55 680.181Z" fill="#E8F1FF"/>
</g>
<g style="mix-blend-mode:soft-light" opacity="0.55">
<path d="M227.168 697.046L229.357 700.541L225.257 700.153L222.621 703.319L221.72 699.294L217.897 697.762L221.434 695.665L221.712 691.556L224.81 694.276L228.801 693.266L227.168 697.046Z" fill="#E8F1FF"/>
</g>
<g style="mix-blend-mode:soft-light" opacity="0.55">
<path d="M168.472 592.992L170.661 596.478L166.561 596.099L163.917 599.256L163.016 595.24L159.193 593.708L162.738 591.603L163.016 587.494L166.106 590.213L170.097 589.211L168.472 592.992Z" fill="#E8F1FF"/>
</g>
<g style="mix-blend-mode:soft-light" opacity="0.55">
<path d="M101.079 529.471L103.268 532.957L99.1673 532.57L96.5235 535.736L95.6225 531.72L91.7998 530.179L95.3446 528.082L95.6225 523.973L98.7126 526.693L102.704 525.682L101.079 529.471Z" fill="#E8F1FF"/>
</g>
<g style="mix-blend-mode:soft-light" opacity="0.55">
<path d="M121.101 347.246L123.29 350.732L119.19 350.353L116.546 353.51L115.645 349.494L111.822 347.962L115.367 345.857L115.645 341.748L118.735 344.467L122.735 343.465L121.101 347.246Z" fill="#E8F1FF"/>
</g>
<g style="mix-blend-mode:soft-light" opacity="0.55">
<path d="M285.569 702.107L287.759 705.601L283.658 705.214L281.014 708.38L280.113 704.355L276.291 702.822L279.835 700.726L280.113 696.617L283.203 699.337L287.194 698.326L285.569 702.107Z" fill="#E8F1FF"/>
</g>
<g style="mix-blend-mode:soft-light" opacity="0.55">
<path d="M263.012 623.456L265.201 626.941L261.101 626.562L258.465 629.72L257.564 625.704L253.742 624.171L257.278 622.066L257.556 617.957L260.655 620.685L264.646 619.675L263.012 623.456Z" fill="#E8F1FF"/>
</g>
<g style="mix-blend-mode:soft-light" opacity="0.55">
<path d="M153.005 761.914L155.194 765.4L151.094 765.021L148.458 768.178L147.549 764.162L143.726 762.63L147.271 760.525L147.549 756.416L150.639 759.135L154.638 758.133L153.005 761.914Z" fill="#E8F1FF"/>
</g>
<g style="mix-blend-mode:soft-light" opacity="0.55">
<path d="M249.986 454.18L252.184 457.674L248.083 457.287L245.439 460.453L244.538 456.428L240.716 454.896L244.261 452.799L244.538 448.69L247.629 451.41L251.62 450.399L249.986 454.18Z" fill="#E8F1FF"/>
</g>
<g style="mix-blend-mode:soft-light" opacity="0.55">
<path d="M197.858 506.906L200.047 510.392L195.947 510.013L193.311 513.17L192.402 509.154L188.588 507.622L192.124 505.525L192.402 501.416L195.492 504.136L199.492 503.125L197.858 506.906Z" fill="#E8F1FF"/>
</g>
<g style="mix-blend-mode:soft-light" opacity="0.55">
<path d="M178.736 376.059L180.926 379.545L176.825 379.166L174.181 382.324L173.28 378.307L169.458 376.775L173.002 374.67L173.28 370.561L176.37 373.28L180.37 372.278L178.736 376.059Z" fill="#E8F1FF"/>
</g>
<g style="mix-blend-mode:soft-light" opacity="0.55">
<path d="M131.222 75.9198L134.868 74L134.178 78.0584L137.125 80.9297L133.049 81.5275L131.222 85.2154L129.403 81.5275L125.328 80.9297L128.275 78.0584L127.576 74L131.222 75.9198Z" fill="#E8F1FF"/>
</g>
<g style="mix-blend-mode:soft-light" opacity="0.55">
<path d="M336.822 172.657L340.468 170.737L339.777 174.796L342.724 177.675L338.649 178.265L336.822 181.961L335.003 178.265L330.928 177.675L333.875 174.796L333.184 170.737L336.822 172.657Z" fill="#E8F1FF"/>
</g>
<g style="mix-blend-mode:soft-light" opacity="0.55">
<path d="M176.623 154.596L180.269 152.685L179.578 156.743L182.525 159.615L178.45 160.204L176.623 163.9L174.804 160.204L170.729 159.615L173.676 156.743L172.977 152.685L176.623 154.596Z" fill="#E8F1FF"/>
</g>
<g style="mix-blend-mode:soft-light" opacity="0.55">
<path d="M232.119 205.142L235.756 203.23L235.066 207.289L238.013 210.16L233.938 210.749L232.119 214.446L230.292 210.749L226.217 210.16L229.164 207.289L228.473 203.23L232.119 205.142Z" fill="#E8F1FF"/>
</g>
<g style="mix-blend-mode:soft-light" opacity="0.55">
<path d="M253.354 148.988L257 147.069L256.301 151.136L259.257 154.007L255.181 154.596L253.354 158.293L251.536 154.596L247.46 154.007L250.407 151.136L249.708 147.069L253.354 148.988Z" fill="#E8F1FF"/>
</g>
<g style="mix-blend-mode:soft-light" opacity="0.55">
<path d="M145.098 199.534L148.744 197.614L148.045 201.681L151.001 204.552L146.925 205.141L145.098 208.838L143.28 205.141L139.204 204.552L142.151 201.681L141.452 197.614L145.098 199.534Z" fill="#E8F1FF"/>
</g>
<g style="mix-blend-mode:soft-light" opacity="0.55">
<path d="M76.5932 261.859L80.2391 259.939L79.5402 263.997L82.4956 266.869L78.4204 267.466L76.5932 271.154L74.7745 267.466L70.6992 266.869L73.6462 263.997L72.9474 259.939L76.5932 261.859Z" fill="#E8F1FF"/>
</g>
<g style="mix-blend-mode:soft-light" opacity="0.55">
<path d="M262.886 91.1516L266.523 89.2402L265.833 93.2987L268.78 96.1699L264.705 96.7593L262.886 100.456L261.059 96.7593L256.983 96.1699L259.93 93.2987L259.24 89.2402L262.886 91.1516Z" fill="#E8F1FF"/>
</g>
<g style="mix-blend-mode:soft-light" opacity="0.55">
<path d="M182.727 107.604L186.373 105.684L185.674 109.751L188.63 112.623L184.555 113.212L182.727 116.908L180.909 113.212L176.833 112.623L179.78 109.751L179.082 105.684L182.727 107.604Z" fill="#E8F1FF"/>
</g>
<g style="mix-blend-mode:soft-light" opacity="0.55">
<path d="M312.336 227.909L315.982 225.998L315.283 230.056L318.239 232.928L314.164 233.517L312.336 237.213L310.518 233.517L306.442 232.928L309.389 230.056L308.691 225.998L312.336 227.909Z" fill="#E8F1FF"/>
</g>
<g style="mix-blend-mode:soft-light" opacity="0.55">
<path d="M12.955 107.604L16.6009 105.684L15.902 109.751L18.8574 112.623L14.7737 113.212L12.955 116.908L11.1363 113.212L7.06104 112.623L10.008 109.751L9.30916 105.684L12.955 107.604Z" fill="#E8F1FF"/>
</g>
<g style="mix-blend-mode:soft-light" opacity="0.55">
<path d="M61.5214 163.631L65.1673 161.711L64.4769 165.77L67.4239 168.641L63.3486 169.239L61.5214 172.927L59.7027 169.239L55.6274 168.641L58.5744 165.77L57.884 161.711L61.5214 163.631Z" fill="#E8F1FF"/>
</g>
<g style="mix-blend-mode:soft-light" opacity="0.55">
<path d="M14.2768 444.531L17.9227 442.619L17.2238 446.678L20.1792 449.549L16.104 450.147L14.2768 453.835L12.4581 450.147L8.38281 449.549L11.3298 446.678L10.631 442.619L14.2768 444.531Z" fill="#E8F1FF"/>
</g>
<g style="mix-blend-mode:soft-light" opacity="0.55">
<path d="M42.745 737.563L46.3908 735.644L45.692 739.702L48.639 742.573L44.5637 743.171L42.745 746.859L40.9178 743.171L36.8425 742.573L39.7895 739.702L39.0991 735.644L42.745 737.563Z" fill="#E8F1FF"/>
</g>
<g style="mix-blend-mode:soft-light" opacity="0.55">
<path d="M18.2512 792.815L21.8971 790.896L21.2066 794.954L24.1536 797.834L20.0783 798.423L18.2512 802.12L16.4325 798.423L12.3572 797.834L15.3042 794.954L14.6053 790.896L18.2512 792.815Z" fill="#E8F1FF"/>
</g>
<path d="M387.693 165.967C387.693 82.8856 320.342 15.535 237.261 15.535C154.18 15.535 86.8296 82.8856 86.8296 165.967C86.8296 249.048 154.18 316.398 237.261 316.398C320.342 316.398 387.693 249.048 387.693 165.967Z" fill="url(#paint2_linear_6_14550)"/>
<path opacity="0.65" d="M245.395 16.7642C245.252 16.7726 245.117 16.7726 244.974 16.7811L245.883 15.7454C250.708 10.264 255.474 5.00148 260.206 0H272.92C266.613 4.52996 260.315 9.9356 253.941 16.0569C253.764 16.2253 253.588 16.3937 253.402 16.5706L253.327 16.6463C251.078 16.6463 248.224 16.6884 245.395 16.7642Z" fill="#C9E0FC"/>
<path opacity="0.55" d="M164.356 490.153C177.233 450.654 155.652 408.194 116.153 395.317C76.6539 382.439 34.1943 404.02 21.3168 443.519C8.43928 483.018 30.0203 525.478 69.5194 538.356C109.018 551.233 151.478 529.652 164.356 490.153Z" fill="url(#paint3_linear_6_14550)"/>
<path opacity="0.45" d="M99.356 614.573C89.8512 584.433 57.7129 567.705 27.5731 577.21C-2.56677 586.715 -19.2948 618.853 -9.79 648.993C-0.285225 679.133 31.8531 695.861 61.9929 686.356C92.1327 676.851 108.861 644.713 99.356 614.573Z" fill="url(#paint4_linear_6_14550)"/>
<path opacity="0.35" d="M-33.9857 871.962C-14.1247 861.867 -6.20756 837.583 -16.3024 817.722C-26.3972 797.861 -50.6812 789.944 -70.5423 800.038C-90.4033 810.133 -98.3204 834.417 -88.2256 854.278C-78.1308 874.139 -53.8468 882.056 -33.9857 871.962Z" fill="url(#paint5_linear_6_14550)"/>
<path d="M283.997 744.414C287.333 742.559 293.764 741.154 296.619 750.611C296.651 750.32 296.683 750.035 296.714 749.757C298.575 732.823 311.363 739.717 315.3 742.04C334.563 753.403 331.487 798.443 323.941 839.533H293.138C293.353 825.929 293.663 809.47 294.176 793.746C290.245 812.344 284.326 830.683 281.306 839.533H253.485C253.168 821.485 248.06 764.361 283.997 744.414Z" fill="url(#paint6_linear_6_14550)"/>
<path d="M279.034 660.234L282.294 645.738L292.942 644.851L295.923 649.428C295.923 649.428 295.949 651.859 295.968 654.005C295.999 657.252 300.038 676.819 285.288 678.389C272.394 679.763 279.034 660.253 279.034 660.234Z" fill="#1E7DF4"/>
<path d="M272.4 658.772L276.47 658.405C282.111 657.892 287.466 655.353 291.087 650.998C295.347 645.871 296.272 639.832 297.025 633.533C297.025 633.533 301.431 630.697 299.481 626.709C296.094 619.79 280.072 617.821 273.584 618.429C263.645 619.353 263.936 637.641 263.936 637.641C262.626 647.586 264.747 653.594 267.102 656.594C268.349 658.189 270.387 658.962 272.4 658.778V658.772Z" fill="#1E7DF4"/>
<path d="M267.595 609.585C269.368 609.712 270.95 608.642 271.944 607.161C273.027 605.547 275.287 604.243 279.996 605.509C286.428 607.237 290.137 610.047 293.739 611.877C292.068 608.769 292.182 605.021 292.182 605.021C293.904 609.649 297.132 612.339 297.132 612.339C306.565 611.402 308.597 619.689 308.597 619.689C307.913 617.321 305.837 616.042 303.577 615.359C307.558 618.245 309.863 624.835 304.203 637.312C303.918 637.945 303.665 638.546 303.425 639.148H303.513C299.62 644.775 298.962 649.618 298.911 651.992L298.974 653.543C298.974 653.543 298.5 653.986 297.816 654.461L296.499 655.505L289.061 656.316C289.061 656.316 290.283 643.332 288.333 638.483C286.447 633.799 278.832 626.107 278.319 625.595C272.362 625.791 266.513 625.411 265.373 623.063C263.607 619.423 261.987 609.18 267.595 609.585Z" fill="#121420"/>
<path d="M293.91 641.585C293.454 645.022 290.011 647.567 285.865 647.238L286.592 638.85C286.833 636.071 289.985 634.406 292.29 635.97C293.613 636.869 294.322 638.496 293.91 641.579V641.585Z" fill="#1E7DF4"/>
<path d="M252.763 673.243C254.96 670.495 268.557 664.906 278.502 662.266C288.852 672.565 295.569 662.101 295.967 661.272C299.36 661.741 303.178 662.678 306.761 664.159C316.376 668.128 326.271 670.622 328.644 675.344C329.974 677.991 335.291 727.234 335.76 755.15C336.019 770.552 332.291 772.521 332.291 772.521C329.796 778.313 268.874 788.422 255.808 772.723C249.965 765.697 254.859 736.178 254.859 736.178C251.82 709.452 249.263 677.623 252.763 673.249V673.243Z" fill="url(#paint7_linear_6_14550)"/>
<path d="M251.801 659.702C248.573 656.094 247.053 651.277 247.857 646.504C248.288 643.946 248.351 641.218 247.978 638.42C245.635 620.657 237.26 618.65 228.006 620.068C224.448 620.613 221.365 622.505 219.017 625.284C217.871 626.646 216.352 627.608 214.649 628.12C206.888 630.463 202.552 638.401 204.09 645.928C204.735 649.08 204.033 652.41 201.988 654.898C198.639 658.955 196.791 664.108 196.873 669.47C196.93 672.92 195.259 676.174 192.562 678.32C185.789 683.7 182.352 692.841 184.96 702.058C187.751 711.94 197.171 718.707 207.432 718.226C216.32 717.814 223.53 712.434 226.86 705.097C228.892 700.621 232.95 697.405 237.824 696.785C238.014 696.76 238.21 696.734 238.4 696.703C256.992 693.848 262.765 671.945 251.795 659.696L251.801 659.702Z" fill="#1E7DF4"/>
<path d="M210.895 654.448C215.642 665.134 227.486 670.236 237.343 665.855C247.199 661.475 251.548 649.162 246.591 638.578C241.211 627.095 231.867 624.632 222.365 629.747C211.939 635.356 206.141 643.769 210.895 654.448Z" fill="#1E7DF4"/>
<path d="M216.371 659.69C217.681 662.627 221.416 663.988 225.018 662.601L220.77 651.764C217.168 653.144 214.028 654.416 216.377 659.683L216.371 659.69Z" fill="#121420"/>
<path d="M274.673 712.604C274.673 712.604 273.324 682.504 265.392 675.148C253.732 664.33 239.35 670.584 244.996 688.973C250.643 707.363 259.815 741.933 265.082 740.977C275.489 739.078 274.673 712.604 274.673 712.604Z" fill="url(#paint8_linear_6_14550)"/>
<path d="M256.194 686.581L255.757 681.738C253.434 674.11 248.971 672.933 240.888 672.42L240.945 672.806C246.281 673.528 249.598 674.319 249.598 674.319C249.598 674.319 236.729 714.991 230.987 711.782C226.024 709.009 220.428 681.175 218.997 673.654C210.103 676.25 202.596 682.802 202.178 698.501C202.001 705.173 204.178 714.105 206.375 721.302C208.92 729.646 215.693 741.401 211.547 749.073L213.351 759.322C215.908 765.842 233.07 779.237 247.883 772.078C247.883 772.078 257.308 742.762 259.074 722.853C264.101 721.024 268.424 717.928 268.722 712.687C269.228 703.894 256.194 686.581 256.194 686.581Z" fill="url(#paint9_linear_6_14550)"/>
<path d="M179.136 707.882C179.136 707.882 191.081 677.763 200.001 671.641C213.117 662.646 226.43 670.939 218.156 688.303C209.882 705.667 184.327 742.154 179.256 740.432C169.242 737.033 179.136 707.882 179.136 707.882Z" fill="url(#paint10_linear_6_14550)"/>
<path d="M225.562 671.692L224.505 661.24C223.315 660.158 222.41 658.955 221.903 657.658C221.903 657.658 216.592 647.447 217.276 643.389C218.466 636.343 232.203 630.38 238.14 629.203C247.231 627.411 251.782 643.756 251.782 643.756C257.454 656.512 249.048 665.02 245.996 666.203C244.357 666.836 242.306 667.077 240.097 666.995L240.951 672.825C246.288 673.546 249.605 674.338 249.605 674.338C249.605 674.338 236.735 715.01 230.994 711.8C225.252 708.591 218.656 671.806 218.656 671.806C221.023 671.692 223.334 671.66 225.562 671.685V671.692Z" fill="#121420"/>
<path d="M215.636 638.293C220.055 634.413 239.115 626.658 239.115 626.658C239.115 626.658 238.533 634.527 232.12 642.218C230.367 644.326 227.993 646.32 225.632 648.035C223.195 649.808 221.96 652.79 222.536 655.752L222.131 655.119C220.947 653.264 218.542 652.625 216.58 653.619C216.58 653.619 211.218 642.18 215.636 638.299V638.293Z" fill="#1E7DF4"/>
<path d="M224.423 653.91C224.423 653.91 235.779 642.94 251.877 639.686C251.877 639.686 250.143 626.373 240.324 624.126C233.975 622.67 211.788 632.938 224.423 653.91Z" fill="#1E7DF4"/>
<path d="M266.088 671.09C266.088 671.09 266.057 663.526 265.791 661.278C265.512 658.962 267.089 652.815 267.69 652.467C268.253 652.144 269.127 653.707 269.254 654.518C269.444 655.733 267.912 659.715 269.133 659.835L271.001 652.897C271.001 652.897 271.843 643.858 272.596 643.895C274.115 643.965 273.894 653.043 273.894 653.043C274.704 653.043 274.634 642.75 275.704 642.927C277.325 643.205 276.552 653.404 276.552 653.404C277.369 653.536 277.616 643.801 278.907 644.098C279.87 644.32 278.736 653.606 278.736 653.606C279.509 653.714 279.813 647.472 280.61 648.042C281.408 648.618 281.534 653.017 280.775 655.214C279.876 657.835 275.242 664.817 275.242 664.817L272.925 670.844C272.925 670.844 270.665 675.674 266.088 671.078V671.09Z" fill="#121420"/>
<path d="M202.855 835.412C202.931 836.627 203.026 838.014 203.147 839.533H231.354L232.525 829.234L237.115 790.758L242.686 839.533H271.723L273.052 829.234C273.451 821.751 275.4 812.863 275.926 801.393C277.711 762.379 260.087 751.453 260.087 751.453L255.808 744.389C238.052 754.239 218.846 756.669 211.452 746.294L211.99 754.061C203.039 770.824 201.994 821.137 202.855 835.412Z" fill="url(#paint11_linear_6_14550)"/>
<path d="M260.182 751.738L255.903 744.674C238.147 754.524 218.941 756.954 211.547 746.579L212.085 754.346C212.085 754.346 221.536 766.849 260.182 751.738Z" fill="#E8F1FF"/>
<path d="M254.548 734.001C254.39 733.52 250.674 723.151 254.491 704.059L264.892 668.976C267.703 670.343 272.096 670.66 274.356 669.489C274.356 669.489 276.508 718.637 275.489 728.842C273.849 745.269 258.663 746.699 254.555 734.001H254.548Z" fill="url(#paint12_linear_6_14550)"/>
<path d="M307.362 726.088C300.424 723.613 282.838 730.772 279.249 731.785C279.249 731.785 265.854 735.077 256.821 738.843L253.004 738.337C253.004 738.337 242.476 735.159 242.008 735.419L237.621 736.856C237.032 737.185 237.096 738.052 237.729 738.293C238.773 738.679 239.083 738.869 240.147 738.533L241.09 738.236L243.679 739.09L237.121 739.692L234.222 740.394C233.494 740.591 232.848 741.027 232.392 741.629C232.392 741.629 232.202 742.028 232.259 742.211C232.31 742.401 232.449 742.553 232.626 742.623C232.626 742.623 233.335 743.034 234.867 742.768L237.456 742.135L241.856 741.692C243.002 741.749 242.229 742.091 241.957 742.129L236.83 742.831L232.949 743.889C232.221 744.085 231.576 744.522 231.12 745.123L231.088 745.167C230.968 745.319 230.93 745.522 230.987 745.712C231.038 745.902 231.177 746.054 231.354 746.123L231.405 746.142C232.101 746.421 232.873 746.465 233.601 746.269L237.172 745.288L243.293 744.933C244.382 745.022 243.831 745.446 243.337 745.484L239.381 745.8L235.443 746.636C234.703 746.794 234.038 747.193 233.551 747.769L233.519 747.807C233.392 747.953 233.342 748.155 233.386 748.345C233.43 748.535 233.557 748.693 233.728 748.776L233.772 748.795C234.456 749.111 235.222 749.2 235.956 749.041L239.577 748.257L244.508 748.086C244.679 748.086 244.743 748.307 244.591 748.396L244.103 748.662L240.191 749.51L237.311 749.339C236.418 749.383 235.88 749.795 235.595 750.643C235.481 750.991 235.741 751.346 236.108 751.339L240.001 751.789L244.534 751.263L246.49 750.694L257.074 747.921C267.861 748.801 285.067 747.364 285.067 747.364C293.264 747.142 301.481 746.433 306.741 745.3C320.377 742.369 318.642 730.133 307.362 726.101V726.088Z" fill="#1E7DF4"/>
<path d="M245.293 736.754C245.293 736.754 252.858 736.995 255.112 736.805C257.435 736.609 263.525 738.4 263.848 739.014C264.145 739.584 262.556 740.407 261.74 740.508C260.518 740.66 256.593 738.983 256.428 740.204L263.29 742.319C263.29 742.319 272.292 743.484 272.229 744.237C272.102 745.75 263.044 745.212 263.044 745.212C263.018 746.022 273.305 746.319 273.083 747.377C272.748 748.985 262.581 747.851 262.581 747.851C262.417 748.668 272.14 749.257 271.798 750.535C271.545 751.491 262.303 750.029 262.303 750.029C262.17 750.795 268.393 751.32 267.798 752.099C267.196 752.878 262.79 752.846 260.619 752.01C258.03 751.017 251.219 746.136 251.219 746.136L245.281 743.604C245.281 743.604 240.539 741.173 245.293 736.761V736.754Z" fill="#121420"/>
<path d="M182.833 722.992C183.32 722.853 193.809 719.504 212.756 723.993L247.446 735.628C245.977 738.388 245.509 742.768 246.598 745.066C246.598 745.066 197.405 745.478 187.245 744.098C170.887 741.876 169.995 726.645 182.833 722.992Z" fill="url(#paint13_linear_6_14550)"/>
<path d="M319.7 738.451C322.928 732.469 337.437 688.093 335.247 680.668C330.683 665.21 311.806 667.191 302.488 688.245C299.367 695.297 293.239 714.13 290.865 725.29C287.042 743.287 296.227 746.136 299.304 747.275C304.83 749.326 315.629 745.997 319.7 738.451Z" fill="url(#paint14_linear_6_14550)"/>
<path opacity="0.65" d="M348.515 0C356.345 12.0743 356.556 30.5141 350.771 52.7597C350.123 55.2352 349.407 57.7612 348.616 60.3377C344.818 72.6814 339.345 86.0356 332.458 100.004C329.755 105.477 326.833 111.043 323.718 116.676C323.415 117.232 323.12 117.771 322.8 118.326C313.605 134.779 302.685 151.829 290.433 168.872C268.028 200.026 241.294 229.656 214.662 252.962C200.533 265.306 186.455 275.881 173.05 283.956H173.042C170.179 285.691 167.35 287.299 164.554 288.789C135.699 304.181 110.877 306.699 97.1103 288.713C87.5199 276.193 85.1623 257.568 92.2099 233.411C92.5298 232.299 92.875 231.171 93.2455 230.034C94.2222 227.003 95.3505 223.871 96.6135 220.671C94.9127 216.091 93.1613 209.658 92.0583 205.347C46.9945 274.627 41.7235 324.936 63.0598 352.79C90.5259 388.659 150.687 363.87 212.65 312.003C216.657 308.652 220.665 305.191 224.673 301.621H224.682C239.442 288.486 254.185 273.936 268.508 258.435C282.35 243.447 295.814 227.559 308.486 211.182C309.025 210.492 309.555 209.801 310.086 209.111C310.389 208.723 310.684 208.336 310.987 207.949C310.987 207.949 310.995 207.949 310.995 207.923C311.416 207.376 311.837 206.829 312.258 206.265C315.71 201.726 319.104 197.154 322.429 192.549C322.522 192.422 322.615 192.296 322.707 192.161C322.859 191.959 323.002 191.749 323.154 191.547C325.444 188.364 327.7 185.173 329.915 181.99C338.832 169.191 347.167 156.435 354.83 143.856C355.049 143.494 355.267 143.14 355.486 142.778C363.469 129.609 370.718 116.634 377.126 104.012C379.222 99.878 381.235 95.7691 383.146 91.7191C385.588 86.5576 387.87 81.4719 390 76.462V0H348.515Z" fill="#C9E0FC"/>
<path d="M390 0H-452V205.465C-383.2 169.991 -275.963 127.689 -149.225 122.747C42.0267 115.295 267.245 146.474 390 55.0584V0Z" fill="white"/>
</g>
<defs>
<linearGradient id="paint0_linear_6_14550" x1="436.403" y1="978.977" x2="-417.781" y2="-40.7275" gradientUnits="userSpaceOnUse">
<stop stop-color="#DEEBFB"/>
<stop offset="0.03" stop-color="#D3E4F9"/>
<stop offset="0.22" stop-color="#9AC2F3"/>
<stop offset="0.41" stop-color="#6AA6EE"/>
<stop offset="0.58" stop-color="#4690EB"/>
<stop offset="0.74" stop-color="#2B80E8"/>
<stop offset="0.89" stop-color="#1B77E6"/>
<stop offset="1" stop-color="#1674E6"/>
</linearGradient>
<linearGradient id="paint1_linear_6_14550" x1="436.403" y1="978.977" x2="-417.781" y2="-40.7275" gradientUnits="userSpaceOnUse">
<stop stop-color="#DEEBFB"/>
<stop offset="0.03" stop-color="#D3E4F9"/>
<stop offset="0.22" stop-color="#9AC2F3"/>
<stop offset="0.41" stop-color="#6AA6EE"/>
<stop offset="0.58" stop-color="#4690EB"/>
<stop offset="0.74" stop-color="#2B80E8"/>
<stop offset="0.89" stop-color="#1B77E6"/>
<stop offset="1" stop-color="#1674E6"/>
</linearGradient>
<linearGradient id="paint2_linear_6_14550" x1="213.103" y1="306.914" x2="257.853" y2="45.885" gradientUnits="userSpaceOnUse">
<stop offset="0.03" stop-color="#DEEBFB"/>
<stop offset="0.2" stop-color="#ACCEF9"/>
<stop offset="0.4" stop-color="#79B1F7"/>
<stop offset="0.58" stop-color="#529AF5"/>
<stop offset="0.75" stop-color="#358AF4"/>
<stop offset="0.89" stop-color="#2480F4"/>
<stop offset="1" stop-color="#1E7DF4"/>
</linearGradient>
<linearGradient id="paint3_linear_6_14550" x1="154.509" y1="503.007" x2="40.2713" y2="436.018" gradientUnits="userSpaceOnUse">
<stop offset="0.03" stop-color="#DEEBFB"/>
<stop offset="0.14" stop-color="#D2E4FA"/>
<stop offset="0.33" stop-color="#B4D3F9"/>
<stop offset="0.57" stop-color="#83B7F7"/>
<stop offset="0.86" stop-color="#4090F5"/>
<stop offset="1" stop-color="#1E7DF4"/>
</linearGradient>
<linearGradient id="paint4_linear_6_14550" x1="78.5887" y1="589.157" x2="16.0004" y2="668.097" gradientUnits="userSpaceOnUse">
<stop offset="0.03" stop-color="#DEEBFB"/>
<stop offset="0.14" stop-color="#D2E4FA"/>
<stop offset="0.33" stop-color="#B4D3F9"/>
<stop offset="0.57" stop-color="#83B7F7"/>
<stop offset="0.86" stop-color="#4090F5"/>
<stop offset="1" stop-color="#1E7DF4"/>
</linearGradient>
<linearGradient id="paint5_linear_6_14550" x1="-85.3333" y1="816.613" x2="-24.0655" y2="852.531" gradientUnits="userSpaceOnUse">
<stop offset="0.03" stop-color="#DEEBFB"/>
<stop offset="0.14" stop-color="#D2E4FA"/>
<stop offset="0.33" stop-color="#B4D3F9"/>
<stop offset="0.57" stop-color="#83B7F7"/>
<stop offset="0.86" stop-color="#4090F5"/>
<stop offset="1" stop-color="#1E7DF4"/>
</linearGradient>
<linearGradient id="paint6_linear_6_14550" x1="335.911" y1="839.387" x2="280.281" y2="786.548" gradientUnits="userSpaceOnUse">
<stop stop-color="#DEEBFB"/>
<stop offset="0.11" stop-color="#D7E7FA"/>
<stop offset="0.25" stop-color="#C5DCF8"/>
<stop offset="0.42" stop-color="#A8CBF5"/>
<stop offset="0.61" stop-color="#80B3F1"/>
<stop offset="0.81" stop-color="#4C94EB"/>
<stop offset="1" stop-color="#1674E6"/>
</linearGradient>
<linearGradient id="paint7_linear_6_14550" x1="341.555" y1="731.744" x2="244.629" y2="713.342" gradientUnits="userSpaceOnUse">
<stop stop-color="#DEEBFB"/>
<stop offset="0.11" stop-color="#CFE2F9"/>
<stop offset="0.33" stop-color="#AACCF5"/>
<stop offset="0.62" stop-color="#6DA8EF"/>
<stop offset="0.98" stop-color="#1B77E6"/>
<stop offset="1" stop-color="#1674E6"/>
</linearGradient>
<linearGradient id="paint8_linear_6_14550" x1="243.73" y1="705.42" x2="274.685" y2="705.42" gradientUnits="userSpaceOnUse">
<stop stop-color="#DEEBFB"/>
<stop offset="0.11" stop-color="#D7E7FA"/>
<stop offset="0.25" stop-color="#C5DCF8"/>
<stop offset="0.42" stop-color="#A8CBF5"/>
<stop offset="0.61" stop-color="#80B3F1"/>
<stop offset="0.81" stop-color="#4C94EB"/>
<stop offset="1" stop-color="#1674E6"/>
</linearGradient>
<linearGradient id="paint9_linear_6_14550" x1="202.172" y1="723.277" x2="268.741" y2="723.277" gradientUnits="userSpaceOnUse">
<stop stop-color="#DEEBFB"/>
<stop offset="0.11" stop-color="#D7E7FA"/>
<stop offset="0.25" stop-color="#C5DCF8"/>
<stop offset="0.42" stop-color="#A8CBF5"/>
<stop offset="0.61" stop-color="#80B3F1"/>
<stop offset="0.81" stop-color="#4C94EB"/>
<stop offset="1" stop-color="#1674E6"/>
</linearGradient>
<linearGradient id="paint10_linear_6_14550" x1="174.774" y1="704.23" x2="220.713" y2="704.23" gradientUnits="userSpaceOnUse">
<stop stop-color="#DEEBFB"/>
<stop offset="0.11" stop-color="#D7E7FA"/>
<stop offset="0.25" stop-color="#C5DCF8"/>
<stop offset="0.42" stop-color="#A8CBF5"/>
<stop offset="0.61" stop-color="#80B3F1"/>
<stop offset="0.81" stop-color="#4C94EB"/>
<stop offset="1" stop-color="#1674E6"/>
</linearGradient>
<linearGradient id="paint11_linear_6_14550" x1="239.115" y1="835.804" x2="239.723" y2="762.36" gradientUnits="userSpaceOnUse">
<stop stop-color="#DEEBFB"/>
<stop offset="0.11" stop-color="#D7E7FA"/>
<stop offset="0.25" stop-color="#C5DCF8"/>
<stop offset="0.42" stop-color="#A8CBF5"/>
<stop offset="0.61" stop-color="#80B3F1"/>
<stop offset="0.81" stop-color="#4C94EB"/>
<stop offset="1" stop-color="#1674E6"/>
</linearGradient>
<linearGradient id="paint12_linear_6_14550" x1="252.776" y1="705.73" x2="275.761" y2="705.73" gradientUnits="userSpaceOnUse">
<stop stop-color="#DEEBFB"/>
<stop offset="0.11" stop-color="#D7E7FA"/>
<stop offset="0.25" stop-color="#C5DCF8"/>
<stop offset="0.42" stop-color="#A8CBF5"/>
<stop offset="0.61" stop-color="#80B3F1"/>
<stop offset="0.81" stop-color="#4C94EB"/>
<stop offset="1" stop-color="#1674E6"/>
</linearGradient>
<linearGradient id="paint13_linear_6_14550" x1="211.176" y1="722.157" x2="210.362" y2="745.128" gradientUnits="userSpaceOnUse">
<stop stop-color="#DEEBFB"/>
<stop offset="0.11" stop-color="#D7E7FA"/>
<stop offset="0.25" stop-color="#C5DCF8"/>
<stop offset="0.42" stop-color="#A8CBF5"/>
<stop offset="0.61" stop-color="#80B3F1"/>
<stop offset="0.81" stop-color="#4C94EB"/>
<stop offset="1" stop-color="#1674E6"/>
</linearGradient>
<linearGradient id="paint14_linear_6_14550" x1="298.387" y1="704.985" x2="333.229" y2="715.491" gradientUnits="userSpaceOnUse">
<stop stop-color="#DEEBFB"/>
<stop offset="0.11" stop-color="#D7E7FA"/>
<stop offset="0.25" stop-color="#C5DCF8"/>
<stop offset="0.42" stop-color="#A8CBF5"/>
<stop offset="0.61" stop-color="#80B3F1"/>
<stop offset="0.81" stop-color="#4C94EB"/>
<stop offset="1" stop-color="#1674E6"/>
</linearGradient>
<clipPath id="clip0_6_14550">
<rect width="390" height="842" fill="white"/>
</clipPath>
</defs>
</svg>
