<svg width="103" height="96" viewBox="0 0 103 96" fill="none" xmlns="http://www.w3.org/2000/svg">
<g clip-path="url(#clip0_6_8801)">
<path d="M76.403 34.6597C78.7487 20.2091 68.9356 6.59291 54.4849 4.24724C40.0342 1.90156 26.4181 11.7146 24.0724 26.1653C21.7267 40.616 31.5398 54.2321 45.9905 56.5778C60.4412 58.9235 74.0573 49.1104 76.403 34.6597Z" fill="url(#paint0_radial_6_8801)"/>
<path style="mix-blend-mode:screen" opacity="0.45" d="M64.3421 22.0501C64.3421 22.0501 64.3225 22.0697 64.3095 22.0827C63.2842 23.219 62.187 24.3097 60.8809 25.0933C56.7405 27.5684 51.0458 26.6411 47.2711 29.6517C46.4613 30.2982 45.7952 31.0884 45.0376 31.7937C42.5429 34.1186 39.0948 35.3921 35.6858 35.2484C32.7731 35.1244 29.5405 33.9554 27.7903 31.5064C26.556 29.7758 27.0654 26.099 27.5878 24.1921C28.2474 21.7954 29.2858 19.5031 30.6572 17.4329C34.9805 10.9284 42.4189 6.92517 50.2295 6.92517C54.2393 6.92517 58.2229 7.95701 61.7233 9.92925C63.8523 11.1244 66.0401 12.8811 67.0327 15.1733C68.267 18.0337 66.1968 19.9733 64.3421 22.0435V22.0501Z" fill="url(#paint1_radial_6_8801)"/>
<path style="mix-blend-mode:multiply" opacity="0.45" d="M67.4638 10.2754C68.6458 13.1358 69.2989 16.2639 69.2989 19.5488C69.2989 32.9627 58.4254 43.8427 45.005 43.8427C35.8556 43.8427 27.8948 38.788 23.7544 31.317C24.2311 45.5342 35.9013 56.917 50.236 56.917C64.5707 56.917 76.7438 45.0509 76.7438 30.4093C76.7438 22.3505 73.1389 15.1342 67.4638 10.2754Z" fill="url(#paint2_radial_6_8801)"/>
<path style="mix-blend-mode:screen" d="M70.4549 18.4452C71.9177 21.5407 72.7406 25.0084 72.7406 28.659C72.7406 41.8966 62.0108 52.6264 48.7732 52.6264C40.3879 52.6264 33.0214 48.3227 28.7373 41.7986C32.5838 49.8901 40.8255 55.4803 50.3798 55.4803C63.6173 55.4803 74.3471 44.7505 74.3471 31.5129C74.3471 26.6868 72.9104 22.2003 70.4549 18.4386V18.4452Z" fill="url(#paint3_radial_6_8801)"/>
<path style="mix-blend-mode:screen" d="M44.907 11.4313C46.0956 13.0901 44.5609 16.2182 41.4915 18.4125C38.4221 20.6068 34.9674 21.0378 33.7789 19.379C32.5903 17.7203 34.125 14.5921 37.1944 12.3978C40.2703 10.2035 43.7184 9.77252 44.907 11.4313Z" fill="url(#paint4_radial_6_8801)"/>
<path style="mix-blend-mode:screen" d="M54.6901 9.47211C54.8533 10.5562 53.3578 11.6729 51.3529 11.9733C49.348 12.2737 47.5978 11.6337 47.4346 10.5562C47.2713 9.47211 48.7668 8.35538 50.7717 8.05497C52.7766 7.75456 54.5268 8.39456 54.6901 9.47211Z" fill="url(#paint5_radial_6_8801)"/>
<path d="M30.7295 13.4362C32.0552 14.024 33.6748 14.5334 35.4315 14.984C37.2013 15.4019 39.1213 15.6893 41.0544 15.8395C42.994 15.9636 44.9336 15.9309 46.7556 15.7938C48.5646 15.6174 50.256 15.3889 51.6797 15.0689C52.3981 14.9317 53.0446 14.7685 53.6193 14.6182C54.194 14.4746 54.6968 14.3374 55.0952 14.2068C55.9115 13.9521 56.3752 13.8085 56.3752 13.8085C56.3752 13.8085 56.8258 13.6321 57.6225 13.3317C58.0209 13.188 58.4976 12.9856 59.0397 12.744C59.314 12.6264 59.6013 12.5023 59.9017 12.3717C60.2021 12.228 60.5156 12.0778 60.8421 11.9211C62.1613 11.3072 63.6438 10.4844 65.198 9.55702C65.4462 9.40682 65.7009 9.24356 65.9556 9.08029C65.6095 8.8256 65.2503 8.57743 64.8911 8.3358C64.7866 8.39458 64.6887 8.45988 64.5842 8.51213C63.0364 9.37417 61.567 10.1382 60.2674 10.6999C59.9474 10.8436 59.634 10.9807 59.3401 11.1178C59.0397 11.2354 58.7589 11.3529 58.4911 11.4574C57.9621 11.6729 57.4985 11.8623 57.1066 11.9929C56.3295 12.2672 55.8854 12.4305 55.8854 12.4305C55.8854 12.4305 55.4413 12.5807 54.6576 12.8419C54.2723 12.9791 53.7891 13.1227 53.2405 13.2729C52.6919 13.4362 52.065 13.606 51.3793 13.7562C50.0078 14.1023 48.3817 14.3636 46.6315 14.5856C44.8748 14.7685 42.9874 14.8599 41.1001 14.8011C39.2127 14.7162 37.3385 14.5138 35.5948 14.1807C33.8642 13.8215 32.2511 13.4036 30.9254 12.9007C30.7687 12.8485 30.6185 12.7897 30.4748 12.7374C30.3507 12.8746 30.2266 13.0248 30.1025 13.1619C30.305 13.2468 30.5074 13.3382 30.7229 13.4297L30.7295 13.4362Z" fill="url(#paint6_radial_6_8801)"/>
<path d="M48.0353 51.797C49.2173 51.6533 50.3993 51.5031 51.5618 51.3595C52.7438 51.2223 53.9324 50.9937 55.0426 50.5627C56.1398 50.1448 57.25 49.4656 57.8508 48.3488C58.1447 47.8003 58.2949 47.1995 58.2818 46.6052C58.2818 46.0109 58.112 45.4623 57.8834 44.9856C57.4132 44.0386 56.7014 43.3725 55.9961 42.9415C55.2973 42.5105 54.6312 42.2884 54.0891 42.1382C53.5471 41.988 53.1226 41.9162 52.8353 41.8705C52.5479 41.8248 52.3977 41.8052 52.3977 41.8052C52.3977 41.8052 49.9683 41.4721 46.3569 41.5635C44.5544 41.5962 42.4647 41.7333 40.2377 41.8835C38.0108 42.0337 35.6467 42.1905 33.2891 42.1905C30.9381 42.1905 28.5871 41.988 26.432 41.5439C26.3406 41.5244 26.2491 41.5048 26.1577 41.4852C26.3014 41.7986 26.4516 42.1056 26.6083 42.4125C28.7177 42.8892 30.9904 43.157 33.2761 43.2158C35.6793 43.2811 38.0761 43.1831 40.303 43.0852C42.5365 42.9872 44.6067 42.8958 46.37 42.8958C48.1398 42.8958 49.5961 42.9741 50.6149 43.059C51.1242 43.1113 51.5226 43.157 51.7904 43.1831C52.0581 43.2158 52.2018 43.2354 52.2018 43.2354C52.2018 43.2354 52.3455 43.255 52.6067 43.2876C52.8679 43.3268 53.2532 43.3856 53.7169 43.5031C54.6247 43.7382 55.9765 44.228 56.6818 45.5733C57.0214 46.2133 57.0932 47.0231 56.7144 47.7415C56.3553 48.4599 55.5455 49.0476 54.5855 49.4329C53.6255 49.8313 52.5414 50.0729 51.3985 50.2362C50.2426 50.4125 49.0671 50.5888 47.8851 50.7652C43.5487 51.4248 39.2255 52.0909 35.8165 52.6395C36.0908 52.8158 36.3585 52.9921 36.6393 53.1554C39.9438 52.7766 43.9863 52.2868 48.0287 51.7839L48.0353 51.797Z" fill="url(#paint7_radial_6_8801)"/>
<path d="M40.0026 49.2435C40.1659 49.1913 40.3226 49.126 40.4728 49.0607C40.7667 48.9235 41.0279 48.7472 41.2565 48.5252C41.4785 48.3227 41.6745 47.957 41.7136 47.6631C41.7659 47.3693 41.694 47.1407 41.6549 46.9905C41.5634 46.7488 41.4263 46.5725 41.3283 46.468C41.2304 46.3701 41.1651 46.3113 41.1128 46.2721C41.0149 46.2003 40.9953 46.1807 40.9953 46.1807C40.9953 46.1807 40.7602 46.0174 40.3422 45.8607C39.9177 45.7039 39.3104 45.619 38.6704 45.6125C37.4165 45.6125 35.7838 45.6648 34.1381 45.7954C32.2573 45.939 30.3961 46.2133 29.1553 46.4615C29.2794 46.6182 29.4034 46.7815 29.5275 46.9382C30.7683 46.8925 32.4728 46.8207 34.1773 46.8272C35.7904 46.8272 37.423 46.8795 38.6116 46.9578C39.1863 46.997 39.5977 47.095 39.8394 47.1995C39.9634 47.2517 40.0483 47.2974 40.1006 47.3366C40.1594 47.3693 40.1789 47.3888 40.1789 47.3888C40.1789 47.3888 40.1855 47.3888 40.2247 47.4215C40.2377 47.4346 40.2638 47.4476 40.2769 47.4672C40.2965 47.4868 40.2769 47.4672 40.29 47.4737C40.29 47.4737 40.29 47.4737 40.303 47.4737C40.303 47.4803 40.3357 47.4607 40.2573 47.5652C40.192 47.6501 40.0549 47.7611 39.8785 47.8591C39.7871 47.9113 39.6892 47.957 39.5847 47.9962C39.454 48.0419 39.3234 48.0942 39.1863 48.1399C38.05 48.5513 36.6198 48.9954 35.2026 49.3676C34.2296 49.6288 33.263 49.8378 32.414 50.0141C32.6426 50.2231 32.8843 50.4256 33.1194 50.628C33.8377 50.5562 34.6149 50.4517 35.4051 50.3146C36.881 50.0664 38.383 49.7137 39.5781 49.3676C39.7283 49.3219 39.8785 49.2827 40.0222 49.237L40.0026 49.2435Z" fill="url(#paint8_radial_6_8801)"/>
<path d="M41.4068 38.9252C43.9995 38.8991 46.4093 38.6248 48.4534 38.2917C50.4909 37.9391 52.1758 37.5733 53.3383 37.2729C54.5072 36.9921 55.1668 36.7897 55.1668 36.7897C55.1668 36.7897 57.8182 36.0452 61.6713 34.615C63.5913 33.8901 65.8183 33.015 68.1758 32.0027C70.5268 30.984 73.0085 29.8346 75.4574 28.6134C75.8493 28.4174 76.2411 28.215 76.6329 28.0191C76.6003 27.6664 76.5611 27.3203 76.5154 26.9676C76.0125 27.2093 75.5162 27.4509 75.0134 27.686C72.5578 28.8419 70.0697 29.926 67.7187 30.8925C65.3611 31.8525 63.1407 32.6754 61.2207 33.3611C57.3872 34.7129 54.775 35.3987 54.775 35.3987C54.775 35.3987 54.1285 35.6011 52.9856 35.895C51.8493 36.2085 50.2101 36.5938 48.2248 36.9725C46.2395 37.3382 43.9015 37.6452 41.3872 37.7236C38.8729 37.8019 36.1823 37.6387 33.5505 37.1097C30.9187 36.5938 28.3783 35.6664 26.0991 34.5823C25.335 34.2166 24.6101 33.8313 23.9048 33.4395C23.9374 33.7464 23.9766 34.0599 24.0223 34.3668C24.5709 34.6868 25.1456 35.0068 25.7334 35.3138C28.0256 36.4958 30.6248 37.5211 33.3285 38.1219C36.0321 38.7358 38.8142 38.9709 41.4003 38.9382L41.4068 38.9252Z" fill="url(#paint9_radial_6_8801)"/>
<path d="M70.9446 45.7693C70.4025 45.828 69.8409 45.8607 69.2662 45.8607C68.6915 45.8607 68.1168 45.8607 67.6205 45.7301C67.1176 45.606 66.7519 45.3578 66.6082 45.0052C66.4515 44.646 66.4646 44.1301 66.5429 43.6272C66.6931 42.628 67.1111 41.7464 67.5552 41.0542C68.0058 40.3619 68.4825 39.846 68.8286 39.4999C69.1748 39.1537 69.3903 38.9774 69.3903 38.9774C69.3903 38.9774 69.5927 38.788 69.9715 38.468C70.3568 38.148 70.9315 37.717 71.6564 37.2403C72.9168 36.4044 74.6997 35.4444 76.4433 34.2819C76.5086 33.8313 76.5609 33.3742 76.6066 32.917C74.6278 34.1644 72.5119 35.157 70.9446 36.1039C69.3576 37.0378 68.4107 37.8933 68.4107 37.8933C68.4107 37.8933 68.1756 38.1023 67.7968 38.5072C67.418 38.9121 66.9021 39.5195 66.4058 40.3488C65.9225 41.1782 65.4588 42.2427 65.3348 43.477C65.2825 44.0713 65.2368 44.7701 65.5829 45.4884C65.7593 45.8476 66.0531 46.148 66.3797 46.3505C66.7062 46.5464 67.0523 46.6639 67.3919 46.7293C68.0646 46.8599 68.698 46.8142 69.2923 46.7815C69.8931 46.7423 70.4809 46.6639 71.0491 46.566C71.1209 46.5529 71.1927 46.5333 71.2646 46.5203C71.4866 46.2264 71.7086 45.926 71.9176 45.6256C71.5976 45.6778 71.2711 45.7235 70.9315 45.7562L70.9446 45.7693Z" fill="url(#paint10_radial_6_8801)"/>
<path d="M40.107 7.72845C42.1707 8.70151 44.3519 9.55049 46.1021 9.87702C46.9707 10.0599 47.7152 10.1187 48.2376 10.1578C48.7601 10.1644 49.0605 10.1709 49.0605 10.1709C49.0605 10.1709 49.3609 10.1709 49.8833 10.1121C50.4058 10.0533 51.1503 9.9358 52.0123 9.6811C53.7299 9.17172 55.9307 8.08763 57.5046 6.21335C57.7854 5.88682 58.0205 5.5211 58.2229 5.14233C57.9029 5.04437 57.5829 4.95294 57.2629 4.86151C57.0997 5.09661 56.9299 5.32518 56.7274 5.53416C56.0156 6.30478 55.1078 6.92518 54.2197 7.40192C53.325 7.87212 52.4368 8.18559 51.6597 8.38151C50.0923 8.76682 49.0213 8.70804 49.0213 8.70804C49.0213 8.70804 48.7535 8.71457 48.2833 8.72763C47.8131 8.70804 47.1405 8.68845 46.3372 8.55131C44.7176 8.32927 42.6017 7.61743 40.5119 6.78151C40.1005 6.61172 39.6891 6.44845 39.2776 6.27865C38.9119 6.44845 38.5462 6.62478 38.187 6.80763C38.814 7.10804 39.4539 7.42151 40.107 7.72845Z" fill="url(#paint11_radial_6_8801)"/>
<path d="M55.4476 55.3823C56.8517 54.7097 58.2297 53.9913 59.2419 53.3448C60.2542 52.7048 60.868 52.1431 60.868 52.1431C60.868 52.1431 61.0183 52.006 61.2664 51.7382C61.5146 51.477 61.8607 51.0786 62.2068 50.5562C62.5529 50.0337 62.9056 49.3807 63.1342 48.6166C63.3693 47.8591 63.4803 46.9905 63.3627 46.148C63.1407 44.437 62.148 43.0656 61.3709 42.2035C60.5742 41.3284 59.9472 40.8648 59.8819 40.9235C59.8036 40.9954 60.2934 41.6027 60.9268 42.5497C61.5538 43.4835 62.2917 44.8419 62.344 46.2395C62.4223 47.637 61.7562 48.9562 61.1162 49.7856C60.7962 50.2101 60.4827 50.5235 60.2607 50.7391C60.0321 50.9546 59.895 51.0721 59.895 51.0721C59.895 51.0721 59.3921 51.588 58.4909 52.2411C57.5962 52.9007 56.2901 53.704 54.9709 54.4811C53.2729 55.4868 51.5097 56.3684 50.4844 56.9235C50.9676 56.9235 51.4509 56.8974 51.9276 56.8713C52.9595 56.4925 54.2199 55.9831 55.4476 55.3888V55.3823Z" fill="url(#paint12_radial_6_8801)"/>
<path d="M60.1823 17.5962C58.8435 18.1709 57.779 18.8044 57.0737 19.3203C56.7145 19.5684 56.4533 19.7905 56.277 19.9472C56.1007 20.0974 56.0027 20.1823 56.0027 20.1823C56.0027 20.1823 55.9113 20.2672 55.748 20.437C55.5913 20.6133 55.3301 20.8419 55.0623 21.2011C54.788 21.5407 54.4419 21.9521 54.148 22.5791C54.0043 22.8925 53.8737 23.2582 53.8476 23.6958C53.815 24.1268 53.8999 24.6166 54.1088 25.028C54.5203 25.864 55.2974 26.4386 56.1333 26.7978C56.9888 27.1766 57.9619 27.2746 58.9088 27.2223C60.8158 27.0982 62.6378 26.3864 64.388 25.7464C67.9276 24.4468 71.4607 23.1342 74.099 22.1284C74.5105 21.9717 74.8958 21.8215 75.2615 21.6778C75.2092 21.5276 75.157 21.3709 75.1048 21.2207C74.7325 21.3382 74.3341 21.4623 73.9096 21.5929C71.2125 22.4354 67.6337 23.5978 64.055 24.7733C62.2656 25.3676 60.4958 25.9684 58.8501 26.0207C58.0403 26.0403 57.2696 25.9293 56.6492 25.6288C56.0158 25.3415 55.5194 24.904 55.317 24.4533C54.9121 23.6174 55.6696 22.6835 56.1594 22.1219C56.3945 21.8215 56.6296 21.6256 56.7668 21.4754C56.9105 21.3252 56.9954 21.2599 56.9954 21.2599C56.9954 21.2599 57.0803 21.188 57.2305 21.0509C57.3807 20.9072 57.6092 20.7113 57.9227 20.4827C58.5366 20.0125 59.4901 19.4117 60.7374 18.837C61.9782 18.2558 63.5129 17.7072 65.1782 17.1391C66.8435 16.5774 68.6656 15.9505 70.3962 15.1472C70.775 14.9774 71.1472 14.8011 71.5129 14.6182C71.3105 14.344 71.1015 14.0827 70.886 13.815C70.5856 13.9456 70.2917 14.0762 69.9847 14.2003C68.2737 14.9252 66.4974 15.4672 64.806 15.9831C63.1145 16.4991 61.5211 17.0215 60.1888 17.6027L60.1823 17.5962Z" fill="url(#paint13_radial_6_8801)"/>
<path d="M27.0265 20.6068C28.6657 21.3578 30.2591 22.1284 31.304 22.8795C31.4347 22.9709 31.5587 23.0558 31.6828 23.1407C31.7938 23.2321 31.8983 23.317 32.0028 23.4019C32.2053 23.5652 32.3816 23.7023 32.5057 23.8329C32.7669 24.0876 32.9171 24.2313 32.9171 24.2313C32.9563 24.264 32.9302 24.2313 32.9498 24.2509C32.9498 24.2509 32.9628 24.264 32.9498 24.277C32.9498 24.277 32.9498 24.277 32.9432 24.2901C32.904 24.3097 32.8583 24.3293 32.8126 24.3489C32.7342 24.3815 32.5514 24.4142 32.4077 24.4468C31.1996 24.7668 29.4755 24.7537 27.7775 24.3293C26.7 24.0615 25.6485 23.6762 24.7081 23.2909C24.6363 23.5391 24.571 23.7872 24.5122 24.0354C25.4069 24.5056 26.4191 24.9693 27.4967 25.3219C29.2665 25.9097 31.2387 26.0664 32.6755 25.766C32.8649 25.7268 33.002 25.7203 33.2175 25.655C33.3155 25.6288 33.4134 25.5897 33.5049 25.5505C33.6289 25.4982 33.753 25.4264 33.864 25.348C34.3081 25.0476 34.491 24.5905 34.4649 24.2248C34.4453 23.8525 34.2689 23.5913 34.1383 23.4346C34.073 23.3562 34.0142 23.2909 33.9816 23.2517C33.9555 23.2256 33.9424 23.2125 33.9424 23.2125C33.9424 23.2125 33.7596 23.0493 33.4396 22.7684C33.2828 22.6248 33.0804 22.4746 32.8387 22.2982C32.7212 22.2133 32.5971 22.1219 32.46 22.024C32.3228 21.9391 32.1791 21.8476 32.0289 21.7562C30.8208 20.9856 29.1032 20.2868 27.4183 19.6599C27.0134 19.5097 26.6085 19.3529 26.2167 19.2027C26.0861 19.4835 25.9555 19.7644 25.8314 20.0452C26.2232 20.2346 26.6216 20.424 27.02 20.6068H27.0265Z" fill="url(#paint14_radial_6_8801)"/>
<path d="M73.4064 38.9513C73.1779 39.1537 72.9558 39.3497 72.7534 39.5391C72.5379 39.735 72.3354 39.9505 72.1656 40.1595C71.8195 40.5774 71.5844 41.015 71.4734 41.3742C71.3558 41.7333 71.3624 41.9815 71.3624 41.9815C71.3624 41.9815 71.3624 42.0403 71.3624 42.1578C71.3689 42.2754 71.395 42.4452 71.4669 42.6542C71.5518 42.8631 71.6693 43.1048 71.8783 43.3268C72.0873 43.5488 72.355 43.7186 72.6293 43.8362C72.7534 43.895 72.884 43.9342 73.0081 43.9799C73.2367 43.6011 73.4522 43.2158 73.6611 42.8239C73.4913 42.7652 73.3281 42.6999 73.2171 42.6346C72.8971 42.4582 72.8644 42.3146 72.8252 42.2101C72.7991 42.1056 72.8187 42.0207 72.8187 42.0207C72.8187 42.0207 72.8056 41.9488 72.8448 41.7725C72.884 41.5962 73.0016 41.3023 73.2367 40.9693C73.3542 40.7995 73.4913 40.6297 73.6611 40.4403C73.8375 40.2444 74.0334 40.0419 74.2358 39.8329C74.6016 39.4542 75.0065 39.0688 75.4179 38.6901C75.5942 38.1611 75.7575 37.6256 75.8946 37.077C75.5616 37.2925 75.2285 37.5211 74.902 37.7627C74.3795 38.1415 73.8701 38.5529 73.4064 38.9513Z" fill="url(#paint15_radial_6_8801)"/>
<path d="M65.5569 18.9938C65.263 19.0917 64.9626 19.1701 64.5642 19.5031C64.2181 19.797 64.0875 20.1693 64.0744 20.4697C64.0614 20.7766 64.1593 21.0117 64.2442 21.1489C64.3291 21.2925 64.3944 21.3578 64.3944 21.3578C64.3944 21.3578 64.4532 21.4297 64.5903 21.5342C64.6622 21.5864 64.7471 21.6452 64.8646 21.704C64.9691 21.7627 65.1389 21.828 65.2303 21.8542C65.3414 21.8868 65.4524 21.9129 65.583 21.9391C65.694 21.9521 65.8116 21.9717 65.9356 21.9848C66.1838 22.0174 66.4646 22.0501 66.765 22.0566C67.9863 22.135 69.5993 21.926 71.0948 21.4623C72.414 21.064 73.6483 20.5154 74.6214 20.0256C74.5365 19.8297 74.445 19.6403 74.3601 19.4509C73.3479 19.797 72.1005 20.2019 70.8336 20.4631C69.3838 20.7831 67.921 20.855 66.863 20.7178C66.5952 20.6917 66.3601 20.6525 66.1446 20.6068C66.0401 20.5872 65.9422 20.5676 65.8573 20.5546C65.7854 20.535 65.7267 20.5154 65.6744 20.4958C65.6026 20.4697 65.6418 20.4762 65.6287 20.4762V20.4697C65.6287 20.4697 65.6287 20.4697 65.6091 20.4697C65.6091 20.4697 65.5961 20.4566 65.6026 20.4501C65.5503 20.4697 65.7463 20.3456 65.9879 20.2607C67.0524 19.8493 68.4761 19.3007 69.8997 18.7456C71.1079 18.2689 72.3095 17.7856 73.2891 17.3742C73.1781 17.1848 73.0736 16.9889 72.9561 16.7995C71.9503 17.0738 70.7552 17.4199 69.5601 17.7725C68.0973 18.2166 66.6344 18.6607 65.5438 18.9938H65.5569Z" fill="url(#paint16_radial_6_8801)"/>
<path d="M27.4901 17.1848C28.7832 17.9946 30.3962 18.7848 32.1856 19.4509C33.975 20.1105 35.9276 20.6786 37.8934 21.1619C39.8591 21.6517 41.8313 22.0501 43.6076 22.566C44.4958 22.8207 45.3383 23.1146 46.1023 23.4411C46.4876 23.6044 46.8534 23.7742 47.1995 23.9505C47.5456 24.1333 47.8787 24.3097 48.0876 24.486C48.3032 24.6689 48.3815 24.8125 48.388 24.9431C48.4076 25.0737 48.3489 25.2762 48.2378 25.4852C48.1334 25.6942 47.9832 25.8966 47.8264 26.086C47.6762 26.2819 47.5391 26.4582 47.3954 26.6019C46.8468 27.2093 46.4746 27.4966 46.4746 27.4966C46.4746 27.4966 46.135 27.8231 45.4558 28.2868C44.7766 28.7505 43.7317 29.3448 42.3668 29.7823C41.0019 30.2329 39.3236 30.5072 37.5015 30.468C35.6795 30.4354 33.7268 30.1023 31.8199 29.5799C29.0444 28.8158 26.3538 27.7056 23.9962 26.7652C23.9636 27.0068 23.9309 27.255 23.9048 27.4966C26.1709 28.5284 28.7701 29.7105 31.5391 30.566C33.4852 31.1668 35.5227 31.5848 37.4689 31.6697C39.415 31.7676 41.2632 31.5195 42.7717 31.0558C44.2868 30.6117 45.4754 29.9782 46.2591 29.4689C47.0427 28.9529 47.4411 28.5872 47.4411 28.5872C47.4411 28.5872 47.8656 28.2476 48.4795 27.5358C48.6427 27.366 48.7995 27.1505 48.9693 26.9219C49.1391 26.6999 49.3285 26.4386 49.4983 26.0925C49.6615 25.7529 49.8313 25.3089 49.7595 24.7537C49.6942 24.1856 49.3089 23.7023 48.9366 23.428C48.5513 23.1276 48.1725 22.9578 47.8003 22.7684C47.415 22.5856 47.0166 22.4093 46.5987 22.246C45.7627 21.9195 44.868 21.6386 43.9407 21.397C42.0795 20.9072 40.0942 20.5742 38.1415 20.1497C36.1823 19.7382 34.2493 19.2484 32.4729 18.6738C30.6966 18.0991 29.1032 17.4068 27.797 16.6884C27.7383 16.6558 27.686 16.6231 27.6272 16.597C27.5293 16.7538 27.4378 16.917 27.3464 17.0737C27.3987 17.1064 27.4509 17.1456 27.5097 17.1782L27.4901 17.1848Z" fill="url(#paint17_radial_6_8801)"/>
<path d="M91.8295 22.9644C91.0915 18.9284 83.5813 16.6101 72.6687 16.3488C73.1976 17.1586 74.2034 19.0917 74.654 19.9342C80.2507 20.5546 83.3593 20.9529 83.7772 23.2517C84.685 28.2215 70.3372 35.0003 51.7381 38.3897C33.1389 41.7791 17.3217 40.4991 16.4205 35.5293C16.0025 33.2239 18.6932 31.6958 23.7283 29.1293C23.8523 28.1627 24.2311 26.0468 24.4923 25.1064C14.2981 29.2142 8.0352 34.0533 8.77315 38.1023C9.98132 44.7505 29.5601 46.7423 52.4956 42.5627C75.4311 38.3831 93.0442 29.606 91.8295 22.9644Z" fill="url(#paint18_radial_6_8801)"/>
<path d="M91.8295 22.9644C91.0915 18.9284 83.5813 16.6101 72.6687 16.3488C73.1976 17.1586 74.2034 19.0917 74.654 19.9342C80.2507 20.5546 83.3593 20.9529 83.7772 23.2517C84.685 28.2215 70.3372 35.0003 51.7381 38.3897C33.1389 41.7791 17.3217 40.4991 16.4205 35.5293C16.0025 33.2239 18.6932 31.6958 23.7283 29.1293C23.8523 28.1627 24.2311 26.0468 24.4923 25.1064C14.2981 29.2142 8.0352 34.0533 8.77315 38.1023C9.98132 44.7505 29.5601 46.7423 52.4956 42.5627C75.4311 38.3831 93.0442 29.606 91.8295 22.9644Z" fill="url(#paint19_radial_6_8801)"/>
<path style="mix-blend-mode:screen" d="M17.0081 40.0615C17.0081 40.0615 16.4791 39.9113 15.7346 39.5586C14.9901 39.206 14.0236 38.6835 13.1159 38.037C12.6652 37.7039 12.2408 37.299 11.9861 36.7962C11.7314 36.2933 11.7118 35.7252 11.8163 35.2941C11.9142 34.8566 12.084 34.5301 12.2081 34.3146C12.3322 34.099 12.4171 33.9815 12.4171 33.9815C12.4171 33.9815 12.7436 33.5048 13.3314 32.917C13.9061 32.3162 14.7224 31.5717 15.591 30.899C16.4661 30.2264 17.3999 29.6321 18.1248 29.2403C18.8497 28.8484 19.3591 28.6329 19.3722 28.6656C19.3918 28.6982 18.9085 28.966 18.2228 29.4035C17.5306 29.8411 16.6424 30.468 15.813 31.1668C14.9771 31.859 14.2065 32.6231 13.6644 33.2239C13.1093 33.8182 12.8285 34.2558 12.8285 34.2558C12.8285 34.2558 12.7501 34.3603 12.6326 34.5562C12.515 34.7521 12.3583 35.0329 12.2669 35.3986C12.1689 35.7578 12.1754 36.2019 12.3648 36.6264C12.5542 37.0509 12.9265 37.4427 13.3379 37.7692C14.1869 38.4288 15.1273 38.997 15.8326 39.3954C16.5444 39.7937 17.0342 40.0354 17.0212 40.068L17.0081 40.0615ZM74.471 33.6027C74.3012 33.668 74.053 33.766 73.733 33.8901C73.093 34.1317 72.2048 34.5366 71.1142 34.9415C68.9395 35.797 66.0008 36.8288 63.0293 37.7562C60.0448 38.6509 57.0342 39.4346 54.755 39.9309C53.6187 40.2052 52.6587 40.3619 51.9926 40.5056C51.3265 40.6427 50.9412 40.7146 50.9412 40.7146C50.9412 40.7146 50.5559 40.7864 49.8897 40.9039C49.2171 41.015 48.2636 41.2239 47.1077 41.3872C44.8024 41.766 41.7134 42.1513 38.6114 42.419C35.5028 42.6541 32.3877 42.7782 30.0497 42.7848C28.8808 42.8109 27.9077 42.7717 27.222 42.7782C26.8824 42.7782 26.6146 42.7782 26.4318 42.7782C26.2489 42.7782 26.151 42.7848 26.151 42.7978C26.151 42.8044 26.2489 42.8174 26.4318 42.8305C26.6146 42.8435 26.8824 42.8566 27.222 42.8762C27.9012 42.9023 28.8808 42.9741 30.0497 42.9741C32.3942 43.0264 35.5159 42.9546 38.6375 42.7586C41.7526 42.5301 44.8612 42.1839 47.1795 41.8248C48.342 41.668 49.302 41.4721 49.9746 41.3676C50.6473 41.2501 51.0326 41.1848 51.0326 41.1848C51.0326 41.1848 51.4179 41.1064 52.084 40.9627C52.7501 40.8125 53.7101 40.6427 54.8465 40.3554C57.1322 39.8329 60.1428 39.0101 63.1273 38.0697C66.0987 37.0966 69.0244 36.0125 71.1795 35.0982C72.2701 34.6672 73.1452 34.2362 73.7722 33.9619C74.0791 33.8182 74.3273 33.7072 74.4906 33.6288C74.6538 33.5505 74.7387 33.5048 74.7387 33.4982C74.7387 33.4917 74.6408 33.5244 74.471 33.5831V33.6027ZM84.3583 29.2076C83.1501 30.0566 81.8963 30.8403 81.8963 30.8403C81.8963 30.8403 80.6816 31.6762 79.4146 32.4468C78.1542 33.2239 76.8546 33.9358 76.8808 33.9946C76.9069 34.0533 78.2718 33.4525 79.5844 32.7472C80.8971 32.0484 82.1575 31.2452 82.1575 31.2452C82.1575 31.2452 83.3918 30.4093 84.5542 29.4819C85.7232 28.5611 86.8203 27.5488 86.7746 27.5031C86.7289 27.4509 85.5599 28.3652 84.3518 29.2076H84.3583ZM88.8056 24.5448C88.9363 24.3423 89.1257 24.0484 89.2759 23.6501C89.4261 23.2582 89.5501 22.7423 89.413 22.2003C89.2759 21.6517 88.8775 21.1815 88.4334 20.8288C87.5387 20.117 86.4612 19.7186 85.671 19.4639C84.8742 19.2092 84.3387 19.0721 84.3387 19.0721C84.3387 19.0721 82.1901 18.5366 80.0024 18.2166C78.9118 18.0468 77.8146 17.9162 76.9918 17.8444C76.1689 17.766 75.6138 17.7399 75.6138 17.7725C75.6138 17.8052 76.1559 17.8966 76.9657 18.0337C77.782 18.1709 78.8661 18.3472 79.9436 18.5627C82.1052 18.9676 84.2212 19.5488 84.2212 19.5488C84.2212 19.5488 84.7567 19.6729 85.5403 19.895C86.3175 20.1235 87.3624 20.4697 88.2244 21.1031C88.6489 21.4166 89.0146 21.815 89.1518 22.2721C89.2954 22.7293 89.2171 23.206 89.0995 23.5913C88.8383 24.3554 88.5248 24.8256 88.5705 24.8452C88.5836 24.8517 88.6685 24.7472 88.8056 24.5448ZM85.4293 26.3015C85.8865 25.8639 86.2391 25.335 86.2391 25.335C86.2391 25.335 86.5526 24.7799 86.7355 24.1725C86.9248 23.5717 86.9771 22.9448 86.9118 22.9317C86.8465 22.9186 86.6767 23.5064 86.4155 24.0419C86.1608 24.5839 85.8212 25.0737 85.8212 25.0737C85.8212 25.0737 85.5403 25.5962 85.1681 26.0664C84.8089 26.5431 84.3648 26.9611 84.404 27.0133C84.4432 27.0656 84.9787 26.739 85.4228 26.295L85.4293 26.3015ZM21.2399 42.3799C20.1363 42.1317 19.0522 41.8378 19.0522 41.8378C19.0522 41.8378 17.9485 41.6027 16.8775 41.2631C15.7999 40.9366 14.7746 40.4599 14.742 40.5186C14.7093 40.5774 15.6954 41.1652 16.7665 41.5831C17.831 42.0076 18.9412 42.3015 18.9412 42.3015C18.9412 42.3015 20.0579 42.5497 21.1877 42.7064C22.3175 42.8697 23.4408 42.9872 23.4538 42.9219C23.4669 42.8566 22.3567 42.615 21.2465 42.3668L21.2399 42.3799ZM31.0881 40.8321C29.8016 40.8582 28.515 40.8321 28.515 40.8321C28.515 40.8321 27.2285 40.8648 25.9354 40.8582C24.6489 40.8517 23.3559 40.7929 23.3493 40.8582C23.3493 40.9235 24.6293 41.0999 25.9224 41.1978C27.2154 41.2958 28.515 41.3154 28.515 41.3154C28.515 41.3154 29.8146 41.2827 31.1077 41.1717C32.4008 41.0607 33.6808 40.8713 33.6742 40.806C33.6677 40.7407 32.3746 40.806 31.0881 40.8256V40.8321Z" fill="url(#paint20_radial_6_8801)"/>
<g clip-path="url(#clip1_6_8801)">
<path d="M87.8363 147.693C107.729 127.8 107.729 95.5472 87.8363 75.6543C67.9434 55.7615 35.6908 55.7615 15.798 75.6543C-4.09487 95.5472 -4.09487 127.8 15.798 147.693C35.6908 167.585 67.9434 167.585 87.8363 147.693Z" fill="url(#paint21_linear_6_8801)"/>
<path style="mix-blend-mode:screen" d="M87.8363 147.693C107.729 127.8 107.729 95.5472 87.8363 75.6543C67.9434 55.7615 35.6908 55.7615 15.798 75.6543C-4.09487 95.5472 -4.09487 127.8 15.798 147.693C35.6908 167.585 67.9434 167.585 87.8363 147.693Z" fill="url(#paint22_linear_6_8801)"/>
<path style="mix-blend-mode:screen" d="M51.8166 68.7073C41.3863 68.7073 31.8255 72.4236 24.3838 78.6022C27.5829 77.8424 30.9193 77.4351 34.3519 77.4351C58.0821 77.4351 77.318 96.671 77.318 120.401C77.318 133.701 71.2722 145.591 61.7801 153.473C80.7048 148.978 94.7782 131.967 94.7782 111.669C94.7782 87.9387 75.5422 68.7028 51.812 68.7028L51.8166 68.7073Z" fill="url(#paint23_linear_6_8801)"/>
<path style="mix-blend-mode:multiply" opacity="0.45" d="M67.3816 129.967C42.3928 129.967 22.1363 109.71 22.1363 84.7212C22.1363 78.8951 23.2392 73.3252 25.2438 68.2085C10.6304 77.1605 0.877441 93.2797 0.877441 111.673C0.877441 139.807 23.6832 162.612 51.8162 162.612C79.9492 162.612 102.064 140.493 102.737 112.946C94.4437 123.317 81.6884 129.962 67.377 129.962L67.3816 129.967Z" fill="url(#paint24_linear_6_8801)"/>
</g>
</g>
<defs>
<radialGradient id="paint0_radial_6_8801" cx="0" cy="0" r="1" gradientUnits="userSpaceOnUse" gradientTransform="translate(76.4401 57.4224) scale(79.3469)">
<stop offset="0.22" stop-color="#DE007B"/>
<stop offset="0.92" stop-color="#FFE245"/>
</radialGradient>
<radialGradient id="paint1_radial_6_8801" cx="0" cy="0" r="1" gradientUnits="userSpaceOnUse" gradientTransform="translate(67.1764 35.5358) scale(47.9151 47.9151)">
<stop offset="0.22" stop-color="#DE007B"/>
<stop offset="0.92" stop-color="#FFE245"/>
</radialGradient>
<radialGradient id="paint2_radial_6_8801" cx="0" cy="0" r="1" gradientUnits="userSpaceOnUse" gradientTransform="translate(76.4368 57.3676) scale(72.4767)">
<stop offset="0.22" stop-color="#DE007B"/>
<stop offset="0.92" stop-color="#FFE245"/>
</radialGradient>
<radialGradient id="paint3_radial_6_8801" cx="0" cy="0" r="1" gradientUnits="userSpaceOnUse" gradientTransform="translate(74.0859 55.846) scale(59.1543 59.1543)">
<stop offset="0.22" stop-color="#DE007B"/>
<stop offset="0.92" stop-color="#FFE245"/>
</radialGradient>
<radialGradient id="paint4_radial_6_8801" cx="0" cy="0" r="1" gradientUnits="userSpaceOnUse" gradientTransform="translate(47.0321 14.5378) rotate(-35.53) scale(14.2041)">
<stop offset="0.22" stop-color="#DE007B"/>
<stop offset="0.92" stop-color="#FFE245"/>
</radialGradient>
<radialGradient id="paint5_radial_6_8801" cx="0" cy="0" r="1" gradientUnits="userSpaceOnUse" gradientTransform="translate(54.9466 11.4699) rotate(-8.48) scale(7.62122)">
<stop offset="0.22" stop-color="#DE007B"/>
<stop offset="0.92" stop-color="#FFE245"/>
</radialGradient>
<radialGradient id="paint6_radial_6_8801" cx="0" cy="0" r="1" gradientUnits="userSpaceOnUse" gradientTransform="translate(29.247 12.4893) scale(68.0359 68.0359)">
<stop offset="0.22" stop-color="#DE007B"/>
<stop offset="0.92" stop-color="#FFE245"/>
</radialGradient>
<radialGradient id="paint7_radial_6_8801" cx="0" cy="0" r="1" gradientUnits="userSpaceOnUse" gradientTransform="translate(29.2467 12.4892) scale(68.0359 68.0359)">
<stop offset="0.22" stop-color="#DE007B"/>
<stop offset="0.92" stop-color="#FFE245"/>
</radialGradient>
<radialGradient id="paint8_radial_6_8801" cx="0" cy="0" r="1" gradientUnits="userSpaceOnUse" gradientTransform="translate(29.2467 12.4893) scale(68.0359 68.0359)">
<stop offset="0.22" stop-color="#DE007B"/>
<stop offset="0.92" stop-color="#FFE245"/>
</radialGradient>
<radialGradient id="paint9_radial_6_8801" cx="0" cy="0" r="1" gradientUnits="userSpaceOnUse" gradientTransform="translate(29.2468 12.4893) scale(68.0359 68.0359)">
<stop offset="0.22" stop-color="#DE007B"/>
<stop offset="0.92" stop-color="#FFE245"/>
</radialGradient>
<radialGradient id="paint10_radial_6_8801" cx="0" cy="0" r="1" gradientUnits="userSpaceOnUse" gradientTransform="translate(29.2466 12.4892) scale(68.0359 68.0359)">
<stop offset="0.22" stop-color="#DE007B"/>
<stop offset="0.92" stop-color="#FFE245"/>
</radialGradient>
<radialGradient id="paint11_radial_6_8801" cx="0" cy="0" r="1" gradientUnits="userSpaceOnUse" gradientTransform="translate(29.2466 12.4893) scale(68.0359 68.0359)">
<stop offset="0.22" stop-color="#DE007B"/>
<stop offset="0.92" stop-color="#FFE245"/>
</radialGradient>
<radialGradient id="paint12_radial_6_8801" cx="0" cy="0" r="1" gradientUnits="userSpaceOnUse" gradientTransform="translate(29.2468 12.4893) scale(68.0359 68.0359)">
<stop offset="0.22" stop-color="#DE007B"/>
<stop offset="0.92" stop-color="#FFE245"/>
</radialGradient>
<radialGradient id="paint13_radial_6_8801" cx="0" cy="0" r="1" gradientUnits="userSpaceOnUse" gradientTransform="translate(29.2468 12.4893) scale(68.0359)">
<stop offset="0.22" stop-color="#DE007B"/>
<stop offset="0.92" stop-color="#FFE245"/>
</radialGradient>
<radialGradient id="paint14_radial_6_8801" cx="0" cy="0" r="1" gradientUnits="userSpaceOnUse" gradientTransform="translate(29.2469 12.4893) scale(68.0359 68.0359)">
<stop offset="0.22" stop-color="#DE007B"/>
<stop offset="0.92" stop-color="#FFE245"/>
</radialGradient>
<radialGradient id="paint15_radial_6_8801" cx="0" cy="0" r="1" gradientUnits="userSpaceOnUse" gradientTransform="translate(29.2464 12.4893) scale(68.0359 68.0359)">
<stop offset="0.22" stop-color="#DE007B"/>
<stop offset="0.92" stop-color="#FFE245"/>
</radialGradient>
<radialGradient id="paint16_radial_6_8801" cx="0" cy="0" r="1" gradientUnits="userSpaceOnUse" gradientTransform="translate(29.2467 12.4893) scale(68.0359)">
<stop offset="0.22" stop-color="#DE007B"/>
<stop offset="0.92" stop-color="#FFE245"/>
</radialGradient>
<radialGradient id="paint17_radial_6_8801" cx="0" cy="0" r="1" gradientUnits="userSpaceOnUse" gradientTransform="translate(29.2468 12.4893) scale(68.0359 68.0359)">
<stop offset="0.22" stop-color="#DE007B"/>
<stop offset="0.92" stop-color="#FFE245"/>
</radialGradient>
<radialGradient id="paint18_radial_6_8801" cx="0" cy="0" r="1" gradientUnits="userSpaceOnUse" gradientTransform="translate(91.405 45.0248) scale(74.018 74.018)">
<stop offset="0.06" stop-color="#732FA4"/>
<stop offset="0.66" stop-color="#8EE1EE"/>
<stop offset="1" stop-color="#D1E1EE"/>
</radialGradient>
<radialGradient id="paint19_radial_6_8801" cx="0" cy="0" r="1" gradientUnits="userSpaceOnUse" gradientTransform="translate(91.405 45.0248) scale(74.018 74.018)">
<stop offset="0.06" stop-color="#732FA4"/>
<stop offset="0.66" stop-color="#8EE1EE"/>
<stop offset="1" stop-color="#D1E1EE"/>
</radialGradient>
<radialGradient id="paint20_radial_6_8801" cx="0" cy="0" r="1" gradientUnits="userSpaceOnUse" gradientTransform="translate(50.6146 30.3831) scale(28.8914 28.8914)">
<stop stop-color="#D1E1EE"/>
<stop offset="0.34" stop-color="#8EE1EE"/>
<stop offset="0.94" stop-color="#732FA4"/>
</radialGradient>
<linearGradient id="paint21_linear_6_8801" x1="135.704" y1="52.0121" x2="39.0396" y2="120.763" gradientUnits="userSpaceOnUse">
<stop stop-color="#2F67C5"/>
<stop offset="0.96" stop-color="#09002B"/>
</linearGradient>
<linearGradient id="paint22_linear_6_8801" x1="135.704" y1="52.0121" x2="39.0396" y2="120.763" gradientUnits="userSpaceOnUse">
<stop stop-color="#7EAEFF"/>
<stop offset="0.96" stop-color="#4C87CD"/>
</linearGradient>
<linearGradient id="paint23_linear_6_8801" x1="111.401" y1="69.2977" x2="55.3544" y2="109.156" gradientUnits="userSpaceOnUse">
<stop stop-color="#2F67C5"/>
<stop offset="0.96" stop-color="#09002B"/>
</linearGradient>
<linearGradient id="paint24_linear_6_8801" x1="8.90957" y1="178.915" x2="59.7797" y2="99.1928" gradientUnits="userSpaceOnUse">
<stop stop-color="#2F67C5"/>
<stop offset="0.96" stop-color="#09002B"/>
</linearGradient>
<clipPath id="clip0_6_8801">
<rect width="101.878" height="96" fill="white" transform="translate(0.877441)"/>
</clipPath>
<clipPath id="clip1_6_8801">
<rect width="101.878" height="101.878" fill="white" transform="translate(0.877441 60.7347)"/>
</clipPath>
</defs>
</svg>
