<svg width="314" height="292" viewBox="0 0 314 292" fill="none" xmlns="http://www.w3.org/2000/svg">
<g clip-path="url(#clip0_6_6263)">
<path d="M33.8274 291.898C38.9249 291.818 42.9924 287.621 42.9123 282.523C42.8322 277.426 38.635 273.358 33.5374 273.438C28.4399 273.519 24.3725 277.716 24.4526 282.813C24.5327 287.911 28.7299 291.978 33.8274 291.898Z" fill="url(#paint0_linear_6_6263)"/>
<path d="M15.0453 285.801C17.9108 285.432 19.9341 282.809 19.5644 279.944C19.1948 277.078 16.5723 275.055 13.7068 275.425C10.8414 275.794 8.81807 278.417 9.18768 281.282C9.5573 284.148 12.1799 286.171 15.0453 285.801Z" fill="url(#paint1_linear_6_6263)"/>
<path d="M306.079 16.845C308.511 15.285 309.217 12.049 307.657 9.61712C306.097 7.18528 302.861 6.47853 300.43 8.03854C297.998 9.59856 297.291 12.8346 298.851 15.2664C300.411 17.6983 303.647 18.405 306.079 16.845Z" fill="url(#paint2_linear_6_6263)"/>
<path d="M267.188 2.39348C268.756 -0.0349968 271.996 -0.731346 274.421 0.836314C276.849 2.40397 277.546 5.64427 275.978 8.06925C274.411 10.4977 271.17 11.1941 268.745 9.62641C266.317 8.05875 265.62 4.81845 267.188 2.39348Z" fill="url(#paint3_linear_6_6263)"/>
<path d="M303.248 49.2833C302.495 49.2833 301.733 49.1993 300.97 49.0279C295.448 47.7716 291.973 42.2603 293.229 36.735C293.838 34.0581 295.451 31.7801 297.771 30.3174C300.091 28.8547 302.845 28.3858 305.519 28.9947C311.041 30.2509 314.515 35.7622 313.259 41.2875C312.178 46.0465 307.933 49.2833 303.244 49.2833H303.248ZM301.225 47.9081C303.601 48.447 306.047 48.0306 308.108 46.7324C310.169 45.4341 311.604 43.4081 312.143 41.0321C312.682 38.6561 312.265 36.2101 310.967 34.1491C309.669 32.088 307.643 30.6533 305.267 30.1145C302.891 29.5721 300.445 29.992 298.384 31.2902C296.323 32.5884 294.888 34.6145 294.349 36.9905C293.233 41.8964 296.319 46.7953 301.225 47.9116V47.9081Z" fill="url(#paint4_linear_6_6263)"/>
<path d="M22.5195 261.06C30.3698 257.323 33.7037 247.929 29.966 240.078C26.2284 232.228 16.8345 228.894 8.98417 232.632C1.13388 236.369 -2.20006 245.763 1.53761 253.614C5.27528 261.464 14.6692 264.798 22.5195 261.06Z" fill="url(#paint5_linear_6_6263)"/>
<path d="M150.376 61.6391L157.018 62.3775L161.392 57.3246L162.435 62.3845C166.06 57.9159 174.259 50.5465 191.132 45.9135L188.732 50.0846C188.732 50.0846 195.198 46.6379 209.594 51.2289L195.286 54.3782L200.944 58.3848C200.944 58.3848 187.157 49.1888 163.208 64.0641L168.898 66.4646L163.089 69.7714L162.519 76.4304L157.578 71.9269L151.069 73.4421L153.827 67.3534L150.373 61.6321L150.376 61.6391Z" fill="url(#paint6_linear_6_6263)"/>
<path d="M189.435 137.604C166.91 128.436 147.619 151.906 147.619 151.906C147.619 151.906 128.328 128.436 105.803 137.604C93.9126 142.444 86.4627 154.355 86.9001 167.187C87.5615 186.601 96.586 220.89 145.785 248.439C146.926 249.076 148.319 249.076 149.46 248.439C198.659 220.89 207.683 186.601 208.345 167.187C208.782 154.355 201.332 142.444 189.442 137.604H189.435Z" fill="url(#paint7_linear_6_6263)"/>
<g style="mix-blend-mode:soft-light" opacity="0.55">
<path d="M170.347 159.45L171.904 158.631L171.606 160.367L172.866 161.595L171.123 161.847L170.347 163.425L169.566 161.847L167.824 161.595L169.087 160.367L168.789 158.631L170.347 159.45Z" fill="#E8F1FF"/>
</g>
<g style="mix-blend-mode:soft-light" opacity="0.55">
<path d="M138.112 149.334L139.669 148.515L139.371 150.25L140.631 151.479L138.888 151.731L138.112 153.309L137.331 151.731L135.589 151.479L136.848 150.25L136.551 148.515L138.112 149.334Z" fill="#E8F1FF"/>
</g>
<g style="mix-blend-mode:soft-light" opacity="0.55">
<path d="M155.177 223.161L156.735 222.342L156.437 224.077L157.697 225.306L155.958 225.561L155.177 227.136L154.397 225.561L152.658 225.306L153.918 224.077L153.62 222.342L155.177 223.161Z" fill="#E8F1FF"/>
</g>
<g style="mix-blend-mode:soft-light" opacity="0.55">
<path d="M120.997 188.224L122.554 187.405L122.256 189.141L123.516 190.369L121.774 190.621L120.997 192.199L120.216 190.621L118.474 190.369L119.734 189.141L119.436 187.405L120.997 188.224Z" fill="#E8F1FF"/>
</g>
<g style="mix-blend-mode:soft-light" opacity="0.55">
<path d="M182.506 194.197L184.064 193.379L183.766 195.114L185.029 196.342L183.287 196.594L182.506 198.173L181.73 196.594L179.987 196.342L181.247 195.114L180.949 193.379L182.506 194.197Z" fill="#E8F1FF"/>
</g>
<g style="mix-blend-mode:soft-light" opacity="0.55">
<path d="M172.866 219.182L174.423 218.363L174.126 220.099L175.385 221.327L173.646 221.579L172.866 223.157L172.086 221.579L170.347 221.327L171.606 220.099L171.309 218.363L172.866 219.182Z" fill="#E8F1FF"/>
</g>
<g style="mix-blend-mode:soft-light" opacity="0.55">
<path d="M183.787 172.366L185.344 171.547L185.047 173.282L186.31 174.511L184.567 174.763L183.787 176.341L183.01 174.763L181.268 174.511L182.527 173.282L182.23 171.547L183.787 172.366Z" fill="#E8F1FF"/>
</g>
<g style="mix-blend-mode:soft-light" opacity="0.55">
<path d="M196.878 190.621L198.435 189.802L198.138 191.538L199.397 192.766L197.655 193.018L196.878 194.596L196.097 193.018L194.355 192.766L195.615 191.538L195.317 189.802L196.878 190.621Z" fill="#E8F1FF"/>
</g>
<g style="mix-blend-mode:soft-light" opacity="0.55">
<path d="M188.83 146.937L190.387 146.118L190.089 147.853L191.349 149.082L189.606 149.334L188.83 150.912L188.049 149.334L186.31 149.082L187.57 147.853L187.272 146.118L188.83 146.937Z" fill="#E8F1FF"/>
</g>
<g style="mix-blend-mode:soft-light" opacity="0.55">
<path d="M150.138 183.43L151.696 182.611L151.398 184.347L152.658 185.575L150.915 185.827L150.138 187.405L149.358 185.827L147.615 185.575L148.875 184.347L148.578 182.611L150.138 183.43Z" fill="#E8F1FF"/>
</g>
<g style="mix-blend-mode:soft-light" opacity="0.55">
<path d="M167.824 178.636L169.384 177.817L169.087 179.55L170.347 180.781L168.604 181.033L167.824 182.611L167.047 181.033L165.304 180.781L166.564 179.55L166.266 177.817L167.824 178.636Z" fill="#E8F1FF"/>
</g>
<g style="mix-blend-mode:soft-light" opacity="0.55">
<path d="M135.589 167.572L137.146 166.753L136.848 168.488L138.112 169.717L136.369 169.969L135.589 171.547L134.812 169.969L133.069 169.717L134.329 168.488L134.031 166.753L135.589 167.572Z" fill="#E8F1FF"/>
</g>
<g style="mix-blend-mode:soft-light" opacity="0.55">
<path d="M95.1514 151.731L96.7085 150.912L96.4111 152.647L97.6708 153.876L95.9317 154.128L95.1514 155.706L94.371 154.128L92.6319 153.876L93.8916 152.647L93.5942 150.912L95.1514 151.731Z" fill="#E8F1FF"/>
</g>
<g style="mix-blend-mode:soft-light" opacity="0.55">
<path d="M164.121 198.746L165.679 197.928L165.381 199.663L166.641 200.891L164.902 201.143L164.121 202.722L163.345 201.143L161.602 200.891L162.862 199.663L162.564 197.928L164.121 198.746Z" fill="#E8F1FF"/>
</g>
<g style="mix-blend-mode:soft-light" opacity="0.55">
<path d="M115.954 209.136L117.511 208.317L117.214 210.052L118.474 211.281L116.735 211.533L115.954 213.111L115.174 211.533L113.435 211.281L114.695 210.052L114.397 208.317L115.954 209.136Z" fill="#E8F1FF"/>
</g>
<g style="mix-blend-mode:soft-light" opacity="0.55">
<path d="M100.19 198.746L101.751 197.928L101.453 199.663L102.713 200.891L100.971 201.143L100.19 202.722L99.4134 201.143L97.6708 200.891L98.9305 199.663L98.6331 197.928L100.19 198.746Z" fill="#E8F1FF"/>
</g>
<g style="mix-blend-mode:soft-light" opacity="0.55">
<path d="M138.112 197.921L139.669 197.102L139.371 198.837L140.631 200.066L138.888 200.318L138.112 201.896L137.331 200.318L135.589 200.066L136.848 198.837L136.551 197.102L138.112 197.921Z" fill="#E8F1FF"/>
</g>
<g style="mix-blend-mode:soft-light" opacity="0.55">
<path d="M131.711 229.83L133.269 229.011L132.971 230.747L134.231 231.975L132.492 232.227L131.711 233.805L130.931 232.227L129.192 231.975L130.452 230.747L130.154 229.011L131.711 229.83Z" fill="#E8F1FF"/>
</g>
<g style="mix-blend-mode:soft-light" opacity="0.55">
<path d="M199.397 159.45L200.954 158.631L200.657 160.367L201.917 161.595L200.174 161.847L199.397 163.425L198.617 161.847L196.878 161.595L198.138 160.367L197.84 158.631L199.397 159.45Z" fill="#E8F1FF"/>
</g>
<g style="mix-blend-mode:soft-light" opacity="0.55">
<path d="M120.192 143.234L121.749 142.416L121.452 144.148L122.711 145.376L120.969 145.631L120.192 147.21L119.412 145.631L117.672 145.376L118.932 144.148L118.635 142.416L120.192 143.234Z" fill="#E8F1FF"/>
</g>
<g style="mix-blend-mode:soft-light" opacity="0.55">
<path d="M172.866 138.44L174.423 137.622L174.126 139.354L175.385 140.582L173.646 140.837L172.866 142.416L172.086 140.837L170.347 140.582L171.606 139.354L171.309 137.622L172.866 138.44Z" fill="#E8F1FF"/>
</g>
<g style="mix-blend-mode:soft-light" opacity="0.55">
<path d="M102.713 169.178L104.27 168.359L103.973 170.095L105.233 171.323L103.49 171.575L102.713 173.153L101.933 171.575L100.19 171.323L101.453 170.095L101.156 168.359L102.713 169.178Z" fill="#E8F1FF"/>
</g>
<path d="M171.484 158.852C171.606 158.887 171.725 158.922 171.848 158.953L171.904 158.631L171.484 158.852ZM120.192 143.231L118.635 142.412L118.712 142.864C119.643 143.122 120.584 143.392 121.532 143.668L121.749 142.412L120.192 143.231ZM138.797 148.973C139.046 149.054 139.298 149.131 139.55 149.211L139.669 148.515L138.797 148.973ZM120.192 143.231L118.635 142.412L118.712 142.864C119.643 143.122 120.584 143.392 121.532 143.668L121.749 142.412L120.192 143.231ZM171.484 158.852C171.606 158.887 171.725 158.922 171.848 158.953L171.904 158.631L171.484 158.852ZM208.289 168.38C208.222 169.668 208.121 171.015 207.974 172.418C230.212 183.64 239.677 196.367 238.844 207.855C237.612 224.893 212.397 228.983 181.509 224.711C164.457 222.352 145.677 217.446 128.247 210.766C118.715 207.11 109.726 203.096 101.59 198.862C101.317 198.722 101.051 198.582 100.782 198.438C98.0067 196.979 95.3333 195.496 92.7754 193.994C65.9327 178.216 51.6208 160.262 64.0851 146.615C73.0606 136.782 86.2843 135.841 102.832 139.004C103.787 138.489 104.778 138.021 105.8 137.604C106.254 137.419 106.706 137.247 107.157 137.09C75.2827 128.195 50.2491 125.381 34.6915 142.423C12.1598 167.096 54.6686 202.221 115.706 226.646C117.456 227.349 119.226 228.042 121.007 228.724C123.772 229.785 126.561 230.81 129.367 231.8C129.685 231.916 130.004 232.028 130.322 232.136C130.322 232.136 130.325 232.137 130.329 232.14H130.333C130.557 232.22 130.784 232.297 131.008 232.374C131.41 232.514 131.809 232.654 132.212 232.791C141.737 236.062 151.451 238.928 161.084 241.322C215.641 254.881 267.73 253.352 269.795 224.809C271.139 206.273 252.547 185.334 208.289 168.38ZM171.904 158.631L171.484 158.852C171.606 158.887 171.725 158.922 171.848 158.953L171.904 158.631ZM139.669 148.515L138.797 148.973C139.046 149.054 139.298 149.131 139.55 149.211L139.669 148.515ZM171.484 158.852C171.606 158.887 171.725 158.922 171.848 158.953L171.904 158.631L171.484 158.852Z" fill="url(#paint8_linear_6_6263)"/>
<path d="M207.18 177.94C207.026 178.79 206.854 179.658 206.662 180.54C211.26 184.305 213.657 188.14 213.384 191.916C212.929 198.194 206.501 202.568 196.983 204.954C181.583 208.821 158.092 207.491 138.734 200.629C137.825 200.311 136.925 199.975 136.04 199.628C135.4 199.38 134.77 199.128 134.143 198.865C113.113 190.103 97.9473 182.905 87.838 176.67C71.3285 166.48 68.3157 158.862 75.2897 151.223C79.2368 146.898 86.0498 145.404 94.525 145.656C95.5013 144.536 96.5651 143.486 97.7058 142.517C87.1346 141.621 78.516 143.549 72.2488 150.411C62.444 161.151 71.514 174.924 90.4624 187.633C100.743 194.53 113.928 201.115 128.583 206.735C142.521 212.079 157.445 216.127 171.309 218.37C171.316 218.374 171.323 218.374 171.33 218.374C172.124 218.503 172.912 218.626 173.699 218.745H173.702C173.916 218.776 174.129 218.808 174.343 218.839C178.307 219.409 182.167 219.826 185.88 220.074C207.988 221.572 224.742 217.145 225.68 204.181C226.292 195.727 220.55 186.506 207.18 177.94ZM169.664 162.046L170.347 163.425L170.854 162.4C170.459 162.281 170.063 162.165 169.664 162.046ZM167.887 161.535L167.827 161.595L168.363 161.672C168.205 161.626 168.048 161.581 167.887 161.535ZM137.681 152.434L138.112 153.309L138.426 152.672C138.175 152.591 137.926 152.514 137.681 152.434ZM120.139 147.101L120.192 147.206L120.23 147.126C120.199 147.115 120.167 147.108 120.139 147.101Z" fill="url(#paint9_linear_6_6263)"/>
<path d="M49.0278 57.9509C47.6771 56.4428 47.0438 54.4342 47.3797 52.4361C47.5617 51.3689 47.5862 50.2281 47.4322 49.0594C46.4524 41.641 42.9567 40.8011 39.09 41.396C37.6028 41.6235 36.3151 42.4143 35.3353 43.576C34.8559 44.1429 34.2226 44.5453 33.5122 44.7623C30.2719 45.7421 28.4593 49.0594 29.1032 52.1982C29.3726 53.5174 29.0787 54.9066 28.2249 55.9424C26.8252 57.6395 26.0518 59.7915 26.0903 62.0275C26.1148 63.4692 25.4185 64.8304 24.2882 65.7262C21.4608 67.9728 20.0226 71.7939 21.1109 75.6396C22.2796 79.7652 26.2128 82.5926 30.4959 82.3931C34.2086 82.2217 37.2214 79.9752 38.6106 76.9098C39.4574 75.0412 41.1546 73.6975 43.1876 73.4386C43.2681 73.4281 43.3486 73.4176 43.4291 73.4036C51.1939 72.2103 53.6049 63.0633 49.0243 57.9439L49.0278 57.9509Z" fill="#1E7DF4"/>
<path d="M48.5275 51.7748C48.4925 51.3479 48.216 51.0189 47.9046 51.0434C47.5932 51.0679 47.3692 51.4353 47.4042 51.8623" stroke="#281922" stroke-width="1.08" stroke-miterlimit="10"/>
<path d="M31.9446 55.7569C33.9286 60.2184 38.8766 62.353 42.9917 60.5229C47.1103 58.6928 48.9264 53.5489 46.8548 49.1293C44.6083 44.3319 40.7032 43.3066 36.735 45.4411C32.3785 47.7856 29.957 51.2989 31.9411 55.7604L31.9446 55.7569Z" fill="#1E7DF4"/>
<path d="M46.7394 61.9261C43.828 63.0563 37.8093 61.2682 36.679 58.3534C36.679 58.3534 34.4605 54.0878 34.744 52.3941C35.2408 49.4513 40.9796 46.9598 43.4571 46.4699C47.2537 45.7211 49.1538 52.5516 49.1538 52.5516C51.5228 57.881 48.0096 61.4327 46.7359 61.9296L46.7394 61.9261Z" fill="#FF8F6A"/>
<path d="M37.4069 64.9284L37.8303 59.851C36.7525 60.068 36.9555 58.8957 36.7455 58.3569C36.7455 58.3569 34.527 54.0913 34.8104 52.3976C35.3073 49.4548 41.0461 46.9633 43.5235 46.4734C47.3202 45.7246 49.2203 52.5551 49.2203 52.5551C51.5893 57.8845 48.076 61.4362 46.8023 61.9331C46.12 62.199 45.2627 62.297 44.3389 62.2655L44.6958 64.701C46.9248 65.0019 48.9789 66.9405 48.9789 66.9405C48.9789 66.9405 42.9392 82.3232 40.5387 80.9829C38.1382 79.6427 34.0826 66.4786 34.0826 66.4786C35.0729 66.4296 36.4761 64.9249 37.4069 64.9389V64.9284Z" fill="#121420"/>
<path d="M33.7047 57.9439C34.2506 59.1687 35.8112 59.739 37.3159 59.1617L35.5418 54.6337C34.0371 55.211 32.7249 55.7429 33.7047 57.9439Z" fill="#121420"/>
<path d="M33.9216 49.0104C35.7692 47.3902 43.73 44.1499 43.73 44.1499C43.73 44.1499 43.4886 47.4357 40.8081 50.648C40.0733 51.5263 39.083 52.3626 38.0997 53.08C37.0814 53.8218 36.5671 55.0676 36.805 56.3028L36.637 56.0403C36.1402 55.267 35.1394 54.9976 34.317 55.414C34.317 55.414 32.0775 50.634 33.9216 49.0139V49.0104Z" fill="#1E7DF4"/>
<path d="M37.5923 55.533C37.5923 55.533 42.3373 50.9524 49.0593 49.5912C49.0593 49.5912 48.335 44.0309 44.2339 43.0932C41.5815 42.4878 32.312 46.7744 37.5923 55.533Z" fill="#1E7DF4"/>
<path d="M48.4925 68.9665C48.4155 68.4207 48.7059 67.9483 49.2903 67.9168C50.697 67.8433 53.045 69.4074 53.0975 69.5089C58.8012 71.8709 65.5058 72.3293 71.493 73.1551C74.3764 73.554 77.0358 74.2959 79.3978 75.6081C79.5902 75.6466 80.9234 75.9125 81.1019 75.9755C82.4141 76.245 83.3589 76.4759 84.2337 76.9448C85.406 77.5712 88.3943 78.9849 88.8667 80.4895C88.9052 80.612 88.7862 80.724 88.6638 80.682C86.6377 79.9927 84.4752 79.2193 82.3966 78.9779C83.0615 80.1291 83.8278 81.4168 84.2022 82.7011C83.3589 82.6871 82.6591 81.5393 82.0677 80.9969C81.3958 80.3776 80.661 79.7302 80.0381 78.9919C73.2706 76.3464 64.9459 78.7889 57.9439 77.7951C55.2985 77.4207 51.5508 76.3989 49.3918 74.6633C46.7183 72.5148 48.8844 71.7204 48.4925 68.9665Z" fill="#121420"/>
<path d="M29.5896 156.238C29.0157 155.1 28.1654 154.439 27.1401 153.974C26.6362 154.708 26.0693 155.534 25.5829 156.409C25.0755 156.71 24.6836 156.801 24.2112 156.878C23.7878 156.941 23.3259 157.084 22.6506 157.459C19.9842 158.953 22.6121 161.175 22.6156 162.291C22.6331 164.909 19.8862 166.84 23.5884 169.5C24.4177 170.095 24.5647 168.363 24.8656 166.564C24.8691 166.511 24.8726 166.469 24.8866 166.417C25.3135 163.887 26.5452 161.081 27.672 159.726C28.1234 159.408 28.5993 159.062 29.1067 158.694C29.4916 158.463 29.901 158.208 30.2894 157.924C30.083 157.347 29.866 156.78 29.5931 156.238H29.5896Z" fill="#121420"/>
<path d="M67.4479 143.276C66.2686 142.797 65.1944 142.86 64.1166 143.185C64.2216 144.071 64.3406 145.065 64.547 146.048C64.365 146.608 64.1271 146.937 63.8227 147.301C63.5462 147.63 63.2908 148.039 63.0283 148.767C62.0066 151.647 65.4463 151.591 66.1847 152.427C67.9238 154.387 67.1259 157.648 71.661 157.21C72.6757 157.112 71.647 155.713 70.6917 154.159C70.6602 154.117 70.6357 154.082 70.6112 154.033C69.2675 151.85 68.3437 148.921 68.3017 147.164C68.4312 146.625 68.5641 146.055 68.7006 145.442C68.8371 145.016 68.977 144.55 69.082 144.085C68.5501 143.787 68.0113 143.5 67.4444 143.273L67.4479 143.276Z" fill="#121420"/>
<path d="M41.9041 92.2095C41.8514 92.1709 41.8022 92.1357 41.7495 92.1041C41.7425 92.0479 41.7285 91.9953 41.7214 91.9391L41.9041 92.2095Z" fill="#E681CD"/>
<path d="M33.3722 90.2944C36.3081 88.0724 40.4617 87.7925 42.7712 89.3181C44.1744 99.2385 46.2949 107.203 48.265 119.741C49.5982 128.233 50.1441 139.098 44.2724 145.771C40.3497 150.229 35.5453 156.546 30.1949 159.268C29.908 159.415 29.6385 159.541 29.3796 159.66C28.0989 158.302 26.7517 157.007 25.4709 155.653C25.9573 154.352 26.6397 153.053 27.2311 152.151C29.621 148.494 35.6992 141.856 35.8847 137.272C35.9967 134.556 34.8279 125.021 34.0616 122.354C32.8019 117.97 29.6245 109.253 29.4461 104.687C29.2046 98.6051 28.4733 94.0036 33.3722 90.2944Z" fill="url(#paint10_linear_6_6263)"/>
<path d="M39.3315 91.8936L46.9878 89.6016C59.739 94.742 59.3296 98.5596 63.8611 105.047C67.6053 110.405 71.0591 115.807 71.43 122.477C71.7554 128.3 72.2173 135.911 71.0731 141.404C70.3452 144.897 64.8724 148.252 63.1053 143.483C61.6356 139.515 62.395 132.499 61.9681 128.286C61.4397 123.086 59.5991 121.462 55.8829 117.725C51.1204 112.931 46.225 110.212 42.0504 104.554C40.3497 102.248 35.0169 94.2941 39.3315 91.8936Z" fill="url(#paint11_linear_6_6263)"/>
<path d="M26.1183 82.5681C26.2828 82.4526 26.4333 82.3197 26.5697 82.1727C29.2256 79.3313 33.5577 76.8713 35.8742 73.7325C37.4874 71.549 39.8633 67.8608 36.6615 65.9922C36.6615 65.9922 30.1459 64.5645 19.8302 81.1859C19.8302 81.1859 18.7839 82.3826 19.2738 84.5067C19.7637 86.6342 23.4204 88.1669 23.4204 88.1669C23.4204 88.1669 23.9068 85.9449 23.7178 85.0945C23.5604 84.3947 25.443 83.0335 26.1183 82.5681Z" fill="#121420"/>
<path d="M24.0573 85.4025C23.7493 87.9674 21.0479 95.0254 19.8897 98.4547L19.6342 99.5639C19.5852 99.8579 19.5502 100.099 19.5502 100.099C19.5467 100.099 19.5432 100.099 19.5397 100.099C19.4663 100.918 19.1723 104.13 19.0499 104.256L18.0351 105.716C17.8566 105.898 17.5907 105.782 17.6012 105.523C17.6152 105.1 17.5977 104.963 17.8391 104.61L18.0561 104.295L18.1226 103.252L17.0868 105.597L16.4919 106.587C16.3344 106.835 16.1175 107.024 15.869 107.129C15.869 107.129 15.7221 107.157 15.6696 107.119C15.6171 107.08 15.5891 107.014 15.5891 106.94C15.5891 106.94 15.5506 106.636 15.834 106.1L16.3659 105.219L17.0728 103.651C17.2023 103.224 16.9958 103.473 16.9503 103.567L16.0685 105.376L15.2357 106.688C15.0782 106.937 14.8613 107.126 14.6128 107.231L14.5953 107.238C14.5323 107.266 14.4623 107.259 14.4134 107.217C14.3609 107.178 14.3329 107.112 14.3329 107.038V107.017C14.3329 106.73 14.4204 106.443 14.5778 106.198L15.3477 104.991L16.2505 102.78C16.3624 102.37 16.1595 102.528 16.0825 102.703L15.4701 104.123L14.7003 105.481C14.5568 105.737 14.3469 105.94 14.1019 106.059L14.0844 106.066C14.0214 106.097 13.955 106.094 13.899 106.059C13.8465 106.024 13.8115 105.961 13.808 105.887V105.866C13.794 105.583 13.8675 105.292 14.0109 105.037L14.7248 103.791L15.4141 101.999C15.4386 101.936 15.3756 101.891 15.3302 101.936L15.1832 102.087L14.4134 103.434L14.0949 104.508C13.9655 104.83 13.766 104.984 13.4651 104.998C13.3426 105.005 13.2656 104.869 13.3146 104.736L13.675 103.259L14.4239 101.649L14.8543 100.992L17.5067 96.7295L17.6851 87.4111C17.6851 87.4111 17.4367 85.7314 18.7664 83.121C20.7225 79.2823 24.6906 80.1606 24.0608 85.399L24.0573 85.4025Z" fill="#121420"/>
<path d="M63.6302 71.696C63.4307 71.661 62.7134 71.549 62.5174 71.5C58.7522 70.5342 54.5042 68.1092 50.634 67.5809C47.9431 67.2134 43.569 66.8985 43.4641 70.6042C43.4641 70.6042 44.9967 77.4172 64.5295 78.4985C64.5295 78.4985 67.2869 78.418 67.6018 77.8651C69.075 75.3002 67.7663 73.624 67.7663 73.624C67.7663 73.624 67.2064 72.6828 66.4401 72.2663C65.2188 71.605 64.6555 71.8674 63.6267 71.6925L63.6302 71.696Z" fill="url(#paint12_linear_6_6263)"/>
<path d="M46.4559 91.0363C42.4668 91.7081 39.4539 91.4737 36.0422 89.3111C35.6398 87.502 35.4053 82.3442 34.9224 80.591C33.9181 76.9273 31.9831 71.5035 33.1763 67.7208C33.9601 65.2364 38.8346 64.442 41.606 64.3021C44.5698 64.1516 50.0077 65.6248 50.9524 68.6376C51.5928 70.6847 52.4501 73.785 52.0792 75.8985C51.5683 78.7959 50.3121 88.7233 46.4524 91.0328L46.4559 91.0363Z" fill="url(#paint13_linear_6_6263)"/>
<path d="M26.1183 82.5681C26.2968 82.4456 26.4542 82.2987 26.6012 82.1412C29.2571 79.3138 33.5682 76.8608 35.8777 73.7325C37.4909 71.549 39.8668 67.8608 36.665 65.9922C36.665 65.9922 30.1494 64.5645 19.8337 81.1859C19.8337 81.1859 18.5635 83.072 18.7139 83.6879C19.0778 85.161 21.1949 85.245 21.8597 85.231C21.9927 85.231 22.1187 85.2065 22.2447 85.168C22.6401 85.0456 23.5639 84.7376 24.1307 84.3737C25.296 83.6214 25.4465 83.0335 26.1218 82.5681H26.1183Z" fill="url(#paint14_linear_6_6263)"/>
<path d="M34.4045 89.5386L35.6923 87.2536C41.0356 90.4379 46.8163 91.2252 49.0419 87.8695L48.8809 90.3819C48.8809 90.3819 46.036 94.427 34.408 89.5386H34.4045Z" fill="#E8F1FF"/>
<path d="M248.369 110.905L248.436 105.149L252.397 103.955L253.894 105.45C253.894 105.45 254.097 106.37 254.279 107.182C254.552 108.41 257.66 115.499 252.197 117.281C247.421 118.838 248.366 110.912 248.366 110.905H248.369Z" fill="#1E7DF4"/>
<path d="M245.738 110.884L247.249 110.415C249.345 109.768 251.172 108.372 252.19 106.429C253.391 104.144 253.254 101.779 253.034 99.333C253.034 99.333 254.475 97.9018 253.415 96.5511C251.574 94.2031 245.346 94.7455 242.935 95.4978C239.243 96.649 240.825 103.557 240.825 103.557C241.129 107.43 242.417 109.537 243.551 110.482C244.153 110.985 244.985 111.115 245.734 110.884H245.738Z" fill="#1E7DF4"/>
<path d="M239.957 92.6319C240.639 92.5374 241.154 92.0056 241.409 91.3652C241.689 90.6653 242.441 89.99 244.328 90.0915C246.903 90.2279 248.537 90.9943 250.049 91.3967C249.163 90.3539 248.908 88.9262 248.908 88.9262C249.933 90.5394 251.375 91.2987 251.375 91.2987C254.874 90.186 256.309 93.1603 256.309 93.1603C255.858 92.317 254.969 92.0021 254.055 91.9251C255.798 92.6984 257.201 95.0114 256.06 100.194C256.005 100.456 255.956 100.705 255.914 100.953H255.949C254.927 103.392 255.067 105.282 255.238 106.184L255.389 106.769C255.389 106.769 255.245 106.975 255.025 107.21L254.608 107.71L251.858 108.616C251.858 108.616 251.277 103.599 250.147 101.915C249.055 100.292 245.549 97.9928 245.314 97.8388C243.071 98.3952 240.828 98.7206 240.205 97.9228C239.243 96.684 237.805 92.9364 239.964 92.6354L239.957 92.6319Z" fill="#121420"/>
<path d="M252.505 102.64C252.61 103.976 251.508 105.222 249.912 105.432L249.513 102.195C249.38 101.125 250.441 100.236 251.442 100.645C252.015 100.88 252.414 101.44 252.509 102.64H252.505Z" fill="#1E7DF4"/>
<path d="M220.361 150.607L219.756 154.841L223.077 156.895C223.297 156.164 223.014 155.377 222.377 154.953L221.362 154.282L220.365 150.611L220.361 150.607Z" fill="#2F8CF2"/>
<path d="M222.793 145.31L223.336 147.136L220.365 150.607L220.316 154.719L223.962 156.199C224.144 155.604 223.843 154.971 223.266 154.736L223.108 154.673L224.382 154.785L225.316 153.564C224.949 153.403 224.522 153.456 224.203 153.701L224.049 153.82L223.476 153.494C223.476 153.494 226.366 149.141 226.474 147.458C226.534 146.583 225.344 144.144 225.344 144.144L222.79 145.303L222.793 145.31Z" fill="#1E7DF4"/>
<path d="M223.108 154.677L221.939 154.327L221.404 151.741L221.338 154.582L223.108 154.677Z" fill="#2F8CF2"/>
<path d="M223.476 153.498L222.835 153.046L222.874 151.773L223.42 152.98L223.664 153.214L223.476 153.498Z" fill="#2F8CF2"/>
<path d="M223.969 152.731L223.402 152.371L223.049 151.853L223.574 152.262L224.067 152.57L223.969 152.731Z" fill="#2F8CF2"/>
<path d="M281.503 80.1011L280.541 75.9335L276.703 75.2162C276.762 75.9755 277.311 76.6089 278.057 76.7733L279.246 77.0358L281.503 80.1011Z" fill="#2F8CF2"/>
<path d="M281.15 85.9204L279.985 84.4122L281.503 80.1011L280.065 76.2485L276.129 76.182C276.174 76.8013 276.682 77.2842 277.304 77.2947H277.472L276.244 77.6517L275.814 79.1283C276.216 79.1458 276.594 78.9429 276.801 78.6L276.902 78.4355L277.553 78.5335C277.553 78.5335 276.43 83.6354 276.933 85.245C277.196 86.0813 279.183 87.9254 279.183 87.9254L281.15 85.9239V85.9204Z" fill="#1E7DF4"/>
<path d="M277.476 77.2982L278.69 77.2003L280.121 79.4188L279.162 76.7489L277.476 77.2982Z" fill="#2F8CF2"/>
<path d="M277.556 78.53L278.319 78.7189L278.743 79.9192L277.798 78.9919L277.486 78.8624L277.556 78.53Z" fill="#2F8CF2"/>
<path d="M277.374 79.4223L278.032 79.5553L278.55 79.9087L277.913 79.7162L277.339 79.6077L277.374 79.4223Z" fill="#2F8CF2"/>
<path d="M206.847 204.59C207.764 206.697 212.747 208.275 214.937 208.779C215.879 208.996 218.076 209.923 218.968 209.013C219.651 208.324 220.305 207.575 220.921 206.816C221.19 206.497 221.453 206.168 221.708 205.843C221.845 205.668 221.981 205.496 222.114 205.329C222.678 204.604 223.538 203.614 223.098 202.701C222.009 200.468 220.092 199.856 218.475 201.749C218.048 202.249 217.513 202.634 216.928 202.921C215.623 203.558 214.038 203.74 212.677 203.712C212.439 203.712 212.229 203.705 212.033 203.698C210.833 203.666 210.332 203.607 209.178 203.257C208.523 203.057 208.124 202.988 207.477 203.152C206.788 203.33 206.627 204.1 206.84 204.594L206.847 204.59Z" fill="#D9A181"/>
<path d="M206.847 204.59C207.764 206.697 212.747 208.275 214.937 208.779C215.879 208.996 218.076 209.923 218.969 209.013C219.651 208.324 220.305 207.575 220.921 206.816C221.191 206.497 221.453 206.168 221.708 205.843C220.75 205.294 218.885 204.195 216.925 202.925C215.62 203.561 214.035 203.743 212.673 203.715C212.435 203.715 212.225 203.708 212.03 203.701C210.829 203.67 210.329 203.61 209.174 203.26C208.52 203.061 208.121 202.991 207.474 203.155C206.784 203.334 206.623 204.104 206.837 204.597L206.847 204.59Z" fill="#1E7DF4"/>
<path d="M256.417 145.149C253.894 148.158 251.672 151.328 249.136 154.338C246.179 157.847 237.042 169.545 235.335 171.998C232.546 176.015 230.131 180.256 227.759 184.459C225.547 188.375 223.077 192.206 220.54 195.975C220.351 196.255 216.488 201.448 216.292 201.728C218.265 203.621 220.323 205.489 222.674 206.998C225.589 204.167 231.821 196.021 234.428 193.032C237.794 189.173 240.338 184.959 243.19 180.827C244.555 178.85 246.095 176.593 247.848 174.521C247.918 174.476 247.995 174.43 248.058 174.388C251.879 171.981 259.43 166.63 262.09 163.331C264.896 159.849 265.631 156.885 266.446 152.71C268.756 140.893 255.959 145.261 256.417 145.149Z" fill="url(#paint15_linear_6_6263)"/>
<path d="M299.133 208.751C301.477 207.676 302.614 203.257 302.891 201.336C303.01 200.51 303.783 198.526 302.583 197.907C301.673 197.431 300.7 196.986 299.714 196.573C299.297 196.391 298.877 196.22 298.454 196.049C298.23 195.958 298.006 195.87 297.789 195.779C296.855 195.405 295.567 194.824 294.556 195.328C292.085 196.566 291.641 198.267 294.104 199.359C294.755 199.649 295.287 200.045 295.71 200.496C296.648 201.504 297.093 202.809 297.254 203.96C297.285 204.163 297.31 204.342 297.327 204.506C297.464 205.521 297.467 205.951 297.222 206.973C297.082 207.554 297.058 207.897 297.345 208.422C297.656 208.978 298.58 209.003 299.129 208.751H299.133Z" fill="url(#paint16_linear_6_6263)"/>
<path d="M299.133 208.751C301.477 207.676 302.614 203.257 302.891 201.336C303.01 200.51 303.783 198.526 302.583 197.907C301.673 197.431 300.7 196.986 299.714 196.573C299.297 196.391 298.877 196.22 298.454 196.049C297.946 196.934 296.925 198.662 295.714 200.496C296.652 201.504 297.096 202.809 297.257 203.96C297.289 204.163 297.313 204.342 297.331 204.506C297.467 205.521 297.471 205.951 297.226 206.973C297.086 207.554 297.061 207.897 297.348 208.422C297.66 208.978 298.583 209.003 299.133 208.751Z" fill="#1E7DF4"/>
<path d="M298.629 194.267C296.953 193.06 289.293 188.476 288.415 187.909C284.219 185.19 280.223 182.296 275.852 179.77C274.085 178.748 272.203 176.988 270.05 176.281C272.787 173.055 274.858 169.472 276.125 165.658C280.394 152.798 277.206 148.627 275.516 145.862C273.714 142.92 268.945 142.748 266.068 144.477C262.793 146.447 262.646 150.95 262.58 153.977C262.447 160.325 261.446 166.392 260.438 172.67C260.162 174.374 259.154 180.613 264.665 186.457C267.213 189.158 271.398 191.528 274.739 193.428C278.858 195.769 289.359 200.356 293.775 202.032C295.497 199.499 297.009 196.85 298.632 194.264L298.629 194.267Z" fill="url(#paint17_linear_6_6263)"/>
<path d="M282.781 82.932C280.506 83.9573 278.148 84.8181 276.017 86.0883C276.272 87.579 276.605 89.1117 276.552 90.2664C276.276 96.3761 271.111 99.165 266.838 103.144C264.837 105.009 254.419 112.07 258.72 115.279L263.92 120.234C263.664 116.759 268.367 114.394 270.544 112.494C273.161 110.212 276.248 108.256 278.778 105.88C282.931 101.978 285.675 97.0235 285.465 91.2427C285.36 88.3663 284.772 85.0246 282.781 82.9285V82.932Z" fill="url(#paint18_linear_6_6263)"/>
<path d="M245.097 115.776C242.522 118.68 238.844 120.65 236.115 123.52C233.203 126.578 229.095 130.833 226.772 134.35C224.095 138.402 221.792 142.258 221.575 147.413C223.616 148.074 225.509 149.022 227.44 149.932C227.577 149.68 227.703 149.439 227.825 149.225C230.894 143.759 233.833 139.417 238.158 134.78C241.157 131.561 245.024 128.776 247.575 125.189L245.097 115.779V115.776Z" fill="url(#paint19_linear_6_6263)"/>
<path d="M240.072 118.929C240.692 117.763 245.307 114.754 248.786 113.085C253.317 116.154 255.06 111.832 255.147 111.496C256.431 111.43 257.901 111.51 259.325 111.804C263.143 112.592 266.961 112.819 268.168 114.394C268.843 115.276 274.246 133.041 276.37 143.287C277.542 148.942 276.307 149.925 276.307 149.925C275.793 152.231 254.062 160.216 248.152 155.349C245.507 153.172 245.248 141.957 245.248 141.957C242.259 132.327 239.093 120.783 240.076 118.929H240.072Z" fill="url(#paint20_linear_6_6263)"/>
</g>
<defs>
<linearGradient id="paint0_linear_6_6263" x1="28.6247" y1="275.516" x2="37.9946" y2="288.788" gradientUnits="userSpaceOnUse">
<stop stop-color="#DEEBFB"/>
<stop offset="1" stop-color="#1E7DF4"/>
</linearGradient>
<linearGradient id="paint1_linear_6_6263" x1="11.5016" y1="276.564" x2="16.8144" y2="284.089" gradientUnits="userSpaceOnUse">
<stop stop-color="#DEEBFB"/>
<stop offset="1" stop-color="#1E7DF4"/>
</linearGradient>
<linearGradient id="paint2_linear_6_6263" x1="300.416" y1="8.4163" x2="305.727" y2="15.9422" gradientUnits="userSpaceOnUse">
<stop stop-color="#DEEBFB"/>
<stop offset="1" stop-color="#1E7DF4"/>
</linearGradient>
<linearGradient id="paint3_linear_6_6263" x1="268.687" y1="1.18161" x2="273.998" y2="8.70951" gradientUnits="userSpaceOnUse">
<stop stop-color="#DEEBFB"/>
<stop offset="1" stop-color="#1E7DF4"/>
</linearGradient>
<linearGradient id="paint4_linear_6_6263" x1="297.394" y1="47.4497" x2="309.098" y2="30.5694" gradientUnits="userSpaceOnUse">
<stop stop-color="#DEEBFB"/>
<stop offset="1" stop-color="#1E7DF4"/>
</linearGradient>
<linearGradient id="paint5_linear_6_6263" x1="5.75589" y1="257.971" x2="24.2934" y2="237.369" gradientUnits="userSpaceOnUse">
<stop stop-color="#DEEBFB"/>
<stop offset="0.11" stop-color="#D7E7FA"/>
<stop offset="0.26" stop-color="#C5DCFA"/>
<stop offset="0.44" stop-color="#A7CBF9"/>
<stop offset="0.64" stop-color="#7EB4F7"/>
<stop offset="0.85" stop-color="#4995F5"/>
<stop offset="1" stop-color="#1E7DF4"/>
</linearGradient>
<linearGradient id="paint6_linear_6_6263" x1="151.497" y1="64.2677" x2="204.59" y2="57.7849" gradientUnits="userSpaceOnUse">
<stop stop-color="#E98963"/>
<stop offset="0.17" stop-color="#E98162"/>
<stop offset="0.43" stop-color="#EA6D60"/>
<stop offset="0.73" stop-color="#EC4C5D"/>
<stop offset="1" stop-color="#EF2A5A"/>
</linearGradient>
<linearGradient id="paint7_linear_6_6263" x1="95.4068" y1="142.517" x2="194.897" y2="212.222" gradientUnits="userSpaceOnUse">
<stop offset="0.08" stop-color="#DEEBFB"/>
<stop offset="0.18" stop-color="#D5E5FA"/>
<stop offset="0.33" stop-color="#BDD7F7"/>
<stop offset="0.52" stop-color="#95C0F3"/>
<stop offset="0.74" stop-color="#5F9FED"/>
<stop offset="0.98" stop-color="#1A76E6"/>
<stop offset="1" stop-color="#1674E6"/>
</linearGradient>
<linearGradient id="paint8_linear_6_6263" x1="116.808" y1="237.07" x2="181.877" y2="143.213" gradientUnits="userSpaceOnUse">
<stop stop-color="#DEEBFB"/>
<stop offset="1" stop-color="#1E7DF4"/>
</linearGradient>
<linearGradient id="paint9_linear_6_6263" x1="125.84" y1="212.18" x2="168.303" y2="150.929" gradientUnits="userSpaceOnUse">
<stop stop-color="#DEEBFB"/>
<stop offset="1" stop-color="#1E7DF4"/>
</linearGradient>
<linearGradient id="paint10_linear_6_6263" x1="37.0744" y1="151.507" x2="38.4391" y2="100.152" gradientUnits="userSpaceOnUse">
<stop stop-color="#DEEBFB"/>
<stop offset="0.11" stop-color="#D7E7FA"/>
<stop offset="0.25" stop-color="#C5DCF8"/>
<stop offset="0.42" stop-color="#A8CBF5"/>
<stop offset="0.61" stop-color="#80B3F1"/>
<stop offset="0.81" stop-color="#4C94EB"/>
<stop offset="1" stop-color="#1674E6"/>
</linearGradient>
<linearGradient id="paint11_linear_6_6263" x1="48.405" y1="87.3691" x2="64.9214" y2="143.213" gradientUnits="userSpaceOnUse">
<stop stop-color="#DEEBFB"/>
<stop offset="1" stop-color="#1674E6"/>
</linearGradient>
<linearGradient id="paint12_linear_6_6263" x1="51.426" y1="64.3982" x2="60.8256" y2="81.5884" gradientUnits="userSpaceOnUse">
<stop stop-color="#DEEBFB"/>
<stop offset="1" stop-color="#1674E6"/>
</linearGradient>
<linearGradient id="paint13_linear_6_6263" x1="47.4672" y1="69.4424" x2="35.7727" y2="84.8846" gradientUnits="userSpaceOnUse">
<stop stop-color="#DEEBFB"/>
<stop offset="1" stop-color="#1674E6"/>
</linearGradient>
<linearGradient id="paint14_linear_6_6263" x1="38.2467" y1="75.5941" x2="18.6964" y2="75.5941" gradientUnits="userSpaceOnUse">
<stop stop-color="#DEEBFB"/>
<stop offset="1" stop-color="#1674E6"/>
</linearGradient>
<linearGradient id="paint15_linear_6_6263" x1="266.723" y1="175.721" x2="216.295" y2="175.721" gradientUnits="userSpaceOnUse">
<stop stop-color="#DEEBFB"/>
<stop offset="0.11" stop-color="#D7E7FA"/>
<stop offset="0.25" stop-color="#C5DCF8"/>
<stop offset="0.42" stop-color="#A8CBF5"/>
<stop offset="0.61" stop-color="#80B3F1"/>
<stop offset="0.81" stop-color="#4C94EB"/>
<stop offset="1" stop-color="#1674E6"/>
</linearGradient>
<linearGradient id="paint16_linear_6_6263" x1="303.244" y1="202.015" x2="292.463" y2="202.015" gradientUnits="userSpaceOnUse">
<stop stop-color="#DEEBFB"/>
<stop offset="0.11" stop-color="#D7E7FA"/>
<stop offset="0.25" stop-color="#C5DCF8"/>
<stop offset="0.42" stop-color="#A8CBF5"/>
<stop offset="0.61" stop-color="#80B3F1"/>
<stop offset="0.81" stop-color="#4C94EB"/>
<stop offset="1" stop-color="#1674E6"/>
</linearGradient>
<linearGradient id="paint17_linear_6_6263" x1="298.625" y1="172.702" x2="260.179" y2="172.702" gradientUnits="userSpaceOnUse">
<stop stop-color="#DEEBFB"/>
<stop offset="0.11" stop-color="#D7E7FA"/>
<stop offset="0.25" stop-color="#C5DCF8"/>
<stop offset="0.42" stop-color="#A8CBF5"/>
<stop offset="0.61" stop-color="#80B3F1"/>
<stop offset="0.81" stop-color="#4C94EB"/>
<stop offset="1" stop-color="#1674E6"/>
</linearGradient>
<linearGradient id="paint18_linear_6_6263" x1="285.475" y1="101.583" x2="257.684" y2="101.583" gradientUnits="userSpaceOnUse">
<stop stop-color="#DEEBFB"/>
<stop offset="0.11" stop-color="#CFE2F9"/>
<stop offset="0.33" stop-color="#AACCF5"/>
<stop offset="0.62" stop-color="#6DA8EF"/>
<stop offset="0.98" stop-color="#1B77E6"/>
<stop offset="1" stop-color="#1674E6"/>
</linearGradient>
<linearGradient id="paint19_linear_6_6263" x1="247.571" y1="132.856" x2="221.572" y2="132.856" gradientUnits="userSpaceOnUse">
<stop stop-color="#DEEBFB"/>
<stop offset="0.11" stop-color="#CFE2F9"/>
<stop offset="0.33" stop-color="#AACCF5"/>
<stop offset="0.62" stop-color="#6DA8EF"/>
<stop offset="0.98" stop-color="#1B77E6"/>
<stop offset="1" stop-color="#1674E6"/>
</linearGradient>
<linearGradient id="paint20_linear_6_6263" x1="276.87" y1="134.185" x2="239.887" y2="134.185" gradientUnits="userSpaceOnUse">
<stop stop-color="#DEEBFB"/>
<stop offset="0.11" stop-color="#CFE2F9"/>
<stop offset="0.33" stop-color="#AACCF5"/>
<stop offset="0.62" stop-color="#6DA8EF"/>
<stop offset="0.98" stop-color="#1B77E6"/>
<stop offset="1" stop-color="#1674E6"/>
</linearGradient>
<clipPath id="clip0_6_6263">
<rect width="313.518" height="291.9" fill="white"/>
</clipPath>
</defs>
</svg>
