<svg width="102" height="96" viewBox="0 0 102 96" fill="none" xmlns="http://www.w3.org/2000/svg">
<g clip-path="url(#clip0_6_6940)">
<g clip-path="url(#clip1_6_6940)">
<path d="M63.4282 52.3605C75.7832 45.7438 80.4351 30.3641 73.8183 18.009C67.2016 5.65397 51.8219 1.00215 39.4669 7.61888C27.1118 14.2356 22.46 29.6153 29.0767 41.9703C35.6935 54.3254 51.0731 58.9772 63.4282 52.3605Z" fill="url(#paint0_radial_6_6940)"/>
<path style="mix-blend-mode:screen" opacity="0.45" d="M65.2436 40.9682C61.2132 41.4148 57.8616 37.6464 57.2517 33.4512C56.7695 30.1144 57.0178 26.2488 54.6763 23.5257C52.4636 20.9602 48.6149 20.4545 46.1267 18.1493C41.7402 14.0944 45.4179 9.32026 50.103 7.9075C56.0309 6.11393 64.3135 11.0902 68.0873 15.3932C73.7296 21.8267 77.0511 35.0816 67.7473 40.1531C66.8967 40.6192 66.0597 40.8775 65.2488 40.9635L65.2436 40.9682Z" fill="url(#paint1_radial_6_6940)"/>
<path style="mix-blend-mode:multiply" opacity="0.45" d="M75.3244 38.6017C75.1609 38.7451 75.0067 38.899 74.8432 39.0424C65.9102 46.8768 52.32 45.9864 44.4901 37.0586C36.6603 28.1308 37.5462 14.5353 46.4792 6.70085C47.323 5.96088 48.2064 5.29807 49.1295 4.71241C43.9741 5.18478 38.9149 7.22414 34.7226 10.9009C24.1864 20.1412 23.1357 36.1763 32.3761 46.7125C41.6165 57.2487 57.6516 58.2993 68.1877 49.0589C71.5363 46.1222 73.9208 42.501 75.3251 38.5919L75.3244 38.6017Z" fill="url(#paint2_radial_6_6940)"/>
<g style="mix-blend-mode:screen">
<path style="mix-blend-mode:multiply" opacity="0.45" d="M72.5489 38.7778C72.775 38.6634 73.0012 38.549 73.2281 38.4247C73.2761 38.2986 73.3287 38.1778 73.3768 38.0517C73.2238 38.1858 73.0854 38.3258 72.9325 38.46C72.806 38.571 72.68 38.6721 72.5489 38.7778Z" fill="url(#paint3_radial_6_6940)"/>
<path style="mix-blend-mode:multiply" opacity="0.45" d="M37.8353 42.9598C29.3488 33.2831 30.3138 18.5546 39.9905 10.0681C40.2383 9.85073 40.4961 9.63402 40.7479 9.43182C39.1065 10.2836 37.5413 11.3391 36.0859 12.6155C26.4092 21.1021 25.4442 35.8306 33.9307 45.5072C42.4173 55.1838 56.3744 56.0884 66.0498 48.3026C56.753 53.1161 45.0402 51.1856 37.8301 42.9644L37.8353 42.9598Z" fill="url(#paint4_radial_6_6940)"/>
</g>
<path d="M32.9591 33.4103C32.9813 33.2229 31.4131 32.8815 29.8082 32.7217C28.2086 32.5573 26.5874 32.5703 26.5874 32.5703C26.5874 32.5703 26.4423 32.5857 26.2068 32.615C26.2568 33.0656 26.312 33.5116 26.3818 33.9635C26.5607 33.9652 26.6656 33.9572 26.6656 33.9572C26.6656 33.9572 28.2173 33.7905 29.7836 33.7042C31.3506 33.6081 32.9368 33.5977 32.9544 33.405L32.9591 33.4103Z" fill="url(#paint5_radial_6_6940)"/>
<path d="M37.1614 44.9783C37.1441 44.7882 35.1798 44.8037 33.2306 44.7406C32.3325 44.7165 31.4404 44.678 30.7317 44.6464C31.0277 45.0585 31.3344 45.4613 31.6562 45.8601C32.1655 45.8239 32.7197 45.7857 33.2706 45.7224C35.2419 45.5235 37.1841 45.1636 37.1667 44.9736L37.1614 44.9783Z" fill="url(#paint6_radial_6_6940)"/>
<path d="M45.6141 38.2555C44.7342 38.5607 43.7731 38.8158 42.7578 38.9879C40.722 39.3366 38.4912 39.3992 36.2464 39.3714C34.0016 39.3436 31.7271 39.2393 29.5927 39.348C29.0193 39.375 28.4605 39.408 27.9149 39.4667C28.0088 39.7015 28.1028 39.9363 28.2066 40.1717C28.6705 40.1474 29.1337 40.133 29.616 40.1298C31.7155 40.0984 33.9559 40.2701 36.2264 40.3592C38.497 40.4483 40.7932 40.4497 42.9465 40.1285C44.0205 39.9703 45.0555 39.7249 46.0152 39.415C46.4974 39.2627 46.9518 39.0788 47.3911 38.8988C47.8257 38.7136 48.3077 38.4867 48.7131 38.0659C49.1237 37.6405 49.3315 37.0478 49.3441 36.5515C49.3673 36.0461 49.2711 35.6173 49.1473 35.2315C49.0228 34.8555 48.8661 34.5172 48.7048 34.2482C48.5441 33.9692 48.4178 33.6975 48.2526 33.4879C48.0979 33.269 47.9618 33.0712 47.8435 32.9044C47.7093 32.7515 47.5891 32.6144 47.4966 32.5089C47.307 32.2927 47.2099 32.182 47.2099 32.182C47.2099 32.182 47.1022 32.0805 46.8915 31.8828C46.7884 31.7865 46.6623 31.6639 46.5071 31.5295C46.3466 31.3997 46.157 31.2581 45.9536 31.1006C45.1097 30.4787 43.8076 29.7174 42.1501 29.1466C40.4992 28.5513 38.5146 28.1181 36.385 27.8493C34.2654 27.5812 31.9967 27.3878 29.7208 27.3033C28.5509 27.2565 27.379 27.2393 26.2204 27.2479C26.1864 27.5389 26.1669 27.8359 26.1428 28.1276C27.3042 28.1539 28.4886 28.2067 29.6711 28.2891C34.1478 28.6173 38.6504 29.1558 41.7081 30.3552C43.2514 30.9235 44.3977 31.6349 45.1314 32.1949C45.3111 32.3359 45.4715 32.4657 45.6129 32.5843C45.7496 32.6976 45.8513 32.8136 45.9405 32.894C46.1182 33.0647 46.212 33.1504 46.212 33.1504C46.212 33.1504 46.2999 33.2506 46.4571 33.4299C46.5357 33.5195 46.6375 33.6355 46.7531 33.7674C46.8582 33.9085 46.9765 34.0753 47.1086 34.2579C47.256 34.4365 47.3605 34.6621 47.5039 34.9001C47.652 35.1434 47.775 35.3901 47.8717 35.6598C48.0643 36.2092 48.1132 36.8288 47.7665 37.1888C47.5893 37.3909 47.2642 37.5734 46.8645 37.7559C46.4655 37.9286 46.0507 38.1151 45.6088 38.2601L45.6141 38.2555Z" fill="url(#paint7_radial_6_6940)"/>
<path d="M53.6934 53.4673C52.2457 52.8803 50.752 52.3898 49.6075 52.1061C49.0366 51.9444 48.5541 51.873 48.2215 51.7916C47.8882 51.7201 47.6922 51.6774 47.6922 51.6774C47.6922 51.6774 47.4949 51.6545 47.1544 51.6173C46.8132 51.59 46.3262 51.5133 45.7362 51.4896C44.559 51.4025 42.988 51.4089 41.4296 51.5255C40.4795 51.6124 39.5361 51.7494 38.6957 51.908C39.0931 52.1378 39.4913 52.3578 39.8953 52.5632C40.4139 52.5375 40.9424 52.5125 41.4795 52.5079C42.9945 52.5227 44.5043 52.6167 45.6229 52.7645C46.1858 52.8213 46.6465 52.921 46.9718 52.9622C47.2965 53.0133 47.4833 53.0455 47.4833 53.0455C47.4833 53.0455 47.67 53.0776 47.9901 53.1234C48.3141 53.1844 48.7833 53.23 49.3324 53.3455C50.4425 53.5475 51.9044 53.9167 53.3507 54.3743C53.9923 54.5952 54.6286 54.8208 55.2293 55.059C55.6561 54.9925 56.0784 54.9208 56.5065 54.8345C55.6726 54.3624 54.7001 53.8811 53.6947 53.4475L53.6934 53.4673Z" fill="url(#paint8_radial_6_6940)"/>
<path d="M60.0968 39.4828C60.0968 39.4828 60.3105 39.4073 60.7294 39.3851C61.1438 39.3575 61.772 39.4037 62.5436 39.6133C63.3105 39.8176 64.2525 40.1577 65.2551 40.4818C66.2624 40.8113 67.3324 41.1696 68.4077 41.5234C70.0915 42.0711 71.7754 42.6188 73.2024 43.0652C73.319 42.879 73.421 42.6869 73.5277 42.5001C72.119 41.9256 70.433 41.2585 68.7365 40.6006C67.6849 40.1887 66.6281 39.7815 65.6439 39.4039C64.6543 39.0309 63.7546 38.6538 62.8872 38.3883C62.0351 38.1187 61.2419 38.012 60.6692 38.0292C60.0964 38.0463 59.7673 38.1391 59.7673 38.1391C59.7673 38.1391 59.6862 38.1636 59.5344 38.2034C59.3867 38.2583 59.1638 38.3232 58.9066 38.4555C58.383 38.7094 57.6953 39.1912 57.1274 39.9692C56.5602 40.7372 56.1041 41.7809 56.0263 42.9687C55.9491 44.1466 56.2316 45.3729 56.7679 46.4418C57.299 47.5154 58.0477 48.4542 58.8436 49.2022C59.6395 49.9502 60.4663 50.5312 61.192 50.9863C62.3957 51.7312 63.2956 52.1828 63.6025 52.2775C63.6335 52.2597 63.6592 52.2464 63.6902 52.2286C63.5191 52.0335 62.6593 51.4254 61.5042 50.5445C60.8419 50.0339 60.0922 49.4132 59.3966 48.6519C58.7049 47.9058 58.0777 47.0098 57.6648 46.0284C57.2414 45.0563 57.072 44.0014 57.1778 43.069C57.2836 42.1365 57.6898 41.3232 58.1497 40.7519C58.6149 40.176 59.1279 39.8567 59.4966 39.692C59.8652 39.5273 60.0961 39.4927 60.0961 39.4927L60.0968 39.4828Z" fill="url(#paint9_radial_6_6940)"/>
<path d="M30.5437 15.5825C30.6724 15.5909 30.801 15.5993 30.935 15.6031C33.1639 15.6448 35.3966 15.478 37.0459 15.1884C37.4668 15.1365 37.8395 15.0615 38.1726 14.9839C38.5104 14.9116 38.798 14.8459 39.0348 14.7968C39.5137 14.694 39.7862 14.6324 39.7862 14.6324C39.7862 14.6324 40.0553 14.5456 40.5176 14.392C40.7511 14.3178 41.0308 14.2218 41.356 14.1139C41.6805 14.0159 42.0419 13.8855 42.4258 13.7168C43.9955 13.1238 46.0035 12.137 47.8946 10.9637C49.7592 9.73891 51.4956 8.34667 52.6522 7.15502C52.8012 7.00573 52.9488 6.87623 53.0773 6.73554C53.2012 6.58958 53.3192 6.45814 53.4319 6.33132C53.6473 6.07704 53.8411 5.85116 53.9926 5.66228C54.3003 5.28978 54.4545 5.0613 54.4168 5.02902C54.3845 4.9921 54.155 5.156 53.7865 5.46984C53.6072 5.62708 53.391 5.8167 53.1379 6.03869C53.0113 6.14969 52.8795 6.26531 52.7424 6.38555C52.6007 6.50053 52.4438 6.61947 52.2862 6.74832C51.0397 7.79491 49.2536 9.03479 47.3888 10.1105C45.4877 11.134 43.5125 11.9987 41.9836 12.4999C41.6063 12.6442 41.2561 12.7554 40.9375 12.8389C40.6235 12.9277 40.3498 13.0092 40.1268 13.0741C39.6757 13.2086 39.4177 13.2762 39.4177 13.2762C39.4177 13.2762 39.1598 13.3438 38.7047 13.463C38.4771 13.5227 38.204 13.5943 37.8854 13.6778C37.5714 13.7665 37.2126 13.8573 36.8108 13.9205C35.3081 14.2495 33.2986 14.5005 31.2492 14.5998C31.0048 14.9168 30.7696 15.2444 30.5391 15.5772L30.5437 15.5825Z" fill="url(#paint10_radial_6_6940)"/>
<path d="M51.8477 37.7892C51.9326 37.0243 51.8918 35.9779 51.6703 34.9594C51.4487 33.9408 51.0464 32.9502 50.6543 32.2585C50.4685 31.9084 50.2881 31.6281 50.1513 31.4402C50.0198 31.2477 49.9424 31.1383 49.9424 31.1383C49.9424 31.1383 49.8546 31.0381 49.7019 30.8641C49.5493 30.69 49.3115 30.4508 49.0103 30.1925C48.4192 29.6567 47.5495 29.048 46.6048 28.5984C45.6548 28.1535 44.6489 27.8788 43.8794 27.7886C43.1099 27.6985 42.5993 27.7545 42.5935 27.8435C42.5817 27.9471 43.0708 28.0687 43.7553 28.3173C44.4504 28.5567 45.3291 28.9522 46.1307 29.462C46.9323 29.9718 47.6469 30.5952 48.1153 31.108C48.3571 31.3624 48.5362 31.5879 48.6598 31.7501C48.7833 31.9123 48.8521 32.0013 48.8521 32.0013C48.8521 32.0013 48.9261 32.0856 49.0549 32.2432C49.189 32.3961 49.3628 32.6262 49.5571 32.9222C49.957 33.4952 50.3994 34.3293 50.7184 35.225C51.0375 36.1207 51.224 37.0674 51.3007 37.7931C51.3873 38.5195 51.3991 39.0222 51.5027 39.034C51.5911 39.0497 51.7621 38.5639 51.8424 37.7938L51.8477 37.7892Z" fill="url(#paint11_radial_6_6940)"/>
<path d="M58.357 5.9582C57.8261 6.77831 57.2576 7.56613 56.793 8.13214C56.5703 8.42074 56.3621 8.6407 56.227 8.80581C56.0873 8.96565 56.0115 9.06009 56.0115 9.06009C56.0115 9.06009 55.9358 9.15453 55.8007 9.31964C55.6656 9.48475 55.4904 9.73173 55.2492 9.99923C54.7853 10.5553 54.117 11.272 53.4118 11.9465C52.6973 12.6104 51.9353 13.2415 51.3538 13.6954C50.7671 14.154 50.3735 14.4712 50.4224 14.5589C50.4668 14.6413 50.9542 14.4844 51.6466 14.157C52.3391 13.8296 53.2088 13.3 54.0481 12.7039C54.8735 12.092 55.6533 11.4174 56.1957 10.8764C56.4765 10.6115 56.6913 10.3671 56.8462 10.2033C57.0011 10.0395 57.0867 9.94567 57.0867 9.94567C57.0867 9.94567 57.1632 9.84133 57.2943 9.66105C57.4207 9.4755 57.6263 9.22057 57.8265 8.8957C58.2613 8.25319 58.7723 7.35722 59.2153 6.43691C59.2963 6.26329 59.3726 6.08439 59.449 5.90549C59.1519 5.81147 58.8549 5.71745 58.5526 5.62806C58.4854 5.74295 58.4189 5.84793 58.3517 5.96282L58.357 5.9582Z" fill="url(#paint12_radial_6_6940)"/>
<path d="M37.8443 18.7796C37.7563 18.6048 35.4842 19.5246 33.1439 20.1963C31.9738 20.5322 30.7963 20.8278 29.9038 21.0228C29.0119 21.2079 28.4175 21.328 28.4175 21.328C28.4175 21.328 28.0692 21.4096 27.5085 21.5468C27.3435 22.0181 27.1936 22.4855 27.0582 22.9587C27.0984 22.9514 27.1433 22.9494 27.1736 22.9414C28.0972 22.8031 28.7114 22.6843 28.7114 22.6843C28.7114 22.6843 29.3183 22.5253 30.2153 22.261C31.1124 21.9967 32.2924 21.5869 33.4511 21.1211C35.7687 20.1894 37.9183 18.9385 37.8297 18.7737L37.8443 18.7796Z" fill="url(#paint13_radial_6_6940)"/>
<path d="M39.7371 50.2764C40.4753 50.1607 41.4675 50.0369 42.4526 49.9473C43.4363 49.8776 44.4273 49.8481 45.1617 49.8664C45.5299 49.8607 45.8361 49.8907 46.0492 49.8997C46.2624 49.9087 46.3864 49.9119 46.3864 49.9119C46.3864 49.9119 46.5105 49.915 46.7243 49.9141C46.9427 49.9185 47.2468 49.9036 47.6137 49.9177C48.3534 49.9314 49.3327 50.0055 50.3146 50.1146C51.2953 50.2434 52.2733 50.4119 53.0092 50.5595C53.7451 50.7071 54.246 50.7996 54.2822 50.7026C54.3124 50.6201 53.8727 50.3527 53.1723 50.0433C52.4672 49.7287 51.4943 49.4065 50.4976 49.1424C49.4997 48.8981 48.4827 48.7172 47.7079 48.6316C47.3238 48.5766 46.9966 48.5651 46.7695 48.5403C46.5472 48.5208 46.4139 48.507 46.4139 48.507C46.4139 48.507 46.2845 48.5085 46.0602 48.5187C45.8306 48.5334 45.5126 48.5325 45.1226 48.5666C44.3487 48.6202 43.3209 48.7567 42.3089 48.9538C41.3009 49.1661 40.3128 49.4543 39.5939 49.7302C38.875 50.0062 38.4214 50.2548 38.4505 50.3412C38.479 50.4375 38.9856 50.3663 39.7285 50.256L39.7371 50.2764Z" fill="url(#paint14_radial_6_6940)"/>
<path d="M66.1646 21.5199C67.2839 21.7324 68.5557 22.0444 69.7781 22.3531C72.1053 22.943 74.3904 23.6444 76.172 24.2184C76.1176 23.9863 76.058 23.7587 75.9983 23.5311C74.3137 22.8442 72.1974 22.0693 70.0489 21.4066C68.806 21.032 67.6073 20.6651 66.383 20.3861C65.162 20.1321 63.9056 20.0399 62.8107 20.4403C62.266 20.6382 61.7965 20.9753 61.4684 21.3564C61.1409 21.7276 60.9493 22.1474 60.8527 22.4841C60.7508 22.8253 60.7327 23.1025 60.7204 23.2905C60.7232 23.4746 60.7167 23.5736 60.7167 23.5736C60.7167 23.5736 60.7254 23.6686 60.7434 23.8487C60.7713 24.0295 60.8139 24.2907 60.9178 24.6007C61.0218 24.9107 61.1812 25.284 61.4344 25.6684C61.6928 26.0482 62.0165 26.4173 62.4161 26.7666C63.21 27.4697 64.2473 28.0247 65.2832 28.5996C66.3336 29.1804 67.4468 29.7901 68.5323 30.4427C69.6178 31.0954 70.6763 31.7811 71.6081 32.5032C72.5453 33.2207 73.3511 33.9693 73.9866 34.6621C75.0271 35.774 75.5792 36.7546 75.8178 37.0585C75.8368 36.9951 75.8559 36.9317 75.875 36.8684C75.7213 36.406 75.2782 35.4326 74.4072 34.3119C73.8171 33.5326 73.0316 32.7008 72.105 31.8995C71.1882 31.0989 70.1402 30.3294 69.0638 29.6127C67.9875 28.8961 66.8881 28.2276 65.8653 27.6039C64.8327 26.9796 63.905 26.4217 63.2781 25.824C62.6361 25.2302 62.3418 24.6393 62.2166 24.1987C62.1464 23.9804 62.133 23.8056 62.1157 23.6901C62.1083 23.5753 62.1076 23.5106 62.1076 23.5106C62.1076 23.5106 62.1068 23.446 62.1041 23.3365C62.1112 23.2276 62.1077 23.0534 62.1603 22.858C62.2502 22.4712 62.5584 21.9397 63.2634 21.6479C63.9691 21.3463 65.038 21.3417 66.1586 21.5345L66.1646 21.5199Z" fill="url(#paint15_radial_6_6940)"/>
<path d="M57.4627 14.5977C56.5274 14.9141 55.6596 15.3394 54.8875 15.8206C54.1061 16.2913 53.4179 16.8576 52.8657 17.4725C52.318 18.0927 51.9051 18.7814 51.6868 19.458C51.4593 20.124 51.4085 20.7469 51.415 21.2543C51.4367 21.7578 51.5005 22.1496 51.5635 22.4023C51.5947 22.5335 51.6132 22.6292 51.6285 22.6998C51.649 22.7657 51.6616 22.8014 51.6616 22.8014C51.6616 22.8014 51.7126 22.9339 51.796 23.178C51.8324 23.3046 51.9025 23.4484 51.9858 23.6179C52.0639 23.792 52.1506 23.9865 52.2762 24.1936C52.7331 25.0337 53.5571 26.1115 54.746 27.1586C57.1752 29.2264 60.8248 31.0262 64.4921 32.7079C66.3254 33.5537 68.1442 34.3936 69.8072 35.258C71.4651 36.1271 72.9777 37.0116 74.1764 37.9102C74.5752 38.1948 74.9351 38.4669 75.27 38.7423C75.3299 38.5872 75.3798 38.4314 75.4298 38.2756C75.402 38.244 75.3736 38.2223 75.3406 38.1952C75.0824 37.9646 74.8155 37.7135 74.5078 37.4796C73.3295 36.4978 71.8273 35.5296 70.1799 34.5767C68.5273 33.6284 66.723 32.7199 64.918 31.8213C63.1182 30.9181 61.3284 30.0155 59.72 29.0751C58.9211 28.6002 58.1518 28.1274 57.4578 27.6445C56.7427 27.1801 56.143 26.6985 55.6086 26.2062C54.5445 25.2269 53.8479 24.2518 53.477 23.5416C53.3738 23.3708 53.305 23.2073 53.2448 23.0641C53.1846 22.921 53.1277 22.803 53.0993 22.7067C53.033 22.5035 52.9999 22.402 52.9999 22.402C52.9999 22.402 52.9867 22.3762 52.9702 22.3254C52.9589 22.27 52.939 22.1942 52.9158 22.0932C52.8595 21.8907 52.809 21.5992 52.7841 21.2198C52.7536 20.4722 52.9305 19.3655 53.8386 18.3265C54.2801 17.8087 54.8601 17.3 55.5498 16.8631C56.2355 16.411 57.0071 16.0142 57.8579 15.6972C59.5542 15.0677 61.511 14.7884 63.4701 14.8521C65.4351 14.9014 67.3814 15.3122 69.159 15.871C70.8098 16.3917 72.309 17.0267 73.6122 17.6191C73.4383 17.3145 73.2591 17.0145 73.08 16.7144C71.9827 16.1654 70.7515 15.6125 69.4115 15.1271C67.6147 14.4825 65.5898 13.982 63.5198 13.8663C61.4557 13.736 59.3478 13.9707 57.472 14.6082L57.4627 14.5977Z" fill="url(#paint16_radial_6_6940)"/>
</g>
<g clip-path="url(#clip2_6_6940)">
<path d="M86.9585 147.693C106.851 127.8 106.851 95.5472 86.9585 75.6543C67.0656 55.7615 34.813 55.7615 14.9202 75.6543C-4.97267 95.5472 -4.97267 127.8 14.9202 147.693C34.813 167.585 67.0656 167.585 86.9585 147.693Z" fill="url(#paint17_linear_6_6940)"/>
<path style="mix-blend-mode:screen" d="M86.9585 147.693C106.851 127.8 106.851 95.5472 86.9585 75.6543C67.0656 55.7615 34.813 55.7615 14.9202 75.6543C-4.97267 95.5472 -4.97267 127.8 14.9202 147.693C34.813 167.585 67.0656 167.585 86.9585 147.693Z" fill="url(#paint18_linear_6_6940)"/>
<path style="mix-blend-mode:screen" d="M50.9384 68.7073C40.5081 68.7073 30.9473 72.4236 23.5056 78.6022C26.7047 77.8424 30.0411 77.4351 33.4737 77.4351C57.2039 77.4351 76.4398 96.671 76.4398 120.401C76.4398 133.701 70.394 145.591 60.9019 153.473C79.8266 148.978 93.8999 131.967 93.8999 111.669C93.8999 87.9387 74.664 68.7028 50.9338 68.7028L50.9384 68.7073Z" fill="url(#paint19_linear_6_6940)"/>
<path style="mix-blend-mode:multiply" opacity="0.45" d="M66.5037 129.967C41.5149 129.967 21.2584 109.71 21.2584 84.7212C21.2584 78.8951 22.3613 73.3252 24.3659 68.2085C9.75251 77.1605 -0.000457764 93.2797 -0.000457764 111.673C-0.000457764 139.807 22.8053 162.612 50.9383 162.612C79.0714 162.612 101.186 140.493 101.859 112.946C93.5658 123.317 80.8105 129.962 66.4991 129.962L66.5037 129.967Z" fill="url(#paint20_linear_6_6940)"/>
</g>
</g>
<defs>
<radialGradient id="paint0_radial_6_6940" cx="0" cy="0" r="1" gradientUnits="userSpaceOnUse" gradientTransform="translate(75.5903 7.07965) rotate(48.7488) scale(81.6649)">
<stop stop-color="#D1E1EE"/>
<stop offset="0.34" stop-color="#8EE1EE"/>
<stop offset="0.94" stop-color="#732FA4"/>
</radialGradient>
<radialGradient id="paint1_radial_6_6940" cx="0" cy="0" r="1" gradientUnits="userSpaceOnUse" gradientTransform="translate(70.0669 12.5656) rotate(48.7488) scale(40.2047)">
<stop stop-color="#D1E1EE"/>
<stop offset="0.34" stop-color="#8EE1EE"/>
<stop offset="0.94" stop-color="#732FA4"/>
</radialGradient>
<radialGradient id="paint2_radial_6_6940" cx="0" cy="0" r="1" gradientUnits="userSpaceOnUse" gradientTransform="translate(66.5001 15.0407) rotate(48.7488) scale(68.0155 68.0155)">
<stop stop-color="#D1E1EE"/>
<stop offset="0.34" stop-color="#8EE1EE"/>
<stop offset="0.94" stop-color="#732FA4"/>
</radialGradient>
<radialGradient id="paint3_radial_6_6940" cx="0" cy="0" r="1" gradientUnits="userSpaceOnUse" gradientTransform="translate(73.5641 37.9993) rotate(48.7488) scale(1.62027 1.62025)">
<stop stop-color="#D1E1EE"/>
<stop offset="0.34" stop-color="#8EE1EE"/>
<stop offset="0.94" stop-color="#732FA4"/>
</radialGradient>
<radialGradient id="paint4_radial_6_6940" cx="0" cy="0" r="1" gradientUnits="userSpaceOnUse" gradientTransform="translate(58.2371 22.5761) rotate(48.7488) scale(52.5004 52.5004)">
<stop stop-color="#D1E1EE"/>
<stop offset="0.34" stop-color="#8EE1EE"/>
<stop offset="0.94" stop-color="#732FA4"/>
</radialGradient>
<radialGradient id="paint5_radial_6_6940" cx="0" cy="0" r="1" gradientUnits="userSpaceOnUse" gradientTransform="translate(90.8689 20.5839) rotate(48.7488) scale(67.4474 67.4474)">
<stop offset="0.06" stop-color="#732FA4"/>
<stop offset="0.66" stop-color="#8EE1EE"/>
<stop offset="1" stop-color="#D1E1EE"/>
</radialGradient>
<radialGradient id="paint6_radial_6_6940" cx="0" cy="0" r="1" gradientUnits="userSpaceOnUse" gradientTransform="translate(90.8688 20.5839) rotate(48.7488) scale(67.4403 67.4403)">
<stop offset="0.06" stop-color="#732FA4"/>
<stop offset="0.66" stop-color="#8EE1EE"/>
<stop offset="1" stop-color="#D1E1EE"/>
</radialGradient>
<radialGradient id="paint7_radial_6_6940" cx="0" cy="0" r="1" gradientUnits="userSpaceOnUse" gradientTransform="translate(90.8688 20.5839) rotate(48.7488) scale(67.4404 67.4404)">
<stop offset="0.06" stop-color="#732FA4"/>
<stop offset="0.66" stop-color="#8EE1EE"/>
<stop offset="1" stop-color="#D1E1EE"/>
</radialGradient>
<radialGradient id="paint8_radial_6_6940" cx="0" cy="0" r="1" gradientUnits="userSpaceOnUse" gradientTransform="translate(90.869 20.5839) rotate(48.7488) scale(67.4474 67.4474)">
<stop offset="0.06" stop-color="#732FA4"/>
<stop offset="0.66" stop-color="#8EE1EE"/>
<stop offset="1" stop-color="#D1E1EE"/>
</radialGradient>
<radialGradient id="paint9_radial_6_6940" cx="0" cy="0" r="1" gradientUnits="userSpaceOnUse" gradientTransform="translate(90.8688 20.5839) rotate(48.7488) scale(67.4474 67.4474)">
<stop offset="0.06" stop-color="#732FA4"/>
<stop offset="0.66" stop-color="#8EE1EE"/>
<stop offset="1" stop-color="#D1E1EE"/>
</radialGradient>
<radialGradient id="paint10_radial_6_6940" cx="0" cy="0" r="1" gradientUnits="userSpaceOnUse" gradientTransform="translate(90.869 20.5839) rotate(48.7488) scale(67.4404 67.4404)">
<stop offset="0.06" stop-color="#732FA4"/>
<stop offset="0.66" stop-color="#8EE1EE"/>
<stop offset="1" stop-color="#D1E1EE"/>
</radialGradient>
<radialGradient id="paint11_radial_6_6940" cx="0" cy="0" r="1" gradientUnits="userSpaceOnUse" gradientTransform="translate(90.8689 20.5839) rotate(48.7488) scale(67.4474 67.4474)">
<stop offset="0.06" stop-color="#732FA4"/>
<stop offset="0.66" stop-color="#8EE1EE"/>
<stop offset="1" stop-color="#D1E1EE"/>
</radialGradient>
<radialGradient id="paint12_radial_6_6940" cx="0" cy="0" r="1" gradientUnits="userSpaceOnUse" gradientTransform="translate(90.8689 20.5839) rotate(48.7488) scale(67.4404 67.4404)">
<stop offset="0.06" stop-color="#732FA4"/>
<stop offset="0.66" stop-color="#8EE1EE"/>
<stop offset="1" stop-color="#D1E1EE"/>
</radialGradient>
<radialGradient id="paint13_radial_6_6940" cx="0" cy="0" r="1" gradientUnits="userSpaceOnUse" gradientTransform="translate(90.8689 20.5839) rotate(48.7488) scale(67.4404 67.4403)">
<stop offset="0.06" stop-color="#732FA4"/>
<stop offset="0.66" stop-color="#8EE1EE"/>
<stop offset="1" stop-color="#D1E1EE"/>
</radialGradient>
<radialGradient id="paint14_radial_6_6940" cx="0" cy="0" r="1" gradientUnits="userSpaceOnUse" gradientTransform="translate(90.8691 20.5839) rotate(48.7488) scale(67.4403 67.4404)">
<stop offset="0.06" stop-color="#732FA4"/>
<stop offset="0.66" stop-color="#8EE1EE"/>
<stop offset="1" stop-color="#D1E1EE"/>
</radialGradient>
<radialGradient id="paint15_radial_6_6940" cx="0" cy="0" r="1" gradientUnits="userSpaceOnUse" gradientTransform="translate(90.8688 20.5839) rotate(48.7488) scale(67.4404 67.4404)">
<stop offset="0.06" stop-color="#732FA4"/>
<stop offset="0.66" stop-color="#8EE1EE"/>
<stop offset="1" stop-color="#D1E1EE"/>
</radialGradient>
<radialGradient id="paint16_radial_6_6940" cx="0" cy="0" r="1" gradientUnits="userSpaceOnUse" gradientTransform="translate(90.8688 20.5839) rotate(48.7488) scale(67.4474)">
<stop offset="0.06" stop-color="#732FA4"/>
<stop offset="0.66" stop-color="#8EE1EE"/>
<stop offset="1" stop-color="#D1E1EE"/>
</radialGradient>
<linearGradient id="paint17_linear_6_6940" x1="134.826" y1="52.0121" x2="38.1618" y2="120.763" gradientUnits="userSpaceOnUse">
<stop stop-color="#2F67C5"/>
<stop offset="0.96" stop-color="#09002B"/>
</linearGradient>
<linearGradient id="paint18_linear_6_6940" x1="134.826" y1="52.0121" x2="38.1618" y2="120.763" gradientUnits="userSpaceOnUse">
<stop stop-color="#7EAEFF"/>
<stop offset="0.96" stop-color="#4C87CD"/>
</linearGradient>
<linearGradient id="paint19_linear_6_6940" x1="110.523" y1="69.2977" x2="54.4762" y2="109.156" gradientUnits="userSpaceOnUse">
<stop stop-color="#2F67C5"/>
<stop offset="0.96" stop-color="#09002B"/>
</linearGradient>
<linearGradient id="paint20_linear_6_6940" x1="8.03167" y1="178.915" x2="58.9018" y2="99.1928" gradientUnits="userSpaceOnUse">
<stop stop-color="#2F67C5"/>
<stop offset="0.96" stop-color="#09002B"/>
</linearGradient>
<clipPath id="clip0_6_6940">
<rect width="101.878" height="96" fill="white"/>
</clipPath>
<clipPath id="clip1_6_6940">
<rect width="81.686" height="54.7799" fill="white" transform="translate(44.4501 -17.6327) rotate(48.7488)"/>
</clipPath>
<clipPath id="clip2_6_6940">
<rect width="101.878" height="101.878" fill="white" transform="translate(-0.000183105 60.7347)"/>
</clipPath>
</defs>
</svg>
