<svg width="19" height="18" viewBox="0 0 19 18" fill="none" xmlns="http://www.w3.org/2000/svg">
<circle cx="9.02698" cy="9.00024" r="9" fill="#B26DE5" fill-opacity="0.2"/>
<g clip-path="url(#clip0_668_17063)">
<path d="M15.9614 8.97374C15.9614 12.7091 12.8568 15.7359 9.02607 15.7359C7.00467 15.7359 5.18471 14.8913 3.91603 13.5449C2.78341 12.3433 2.09253 10.7372 2.09253 8.97374C2.09253 5.83032 4.29239 3.18872 7.27148 2.4307C7.83161 2.28934 8.42001 2.21336 9.02607 2.21336C12.8568 2.21336 15.9614 5.24016 15.9614 8.97374Z" fill="url(#paint0_radial_668_17063)"/>
<path d="M9.49432 15.72C9.33882 15.7306 9.18333 15.7359 9.02607 15.7359C7.00467 15.7359 5.18471 14.8913 3.91603 13.5449C2.78341 12.3433 2.09253 10.7372 2.09253 8.97374C2.09253 5.83032 4.29239 3.18872 7.27148 2.4307C7.83161 2.28934 8.42001 2.21336 9.02607 2.21336C9.18156 2.21336 9.33706 2.21866 9.49078 2.22926C9.04904 2.25753 8.6179 2.32645 8.20267 2.4307C7.32626 2.65333 6.64598 3.03676 5.85968 3.48557C6.04168 3.38309 6.25195 3.64813 6.18127 3.84426C6.11059 4.04039 5.89502 4.13934 5.69536 4.19942C5.49569 4.2595 5.27659 4.3072 5.13876 4.46446C5.23418 4.54574 5.3296 4.62526 5.42501 4.70654C4.66699 5.01929 3.87186 5.45749 3.57677 6.22435C3.53083 6.34451 3.49903 6.46996 3.46722 6.59542C3.29583 7.26333 2.83819 7.95951 3.08026 8.67336C3.14917 8.87656 3.27462 9.06209 3.30113 9.27589C3.34177 9.61161 3.12267 9.92613 3.09616 10.2636C3.06966 10.5799 3.21455 10.8838 3.35414 11.1701C3.9496 12.3875 4.58394 13.4583 5.67415 14.2941C6.7732 15.1351 8.11432 15.6352 9.49432 15.7218V15.72Z" fill="url(#paint1_radial_668_17063)"/>
<g style="mix-blend-mode:multiply" opacity="0.5">
<path d="M4.17044 11.7514C4.06796 13.119 6.77494 13.1438 6.43568 11.8097C6.16534 10.7495 4.24819 10.7195 4.17044 11.7514Z" fill="#951B81"/>
</g>
<g style="mix-blend-mode:multiply" opacity="0.5">
<path d="M9.12857 2.96962C8.01716 3.64106 8.52958 5.25253 10.1534 4.18175C11.544 3.2647 10.3054 2.25753 9.12857 2.96962Z" fill="#951B81"/>
</g>
<g style="mix-blend-mode:multiply" opacity="0.5">
<path d="M13.2474 8.56204C15.3041 8.1415 12.9329 6.77388 12.6042 7.63615C12.4293 8.09556 12.7102 8.67159 13.2474 8.56204Z" fill="#951B81"/>
</g>
<g style="mix-blend-mode:multiply" opacity="0.5">
<path d="M13.6643 10.594C14.0637 11.2231 13.129 11.8521 12.696 11.246C12.2402 10.6082 13.2456 9.93497 13.6643 10.594Z" fill="#951B81"/>
</g>
<g style="mix-blend-mode:multiply" opacity="0.5">
<path d="M14.4117 9.49146C14.0618 9.59217 14.2103 10.1276 14.5619 10.0304C14.9135 9.93497 14.7704 9.39781 14.417 9.48969H14.4099L14.4117 9.49146Z" fill="#951B81"/>
</g>
</g>
<defs>
<radialGradient id="paint0_radial_668_17063" cx="0" cy="0" r="1" gradientUnits="userSpaceOnUse" gradientTransform="translate(7.13013 6.40282) scale(8.02199)">
<stop stop-color="#C766FF"/>
<stop offset="0.29" stop-color="#C463FC"/>
<stop offset="0.47" stop-color="#BB5AF5"/>
<stop offset="0.62" stop-color="#AD4BE9"/>
<stop offset="0.76" stop-color="#9836D9"/>
<stop offset="0.89" stop-color="#7D1CC3"/>
<stop offset="0.99" stop-color="#6200AD"/>
</radialGradient>
<radialGradient id="paint1_radial_668_17063" cx="0" cy="0" r="1" gradientUnits="userSpaceOnUse" gradientTransform="translate(-1.66579 7.57431) scale(9.36311)">
<stop stop-color="#E9C2FF"/>
<stop offset="0.27" stop-color="#E7BFFE"/>
<stop offset="0.45" stop-color="#E1B6FB"/>
<stop offset="0.6" stop-color="#D7A7F6"/>
<stop offset="0.73" stop-color="#CA92F0"/>
<stop offset="0.86" stop-color="#B877E7"/>
<stop offset="0.97" stop-color="#A356DD"/>
<stop offset="0.99" stop-color="#9E4FDB"/>
</radialGradient>
<clipPath id="clip0_668_17063">
<rect width="13.8689" height="13.5225" fill="white" transform="translate(2.09253 2.21336)"/>
</clipPath>
</defs>
</svg>
