<svg width="114" height="65" viewBox="0 0 114 65" fill="none" xmlns="http://www.w3.org/2000/svg">
<circle cx="57" cy="-14" r="61" fill="#F6F7FA"/>
<circle cx="57" cy="-14" r="69.5" stroke="#F6F7FA"/>
<circle cx="57" cy="-14" r="78.5" stroke="#F6F7FA"/>
<g clip-path="url(#clip0_1_39)">
<path d="M96.5484 13.9921L99.9223 7.27877C100.888 5.35379 100.109 3.01483 98.1905 2.04888C96.2656 1.08294 93.9266 1.86259 92.9607 3.78068L89.5868 10.494C88.6208 12.419 89.4005 14.7579 91.3186 15.7239C93.2435 16.6898 95.5825 15.9102 96.5484 13.9921Z" fill="#EBEBEB"/>
<path d="M18.3209 -0.95244L17.7482 -4.9473C17.4446 -7.07928 15.4714 -8.55579 13.3394 -8.25221C11.2074 -7.94862 9.73091 -5.97534 10.0345 -3.84337L10.6072 0.151493C10.9107 2.28347 12.884 3.75998 15.016 3.4564C17.148 3.15282 18.6245 1.17953 18.3209 -0.95244Z" fill="#EBEBEB"/>
<path d="M42.8006 32.9038L46.6989 33.9457C48.7757 34.5045 50.9146 33.2695 51.4665 31.1928C52.0254 29.116 50.7904 26.9771 48.7136 26.4251L44.8153 25.3833C42.7385 24.8244 40.5997 26.0595 40.0477 28.1362C39.4888 30.213 40.7239 32.3519 42.8006 32.9038Z" fill="#EBEBEB"/>
<path d="M56.2962 31.862C81.1181 31.862 101.24 11.7399 101.24 -13.0819C101.24 -37.9038 81.1181 -58.0258 56.2962 -58.0258C31.4744 -58.0258 11.3523 -37.9038 11.3523 -13.0819C11.3523 11.7399 31.4744 31.862 56.2962 31.862Z" fill="#EBEBEB"/>
<path d="M41.2689 -6.28581C41.8485 -4.98179 41.8416 -3.42938 41.3862 -2.00117C40.924 -0.579853 39.9994 0.731072 38.792 1.63492C37.5708 2.59396 35.8873 3.07003 34.3693 2.82854C32.8514 2.60086 31.506 1.8557 30.6022 0.758668C31.9476 1.16574 33.2447 1.37273 34.4383 1.29683C35.6389 1.22094 36.6807 0.765569 37.5984 0.0756098C38.5574 -0.641947 39.3646 -1.55269 39.9856 -2.60833C40.5928 -3.67777 41.0344 -4.89899 41.2689 -6.28581Z" fill="#C7C7C7"/>
<path d="M61.5399 0.931154C66.5352 3.15972 72.3999 0.896655 74.6423 -4.12625C76.8846 -9.14915 74.6422 -15.0276 69.6538 -17.2562C64.6585 -19.4847 58.7939 -17.2217 56.5515 -12.1988C54.3092 -7.17586 56.5515 -1.29741 61.5399 0.931154Z" fill="#DBDBDB"/>
<path d="M79.3271 -6.49281C79.4306 -3.91236 78.5888 -1.29051 77.133 0.931154C75.6841 3.17352 73.5452 4.96742 71.1442 6.16104C68.7017 7.32707 65.7418 7.74795 63.1406 6.8855C60.5395 6.09204 58.3385 4.40855 56.8896 2.29037C58.9181 3.84278 61.1812 4.96742 63.5063 5.40209C64.0859 5.51938 64.6723 5.54008 65.2519 5.58838C65.8315 5.55388 66.411 5.58838 66.9837 5.45039C68.1359 5.32619 69.2261 4.88462 70.2886 4.40165C70.813 4.13256 71.3512 3.84968 71.8617 3.5461C72.3516 3.20802 72.8691 2.90444 73.3244 2.51806C74.3042 1.8212 75.1114 0.938057 75.9118 0.0342106C77.4504 -1.82178 78.6302 -4.03655 79.3409 -6.49281H79.3271Z" fill="#C7C7C7"/>
<path d="M64.7137 21.347C67.6116 21.4988 70.0816 19.2703 70.2403 16.3586C70.399 13.447 68.1773 10.9631 65.2795 10.8045C62.3817 10.6527 59.9116 12.8812 59.7529 15.7929C59.5942 18.7045 61.8159 21.1883 64.7137 21.347Z" fill="#DBDBDB"/>
<path d="M66.4113 12.8743C67.9913 12.9571 69.3505 13.8058 70.1508 15.0408C69.6955 12.7295 67.7291 10.9356 65.2797 10.8045C62.3888 10.6527 59.9118 12.8881 59.7532 15.7929C59.6428 17.8903 60.7605 19.767 62.4854 20.7123C61.7471 19.8222 61.3263 18.6562 61.3953 17.4005C61.5333 14.7648 63.7825 12.7364 66.4113 12.8743Z" fill="#C7C7C7"/>
<path d="M72.1101 14.2957C72.6207 15.5583 72.7173 17.0072 72.4068 18.3802C72.1101 19.7601 71.3925 21.0503 70.4335 22.0922C69.4469 23.1271 68.0738 23.8999 66.6249 23.9689C65.1898 24.0793 63.7892 23.6515 62.6646 22.8994C63.9548 23.3065 65.2933 23.4238 66.5352 23.203C67.7772 22.9891 68.8673 22.3268 69.7228 21.416C70.5991 20.4915 71.2614 19.3875 71.6754 18.1732C72.0756 16.9589 72.255 15.6342 72.1101 14.2888V14.2957Z" fill="#C7C7C7"/>
</g>
<defs>
<clipPath id="clip0_1_39">
<rect width="94" height="96.0837" fill="white" transform="translate(10 -62)"/>
</clipPath>
</defs>
</svg>
