<svg width="19" height="18" viewBox="0 0 19 18" fill="none" xmlns="http://www.w3.org/2000/svg">
<circle cx="9.02698" cy="9.00024" r="9" fill="#F6F7FA"/>
<g clip-path="url(#clip0_668_17009)">
<path d="M4.15499 5.36004L4.93883 4.5762C5.16278 4.35225 5.16278 3.98782 4.93883 3.76386C4.71487 3.53991 4.35044 3.53991 4.12649 3.76386L3.34265 4.5477C3.11869 4.77165 3.11869 5.13609 3.34265 5.36004C3.5666 5.58501 3.93104 5.58501 4.15499 5.36004Z" fill="#EBEBEB"/>
<path d="M14.862 13.1302L15.3598 12.1397C15.5023 11.8557 15.3873 11.5106 15.1043 11.3681C14.8203 11.2256 14.4752 11.3406 14.3327 11.6236L13.8349 12.6141C13.6924 12.8981 13.8074 13.2432 14.0904 13.3857C14.3744 13.5282 14.7195 13.4132 14.862 13.1302Z" fill="#EBEBEB"/>
<path d="M7.99885 3.14595L8.58826 3.06146C8.90281 3.01667 9.12065 2.72553 9.07586 2.41098C9.03107 2.09642 8.73993 1.87858 8.42538 1.92337L7.83597 2.00786C7.52142 2.05265 7.30357 2.34379 7.34837 2.65834C7.39316 2.9729 7.6843 3.19074 7.99885 3.14595Z" fill="#EBEBEB"/>
<path d="M3.32022 10.9253L3.23573 10.3359C3.19094 10.0213 2.8998 9.80349 2.58524 9.84828C2.27069 9.89307 2.05284 10.1842 2.09763 10.4988L2.18212 11.0882C2.22692 11.4027 2.51806 11.6206 2.83261 11.5758C3.14716 11.531 3.36501 11.2398 3.32022 10.9253Z" fill="#EBEBEB"/>
<path d="M15.9614 10.0366V8.73157C15.9614 8.61013 15.863 8.51168 15.7415 8.51168H15.032C14.9106 8.51168 14.8121 8.61013 14.8121 8.73157V10.0366C14.8121 10.158 14.9106 10.2565 15.032 10.2565H15.7415C15.863 10.2565 15.9614 10.158 15.9614 10.0366Z" fill="#EBEBEB"/>
<path d="M6.93199 15.9205L7.50714 16.0742C7.81355 16.1567 8.12912 15.9744 8.21056 15.668C8.29301 15.3616 8.1108 15.046 7.80439 14.9646L7.22923 14.8109C6.92282 14.7284 6.60725 14.9107 6.52581 15.2171C6.44336 15.5235 6.62558 15.839 6.93199 15.9205Z" fill="#EBEBEB"/>
<path d="M8.92306 15.7668C12.5853 15.7668 15.5541 12.7979 15.5541 9.1357C15.5541 5.47346 12.5853 2.50463 8.92306 2.50463C5.26082 2.50463 2.29199 5.47346 2.29199 9.1357C2.29199 12.7979 5.26082 15.7668 8.92306 15.7668Z" fill="#EBEBEB"/>
<path d="M11.3357 5.20226C11.3591 5.51172 11.2634 5.83136 11.0903 6.10214C10.9183 6.37598 10.6597 6.59484 10.3696 6.73838C10.0734 6.87987 9.71099 6.92975 9.39542 6.82185C9.08087 6.72209 8.81823 6.5134 8.65332 6.25178C8.90374 6.42891 9.17452 6.55616 9.44937 6.60197C9.5868 6.62436 9.72321 6.62742 9.85656 6.60197C9.99094 6.5867 10.1182 6.53478 10.2424 6.47777C10.3045 6.44622 10.3676 6.41364 10.4276 6.37801C10.4857 6.33831 10.5467 6.30268 10.5997 6.25789C10.7157 6.17747 10.8114 6.07364 10.9081 5.96879C11.0924 5.75196 11.239 5.4934 11.3347 5.20226H11.3357Z" fill="#C7C7C7"/>
<path d="M8.95255 5.58399C8.91794 5.37022 8.97495 5.14321 9.08998 4.9498C9.20603 4.75537 9.38417 4.59554 9.58878 4.49578C9.79747 4.39297 10.0601 4.36446 10.28 4.4459C10.4999 4.52225 10.678 4.67698 10.7768 4.86938C10.5925 4.76249 10.4072 4.68818 10.226 4.66578C10.0448 4.64033 9.87585 4.68207 9.71501 4.75638C9.38112 4.91722 9.1195 5.19208 8.95051 5.58399H8.95255Z" fill="#C7C7C7"/>
<path d="M6.70599 10.1384C6.7915 10.3308 6.79048 10.5598 6.72329 10.7706C6.65509 10.9803 6.51868 11.1737 6.34053 11.307C6.16035 11.4485 5.91197 11.5188 5.68801 11.4831C5.46406 11.4496 5.26556 11.3396 5.1322 11.1778C5.33071 11.2378 5.52209 11.2684 5.69819 11.2572C5.87532 11.246 6.02904 11.1788 6.16443 11.077C6.30592 10.9711 6.42503 10.8367 6.51664 10.681C6.60623 10.5232 6.67138 10.343 6.70599 10.1384Z" fill="#C7C7C7"/>
<path d="M5.33382 10.8907C5.25645 10.7614 5.24831 10.5975 5.28801 10.4458C5.33076 10.2942 5.42747 10.1537 5.55472 10.058C5.68502 9.95517 5.86825 9.90529 6.02909 9.93786C6.18891 9.96942 6.32532 10.0559 6.40574 10.1822C6.26017 10.1577 6.13089 10.1486 6.01891 10.1649C5.90592 10.1801 5.81634 10.2239 5.73083 10.287C5.55065 10.4255 5.42035 10.6077 5.33382 10.8886V10.8907Z" fill="#C7C7C7"/>
<path d="M4.32803 8.66234C4.44408 8.76516 4.51126 8.92091 4.51737 9.08785C4.52144 9.25684 4.45426 9.43091 4.33007 9.55612C4.20384 9.69151 4.00533 9.74343 3.84449 9.72205C3.6806 9.70271 3.53605 9.63349 3.42712 9.52253C3.57982 9.52049 3.71826 9.52049 3.8394 9.49402C3.96054 9.46959 4.05419 9.4248 4.12443 9.35151C4.19976 9.27516 4.25983 9.17744 4.2924 9.06342C4.32803 8.94839 4.33516 8.81402 4.32905 8.66132L4.32803 8.66234Z" fill="#C7C7C7"/>
<path d="M3.5065 9.30672C3.40979 9.24462 3.35176 9.1357 3.34158 9.01354C3.33242 8.88935 3.37925 8.75905 3.4729 8.6654C3.56859 8.56258 3.72027 8.52695 3.8353 8.54833C3.95338 8.56869 4.05315 8.62671 4.12033 8.72037C4.00937 8.73971 3.91674 8.7509 3.84039 8.77534C3.76404 8.79875 3.71722 8.82827 3.67853 8.86797C3.63476 8.91174 3.59608 8.96672 3.56757 9.03492C3.53703 9.10516 3.51973 9.19372 3.5065 9.30468V9.30672Z" fill="#C7C7C7"/>
<path d="M13.4145 6.69868C13.4328 6.85341 13.3798 7.01323 13.273 7.14251C13.164 7.27179 12.9981 7.3573 12.821 7.36748C12.6357 7.38479 12.4535 7.29114 12.3476 7.16898C12.2387 7.0458 12.1766 6.89718 12.1685 6.74245C12.2835 6.84323 12.3873 6.93383 12.4952 6.99491C12.6021 7.05802 12.7019 7.08652 12.8027 7.07736C12.9095 7.07024 13.0195 7.03664 13.1192 6.97353C13.2221 6.91041 13.3177 6.81574 13.4145 6.69664V6.69868Z" fill="#C7C7C7"/>
<path d="M12.3721 6.63454C12.3415 6.52358 12.37 6.40448 12.4443 6.30574C12.5197 6.20699 12.6418 6.14083 12.7732 6.13268C12.9126 6.11945 13.05 6.19376 13.1223 6.2864C13.1966 6.38005 13.2323 6.48999 13.2211 6.604C13.1254 6.54394 13.048 6.49101 12.9747 6.45945C12.9014 6.42586 12.8475 6.4167 12.7925 6.42179C12.7304 6.42586 12.6652 6.44113 12.5981 6.47269C12.5288 6.50526 12.4576 6.55921 12.3731 6.63454H12.3721Z" fill="#C7C7C7"/>
<path d="M9.69679 11.2032C10.4338 11.532 11.2991 11.1981 11.6299 10.457C11.9608 9.71594 11.6299 8.84863 10.8939 8.51983C10.1569 8.19102 9.29164 8.52492 8.96079 9.266C8.62995 10.0071 8.96079 10.8744 9.69679 11.2032Z" fill="#DBDBDB"/>
<path d="M10.9815 9.17133C11.3825 9.35049 11.6523 9.70576 11.7368 10.1068C11.8478 9.46145 11.5169 8.79773 10.8929 8.51983C10.1559 8.19102 9.2906 8.52593 8.95976 9.266C8.72156 9.80043 8.82539 10.4 9.17965 10.8164C9.07581 10.511 9.08396 10.1679 9.22647 9.84828C9.52576 9.17642 10.3126 8.87306 10.9815 9.17133Z" fill="#C7C7C7"/>
<path d="M12.3211 10.1079C12.3363 10.4886 12.2121 10.8754 11.9974 11.2032C11.7836 11.534 11.468 11.7987 11.1138 11.9748C10.7534 12.1469 10.3167 12.209 9.9329 12.0817C9.54913 11.9646 9.22439 11.7163 9.01062 11.4037C9.3099 11.6328 9.6438 11.7987 9.98686 11.8628C10.0724 11.8802 10.1589 11.8832 10.2444 11.8903C10.3299 11.8852 10.4154 11.8903 10.4999 11.87C10.6699 11.8517 10.8308 11.7865 10.9875 11.7152C11.0649 11.6755 11.1443 11.6338 11.2196 11.589C11.2919 11.5391 11.3682 11.4943 11.4354 11.4373C11.58 11.3345 11.6991 11.2042 11.8172 11.0709C12.0442 10.797 12.2183 10.4703 12.3231 10.1079H12.3211Z" fill="#C7C7C7"/>
<path d="M13.9265 10.6657C14.2197 10.7339 14.5129 10.5497 14.5811 10.2545C14.6493 9.95924 14.467 9.66505 14.1739 9.59786C13.8807 9.52966 13.5875 9.71391 13.5193 10.0091C13.4511 10.3043 13.6333 10.5985 13.9265 10.6657Z" fill="#DBDBDB"/>
<path d="M14.2522 9.82996C14.412 9.86661 14.5362 9.97756 14.5953 10.1191C14.5902 9.87475 14.4212 9.65589 14.1728 9.59786C13.8796 9.52966 13.5864 9.71391 13.5182 10.0091C13.4694 10.2219 13.5498 10.4336 13.7096 10.5609C13.6496 10.456 13.6282 10.3298 13.6577 10.2025C13.7198 9.93481 13.9855 9.76786 14.2522 9.82996Z" fill="#C7C7C7"/>
<path d="M14.809 10.0783C14.8487 10.2158 14.8355 10.3705 14.7815 10.5089C14.7286 10.6494 14.6299 10.7716 14.5108 10.8632C14.3886 10.9538 14.2267 11.0088 14.074 10.9864C13.9224 10.968 13.7849 10.8948 13.6882 10.7899C13.8185 10.8459 13.9519 10.8785 14.0791 10.8744C14.2064 10.8713 14.3234 10.8235 14.4232 10.7482C14.6299 10.5945 14.7683 10.3603 14.808 10.0794L14.809 10.0783Z" fill="#C7C7C7"/>
<path d="M10.165 14.2154C10.5925 14.2378 10.957 13.909 10.9804 13.4794C11.0038 13.0498 10.676 12.6833 10.2485 12.6599C9.82091 12.6375 9.45648 12.9663 9.43306 13.3959C9.40965 13.8255 9.73744 14.192 10.165 14.2154Z" fill="#DBDBDB"/>
<path d="M10.4155 12.9653C10.6486 12.9775 10.8491 13.1027 10.9672 13.285C10.9 12.9439 10.6099 12.6793 10.2485 12.6599C9.82198 12.6375 9.45653 12.9673 9.43311 13.3959C9.41683 13.7054 9.58174 13.9823 9.83623 14.1217C9.72731 13.9904 9.66521 13.8184 9.67539 13.6331C9.69575 13.2442 10.0276 12.945 10.4155 12.9653Z" fill="#C7C7C7"/>
<path d="M11.2563 13.175C11.3316 13.3613 11.3459 13.5751 11.3 13.7777C11.2563 13.9812 11.1504 14.1716 11.0089 14.3253C10.8633 14.478 10.6608 14.592 10.447 14.6022C10.2352 14.6185 10.0286 14.5554 9.86267 14.4444C10.053 14.5045 10.2505 14.5218 10.4338 14.4892C10.617 14.4577 10.7778 14.3599 10.9041 14.2256C11.0333 14.0892 11.1311 13.9263 11.1921 13.7471C11.2512 13.568 11.2777 13.3725 11.2563 13.174V13.175Z" fill="#C7C7C7"/>
<path d="M6.69583 6.70377C6.34565 7.24024 5.56996 7.35425 4.96325 6.95826C4.35755 6.56227 4.14989 5.80591 4.50109 5.26944C4.85127 4.73297 5.62696 4.61896 6.23368 5.01495C6.83937 5.41094 7.04704 6.16729 6.69583 6.70377Z" fill="#DBDBDB"/>
<path d="M4.76775 5.77232C4.57637 6.06448 4.56721 6.42891 4.71075 6.75059C4.30661 6.33322 4.2038 5.72244 4.50104 5.26842C4.85123 4.73195 5.62794 4.61794 6.23363 5.01393C6.67034 5.29998 6.9004 5.77232 6.86172 6.21514C6.78028 5.95352 6.60112 5.71124 6.34052 5.54022C5.79183 5.18088 5.08638 5.28471 4.76877 5.7713L4.76775 5.77232Z" fill="#C7C7C7"/>
<path d="M7.12336 5.81711C7.29846 6.08178 7.36768 6.42891 7.29438 6.76281C7.26283 6.93179 7.17833 7.08856 7.07857 7.227C6.97779 7.3685 6.84444 7.47641 6.69887 7.57617C6.54516 7.65862 6.37923 7.72174 6.20923 7.7421C6.04024 7.7594 5.87024 7.76144 5.7094 7.72785C5.38569 7.66982 5.08437 7.53952 4.83191 7.34712C5.13628 7.4306 5.43862 7.49168 5.73383 7.50287C6.02904 7.51509 6.31611 7.46623 6.55025 7.32778C6.66222 7.25551 6.77725 7.16694 6.86378 7.05802C6.95642 6.95419 7.02869 6.83305 7.07756 6.70071C7.17426 6.43502 7.18546 6.12658 7.12235 5.81711H7.12336Z" fill="#C7C7C7"/>
</g>
<defs>
<clipPath id="clip0_668_17009">
<rect width="13.8689" height="14.1763" fill="white" transform="translate(2.09253 1.91828)"/>
</clipPath>
</defs>
</svg>
