<svg width="18" height="18" viewBox="0 0 18 18" fill="none" xmlns="http://www.w3.org/2000/svg">
<g clip-path="url(#clip0_6_11166)">
<path d="M8.4375 7.875H9V12.9375H9.5625M16.3125 9C16.3125 10.9394 15.5421 12.7994 14.1707 14.1707C12.7994 15.5421 10.9394 16.3125 9 16.3125C7.0606 16.3125 5.20064 15.5421 3.82928 14.1707C2.45792 12.7994 1.6875 10.9394 1.6875 9C1.6875 7.0606 2.45792 5.20064 3.82928 3.82928C5.20064 2.45792 7.0606 1.6875 9 1.6875C10.9394 1.6875 12.7994 2.45792 14.1707 3.82928C15.5421 5.20064 16.3125 7.0606 16.3125 9Z" stroke="#646670" stroke-width="1.5" stroke-linecap="round" stroke-linejoin="round"/>
<path d="M9.5625 5.34375C9.5625 5.49293 9.50324 5.63601 9.39775 5.7415C9.29226 5.84699 9.14918 5.90625 9 5.90625C8.85082 5.90625 8.70774 5.84699 8.60225 5.7415C8.49676 5.63601 8.4375 5.49293 8.4375 5.34375C8.4375 5.19457 8.49676 5.05149 8.60225 4.946C8.70774 4.84051 8.85082 4.78125 9 4.78125C9.14918 4.78125 9.29226 4.84051 9.39775 4.946C9.50324 5.05149 9.5625 5.19457 9.5625 5.34375Z" fill="#646670" stroke="#646670"/>
</g>
<defs>
<clipPath id="clip0_6_11166">
<rect width="18" height="18" fill="white"/>
</clipPath>
</defs>
</svg>
