<svg width="360" height="163" viewBox="0 0 360 163" fill="none" xmlns="http://www.w3.org/2000/svg">
<path d="M102.696 49.3268C102.746 49.0232 102.767 48.7195 102.792 48.4053C102.824 47.9569 102.937 47.4519 102.901 47C102.979 47.9992 102.891 49.0655 103.268 50.0153C103.537 50.6897 103.989 51.3641 104.645 51.7278C105.281 52.0844 106.089 52.0491 106.795 52.1303C106.238 52.0667 105.373 52.2185 104.843 52.4269C104.172 52.6952 103.724 53.3202 103.406 53.9451C102.933 54.8737 102.986 55.9965 102.898 57.0134C103.028 55.4386 102.668 53.3731 101.164 52.5328C100.539 52.1832 99.699 52.2115 99 52.1303C99.6143 52.2009 100.585 52.0349 101.15 51.7666C101.884 51.417 102.322 50.612 102.562 49.867C102.619 49.6869 102.661 49.5069 102.689 49.3268H102.696Z" fill="white" stroke="#8DA0D0" stroke-width="0.75" stroke-linecap="round" stroke-linejoin="round"/>
<path d="M110.481 98.6051C110.53 98.3015 110.551 97.9978 110.576 97.6836C110.608 97.2352 110.721 96.7303 110.685 96.2783C110.763 97.2775 110.675 98.3438 111.053 99.2936C111.321 99.968 111.773 100.642 112.429 101.006C113.065 101.363 113.873 101.327 114.579 101.409C114.022 101.345 113.157 101.497 112.627 101.705C111.956 101.974 111.508 102.598 111.19 103.223C110.717 104.152 110.77 105.275 110.682 106.292C110.812 104.717 110.452 102.651 108.948 101.811C108.323 101.462 107.483 101.49 106.784 101.409C107.398 101.479 108.369 101.313 108.934 101.045C109.669 100.695 110.106 99.8903 110.346 99.1453C110.403 98.9653 110.445 98.7852 110.473 98.6051H110.481Z" fill="white" stroke="#8DA0D0" stroke-width="0.75" stroke-linecap="round" stroke-linejoin="round"/>
<path d="M138.252 153.77C138.301 153.467 138.322 153.163 138.347 152.849C138.379 152.4 138.492 151.896 138.456 151.444C138.534 152.443 138.446 153.509 138.823 154.459C139.092 155.133 139.544 155.808 140.2 156.171C140.836 156.528 141.644 156.493 142.35 156.574C141.793 156.51 140.928 156.662 140.398 156.87C139.727 157.139 139.279 157.764 138.961 158.389C138.488 159.317 138.541 160.44 138.453 161.457C138.583 159.882 138.223 157.817 136.719 156.976C136.094 156.627 135.254 156.655 134.555 156.574C135.169 156.644 136.14 156.479 136.705 156.21C137.44 155.861 137.877 155.056 138.117 154.311C138.174 154.131 138.216 153.95 138.244 153.77H138.252Z" fill="white" stroke="#8DA0D0" stroke-width="0.75" stroke-linecap="round" stroke-linejoin="round"/>
<path d="M132.324 5.7306C132.359 5.52581 132.373 5.31749 132.387 5.10211C132.409 4.79493 132.486 4.45244 132.461 4.14526C132.514 4.82671 132.454 5.55053 132.712 6.19667C132.896 6.65567 133.203 7.11468 133.651 7.36183C134.086 7.60193 134.633 7.58075 135.116 7.63371C134.739 7.59134 134.149 7.69373 133.789 7.83496C133.334 8.01504 133.026 8.44226 132.811 8.86596C132.49 9.49798 132.525 10.2606 132.465 10.9527C132.553 9.88284 132.31 8.47757 131.286 7.90205C130.859 7.66195 130.29 7.68314 129.814 7.63018C130.23 7.67961 130.89 7.56662 131.279 7.38302C131.78 7.14646 132.077 6.59918 132.239 6.09074C132.278 5.96716 132.306 5.84712 132.327 5.72354L132.324 5.7306Z" fill="white" stroke="#8DA0D0" stroke-width="0.75" stroke-linecap="round" stroke-linejoin="round"/>
<path d="M141.51 55.5853C141.545 55.3806 141.56 55.1722 141.574 54.9569C141.595 54.6497 141.673 54.3072 141.648 54C141.701 54.6814 141.641 55.4053 141.899 56.0514C142.082 56.5104 142.389 56.9694 142.838 57.2166C143.272 57.4567 143.819 57.4355 144.303 57.4884C143.925 57.4461 143.335 57.5485 142.975 57.6897C142.52 57.8698 142.213 58.297 141.997 58.7207C141.676 59.3527 141.711 60.1154 141.651 60.8074C141.74 59.7376 141.496 58.3323 140.472 57.7568C140.045 57.5167 139.477 57.5379 139 57.4849C139.417 57.5343 140.077 57.4214 140.465 57.2378C140.966 57.0012 141.263 56.4539 141.425 55.9455C141.464 55.8219 141.493 55.7019 141.514 55.5783L141.51 55.5853Z" fill="white" stroke="#8DA0D0" stroke-width="0.75" stroke-linecap="round" stroke-linejoin="round"/>
<path d="M135.51 130.585C135.545 130.381 135.56 130.172 135.574 129.957C135.595 129.65 135.673 129.307 135.648 129C135.701 129.681 135.641 130.405 135.899 131.051C136.082 131.51 136.389 131.969 136.838 132.217C137.272 132.457 137.819 132.435 138.303 132.488C137.925 132.446 137.335 132.548 136.975 132.69C136.52 132.87 136.213 133.297 135.997 133.721C135.676 134.353 135.711 135.115 135.651 135.807C135.74 134.738 135.496 133.332 134.472 132.757C134.045 132.517 133.477 132.538 133 132.485C133.417 132.534 134.077 132.421 134.465 132.238C134.966 132.001 135.263 131.454 135.425 130.945C135.464 130.822 135.493 130.702 135.514 130.578L135.51 130.585Z" fill="white" stroke="#8DA0D0" stroke-width="0.75" stroke-linecap="round" stroke-linejoin="round"/>
<path d="M229.328 102.983C230.327 102.814 231.305 103.146 232.301 103.047C232.039 103.192 231.792 103.354 231.584 103.552C231.566 103.538 231.542 103.534 231.506 103.552C230.338 104.131 229.077 105.314 228.664 106.602C228.597 106.641 228.548 106.888 228.629 106.874C228.643 106.885 228.661 106.892 228.682 106.885C229.992 106.571 230.941 104.971 231.559 103.848C231.813 103.591 232.128 103.446 232.449 103.262C232.481 103.245 232.509 103.227 232.541 103.209C232.029 104.318 231.736 105.628 231.951 106.832C231.979 106.984 232.114 106.885 232.128 106.779C232.297 105.501 233.159 104.311 232.911 102.997C233.261 102.8 233.607 102.602 233.953 102.401C233.716 103.036 233.48 103.697 233.346 104.36C233.212 105.021 233.289 105.677 233.377 106.338C233.399 106.496 233.536 106.422 233.575 106.316C233.875 105.497 234.306 104.636 234.444 103.767C234.514 103.319 234.535 102.62 234.189 102.263C234.204 102.252 234.221 102.245 234.235 102.238C234.578 102.034 234.92 101.818 235.249 101.589C235.242 101.606 235.235 101.624 235.231 101.645C235.139 102.316 234.927 102.962 234.987 103.644C235.037 104.233 235.245 104.791 235.588 105.271C235.655 105.367 235.753 105.232 235.757 105.162C235.803 104.374 236.075 103.573 236.029 102.789C236.001 102.316 235.912 101.709 235.538 101.38C235.824 101.168 236.099 100.95 236.361 100.713C236.188 101.733 236.53 102.62 237.092 103.485C237.162 103.594 237.254 103.4 237.233 103.333C237.032 102.676 236.964 102.03 236.961 101.349C236.961 100.985 236.926 100.667 236.693 100.402C237.508 99.5867 238.137 98.6157 238.391 97.4399C238.433 97.2422 238.274 97.3481 238.246 97.4788C238.002 98.6157 237.37 99.5266 236.566 100.293C236.551 100.293 236.537 100.293 236.523 100.3C235.676 99.6502 234.687 98.8276 233.565 99.0429C233.459 99.0641 233.402 99.2618 233.512 99.3148C234.408 99.7456 235.16 100.66 236.205 100.618C235.923 100.858 235.626 101.08 235.323 101.292C235.323 101.281 235.323 101.274 235.319 101.267C235.319 101.243 235.309 101.221 235.295 101.211C234.2 100.413 232.802 99.908 231.446 100.137C231.347 100.155 231.259 100.416 231.39 100.431C232.618 100.551 233.734 101.755 235.005 101.511C234.68 101.726 234.348 101.928 234.02 102.122C234.02 102.086 234.006 102.058 233.971 102.065C233.971 102.065 233.967 102.065 233.964 102.065C233.543 101.539 232.7 101.257 232.075 101.101C231.492 100.957 230.903 100.96 230.366 101.257C230.288 101.299 230.225 101.522 230.366 101.518C231.125 101.497 231.785 101.783 232.484 102.041C232.883 102.189 233.293 102.362 233.702 102.302C233.575 102.372 233.452 102.447 233.328 102.517C233.141 102.623 232.94 102.722 232.738 102.828C232.738 102.821 232.731 102.814 232.728 102.81C231.877 101.966 230.225 102.09 229.321 102.764C229.268 102.803 229.226 103.015 229.339 102.994L229.328 102.983Z" fill="#8DA0D0"/>
<path d="M113.72 132.096C113.738 131.993 113.745 131.891 113.752 131.785C113.763 131.633 113.802 131.464 113.791 131.312C113.816 131.647 113.787 132.008 113.915 132.325C114.006 132.551 114.158 132.777 114.377 132.901C114.592 133.021 114.864 133.007 115.101 133.035C114.914 133.014 114.621 133.063 114.444 133.134C114.218 133.222 114.066 133.434 113.96 133.646C113.802 133.96 113.819 134.334 113.791 134.677C113.833 134.147 113.713 133.452 113.208 133.169C112.997 133.053 112.714 133.06 112.481 133.035C112.689 133.06 113.014 133.003 113.205 132.911C113.452 132.795 113.6 132.523 113.682 132.272C113.703 132.212 113.713 132.152 113.724 132.092L113.72 132.096Z" fill="#8DA0D0" stroke="#8DA0D0" stroke-width="0.75" stroke-linecap="round" stroke-linejoin="round"/>
<path d="M118.19 128.703C118.19 128.922 118.01 129.102 117.791 129.102C117.572 129.102 117.392 128.922 117.392 128.703C117.392 128.484 117.572 128.304 117.791 128.304C118.01 128.304 118.19 128.484 118.19 128.703Z" fill="#8DA0D0" stroke="#8DA0D0" stroke-width="0.75" stroke-linecap="round" stroke-linejoin="round"/>
<path d="M111.637 119.247C111.637 119.385 111.528 119.494 111.39 119.494C111.253 119.494 111.143 119.385 111.143 119.247C111.143 119.109 111.253 119 111.39 119C111.528 119 111.637 119.109 111.637 119.247Z" fill="#8DA0D0" stroke="#8DA0D0" stroke-width="0.75" stroke-linecap="round" stroke-linejoin="round"/>
<path d="M109.78 128.671C109.882 128.671 109.964 128.589 109.964 128.487C109.964 128.386 109.882 128.304 109.78 128.304C109.679 128.304 109.597 128.386 109.597 128.487C109.597 128.589 109.679 128.671 109.78 128.671Z" fill="#8DA0D0" stroke="#8DA0D0" stroke-width="0.75" stroke-linecap="round" stroke-linejoin="round"/>
<path d="M119.648 135.351C119.779 135.351 119.885 135.245 119.885 135.115C119.885 134.984 119.779 134.878 119.648 134.878C119.517 134.878 119.412 134.984 119.412 135.115C119.412 135.245 119.517 135.351 119.648 135.351Z" fill="#8DA0D0" stroke="#8DA0D0" stroke-width="0.75" stroke-linecap="round" stroke-linejoin="round"/>
<path d="M105.978 134.151C105.978 134.292 105.861 134.408 105.72 134.408C105.579 134.408 105.462 134.292 105.462 134.151C105.462 134.009 105.579 133.893 105.72 133.893C105.861 133.893 105.978 134.009 105.978 134.151Z" fill="#8DA0D0" stroke="#8DA0D0" stroke-width="0.75" stroke-linecap="round" stroke-linejoin="round"/>
<path d="M110.451 137.766C110.535 137.766 110.603 137.698 110.603 137.614C110.603 137.531 110.535 137.463 110.451 137.463C110.367 137.463 110.299 137.531 110.299 137.614C110.299 137.698 110.367 137.766 110.451 137.766Z" fill="#8DA0D0" stroke="#8DA0D0" stroke-width="0.75" stroke-linecap="round" stroke-linejoin="round"/>
<path d="M114.998 144.108C114.998 144.224 114.903 144.319 114.787 144.319C114.67 144.319 114.575 144.224 114.575 144.108C114.575 143.991 114.67 143.896 114.787 143.896C114.903 143.896 114.998 143.991 114.998 144.108Z" fill="#8DA0D0" stroke="#8DA0D0" stroke-width="0.75" stroke-linecap="round" stroke-linejoin="round"/>
<path d="M120.588 140.962C120.588 141.001 120.556 141.032 120.517 141.032C120.478 141.032 120.446 141.001 120.446 140.962C120.446 140.923 120.478 140.891 120.517 140.891C120.556 140.891 120.588 140.923 120.588 140.962Z" fill="#8DA0D0" stroke="#8DA0D0" stroke-width="0.75" stroke-linecap="round" stroke-linejoin="round"/>
<path d="M105.191 141.996C105.224 141.996 105.251 141.969 105.251 141.936C105.251 141.903 105.224 141.876 105.191 141.876C105.158 141.876 105.131 141.903 105.131 141.936C105.131 141.969 105.158 141.996 105.191 141.996Z" fill="#8DA0D0" stroke="#8DA0D0" stroke-width="0.75" stroke-linecap="round" stroke-linejoin="round"/>
<path d="M105.261 124.932C105.261 125.002 105.205 125.062 105.131 125.062C105.056 125.062 105 125.006 105 124.932C105 124.858 105.056 124.801 105.131 124.801C105.205 124.801 105.261 124.858 105.261 124.932Z" fill="#8DA0D0" stroke="#8DA0D0" stroke-width="0.75" stroke-linecap="round" stroke-linejoin="round"/>
<path d="M118.321 122.277C118.321 122.347 118.264 122.407 118.19 122.407C118.116 122.407 118.059 122.351 118.059 122.277C118.059 122.202 118.116 122.146 118.19 122.146C118.264 122.146 118.321 122.202 118.321 122.277Z" fill="#8DA0D0" stroke="#8DA0D0" stroke-width="0.75" stroke-linecap="round" stroke-linejoin="round"/>
<path d="M121.69 129.928C121.69 129.928 121.686 129.939 121.679 129.939C121.671 129.939 121.668 129.936 121.668 129.928C121.668 129.921 121.671 129.917 121.679 129.917C121.686 129.917 121.69 129.921 121.69 129.928Z" fill="#8DA0D0" stroke="#8DA0D0" stroke-width="0.75" stroke-linecap="round" stroke-linejoin="round"/>
<path d="M113.791 127.643V138.352" stroke="#8DA0D0" stroke-width="0.75" stroke-linecap="round" stroke-linejoin="round"/>
<path d="M117.025 133H110.907" stroke="#8DA0D0" stroke-width="0.75" stroke-linecap="round" stroke-linejoin="round"/>
<path d="M233.72 67.0958C233.738 66.9934 233.745 66.891 233.752 66.7851C233.763 66.6333 233.802 66.4638 233.791 66.312C233.816 66.6474 233.787 67.0075 233.915 67.3253C234.006 67.5513 234.158 67.7772 234.377 67.9008C234.592 68.0209 234.864 68.0067 235.101 68.035C234.914 68.0138 234.624 68.0632 234.444 68.1338C234.218 68.2221 234.066 68.434 233.96 68.6458C233.802 68.9601 233.819 69.3343 233.791 69.6768C233.833 69.1472 233.713 68.4516 233.208 68.1692C232.997 68.0526 232.714 68.0597 232.481 68.035C232.689 68.0597 233.014 68.0032 233.205 67.9114C233.452 67.7949 233.6 67.523 233.682 67.2723C233.703 67.2123 233.713 67.1523 233.724 67.0923L233.72 67.0958Z" fill="#8DA0D0" stroke="#8DA0D0" stroke-width="0.75" stroke-linecap="round" stroke-linejoin="round"/>
<path d="M238.19 63.6991C238.19 63.9181 238.01 64.0981 237.791 64.0981C237.572 64.0981 237.392 63.9181 237.392 63.6991C237.392 63.4802 237.572 63.3002 237.791 63.3002C238.01 63.3002 238.19 63.4802 238.19 63.6991Z" fill="#8DA0D0" stroke="#8DA0D0" stroke-width="0.75" stroke-linecap="round" stroke-linejoin="round"/>
<path d="M231.637 54.2472C231.637 54.3849 231.528 54.4943 231.39 54.4943C231.253 54.4943 231.143 54.3849 231.143 54.2472C231.143 54.1095 231.253 54 231.39 54C231.528 54 231.637 54.1095 231.637 54.2472Z" fill="#8DA0D0" stroke="#8DA0D0" stroke-width="0.75" stroke-linecap="round" stroke-linejoin="round"/>
<path d="M229.78 63.6674C229.882 63.6674 229.964 63.5852 229.964 63.4838C229.964 63.3824 229.882 63.3002 229.78 63.3002C229.679 63.3002 229.597 63.3824 229.597 63.4838C229.597 63.5852 229.679 63.6674 229.78 63.6674Z" fill="#8DA0D0" stroke="#8DA0D0" stroke-width="0.75" stroke-linecap="round" stroke-linejoin="round"/>
<path d="M239.881 70.1111C239.881 70.2417 239.775 70.3477 239.645 70.3477C239.514 70.3477 239.408 70.2417 239.408 70.1111C239.408 69.9805 239.514 69.8745 239.645 69.8745C239.775 69.8745 239.881 69.9805 239.881 70.1111Z" fill="#8DA0D0" stroke="#8DA0D0" stroke-width="0.75" stroke-linecap="round" stroke-linejoin="round"/>
<path d="M225.978 69.1472C225.978 69.2884 225.861 69.4049 225.72 69.4049C225.579 69.4049 225.463 69.2884 225.463 69.1472C225.463 69.006 225.579 68.8894 225.72 68.8894C225.861 68.8894 225.978 69.006 225.978 69.1472Z" fill="#8DA0D0" stroke="#8DA0D0" stroke-width="0.75" stroke-linecap="round" stroke-linejoin="round"/>
<path d="M230.606 72.6145C230.606 72.6992 230.539 72.7663 230.455 72.7663C230.37 72.7663 230.303 72.6992 230.303 72.6145C230.303 72.5297 230.37 72.4626 230.455 72.4626C230.539 72.4626 230.606 72.5297 230.606 72.6145Z" fill="#8DA0D0" stroke="#8DA0D0" stroke-width="0.75" stroke-linecap="round" stroke-linejoin="round"/>
<path d="M234.787 79.3195C234.904 79.3195 234.998 79.2246 234.998 79.1076C234.998 78.9906 234.904 78.8958 234.787 78.8958C234.67 78.8958 234.575 78.9906 234.575 79.1076C234.575 79.2246 234.67 79.3195 234.787 79.3195Z" fill="#8DA0D0" stroke="#8DA0D0" stroke-width="0.75" stroke-linecap="round" stroke-linejoin="round"/>
<path d="M240.588 75.9617C240.588 76.0005 240.556 76.0323 240.517 76.0323C240.478 76.0323 240.446 76.0005 240.446 75.9617C240.446 75.9228 240.478 75.891 240.517 75.891C240.556 75.891 240.588 75.9228 240.588 75.9617Z" fill="#8DA0D0" stroke="#8DA0D0" stroke-width="0.75" stroke-linecap="round" stroke-linejoin="round"/>
<path d="M225.251 76.9362C225.251 76.9679 225.226 76.9962 225.191 76.9962C225.155 76.9962 225.131 76.9715 225.131 76.9362C225.131 76.9009 225.155 76.8761 225.191 76.8761C225.226 76.8761 225.251 76.9009 225.251 76.9362Z" fill="#8DA0D0" stroke="#8DA0D0" stroke-width="0.75" stroke-linecap="round" stroke-linejoin="round"/>
<path d="M225.261 59.9318C225.261 60.0024 225.205 60.0624 225.131 60.0624C225.057 60.0624 225 60.0059 225 59.9318C225 59.8576 225.057 59.8011 225.131 59.8011C225.205 59.8011 225.261 59.8576 225.261 59.9318Z" fill="#8DA0D0" stroke="#8DA0D0" stroke-width="0.75" stroke-linecap="round" stroke-linejoin="round"/>
<path d="M238.321 57.2766C238.321 57.3472 238.264 57.4072 238.19 57.4072C238.116 57.4072 238.059 57.3507 238.059 57.2766C238.059 57.2024 238.116 57.146 238.19 57.146C238.264 57.146 238.321 57.2024 238.321 57.2766Z" fill="#8DA0D0" stroke="#8DA0D0" stroke-width="0.75" stroke-linecap="round" stroke-linejoin="round"/>
<path d="M241.69 64.9283C241.69 64.9283 241.686 64.9394 241.679 64.9394C241.671 64.9394 241.668 64.9357 241.668 64.9283C241.668 64.921 241.671 64.9173 241.679 64.9173C241.686 64.9173 241.69 64.921 241.69 64.9283Z" fill="#8DA0D0" stroke="#8DA0D0" stroke-width="0.75" stroke-linecap="round" stroke-linejoin="round"/>
<path d="M233.787 62.6399V73.3524" stroke="#8DA0D0" stroke-width="0.75" stroke-linecap="round" stroke-linejoin="round"/>
<path d="M237.025 67.9961H230.907" stroke="#8DA0D0" stroke-width="0.75" stroke-linecap="round" stroke-linejoin="round"/>
<path d="M219.75 125.362C219.767 125.259 219.774 125.157 219.781 125.051C219.792 124.899 219.831 124.729 219.82 124.578C219.845 124.913 219.817 125.273 219.944 125.591C220.036 125.817 220.187 126.043 220.406 126.167C220.622 126.287 220.894 126.276 221.13 126.301C220.943 126.28 220.653 126.329 220.473 126.4C220.247 126.488 220.096 126.7 219.99 126.912C219.831 127.226 219.849 127.6 219.82 127.943C219.863 127.413 219.743 126.717 219.238 126.435C219.026 126.318 218.743 126.325 218.51 126.301C218.719 126.325 219.044 126.269 219.234 126.177C219.481 126.061 219.63 125.789 219.711 125.538C219.732 125.478 219.743 125.418 219.753 125.358L219.75 125.362Z" fill="#8DA0D0" stroke="#8DA0D0" stroke-width="0.75" stroke-linecap="round" stroke-linejoin="round"/>
<path d="M224.223 121.965C224.223 122.184 224.043 122.364 223.824 122.364C223.605 122.364 223.425 122.184 223.425 121.965C223.425 121.746 223.605 121.566 223.824 121.566C224.043 121.566 224.223 121.746 224.223 121.965Z" fill="#8DA0D0" stroke="#8DA0D0" stroke-width="0.75" stroke-linecap="round" stroke-linejoin="round"/>
<path d="M217.67 112.513C217.67 112.651 217.561 112.76 217.423 112.76C217.285 112.76 217.176 112.651 217.176 112.513C217.176 112.375 217.285 112.266 217.423 112.266C217.561 112.266 217.67 112.375 217.67 112.513Z" fill="#8DA0D0" stroke="#8DA0D0" stroke-width="0.75" stroke-linecap="round" stroke-linejoin="round"/>
<path d="M215.81 121.933C215.911 121.933 215.993 121.851 215.993 121.749C215.993 121.648 215.911 121.566 215.81 121.566C215.708 121.566 215.626 121.648 215.626 121.749C215.626 121.851 215.708 121.933 215.81 121.933Z" fill="#8DA0D0" stroke="#8DA0D0" stroke-width="0.75" stroke-linecap="round" stroke-linejoin="round"/>
<path d="M225.677 128.613C225.808 128.613 225.914 128.507 225.914 128.377C225.914 128.246 225.808 128.14 225.677 128.14C225.547 128.14 225.441 128.246 225.441 128.377C225.441 128.507 225.547 128.613 225.677 128.613Z" fill="#8DA0D0" stroke="#8DA0D0" stroke-width="0.75" stroke-linecap="round" stroke-linejoin="round"/>
<path d="M212.011 127.416C212.011 127.558 211.894 127.674 211.753 127.674C211.612 127.674 211.495 127.558 211.495 127.416C211.495 127.275 211.612 127.159 211.753 127.159C211.894 127.159 212.011 127.275 212.011 127.416Z" fill="#8DA0D0" stroke="#8DA0D0" stroke-width="0.75" stroke-linecap="round" stroke-linejoin="round"/>
<path d="M216.484 131.032C216.568 131.032 216.636 130.964 216.636 130.88C216.636 130.796 216.568 130.728 216.484 130.728C216.4 130.728 216.332 130.796 216.332 130.88C216.332 130.964 216.4 131.032 216.484 131.032Z" fill="#8DA0D0" stroke="#8DA0D0" stroke-width="0.75" stroke-linecap="round" stroke-linejoin="round"/>
<path d="M221.028 137.373C221.028 137.49 220.932 137.585 220.816 137.585C220.699 137.585 220.604 137.49 220.604 137.373C220.604 137.257 220.699 137.161 220.816 137.161C220.932 137.161 221.028 137.257 221.028 137.373Z" fill="#8DA0D0" stroke="#8DA0D0" stroke-width="0.75" stroke-linecap="round" stroke-linejoin="round"/>
<path d="M226.617 134.227C226.617 134.266 226.585 134.298 226.546 134.298C226.507 134.298 226.475 134.266 226.475 134.227C226.475 134.189 226.507 134.157 226.546 134.157C226.585 134.157 226.617 134.189 226.617 134.227Z" fill="#8DA0D0" stroke="#8DA0D0" stroke-width="0.75" stroke-linecap="round" stroke-linejoin="round"/>
<path d="M211.281 135.202C211.281 135.234 211.256 135.262 211.22 135.262C211.185 135.262 211.16 135.237 211.16 135.202C211.16 135.167 211.185 135.142 211.22 135.142C211.256 135.142 211.281 135.167 211.281 135.202Z" fill="#8DA0D0" stroke="#8DA0D0" stroke-width="0.75" stroke-linecap="round" stroke-linejoin="round"/>
<path d="M211.294 118.197C211.294 118.268 211.238 118.328 211.164 118.328C211.089 118.328 211.033 118.272 211.033 118.197C211.033 118.123 211.089 118.067 211.164 118.067C211.238 118.067 211.294 118.123 211.294 118.197Z" fill="#8DA0D0" stroke="#8DA0D0" stroke-width="0.75" stroke-linecap="round" stroke-linejoin="round"/>
<path d="M224.35 115.542C224.35 115.613 224.293 115.673 224.219 115.673C224.145 115.673 224.089 115.616 224.089 115.542C224.089 115.468 224.145 115.412 224.219 115.412C224.293 115.412 224.35 115.468 224.35 115.542Z" fill="#8DA0D0" stroke="#8DA0D0" stroke-width="0.75" stroke-linecap="round" stroke-linejoin="round"/>
<path d="M227.719 123.194C227.719 123.194 227.715 123.205 227.708 123.205C227.701 123.205 227.697 123.201 227.697 123.194C227.697 123.187 227.701 123.183 227.708 123.183C227.715 123.183 227.719 123.187 227.719 123.194Z" fill="#8DA0D0" stroke="#8DA0D0" stroke-width="0.75" stroke-linecap="round" stroke-linejoin="round"/>
<path d="M219.82 120.909V131.618" stroke="#8DA0D0" stroke-width="0.75" stroke-linecap="round" stroke-linejoin="round"/>
<path d="M223.054 126.262H216.939" stroke="#8DA0D0" stroke-width="0.75" stroke-linecap="round" stroke-linejoin="round"/>
<path d="M126.301 33.2955C126.318 33.1932 126.325 33.0908 126.333 32.9848C126.343 32.833 126.382 32.6635 126.371 32.5117C126.396 32.8471 126.368 33.2073 126.495 33.525C126.587 33.751 126.739 33.977 126.957 34.1006C127.173 34.2206 127.445 34.2065 127.681 34.2347C127.494 34.2136 127.205 34.263 127.025 34.3336C126.799 34.4219 126.647 34.6337 126.541 34.8456C126.382 35.1598 126.4 35.5341 126.371 35.8766C126.414 35.3469 126.294 34.6514 125.789 34.3689C125.577 34.2524 125.295 34.2595 125.062 34.2347C125.27 34.2595 125.595 34.203 125.785 34.1112C126.032 33.9946 126.181 33.7228 126.262 33.4721C126.283 33.4121 126.294 33.352 126.304 33.292L126.301 33.2955Z" fill="#8DA0D0" stroke="#8DA0D0" stroke-width="0.75" stroke-linecap="round" stroke-linejoin="round"/>
<path d="M130.774 29.8989C130.774 30.1178 130.594 30.2979 130.375 30.2979C130.156 30.2979 129.976 30.1178 129.976 29.8989C129.976 29.68 130.156 29.4999 130.375 29.4999C130.594 29.4999 130.774 29.68 130.774 29.8989Z" fill="#8DA0D0" stroke="#8DA0D0" stroke-width="0.75" stroke-linecap="round" stroke-linejoin="round"/>
<path d="M124.221 20.4434C124.221 20.5811 124.112 20.6905 123.974 20.6905C123.836 20.6905 123.727 20.5811 123.727 20.4434C123.727 20.3057 123.836 20.1962 123.974 20.1962C124.112 20.1962 124.221 20.3057 124.221 20.4434Z" fill="#8DA0D0" stroke="#8DA0D0" stroke-width="0.75" stroke-linecap="round" stroke-linejoin="round"/>
<path d="M122.544 29.6835C122.544 29.7859 122.463 29.8671 122.361 29.8671C122.258 29.8671 122.177 29.7859 122.177 29.6835C122.177 29.5811 122.258 29.4999 122.361 29.4999C122.463 29.4999 122.544 29.5811 122.544 29.6835Z" fill="#8DA0D0" stroke="#8DA0D0" stroke-width="0.75" stroke-linecap="round" stroke-linejoin="round"/>
<path d="M132.228 36.5474C132.359 36.5474 132.465 36.4415 132.465 36.3109C132.465 36.1802 132.359 36.0743 132.228 36.0743C132.098 36.0743 131.992 36.1802 131.992 36.3109C131.992 36.4415 132.098 36.5474 132.228 36.5474Z" fill="#8DA0D0" stroke="#8DA0D0" stroke-width="0.75" stroke-linecap="round" stroke-linejoin="round"/>
<path d="M118.562 35.347C118.562 35.4882 118.445 35.6047 118.304 35.6047C118.163 35.6047 118.046 35.4882 118.046 35.347C118.046 35.2057 118.163 35.0892 118.304 35.0892C118.445 35.0892 118.562 35.2057 118.562 35.347Z" fill="#8DA0D0" stroke="#8DA0D0" stroke-width="0.75" stroke-linecap="round" stroke-linejoin="round"/>
<path d="M123.187 38.8107C123.187 38.8954 123.12 38.9625 123.035 38.9625C122.95 38.9625 122.883 38.8954 122.883 38.8107C122.883 38.7259 122.95 38.6588 123.035 38.6588C123.12 38.6588 123.187 38.7259 123.187 38.8107Z" fill="#8DA0D0" stroke="#8DA0D0" stroke-width="0.75" stroke-linecap="round" stroke-linejoin="round"/>
<path d="M127.579 45.3074C127.579 45.4239 127.483 45.5192 127.367 45.5192C127.25 45.5192 127.155 45.4239 127.155 45.3074C127.155 45.1909 127.25 45.0955 127.367 45.0955C127.483 45.0955 127.579 45.1909 127.579 45.3074Z" fill="#8DA0D0" stroke="#8DA0D0" stroke-width="0.75" stroke-linecap="round" stroke-linejoin="round"/>
<path d="M133.168 42.1579C133.168 42.1967 133.136 42.2285 133.097 42.2285C133.058 42.2285 133.026 42.1967 133.026 42.1579C133.026 42.119 133.058 42.0873 133.097 42.0873C133.136 42.0873 133.168 42.119 133.168 42.1579Z" fill="#8DA0D0" stroke="#8DA0D0" stroke-width="0.75" stroke-linecap="round" stroke-linejoin="round"/>
<path d="M117.775 43.1924C117.808 43.1924 117.835 43.1655 117.835 43.1324C117.835 43.0992 117.808 43.0724 117.775 43.0724C117.742 43.0724 117.715 43.0992 117.715 43.1324C117.715 43.1655 117.742 43.1924 117.775 43.1924Z" fill="#8DA0D0" stroke="#8DA0D0" stroke-width="0.75" stroke-linecap="round" stroke-linejoin="round"/>
<path d="M117.715 26.2586C117.787 26.2586 117.845 26.2002 117.845 26.128C117.845 26.0559 117.787 25.9974 117.715 25.9974C117.642 25.9974 117.584 26.0559 117.584 26.128C117.584 26.2002 117.642 26.2586 117.715 26.2586Z" fill="#8DA0D0" stroke="#8DA0D0" stroke-width="0.75" stroke-linecap="round" stroke-linejoin="round"/>
<path d="M130.774 23.607C130.846 23.607 130.905 23.5485 130.905 23.4764C130.905 23.4042 130.846 23.3457 130.774 23.3457C130.702 23.3457 130.643 23.4042 130.643 23.4764C130.643 23.5485 130.702 23.607 130.774 23.607Z" fill="#8DA0D0" stroke="#8DA0D0" stroke-width="0.75" stroke-linecap="round" stroke-linejoin="round"/>
<path d="M134.27 31.1281C134.27 31.1281 134.266 31.1391 134.259 31.1391C134.252 31.1391 134.248 31.1354 134.248 31.1281C134.248 31.1207 134.252 31.117 134.259 31.117C134.266 31.117 134.27 31.1207 134.27 31.1281Z" fill="#8DA0D0" stroke="#8DA0D0" stroke-width="0.75" stroke-linecap="round" stroke-linejoin="round"/>
<path d="M126.371 28.8397V39.5521" stroke="#8DA0D0" stroke-width="0.75" stroke-linecap="round" stroke-linejoin="round"/>
<path d="M129.605 34.1959H123.49" stroke="#8DA0D0" stroke-width="0.75" stroke-linecap="round" stroke-linejoin="round"/>
<path d="M90.8474 79.7258C90.8651 79.6234 90.8722 79.521 90.8792 79.415C90.8898 79.2632 90.9286 79.0937 90.918 78.9419C90.9428 79.2773 90.9145 79.6375 91.0416 79.9553C91.1334 80.1812 91.2852 80.4072 91.5041 80.5308C91.7195 80.6508 91.9913 80.6367 92.2279 80.6649C92.0407 80.6438 91.7477 80.6932 91.5712 80.7638C91.3452 80.8521 91.1934 81.0639 91.0875 81.2758C90.9286 81.59 90.9463 81.9643 90.918 82.3068C90.9604 81.7772 90.8404 81.0816 90.3355 80.7991C90.1237 80.6826 89.8412 80.6897 89.6082 80.6649C89.8165 80.6897 90.1413 80.6332 90.332 80.5414C90.5791 80.4249 90.7274 80.153 90.8086 79.9023C90.8298 79.8423 90.8404 79.7822 90.851 79.7222L90.8474 79.7258Z" fill="#8DA0D0" stroke="#8DA0D0" stroke-width="0.75" stroke-linecap="round" stroke-linejoin="round"/>
<path d="M95.3206 76.3326C95.3206 76.5515 95.1405 76.7316 94.9216 76.7316C94.7027 76.7316 94.5227 76.5515 94.5227 76.3326C94.5227 76.1137 94.7027 75.9337 94.9216 75.9337C95.1405 75.9337 95.3206 76.1137 95.3206 76.3326Z" fill="#8DA0D0" stroke="#8DA0D0" stroke-width="0.75" stroke-linecap="round" stroke-linejoin="round"/>
<path d="M88.768 66.8771C88.768 67.0148 88.6585 67.1243 88.5208 67.1243C88.3831 67.1243 88.2737 67.0148 88.2737 66.8771C88.2737 66.7394 88.3831 66.63 88.5208 66.63C88.6585 66.63 88.768 66.7394 88.768 66.8771Z" fill="#8DA0D0" stroke="#8DA0D0" stroke-width="0.75" stroke-linecap="round" stroke-linejoin="round"/>
<path d="M86.9074 76.3009C87.0088 76.3009 87.091 76.2187 87.091 76.1173C87.091 76.0159 87.0088 75.9337 86.9074 75.9337C86.806 75.9337 86.7238 76.0159 86.7238 76.1173C86.7238 76.2187 86.806 76.3009 86.9074 76.3009Z" fill="#8DA0D0" stroke="#8DA0D0" stroke-width="0.75" stroke-linecap="round" stroke-linejoin="round"/>
<path d="M96.7751 82.9812C96.9058 82.9812 97.0117 82.8752 97.0117 82.7446C97.0117 82.6139 96.9058 82.508 96.7751 82.508C96.6445 82.508 96.5386 82.6139 96.5386 82.7446C96.5386 82.8752 96.6445 82.9812 96.7751 82.9812Z" fill="#8DA0D0" stroke="#8DA0D0" stroke-width="0.75" stroke-linecap="round" stroke-linejoin="round"/>
<path d="M83.1086 81.7807C83.1086 81.9219 82.9921 82.0384 82.8508 82.0384C82.7096 82.0384 82.5931 81.9219 82.5931 81.7807C82.5931 81.6394 82.7096 81.5229 82.8508 81.5229C82.9921 81.5229 83.1086 81.6394 83.1086 81.7807Z" fill="#8DA0D0" stroke="#8DA0D0" stroke-width="0.75" stroke-linecap="round" stroke-linejoin="round"/>
<path d="M87.7335 85.2444C87.7335 85.3291 87.6664 85.3962 87.5817 85.3962C87.497 85.3962 87.4299 85.3291 87.4299 85.2444C87.4299 85.1597 87.497 85.0926 87.5817 85.0926C87.6664 85.0926 87.7335 85.1597 87.7335 85.2444Z" fill="#8DA0D0" stroke="#8DA0D0" stroke-width="0.75" stroke-linecap="round" stroke-linejoin="round"/>
<path d="M92.1255 91.7376C92.1255 91.8541 92.0301 91.9494 91.9136 91.9494C91.7971 91.9494 91.7018 91.8541 91.7018 91.7376C91.7018 91.6211 91.7971 91.5257 91.9136 91.5257C92.0301 91.5257 92.1255 91.6211 92.1255 91.7376Z" fill="#8DA0D0" stroke="#8DA0D0" stroke-width="0.75" stroke-linecap="round" stroke-linejoin="round"/>
<path d="M97.7151 88.5916C97.7151 88.6305 97.6831 88.6622 97.6441 88.6622C97.605 88.6622 97.573 88.6305 97.573 88.5916C97.573 88.5528 97.605 88.521 97.6441 88.521C97.6831 88.521 97.7151 88.5528 97.7151 88.5916Z" fill="#8DA0D0" stroke="#8DA0D0" stroke-width="0.75" stroke-linecap="round" stroke-linejoin="round"/>
<path d="M82.3784 89.5661C82.3784 89.5979 82.3536 89.6261 82.3181 89.6261C82.2826 89.6261 82.2577 89.6014 82.2577 89.5661C82.2577 89.5308 82.2826 89.5061 82.3181 89.5061C82.3536 89.5061 82.3784 89.5308 82.3784 89.5661Z" fill="#8DA0D0" stroke="#8DA0D0" stroke-width="0.75" stroke-linecap="round" stroke-linejoin="round"/>
<path d="M82.3919 72.5617C82.3919 72.6323 82.3354 72.6924 82.2612 72.6924C82.1871 72.6924 82.1306 72.6359 82.1306 72.5617C82.1306 72.4876 82.1871 72.4311 82.2612 72.4311C82.3354 72.4311 82.3919 72.4876 82.3919 72.5617Z" fill="#8DA0D0" stroke="#8DA0D0" stroke-width="0.75" stroke-linecap="round" stroke-linejoin="round"/>
<path d="M95.3206 70.0372C95.3927 70.0372 95.4512 69.9787 95.4512 69.9066C95.4512 69.8344 95.3927 69.7759 95.3206 69.7759C95.2484 69.7759 95.19 69.8344 95.19 69.9066C95.19 69.9787 95.2484 70.0372 95.3206 70.0372Z" fill="#8DA0D0" stroke="#8DA0D0" stroke-width="0.75" stroke-linecap="round" stroke-linejoin="round"/>
<path d="M98.8168 77.5583C98.8168 77.5583 98.8131 77.5693 98.8057 77.5693C98.7983 77.5693 98.7946 77.5657 98.7946 77.5583C98.7946 77.5509 98.7983 77.5472 98.8057 77.5472C98.8131 77.5472 98.8168 77.5509 98.8168 77.5583Z" fill="#8DA0D0" stroke="#8DA0D0" stroke-width="0.75" stroke-linecap="round" stroke-linejoin="round"/>
<path d="M90.918 75.2734V85.9823" stroke="#8DA0D0" stroke-width="0.75" stroke-linecap="round" stroke-linejoin="round"/>
<path d="M94.152 80.6296H88.0372" stroke="#8DA0D0" stroke-width="0.75" stroke-linecap="round" stroke-linejoin="round"/>
<path d="M230.72 21.0958C230.738 20.9934 230.745 20.891 230.752 20.7851C230.763 20.6333 230.802 20.4638 230.791 20.312C230.816 20.6474 230.787 21.0075 230.915 21.3253C231.006 21.5513 231.158 21.7772 231.377 21.9008C231.592 22.0209 231.864 22.0103 232.101 22.035C231.914 22.0138 231.624 22.0632 231.444 22.1339C231.218 22.2221 231.066 22.434 230.96 22.6458C230.802 22.9601 230.819 23.3343 230.791 23.6768C230.833 23.1472 230.713 22.4516 230.208 22.1692C229.997 22.0526 229.714 22.0597 229.481 22.035C229.689 22.0597 230.014 22.0032 230.205 21.9114C230.452 21.7949 230.6 21.523 230.682 21.2723C230.703 21.2123 230.713 21.1523 230.724 21.0923L230.72 21.0958Z" fill="#8DA0D0" stroke="#8DA0D0" stroke-width="0.75" stroke-linecap="round" stroke-linejoin="round"/>
<path d="M235.19 17.7027C235.19 17.9216 235.01 18.1017 234.791 18.1017C234.572 18.1017 234.392 17.9216 234.392 17.7027C234.392 17.4838 234.572 17.3037 234.791 17.3037C235.01 17.3037 235.19 17.4838 235.19 17.7027Z" fill="#8DA0D0" stroke="#8DA0D0" stroke-width="0.75" stroke-linecap="round" stroke-linejoin="round"/>
<path d="M228.641 8.24716C228.641 8.38486 228.531 8.49431 228.394 8.49431C228.256 8.49431 228.147 8.38486 228.147 8.24716C228.147 8.10946 228.256 8 228.394 8C228.531 8 228.641 8.10946 228.641 8.24716Z" fill="#8DA0D0" stroke="#8DA0D0" stroke-width="0.75" stroke-linecap="round" stroke-linejoin="round"/>
<path d="M226.78 17.6709C226.882 17.6709 226.964 17.5887 226.964 17.4873C226.964 17.3859 226.882 17.3037 226.78 17.3037C226.679 17.3037 226.597 17.3859 226.597 17.4873C226.597 17.5887 226.679 17.6709 226.78 17.6709Z" fill="#8DA0D0" stroke="#8DA0D0" stroke-width="0.75" stroke-linecap="round" stroke-linejoin="round"/>
<path d="M236.881 24.1146C236.881 24.2453 236.775 24.3512 236.645 24.3512C236.514 24.3512 236.408 24.2453 236.408 24.1146C236.408 23.984 236.514 23.8781 236.645 23.8781C236.775 23.8781 236.881 23.984 236.881 24.1146Z" fill="#8DA0D0" stroke="#8DA0D0" stroke-width="0.75" stroke-linecap="round" stroke-linejoin="round"/>
<path d="M222.978 23.1507C222.978 23.292 222.861 23.4085 222.72 23.4085C222.579 23.4085 222.462 23.292 222.462 23.1507C222.462 23.0095 222.579 22.893 222.72 22.893C222.861 22.893 222.978 23.0095 222.978 23.1507Z" fill="#8DA0D0" stroke="#8DA0D0" stroke-width="0.75" stroke-linecap="round" stroke-linejoin="round"/>
<path d="M227.606 26.6144C227.606 26.6992 227.539 26.7663 227.455 26.7663C227.37 26.7663 227.303 26.6992 227.303 26.6144C227.303 26.5297 227.37 26.4626 227.455 26.4626C227.539 26.4626 227.606 26.5297 227.606 26.6144Z" fill="#8DA0D0" stroke="#8DA0D0" stroke-width="0.75" stroke-linecap="round" stroke-linejoin="round"/>
<path d="M231.998 33.1111C231.998 33.2277 231.903 33.323 231.787 33.323C231.67 33.323 231.575 33.2277 231.575 33.1111C231.575 32.9946 231.67 32.8993 231.787 32.8993C231.903 32.8993 231.998 32.9946 231.998 33.1111Z" fill="#8DA0D0" stroke="#8DA0D0" stroke-width="0.75" stroke-linecap="round" stroke-linejoin="round"/>
<path d="M237.588 29.9617C237.588 30.0005 237.556 30.0323 237.517 30.0323C237.478 30.0323 237.446 30.0005 237.446 29.9617C237.446 29.9228 237.478 29.8911 237.517 29.8911C237.556 29.8911 237.588 29.9228 237.588 29.9617Z" fill="#8DA0D0" stroke="#8DA0D0" stroke-width="0.75" stroke-linecap="round" stroke-linejoin="round"/>
<path d="M222.195 30.9962C222.228 30.9962 222.255 30.9693 222.255 30.9362C222.255 30.903 222.228 30.8761 222.195 30.8761C222.161 30.8761 222.134 30.903 222.134 30.9362C222.134 30.9693 222.161 30.9962 222.195 30.9962Z" fill="#8DA0D0" stroke="#8DA0D0" stroke-width="0.75" stroke-linecap="round" stroke-linejoin="round"/>
<path d="M222.261 13.9318C222.261 14.0024 222.205 14.0624 222.131 14.0624C222.056 14.0624 222 14.0059 222 13.9318C222 13.8576 222.056 13.8011 222.131 13.8011C222.205 13.8011 222.261 13.8576 222.261 13.9318Z" fill="#8DA0D0" stroke="#8DA0D0" stroke-width="0.75" stroke-linecap="round" stroke-linejoin="round"/>
<path d="M235.321 11.2766C235.321 11.3472 235.264 11.4072 235.19 11.4072C235.116 11.4072 235.059 11.3507 235.059 11.2766C235.059 11.2024 235.116 11.146 235.19 11.146C235.264 11.146 235.321 11.2024 235.321 11.2766Z" fill="#8DA0D0" stroke="#8DA0D0" stroke-width="0.75" stroke-linecap="round" stroke-linejoin="round"/>
<path d="M238.69 18.9319C238.69 18.9319 238.686 18.9429 238.679 18.9429C238.671 18.9429 238.668 18.9392 238.668 18.9319C238.668 18.9245 238.671 18.9208 238.679 18.9208C238.686 18.9208 238.69 18.9245 238.69 18.9319Z" fill="#8DA0D0" stroke="#8DA0D0" stroke-width="0.75" stroke-linecap="round" stroke-linejoin="round"/>
<path d="M230.791 16.6434V27.3559" stroke="#8DA0D0" stroke-width="0.75" stroke-linecap="round" stroke-linejoin="round"/>
<path d="M234.025 21.9997H227.907" stroke="#8DA0D0" stroke-width="0.75" stroke-linecap="round" stroke-linejoin="round"/>
<g clip-path="url(#clip0_8_1768)">
<path d="M199.542 44.1874C199.328 46.7417 199.068 49.296 198.766 51.8412C198.503 54.0639 198.209 56.2836 197.888 58.5002C197.61 60.4313 196.959 62.5957 197.518 64.5268C197.659 65.015 198.222 65.7273 198.729 65.2545C199.203 64.8154 199.402 63.4001 199.582 62.7861C200.132 60.9133 200.334 58.9638 200.829 57.0972C201.848 53.2688 202.804 49.425 203.627 45.5505C203.951 44.0308 204.355 42.4957 204.624 40.973C204.905 39.3826 205.192 37.7893 205.724 36.2603C206.761 33.2854 209.317 29.5491 212.982 30.9183C214.667 31.5477 215.685 33.1718 215.865 34.9187C216.379 39.8708 215.291 45.0992 214.584 49.9929C213.848 55.12 212.979 60.2287 211.983 65.3097C210.87 70.9986 209.262 76.577 208.503 82.3304C208.158 84.9462 207.898 87.5711 207.724 90.2022C207.546 92.8793 207.919 95.9126 207.418 98.5283C206.501 103.339 205.015 108.454 203.052 112.955C202.224 114.858 201.774 116.885 200.988 118.754C200.077 120.922 199.013 122.988 198.231 125.217C197.815 126.402 197.442 127.602 197.109 128.812C196.225 132.042 195.644 135.354 195.381 138.695C195.167 141.402 195.167 144.119 195.176 146.833C195.183 148.866 194.045 150.456 192.137 151.261C190.487 151.954 188.658 152.096 186.943 152.614C184.95 153.216 183.118 154.318 181.082 154.757C179.135 155.178 177.111 154.969 175.13 154.727C170.25 154.128 164.533 152.099 159.806 154.26C159.054 154.604 158.094 155.025 157.486 154.46C157.171 154.168 157.091 153.704 157.039 153.278C156.651 150.076 156.825 147.067 156.162 143.902C155.526 140.865 155.489 137.761 154.826 134.719C153.309 127.771 149.867 121.37 144.929 116.264C140.539 111.724 136.898 106.161 135.118 100.005C133.504 94.4144 131.104 88.9527 128.939 83.5155C128.921 83.4664 128.9 83.4172 128.881 83.3681C127.487 79.8467 126.325 76.2823 123.448 73.6696C122.225 72.5583 121.061 71.3241 120.113 69.9517C117.835 66.6422 119.134 63.0256 123.094 62.1936C126.548 61.469 129.893 62.4607 132.819 64.3242C135.641 66.1233 138.111 68.8526 140.273 71.3947C142.826 74.3942 144.241 77.6485 146.033 81.1055C146.525 82.0541 147.115 83.0089 148.042 83.537C150.414 84.8878 152.524 82.2168 152.86 80.1199C153.444 76.5003 152.462 72.7455 152.215 69.1351C151.918 64.7909 151.622 60.4467 151.322 56.0994C150.912 50.0912 150.5 44.0799 150.09 38.0717C149.741 32.9815 149.53 27.9219 149.381 22.8255C149.32 20.7808 149.619 18.6011 150.925 17.0292C152.655 14.9507 156.932 13.302 159.28 15.1748C160.919 16.4827 161.582 19.7155 162.078 21.6742C162.766 24.3944 162.79 27.1114 163.188 29.8592C163.588 32.6253 163.995 35.4253 164.337 38.2191C164.722 41.3721 165.111 44.5251 165.496 47.6812C165.704 49.3697 165.808 51.0736 166.071 52.756C166.242 53.8429 166.517 54.9113 166.777 55.9797C166.911 56.5231 167.04 57.0695 167.153 57.6191C167.226 57.9752 167.214 58.666 167.596 58.8564C167.651 58.884 167.722 58.8963 167.774 58.8625C167.835 58.8195 167.841 58.7336 167.841 58.6568C167.835 57.4257 167.816 56.1946 167.783 54.9604C167.74 53.3731 167.694 51.7859 167.645 50.2017C167.615 49.2131 167.569 48.2246 167.569 47.2391C167.569 47.2329 167.569 47.2268 167.569 47.2206C167.578 44.8198 167.63 42.422 167.722 40.0243C167.795 38.1331 167.835 36.2757 168.055 34.4029C168.293 32.3613 168.483 30.3105 168.465 28.2535C168.455 27.1513 168.385 26.0522 168.354 24.95C168.287 22.5093 168.41 20.0655 168.724 17.6463C168.945 15.9362 169.269 14.22 169.966 12.645C170.663 11.0701 171.766 9.63019 173.268 8.78898C173.864 8.45434 174.215 8.36838 174.867 8.16575C176.936 7.52717 179.538 8.75214 180.391 10.7569C181.822 14.1187 181.544 18.4905 181.798 22.0918C182.085 26.1996 182.308 30.3105 182.47 34.4244C182.614 38.1024 182.706 41.7835 182.748 45.4645C182.77 47.4908 182.452 49.4925 182.247 51.5034C182.14 52.5473 182.064 53.5973 182.082 54.6472C182.097 55.4946 182.015 56.4954 182.314 57.2998C182.366 57.438 182.44 57.5792 182.574 57.6345C182.816 57.7296 183.063 57.4748 183.118 57.22C183.614 54.899 183.718 52.4306 184.139 50.0758C184.586 47.5952 185.109 45.1268 185.628 42.6584C186.604 38.0195 187.292 33.3437 188.163 28.6864C188.563 26.5465 188.97 24.3882 189.389 22.2668C189.948 19.4238 191.324 15.4695 194.363 14.4718C195.335 14.1525 196.409 14.1586 197.384 14.4718C198.319 14.7726 198.894 15.5494 199.322 16.4213C200.884 19.5896 200.331 23.5838 200.285 26.9947C200.236 30.8201 200.132 34.6424 199.924 38.4616C199.821 40.3712 199.689 42.2778 199.527 44.1812L199.542 44.1874Z" fill="white"/>
<path d="M212.032 31.9407C207.369 31.2868 206.455 37.6849 205.587 40.8625C203.963 46.8062 202.957 52.8973 201.417 58.8595C201.096 60.0998 199.628 67.7628 197.577 66.4641C196.827 65.9883 196.913 64.2107 196.892 63.48C196.846 61.8866 196.953 60.2871 197.09 58.6998C197.347 55.7587 197.775 52.839 198.167 49.9132C198.83 44.9396 198.952 39.8493 199.096 34.8389C199.185 31.7166 199.481 28.6097 199.652 25.4904C199.793 22.9146 200.065 20.0901 199.227 17.6002C198.564 15.6292 197.399 14.6437 195.293 15.0858C193.776 15.4051 192.572 16.406 191.728 17.6801C189.854 20.5138 189.416 24.1212 188.888 27.4031C187.912 33.4881 187.056 39.5914 186.001 45.6641C185.436 48.9369 184.834 52.2004 184.195 55.4578C184.026 56.3143 183.886 59.2893 182.614 59.1788C181.914 59.1174 181.798 58.2823 181.715 57.7205C181.504 56.2437 181.685 54.7056 181.788 53.2258C181.947 50.9324 181.831 48.6053 181.865 46.3058C181.954 40.0428 181.908 33.7736 181.553 27.5167C181.379 24.4773 181.134 21.441 180.776 18.4169C180.501 16.102 180.501 13.3819 179.431 11.2605C178.566 9.54427 176.741 8.29473 174.79 8.89955C173.121 9.41532 172.017 10.9811 171.283 12.4885C170.375 14.3521 169.963 16.406 169.871 18.4691C169.727 21.6896 169.914 24.8825 169.669 28.1062C169.214 34.0622 168.666 40.0949 168.627 46.0694C168.605 49.1027 168.724 52.1298 168.669 55.163C168.642 56.5446 168.575 57.9108 168.373 59.277C168.321 59.6393 168.327 60.6309 168.003 60.8151C167.434 61.1375 167.26 60.4651 167.113 60.0384C166.563 58.4481 166.416 56.5968 166.074 54.9481C165.398 51.6938 164.826 48.4211 164.331 45.1361C163.386 38.8915 162.827 32.6069 162.044 26.3408C161.769 24.1304 161.521 21.88 160.983 19.7094C160.583 18.0976 160.072 16.1972 158.351 15.6108C156.309 14.917 153.817 15.5709 152.313 17.0998C151.047 18.3862 150.61 20.1853 150.515 21.9414C150.197 27.879 151.007 33.9885 151.435 39.9046C151.894 46.2659 152.071 52.6179 152.719 58.9669C153.364 65.2944 153.215 71.6434 153.429 77.9893C153.508 80.3779 152.921 83.4081 150.738 84.8203C147.788 86.733 145.953 82.616 144.825 80.6296C143.385 78.0999 141.643 75.7696 139.866 73.4732C138.185 71.2965 136.506 69.1014 134.498 67.2132C132.66 65.4848 130.514 64.0357 128.077 63.3203C126.001 62.7125 123.265 62.4515 121.538 64.0418C117.725 67.5509 123.14 71.5452 125.133 74.1363C132.024 83.0919 133.287 94.8227 138.179 104.782C140.701 109.918 144.446 113.993 148.087 118.328C149.995 120.599 152.05 123.006 153.273 125.739C154.486 128.456 154.713 131.547 155.434 134.415C156.987 140.567 157.975 146.772 158.189 153.121C158.219 154.024 158.892 154.045 158.862 153.121C158.663 147.223 157.898 141.366 156.52 135.628C155.853 132.861 155.352 130.049 154.645 127.295C154.01 124.805 152.78 122.653 151.27 120.596C147.867 115.964 143.587 112.003 140.536 107.109C137.436 102.133 135.653 96.4775 133.837 90.9391C132.235 86.0514 130.572 81.1485 128.016 76.6692C126.756 74.4618 125.283 72.3802 123.528 70.5382C122.803 69.7798 121.966 69.0737 121.409 68.1773C120.07 66.022 122.605 64.5914 124.408 64.4256C130.294 63.8852 134.892 68.8957 138.191 73.0833C139.931 75.2907 141.67 77.5135 143.208 79.8682C144.52 81.8761 145.458 84.9892 147.604 86.2848C151.288 88.5106 153.744 83.1164 154.061 80.2274C154.196 79.0147 154.092 77.7806 154.028 76.5679C153.945 75.0328 154.006 73.51 153.991 71.975C153.964 69.086 153.939 66.1663 153.768 63.2835C153.581 60.1305 153.172 56.999 152.894 53.8552C152.618 50.7145 152.591 47.5584 152.407 44.4115C152.041 38.1362 151.42 31.8763 151.221 25.5917C151.139 22.9453 150.753 19.8169 153.138 18.0208C154.294 17.152 155.823 16.756 157.253 16.9248C158.773 17.106 159.51 17.7967 160.014 19.1783C160.788 21.3028 160.992 23.6637 161.28 25.8895C161.668 28.889 161.965 31.8977 162.301 34.9034C162.968 40.8932 163.787 46.8676 164.909 52.7899C165.325 54.9881 165.762 57.1832 166.184 59.3783C166.328 60.1213 166.603 62.3195 167.618 62.4822C169.865 62.8445 169.382 52.5842 169.373 51.4851C169.308 45.3356 169.629 39.2599 169.996 33.1227C170.164 30.2798 170.458 27.443 170.556 24.597C170.657 21.5914 170.164 18.4722 171.011 15.5371C171.604 13.4924 172.843 10.8583 175.133 10.3486C178.581 9.58111 179.486 13.563 179.783 16.0775C181.205 28.143 181.617 40.3835 181.162 52.5289C181.076 54.7762 180.336 57.9476 181.593 59.9923C182.146 60.895 183.152 60.9287 183.776 60.0292C184.289 59.2893 184.375 58.2639 184.543 57.4104C184.852 55.8477 185.155 54.285 185.448 52.7223C186.573 46.7202 187.579 40.6967 188.487 34.6578C189.154 30.2184 189.432 25.3431 191.034 21.1094C191.651 19.4761 192.587 17.8305 194.198 17.0139C194.969 16.6239 196.195 16.3108 197.063 16.5564C198.913 17.0814 199.062 19.9397 199.093 21.4839C199.151 24.6032 198.815 27.7285 198.613 30.8386C198.42 33.7859 198.39 36.7393 198.249 39.6897C198.063 43.6563 197.775 47.6014 197.234 51.5342C196.8 54.6872 196.399 57.8525 196.253 61.0331C196.167 62.8568 195.776 66.1448 197.106 67.6738C198.94 69.7798 200.646 64.6589 200.964 63.6151C202.294 59.2248 203.116 54.6718 204.116 50.1956C204.777 47.2391 205.437 44.2826 206.244 41.3629C206.871 39.0972 207.213 35.8367 209.173 34.3016C211.445 32.521 214.245 33.7153 214.566 36.552C214.896 39.484 214.211 42.6493 213.875 45.5567C213.129 51.9855 211.94 58.2362 210.417 64.5208C209.048 70.1759 207.736 75.9078 206.819 81.655C205.865 87.6264 206.379 93.6592 205.186 99.6121C203.994 105.562 201.909 111.291 199.472 116.826C198.341 119.393 197.032 121.886 196.081 124.529C195.213 126.942 194.577 129.429 194.119 131.953C193.174 137.138 192.987 142.434 193.18 147.693C193.214 148.596 193.886 148.617 193.853 147.693C193.636 141.78 193.889 135.803 195.259 130.025C196.62 124.296 199.533 119.19 201.686 113.753C203.801 108.405 205.501 102.866 206.324 97.1622C206.736 94.2947 206.81 91.4518 206.846 88.5597C206.886 85.2655 207.424 81.9897 208.063 78.763C209.268 72.6842 210.723 66.6729 212.114 60.6371C213.524 54.5183 214.26 48.3167 214.964 42.0874C215.3 39.1187 216.413 32.564 212.032 31.9499V31.9407Z" fill="#8DA0D0"/>
<path d="M155.306 88.3817C163.053 91.3412 169.296 99.2222 171.919 106.953C173.384 111.266 173.271 115.813 171.601 120.053C170.116 123.829 167.538 126.826 165.031 129.939C164.881 130.126 165.004 130.758 165.261 130.497C171.216 124.412 175.23 116.163 172.797 107.558C170.452 99.2683 163.649 90.807 155.355 88.0808C155.211 88.0347 155.187 88.3356 155.309 88.3817H155.306Z" fill="#8DA0D0"/>
<path d="M160.246 70.6978C166.11 75.2416 172.693 79.4231 179.694 81.9866C179.352 84.2462 179.083 86.5242 178.847 88.8084C172.568 84.3844 165.242 80.9704 157.822 79.1867C157.602 79.1345 157.568 79.5797 157.752 79.6411C165.135 82.0787 172.381 85.1427 178.762 89.6558C178.435 92.9224 178.159 96.1982 177.811 99.4371C177.132 105.758 176.285 112.12 176.246 118.487C176.242 118.991 176.756 118.966 176.774 118.475C177.031 111.874 177.722 105.338 178.453 98.7771C178.771 95.9249 179.147 93.0574 179.492 90.1869C179.609 90.2729 179.725 90.3527 179.841 90.4386C182.907 92.7228 185.61 95.621 188.288 98.3411C191.278 101.381 194.039 104.607 196.461 108.122C196.745 108.537 197.002 107.812 196.827 107.533C194.663 104.085 191.966 101.037 189.132 98.1354C186.289 95.2249 183.369 92.1456 180.101 89.7141C179.936 89.5913 179.765 89.4716 179.596 89.3487C179.875 86.9663 180.125 84.5839 180.293 82.2015C187.347 84.6852 194.819 85.4988 202.41 83.3743C202.673 83.3006 202.621 82.6559 202.331 82.662C200.405 82.7142 198.53 83.4019 196.607 83.5861C194.807 83.7581 192.994 83.7734 191.19 83.6629C187.478 83.4357 183.843 82.5884 180.342 81.3511C180.373 80.8507 180.407 80.3502 180.428 79.8529C180.44 79.5674 180.116 79.4691 180.061 79.7854C179.979 80.2459 179.902 80.7064 179.829 81.1669C172.812 78.5972 166.465 74.5262 160.451 70.1391C160.17 69.9334 160.048 70.5382 160.253 70.6978H160.246Z" fill="#8DA0D0"/>
<path d="M169.788 68.079C173.414 71.7724 178.04 74.5109 183.183 75.349C188.004 76.135 193.944 75.1771 197.769 71.9167C197.901 71.8031 197.849 71.3211 197.622 71.4316C195.17 72.6412 192.994 73.9583 190.269 74.5262C188.007 74.996 185.668 75.0451 183.387 74.6982C178.245 73.9153 173.699 71.1798 169.938 67.6615C169.749 67.4834 169.66 67.947 169.791 68.079H169.788Z" fill="#8DA0D0"/>
<path d="M160.509 32.4964C160.051 32.2938 159.727 31.9806 159.216 31.9162C158.589 31.8363 157.804 32.0113 157.186 32.1065C155.835 32.3153 154.597 32.699 153.426 33.4205C153.26 33.5218 153.309 34.0008 153.523 33.8933C154.685 33.3008 155.914 32.9017 157.201 32.6868C157.73 32.6008 158.29 32.5026 158.828 32.5056C159.525 32.5056 159.84 32.8096 160.421 33.0705C160.675 33.1841 160.739 32.5977 160.509 32.4964Z" fill="#8DA0D0"/>
<path d="M162.729 46.9198C160.143 46.4255 157.645 47.4294 155.529 48.8601C155.373 48.9645 155.398 49.4465 155.627 49.3391C157.95 48.2307 160.136 47.8439 162.68 47.6628C162.98 47.6413 163.01 46.972 162.729 46.9198Z" fill="#8DA0D0"/>
<path d="M161.066 61.0792C159.314 61.2204 157.739 61.8989 156.303 62.8844C156.162 62.9826 156.241 63.4339 156.437 63.3295C158.892 62.0125 162.115 61.4506 164.722 62.6265C165.007 62.7554 164.979 62.2151 164.912 62.0892C164.258 60.8827 162.234 60.984 161.069 61.0761L161.066 61.0792Z" fill="#8DA0D0"/>
<path d="M171.818 59.8235C171.632 59.9708 171.76 60.5112 172.023 60.327C174.111 58.8748 176.505 59.4428 178.85 59.7559C179.199 59.802 179.122 59.0989 178.899 58.9823C176.759 57.8801 173.635 58.3652 171.815 59.8235H171.818Z" fill="#8DA0D0"/>
<path d="M186.9 61.3739C187.836 60.8336 188.869 60.5112 189.958 60.5296C190.639 60.5419 191.119 60.6524 191.667 61.0454C191.969 61.2634 192.156 61.4353 192.514 61.5366C192.954 61.6594 192.929 60.8581 192.645 60.6893C191.658 60.0998 191.156 59.6024 189.936 59.6362C188.778 59.67 187.72 60.063 186.766 60.7107C186.543 60.8643 186.613 61.5397 186.9 61.3739Z" fill="#8DA0D0"/>
<path d="M200.836 68.7207C200.597 68.8496 200.677 69.4974 200.967 69.3592C203.535 68.1404 205.128 70.3939 207.039 71.5697C207.348 71.7601 207.421 71.2167 207.296 71.0325C205.899 69.0123 203.181 67.4527 200.839 68.7207H200.836Z" fill="#8DA0D0"/>
<path d="M203.694 56.6889C203.444 56.7165 203.453 57.2753 203.71 57.263C206.006 57.1586 209.032 57.9538 210.537 59.7897C210.769 60.0722 210.922 59.6055 210.845 59.409C209.858 56.9376 205.975 56.431 203.697 56.6889H203.694Z" fill="#8DA0D0"/>
<path d="M209.812 45.001C210.757 45.2589 211.383 45.9834 212.27 46.3181C212.612 46.447 212.609 45.7654 212.377 45.6273C211.423 45.0562 210.708 44.4269 209.586 44.215C208.635 44.037 207.65 44.0984 206.7 44.2335C206.476 44.2642 206.479 44.74 206.712 44.7492C207.745 44.783 208.806 44.7277 209.815 45.001H209.812Z" fill="#8DA0D0"/>
<path d="M188.759 46.8584C189.945 46.4409 191.245 46.3426 192.477 46.5637C193.636 46.7694 194.522 47.3803 195.592 47.7948C195.837 47.89 195.877 47.4202 195.77 47.2944C194.045 45.3264 190.863 45.397 188.652 46.3426C188.447 46.4317 188.508 46.9474 188.759 46.8615V46.8584Z" fill="#8DA0D0"/>
<path d="M191.025 32.3153C192.229 31.9223 193.474 32.0021 194.645 32.4749C195.562 32.8433 196.308 33.5126 197.21 33.8933C197.466 34.0008 197.5 33.5004 197.393 33.3714C195.88 31.5539 193.073 30.9829 190.921 31.8149C190.719 31.8916 190.78 32.3951 191.025 32.3153Z" fill="#8DA0D0"/>
<path d="M179.581 26.3101C177.358 24.554 173.445 25.34 171.244 26.7983C171.057 26.9211 171.1 27.486 171.36 27.357C173.662 26.1965 177.083 25.4352 179.336 27.0071C179.694 27.2557 179.835 26.5097 179.584 26.3132L179.581 26.3101Z" fill="#8DA0D0"/>
<path d="M179.364 44.0124C179.413 43.9756 179.462 43.9418 179.511 43.905C179.74 43.7392 179.642 43.2971 179.431 43.1712C178.239 42.4651 177.591 42.069 176.139 42.244C174.806 42.4037 173.543 42.6616 172.406 43.4015C172.195 43.5396 172.243 44.1751 172.534 44.0278C173.607 43.4874 174.763 43.3216 175.949 43.2142C176.622 43.1528 177.267 43.076 177.918 43.3401C178.361 43.5212 178.691 43.8528 179.107 44.0707C179.199 44.1168 179.297 44.0646 179.367 44.0124H179.364Z" fill="#8DA0D0"/>
<path d="M191.905 139.95C188.903 139.711 185.983 139.367 183.082 138.507C180.397 137.712 177.841 136.914 175.004 137.221C172.381 137.506 170.314 138.845 167.878 139.686C165.098 140.644 162.059 139.966 159.189 140.362C158.938 140.395 158.959 140.957 159.204 140.927C161.861 140.577 164.566 141.341 167.208 140.718C169.944 140.07 172.164 138.372 175.029 138.053C178.11 137.709 180.871 138.735 183.788 139.542C186.426 140.273 189.187 140.792 191.93 140.798C192.306 140.798 192.281 139.981 191.908 139.953L191.905 139.95Z" fill="#8DA0D0"/>
<path d="M191.664 145.48C186.304 146.127 181.253 148.077 175.808 147.841C172.953 147.718 170.284 147.282 167.511 146.597C165.05 145.989 162.619 145.464 160.087 145.983C159.828 146.035 159.84 146.628 160.103 146.588C162.897 146.186 165.52 146.929 168.199 147.647C170.724 148.323 173.219 148.682 175.833 148.801C178.459 148.921 180.819 148.623 183.375 148.034C186.133 147.398 188.924 146.944 191.688 146.345C192.052 146.266 192.049 145.437 191.667 145.483L191.664 145.48Z" fill="#8DA0D0"/>
<path d="M191.012 149.434C188.735 149.302 186.405 150.459 184.237 151.046C181.495 151.786 178.942 152.013 176.135 151.528C171.048 150.647 165.756 151.104 160.742 149.824C160.473 149.756 160.43 150.306 160.656 150.376C165.627 151.915 170.984 151.448 176.083 152.326C178.563 152.753 180.828 152.694 183.283 152.12C185.8 151.528 188.423 150.226 191.028 150.254C191.385 150.257 191.37 149.458 191.006 149.437L191.012 149.434Z" fill="#8DA0D0"/>
<path d="M156.419 23.065C156.419 23.065 156.4 23.0589 156.391 23.0558C156.385 23.0558 156.379 23.0497 156.373 23.0497C156.367 23.0497 156.364 23.0497 156.358 23.0497C156.342 23.0466 156.33 23.0374 156.315 23.0374C155.648 23.062 155.281 23.5624 155.141 24.1426C155.11 24.1027 155.083 24.0597 155.049 24.0229C154.688 23.6115 154.159 23.4887 153.661 23.7128C153.627 23.7282 153.6 23.7497 153.578 23.7804C152.56 24.5049 152.631 26.3623 153.961 26.7246C154.373 26.8351 154.826 26.7461 155.132 26.4698C155.187 27.4369 155.312 28.3855 155.566 29.3281C155.697 29.8131 156.128 29.5123 156.04 29.1131C155.841 28.2013 155.682 27.2956 155.605 26.3715C156.293 26.7123 157.259 26.0768 157.541 25.3246C157.856 24.4834 157.232 23.3352 156.419 23.0681V23.065ZM154.202 26.0308C153.316 25.8987 153.126 24.9102 153.799 24.3913C154.144 24.2071 154.499 24.2194 154.78 24.5141C154.976 24.7198 155.055 24.9961 155.092 25.2786C155.092 25.3338 155.086 25.386 155.073 25.4382C154.979 25.8773 154.63 26.0952 154.199 26.0338L154.202 26.0308ZM156.972 25.1773C156.639 25.6409 156.147 25.733 155.501 25.4505C155.526 24.6799 155.401 23.7589 156.309 23.719C156.99 24.0106 157.214 24.4957 156.972 25.1773Z" fill="#8DA0D0"/>
<path d="M159.375 38.8761C159.305 38.7625 159.225 38.6643 159.143 38.5752C159.305 38.4279 159.409 38.1945 159.449 37.995C159.54 37.5253 159.369 36.9819 159.296 36.5183C159.238 36.1468 158.904 36.3863 158.944 36.6779C158.987 36.9941 159.085 37.3564 159.072 37.6788C159.063 37.9152 158.895 38.0902 158.782 38.2867C158.112 37.9029 157.235 38.0779 156.504 38.5046C156.306 38.6213 156.15 38.7564 156.021 38.9007C155.93 38.7533 155.81 38.6213 155.722 38.4709C155.621 38.2989 155.581 38.0994 155.489 37.9213C155.339 37.6327 155.015 37.7003 154.988 38.0349C154.957 38.3818 155.04 38.7042 155.196 39.0112C155.294 39.2077 155.45 39.4993 155.66 39.6314C155.3 41.498 158.259 44.0001 159.494 41.5655C159.507 41.544 159.51 41.5041 159.51 41.4611C159.935 40.6783 159.843 39.6222 159.378 38.8761H159.375ZM156.608 41.366C156.147 40.8625 155.856 40.1011 156.211 39.4656C156.425 39.0818 156.822 38.9314 157.22 38.7963C157.929 38.5568 158.562 38.4156 159.088 39.0757C159.565 39.6774 159.711 40.58 159.384 41.2831C159.375 41.2892 159.363 41.2923 159.351 41.3046C158.513 42.112 157.47 42.3085 156.611 41.369L156.608 41.366Z" fill="#8DA0D0"/>
<path d="M157.388 54.2328C158.216 54.1776 159.03 53.9995 159.846 53.8644C160.568 53.7447 161.326 53.7017 162.004 53.4254C162.17 53.3578 162.13 53.014 161.956 52.9894C161.151 52.8789 160.271 53.103 159.476 53.2565C158.748 53.3977 158.033 53.5482 157.339 53.8184C157.198 53.8736 157.211 54.242 157.385 54.2297L157.388 54.2328Z" fill="#D87068"/>
<path d="M162.197 57.6314C161.769 57.5731 161.317 57.6099 160.87 57.6805C160.858 56.4003 160.415 55.0679 160.1 53.8153C160.714 53.7293 161.341 53.6587 161.91 53.4284C162.075 53.3609 162.035 53.017 161.861 52.9925C161.057 52.882 160.176 53.1061 159.381 53.2596C158.654 53.4008 157.938 53.5512 157.244 53.8214C157.104 53.8767 157.116 54.2451 157.29 54.2328C157.675 54.2082 158.054 54.153 158.433 54.0916C158.528 55.3933 158.605 56.7933 158.929 58.0612C158.473 58.1656 158.021 58.2854 157.58 58.4604C157.44 58.5156 157.452 58.884 157.626 58.8717C158.143 58.838 158.651 58.7551 159.161 58.663C159.222 58.6968 159.29 58.6814 159.348 58.6292C159.592 58.5862 159.84 58.5402 160.084 58.5003C160.806 58.3805 161.564 58.3375 162.243 58.0612C162.408 57.9937 162.368 57.6498 162.194 57.6253L162.197 57.6314ZM159.718 57.8985C159.647 57.9139 159.574 57.9262 159.504 57.9415C159.461 56.6428 159.146 55.2859 158.868 54.0179C159.121 53.9718 159.372 53.9289 159.626 53.8859C159.812 55.1569 159.889 56.5814 160.353 57.7696C160.136 57.8126 159.925 57.8555 159.718 57.8955V57.8985Z" fill="#8DA0D0"/>
<path d="M161.387 66.1111C161.329 66.1295 161.271 66.1448 161.213 66.1602C161.041 65.322 160.824 64.487 160.699 63.6795C160.635 63.262 160.268 63.5322 160.308 63.8576C160.399 64.6221 160.454 65.494 160.583 66.3413C160.002 66.501 159.415 66.6361 158.816 66.722C159.115 66.3137 159.513 65.9361 159.77 65.5247C160.057 65.0672 160.347 64.5484 160.32 63.9865C160.262 62.8015 158.944 63.4002 158.326 63.833C158.146 63.962 158.284 64.4716 158.516 64.2936C158.745 64.1186 158.972 63.9865 159.253 63.9098C159.592 63.8177 159.62 63.7563 159.754 64.0909C159.925 64.5146 159.479 65.0089 159.244 65.362C158.886 65.8962 158.412 66.3382 158.164 66.94C158.109 67.0751 158.146 67.3913 158.345 67.3913C159.149 67.3821 159.947 67.3023 160.714 67.0812C160.815 67.5356 160.944 67.9715 161.13 68.3615C161.252 68.6193 161.463 68.429 161.463 68.2141C161.463 67.772 161.411 67.3176 161.338 66.8632C161.399 66.8387 161.46 66.8172 161.521 66.7896C161.787 66.6729 161.717 66.0128 161.381 66.1111H161.387Z" fill="#8DA0D0"/>
<path d="M177.364 64.2843C177.215 64.7357 176.68 64.358 176.524 64.0909C176.346 63.787 176.362 63.523 176.404 63.176C176.447 62.8291 176.521 62.4914 176.545 62.1414C176.573 61.7239 176.557 61.1805 176.145 60.9471C175.496 60.5787 174.909 61.1805 174.573 61.8068C174.573 61.8068 174.573 61.8068 174.573 61.8037C174.521 61.6318 174.491 61.4629 174.304 61.4107C173.998 61.3248 173.421 61.6563 173.17 61.7699C172.965 61.862 173.02 62.3778 173.277 62.2949C173.408 62.2519 174.176 61.9695 174.255 62.0432C174.234 62.0247 174.31 62.8567 174.313 62.8874C174.368 63.4923 174.377 64.1001 174.402 64.708C174.42 65.1593 174.906 65.1501 174.885 64.6957C174.848 63.9988 174.845 63.2712 174.741 62.5682C174.864 62.2243 175.081 61.8712 175.414 61.7239C176.239 61.3585 175.989 62.3133 175.921 62.7309C175.827 63.3142 175.781 63.919 176.01 64.4808C176.383 65.3927 177.734 65.6659 177.734 64.4317C177.734 64.2076 177.465 63.9927 177.364 64.2905V64.2843Z" fill="#8DA0D0"/>
<path d="M177.887 19.3011C177.848 19.2581 177.808 19.252 177.768 19.2735C177.508 19.1752 177.261 19.2213 177.065 19.3594C177.047 18.9603 177.019 18.5612 176.982 18.1682C176.943 17.7292 176.851 17.0691 176.466 16.7744C175.869 16.3231 175.041 17.0139 174.656 17.6739C174.631 17.5665 174.607 17.459 174.576 17.3546C174.316 16.4827 173.65 16.6424 172.922 16.9709C172.751 17.0476 172.806 17.4897 173.011 17.4068C173.561 17.1858 173.989 17.1704 174.313 17.766C174.46 18.0362 174.402 18.6287 174.414 18.9419C174.442 19.5866 174.46 20.2313 174.515 20.873C174.543 21.1953 174.87 21.1953 174.864 20.8638C174.851 20.1024 174.87 19.2612 174.784 18.4599C174.799 18.4292 174.815 18.3923 174.824 18.3401C174.891 17.9441 175.383 17.5174 175.753 17.3976C176.444 17.1766 176.518 17.8397 176.545 18.4077C176.585 19.1936 176.576 19.9857 176.643 20.7717C176.634 20.8177 176.622 20.8638 176.603 20.9068C176.426 21.3366 175.992 21.7019 175.769 22.1194C175.701 22.2423 175.784 22.7058 175.976 22.5063C176.297 22.1686 176.677 21.7173 176.9 21.2782C178.025 21.4471 178.594 20.0962 177.884 19.298L177.887 19.3011ZM177.499 20.6212C177.377 20.7256 177.239 20.7563 177.089 20.7133C177.092 20.4524 177.089 20.1883 177.086 19.9243C177.23 19.7278 177.484 19.6634 177.713 19.737C177.719 19.7432 177.722 19.7493 177.728 19.7555C177.89 20.1976 177.814 20.4861 177.502 20.6212H177.499Z" fill="#8DA0D0"/>
<path d="M171.525 34.5073C171.767 34.1359 172.216 33.703 172.699 33.9025C172.989 34.0253 173.155 34.3323 173.476 34.3999C174.09 34.5288 174.307 33.7552 174.854 33.6446C174.854 33.6446 174.854 33.6446 174.857 33.6446C175.393 33.706 175.738 34.1911 176.27 34.2464C176.888 34.3108 176.851 33.8534 177.291 33.617C177.945 33.2639 178.095 33.8749 178.633 33.9823C179.037 34.0652 179.355 33.9455 179.648 33.6692C179.798 33.528 179.731 32.917 179.468 33.0767C179.184 33.2486 178.85 33.3898 178.511 33.267C178.297 33.1903 178.172 32.9324 177.982 32.8525C177.698 32.7297 177.545 32.7819 177.279 32.9139C176.799 33.1565 176.625 33.8135 175.976 33.5617C175.603 33.4174 175.31 33.2148 174.919 33.1381C174.906 33.1289 174.888 33.1289 174.873 33.1258C174.861 33.1258 174.851 33.1196 174.839 33.1166C174.809 33.1135 174.784 33.1196 174.763 33.135C174.445 33.2056 174.313 33.3745 174.044 33.5832C173.751 33.8074 173.601 33.8902 173.243 33.6753C173.106 33.5924 172.996 33.4696 172.852 33.399C172.195 33.0736 171.595 33.5556 171.235 34.0867C171.094 34.2955 171.323 34.799 171.519 34.4981L171.525 34.5073Z" fill="#8DA0D0"/>
<path d="M179.706 35.7446C179.355 35.8674 179.052 36.0117 178.664 35.8029C178.511 35.72 178.419 35.5358 178.263 35.4499C177.945 35.2779 177.692 35.2964 177.374 35.4591C177.034 35.6279 176.774 36.0332 176.398 36.113C175.934 36.2113 175.542 35.6187 175.078 35.5021C175.053 35.4959 175.029 35.4959 175.007 35.499C174.637 35.4867 174.35 35.6034 174.099 35.8735C173.845 36.1468 173.573 36.4507 173.139 36.2573C172.993 36.1898 172.898 36.0577 172.736 36.0056C172.176 35.8213 171.635 36.1498 171.421 36.6595C171.326 36.8836 171.589 37.2305 171.721 36.9143C171.996 36.2573 172.583 36.5336 172.941 36.8775C173.078 37.0125 173.219 37.1415 173.417 37.1691C174.148 37.2704 174.292 36.2297 174.995 36.1867C175.49 36.3003 175.738 36.8775 176.282 36.8683C176.722 36.859 177.007 36.4784 177.331 36.242C178.11 35.6771 178.26 36.549 178.97 36.6595C179.447 36.7362 179.752 36.4937 179.884 36.0731C179.917 35.9595 179.884 35.6801 179.706 35.7415V35.7446Z" fill="#8DA0D0"/>
<path d="M178.386 49.6154C177.878 49.5171 177.364 49.5079 176.845 49.5447C176.79 49.075 176.842 48.5777 177.065 48.0373C177.123 47.893 176.958 47.5522 176.829 47.7733C176.502 48.3505 176.359 48.9553 176.392 49.5877C175.668 49.6737 174.94 49.8241 174.218 49.9439C174.078 49.3667 173.797 48.8202 173.39 48.3934C173.237 48.2338 173.124 48.6298 173.222 48.7465C173.537 49.118 173.696 49.5478 173.8 50.0083C173.421 50.0636 173.041 50.1004 172.668 50.1096C172.488 50.1127 172.509 50.4842 172.678 50.5057C173.075 50.5579 173.482 50.5702 173.888 50.5609C173.952 51.2947 173.665 51.8105 173.304 52.4491C173.225 52.5903 173.323 53.1091 173.54 52.885C174.139 52.2587 174.377 51.3929 174.313 50.5395C175.038 50.4934 175.769 50.3798 176.49 50.2631C176.677 51.0767 177.111 52.1666 177.823 52.621C177.988 52.7254 178.055 52.4521 177.997 52.3385C177.63 51.5986 177.209 50.9109 176.982 50.1864C177.447 50.1127 177.909 50.0452 178.361 49.9991C178.514 49.9838 178.535 49.643 178.386 49.6154Z" fill="#8DA0D0"/>
<path d="M194.195 53.1214C194.241 52.357 193.666 51.4574 192.942 51.7245C192.975 51.4052 192.972 51.0859 192.865 50.8373C192.48 49.9623 191.367 50.7298 190.783 51.2579C190.768 51.0491 190.725 50.8495 190.636 50.6745C190.26 49.9592 189.569 50.3522 189.114 50.825C189.074 49.9746 188.713 49.7781 187.811 50.1987C187.6 50.2969 187.698 50.8342 187.918 50.7175C188.191 50.4903 188.481 50.5149 188.787 50.7912C188.784 50.9662 188.768 51.1381 188.759 51.3101C188.75 51.35 188.747 51.396 188.753 51.4421C188.747 51.525 188.747 51.6048 188.741 51.6877C188.716 52.01 188.683 52.3324 188.646 52.6548C188.57 53.3241 188.45 53.9903 188.438 54.6657C188.438 54.8161 188.628 54.9635 188.686 54.7609C188.979 53.7539 189.092 52.6456 189.114 51.5772C189.413 51.1842 189.958 50.6162 190.334 51.4482C190.425 51.6508 190.318 52.1359 190.312 52.3478C190.291 53.0447 190.221 53.7447 190.245 54.4416C190.254 54.6995 190.532 54.8038 190.584 54.503C190.713 53.7938 190.719 53.0539 190.743 52.3355C190.749 52.1636 190.768 51.9701 190.777 51.7736C191.055 51.4881 191.52 51.0245 191.872 51.0675C192.767 51.1811 192.511 51.9456 192.425 52.4184C192.309 53.0631 192.107 53.7508 192.193 54.4139C192.22 54.6258 192.275 54.8069 192.355 54.9696C191.875 55.4547 191.395 55.9367 190.964 56.4678C190.853 56.6029 190.908 57.0665 191.135 56.8885C191.688 56.4556 192.235 55.9644 192.746 55.4516C193.021 55.6666 193.385 55.7894 193.807 55.817C194.009 55.8323 193.996 55.4025 193.837 55.3442C193.55 55.2398 193.299 55.1845 193.098 55.0832C193.183 54.9911 193.275 54.899 193.357 54.8069C193.785 54.3311 194.152 53.7723 194.192 53.1153L194.195 53.1214ZM193.419 53.8061C193.214 54.1131 192.948 54.3771 192.688 54.6381C192.614 54.46 192.572 54.2236 192.556 53.892C192.538 53.4653 192.725 52.9833 192.798 52.5657C192.807 52.5197 192.816 52.4675 192.825 52.4153C193.782 51.7399 193.737 53.3241 193.415 53.803L193.419 53.8061Z" fill="#8DA0D0"/>
<path d="M194.788 41.0743C194.66 41.4274 194.577 41.8173 194.287 42.0782C194.021 42.3146 193.66 42.3914 193.33 42.2686C192.541 41.6822 193.737 39.9445 193.957 39.3336C194.186 38.698 194.293 38.0717 194.256 37.3963C194.256 37.3564 194.256 37.3196 194.25 37.2889C194.183 36.8345 194.024 36.3064 193.593 36.0792C193.574 36.0608 193.55 36.0455 193.526 36.0424C193.492 36.0301 193.464 36.0271 193.437 36.0363C192.731 35.9503 192.345 36.4231 192.073 37.0525C191.676 37.9704 191.294 38.9559 191.242 39.966C191.199 39.9721 191.165 39.9967 191.141 40.0335C189.909 40.0704 189.857 42.4866 191.321 42.33C192.556 42.198 192.614 40.3406 191.551 40.0121C191.719 38.9344 192.189 36.4231 193.452 36.5981C193.752 36.7332 193.831 37.077 193.865 37.381C193.865 37.3902 193.865 37.3994 193.868 37.4086C193.917 38.8546 192.994 39.8708 192.657 41.2033C192.498 41.8326 192.569 42.4436 193.134 42.8151C193.14 42.8212 193.15 42.8243 193.156 42.8304C193.159 42.8304 193.162 42.8366 193.168 42.8396C193.183 42.8519 193.195 42.8642 193.214 42.8703C194.272 43.2295 194.932 42.1489 195.091 41.2677C195.128 41.0651 194.889 40.7888 194.782 41.0805L194.788 41.0743ZM192 41.1204C192.021 41.5717 191.642 41.5901 191.306 41.5901C191.049 41.5901 190.725 41.5625 190.688 41.2462C190.649 40.9055 190.985 40.666 191.281 40.6506C191.361 40.6476 191.416 40.5923 191.447 40.5217C191.737 40.5831 191.979 40.7919 191.997 41.1204H192Z" fill="#8DA0D0"/>
<path d="M192.859 25.2295C193.195 25.6777 193.88 25.7207 194.201 25.2202C194.437 24.8549 194.33 24.4005 194.085 24.0597C194.388 24.0935 194.693 24.1488 194.972 24.2747C195.498 24.5111 195.898 24.9255 196.326 25.297C196.604 25.5365 196.699 24.901 196.531 24.7229C195.8 23.9523 194.752 23.2738 193.651 23.6637C192.966 23.9062 192.477 24.4343 192.813 25.1711C192.819 25.1834 192.825 25.1865 192.832 25.1957C192.832 25.1957 192.832 25.2018 192.835 25.2018C192.835 25.2049 192.841 25.208 192.841 25.211C192.847 25.2172 192.853 25.2264 192.859 25.2325V25.2295ZM193.587 24.072C193.81 24.2501 194.161 24.6768 193.889 24.9409C193.666 25.1558 193.195 25.2018 193.003 24.9624C192.764 24.4251 193.162 24.1549 193.587 24.072Z" fill="#8DA0D0"/>
<path d="M195.051 26.4268C195.051 26.4974 195.066 26.5496 195.085 26.5926C195.125 26.8106 195.207 27.0685 195.354 27.2158C195.183 27.2404 195.011 27.2527 194.862 27.2588C194.103 27.2926 193.614 27.0654 193.012 26.6356C192.969 26.6049 192.945 26.6755 192.954 26.7092C193.146 27.4154 193.88 27.6456 194.544 27.7408C195.143 27.8268 196.412 27.6763 196.687 27.004C197.155 25.8588 195.03 24.7781 195.051 26.4268ZM195.996 27.0224C195.996 27.0224 195.968 27.0347 195.956 27.0408C195.971 26.8812 195.913 26.7062 195.76 26.7123C195.592 26.7215 195.513 26.525 195.464 26.3685C195.464 26.3562 195.464 26.347 195.464 26.3316C195.586 26.215 195.712 26.0983 195.834 25.9816C196.002 26.1321 196.17 26.2825 196.338 26.436C196.427 26.6724 196.155 26.9242 195.993 27.0224H195.996Z" fill="#8DA0D0"/>
<path d="M208.045 40.3682C207.84 40.3528 207.846 40.8164 208.057 40.841C208.797 40.9239 209.546 41.1204 210.255 41.3445C210.885 41.544 211.475 41.8695 212.114 42.0383C212.285 42.0844 212.291 41.7804 212.197 41.7006C211.075 40.7335 209.47 40.4818 208.045 40.3682Z" fill="#8DA0D0"/>
<path d="M212.564 39.9691C212.313 39.9046 212.053 39.834 211.827 39.705C211.457 39.4932 211.625 39.2599 211.656 38.9314C211.686 38.5875 211.613 38.1823 211.374 37.9244C211.344 37.8906 211.316 37.8906 211.292 37.906C210.836 37.7678 210.341 38.1454 210.032 38.4494C209.867 38.6121 209.711 38.8792 209.482 38.9344C209.2 39.002 208.583 38.7165 208.308 38.6336C208.115 38.5752 208.082 38.9805 208.247 39.0327C208.696 39.1831 209.152 39.309 209.616 39.4103C209.702 39.4287 209.751 39.3765 209.781 39.3028C210.011 38.7349 210.604 38.1423 211.276 38.2283C211.763 38.7134 211.032 39.2721 211.371 39.7603C211.634 40.1379 212.093 40.3866 212.533 40.4603C212.732 40.4941 212.744 40.009 212.564 39.966V39.9691Z" fill="#8DA0D0"/>
<path d="M210.665 53.4407C210.176 53.8491 209.83 53.2688 209.901 52.7346C209.937 52.4644 210.014 52.2004 210.075 51.9364C210.203 51.3623 210.344 50.7667 210.188 50.1803C209.95 49.3022 209.338 49.5755 208.797 50.0083C208.675 49.1794 207.944 49.072 207.259 49.247C207.094 48.6237 206.424 48.4917 205.73 48.5746C205.532 48.5992 205.541 49.0443 205.743 49.029C206.599 48.9676 206.889 49.1856 206.843 50.039C206.825 50.3583 206.706 50.7053 206.635 51.0153C206.467 51.7737 206.272 52.5258 206.091 53.2842C206.042 53.4868 206.305 53.7508 206.394 53.4684C206.736 52.3662 207.207 51.0215 207.28 49.8395C207.849 49.7136 208.289 49.6614 208.381 50.5026C208.418 50.8403 208.259 51.2824 208.216 51.6202C208.121 52.3263 207.984 53.057 207.984 53.7692C207.984 53.889 208.13 54.0087 208.182 53.846C208.381 53.232 208.451 52.5627 208.568 51.9272C208.641 51.528 208.757 51.0553 208.8 50.607C208.959 50.4596 209.136 50.3399 209.329 50.2417C209.763 50.4873 209.913 50.8035 209.778 51.1873C209.751 51.5587 209.57 51.9302 209.5 52.2986C209.402 52.7899 209.356 53.3149 209.5 53.7999C209.57 54.0425 209.726 54.4968 210.017 54.5521C210.448 54.6319 210.677 54.1069 210.867 53.8184C210.952 53.6863 210.867 53.2688 210.662 53.4377L210.665 53.4407Z" fill="#8DA0D0"/>
<path d="M207.204 62.212C207.073 61.7577 206.978 61.2941 206.932 60.8243C206.907 60.5757 206.959 60.1336 206.687 59.9923C206.382 59.8296 206.113 60.2748 205.954 60.4621C205.654 60.8059 205.278 61.1467 205.061 61.552C205.055 61.5642 205.049 61.5796 205.043 61.598C205.021 61.598 204.997 61.598 204.972 61.5949C204.731 61.5796 204.725 62.1261 204.936 62.1783C205.253 62.2581 205.571 62.344 205.889 62.4269C205.801 62.8199 205.721 63.2129 205.636 63.6059C205.626 63.6458 205.617 63.6857 205.608 63.7256C205.241 63.6703 204.899 63.8423 204.559 64.0664C204.385 64.18 204.431 64.6988 204.663 64.5791C204.929 64.4409 205.202 64.3212 205.471 64.3181C205.385 64.708 205.318 65.101 205.342 65.5001C205.348 65.5953 205.461 65.7672 205.544 65.6199C205.749 65.2514 205.828 64.84 205.899 64.4256C205.941 64.4501 205.984 64.4747 206.024 64.5054C206.339 64.7541 206.501 65.1471 206.846 65.3528C206.999 65.4449 207.021 65.1194 206.993 65.0457C206.816 64.619 206.403 64.1186 205.999 63.873C206.085 63.4217 206.18 62.9704 206.259 62.516C206.479 62.5712 206.703 62.6265 206.926 62.6725C207.164 62.7217 207.259 62.4085 207.207 62.2212L207.204 62.212Z" fill="#8DA0D0"/>
<path d="M191.303 63.8576C191.199 62.9181 190.383 61.7515 189.316 61.9633C188.469 62.1322 187.879 63.0072 187.759 63.8361C187.707 63.8914 187.671 63.9743 187.674 64.0971C187.704 65.2484 188.634 66.2032 189.829 65.9606C190.783 65.7672 191.407 64.8063 191.303 63.8576ZM188.135 64.0848C188.135 64.0418 188.126 64.008 188.117 63.9743C188.27 63.4769 188.631 62.9703 189.083 62.737C189.728 62.4085 190.401 62.8629 190.698 63.4523C191.636 65.3128 188.187 66.0896 188.135 64.0817V64.0848Z" fill="#8DA0D0"/>
<path d="M189.634 63.3633C189.508 63.3817 189.423 63.483 189.383 63.5997C189.022 63.7317 189.102 64.6681 189.64 64.533C189.9 64.4685 190.04 64.2291 190.055 63.9712C190.071 63.7317 189.945 63.3142 189.631 63.3633H189.634Z" fill="#8DA0D0"/>
<path d="M205.03 71.5605C205.027 71.5267 205.021 71.4838 205.006 71.4531C204.984 71.3886 204.936 71.361 204.856 71.3671C204.795 71.3149 204.737 71.3088 204.685 71.3548C204.587 71.3886 204.492 71.4899 204.413 71.5544C204.391 71.5697 204.376 71.5943 204.361 71.6188C204.159 71.3855 203.878 71.2381 203.554 71.2566C203.544 71.2566 203.538 71.2566 203.529 71.2566C203.526 71.2566 203.523 71.2566 203.517 71.2566C203.517 71.2566 203.514 71.2566 203.511 71.2566C203.474 71.2596 203.437 71.2658 203.401 71.2719C203.37 71.2781 203.346 71.2996 203.324 71.321C203.291 71.3333 203.26 71.3456 203.23 71.361C203.205 71.2903 203.171 71.2259 203.119 71.1737C203.083 71.1399 203.064 71.0969 203.034 71.0355C203.019 71.014 203.019 71.011 203.034 71.0324C203.028 71.0202 203.022 71.011 203.016 70.9987C202.997 70.9618 202.985 70.9189 202.96 70.8851C202.869 70.7561 202.725 70.7346 202.621 70.8636C202.477 71.0386 202.502 71.318 202.56 71.5206C202.581 71.5943 202.615 71.6557 202.652 71.7109C202.435 71.9105 202.297 72.1776 202.312 72.546C202.331 72.9605 202.594 73.3903 202.957 73.6482C202.887 73.8938 202.765 74.1394 202.636 74.385C202.456 74.3083 202.276 74.2284 202.095 74.1548C201.863 74.0565 201.826 74.5477 201.97 74.6521C202.104 74.7473 202.239 74.8333 202.377 74.9161C202.254 75.1986 202.172 75.4841 202.199 75.7788C202.211 75.9201 202.328 76.0828 202.45 75.9293C202.615 75.7236 202.701 75.4196 202.783 75.1403C202.82 75.1587 202.853 75.1802 202.887 75.1955C203.141 75.3214 203.523 75.5701 203.789 75.392C203.905 75.3153 203.905 75.1525 203.841 75.0389C203.679 74.7504 203.34 74.6767 203.046 74.56C203.028 74.5508 203.006 74.5447 202.988 74.5354C203.077 74.2929 203.159 74.0473 203.208 73.7894C203.358 73.8508 203.514 73.8877 203.676 73.8815C204.312 73.8539 204.688 73.028 204.685 72.4693C204.685 72.3587 204.666 72.2482 204.639 72.1408C204.642 72.1408 204.645 72.1377 204.651 72.1346C204.838 71.9873 205.061 71.8245 205.027 71.5574L205.03 71.5605ZM203.523 73.2982C203.037 73.2921 202.49 72.8315 202.667 72.2881C202.71 72.1561 202.786 72.0425 202.884 71.9381C202.896 71.9473 202.908 71.9566 202.921 71.9627C203.08 72.0517 203.214 71.8276 203.242 71.7079C203.248 71.6895 203.248 71.668 203.251 71.6465C203.257 71.6434 203.263 71.6403 203.269 71.6342C203.291 71.7048 203.337 71.7539 203.413 71.7478C203.92 71.7079 204.391 71.975 204.4 72.5491C204.407 73.0403 203.969 73.3013 203.526 73.2951L203.523 73.2982Z" fill="#8DA0D0"/>
<path d="M197.91 93.8679C197.803 93.9263 197.708 93.9938 197.622 94.0675C197.439 93.7451 197.155 93.4658 196.864 93.2232C196.941 93.1526 197.014 93.082 197.087 93.0083C197.185 92.9101 197.188 92.6583 197.041 92.6C196.757 92.4864 196.467 92.3912 196.192 92.2592C196.088 92.2101 196.002 92.3544 195.996 92.4373C195.968 92.8149 195.929 93.1526 195.996 93.5302C196.005 93.5886 196.048 93.6592 196.103 93.6868C196.13 93.7267 196.167 93.7451 196.216 93.7175C196.347 93.6408 196.473 93.5517 196.592 93.4566C196.736 93.6193 196.879 93.785 197.023 93.9508C197.139 94.0828 197.246 94.2302 197.375 94.353C197.02 94.8657 196.98 95.5719 197.252 96.1675C197.616 96.9565 198.689 97.4323 199.46 96.9319C200.227 96.4346 200.508 95.1083 200.01 94.3407C199.567 93.6101 198.628 93.478 197.907 93.8679H197.91ZM198.998 96.5788C198.316 96.7139 197.543 96.3824 197.396 95.6425C197.142 94.3592 199.111 93.5671 199.818 94.6232C200.114 95.3447 199.848 96.41 199.001 96.5788H198.998Z" fill="#8DA0D0"/>
<path d="M202.587 95.139C202.364 95.0315 202.098 95.1021 201.857 95.1205C201.591 95.142 201.328 95.1697 201.062 95.1881C200.845 95.2034 200.866 95.6394 201.074 95.667C201.34 95.7039 201.606 95.7376 201.872 95.7468C202.117 95.7561 202.392 95.799 202.6 95.664C202.765 95.5565 202.777 95.2311 202.587 95.139Z" fill="#8DA0D0"/>
<path d="M160.366 85.3269C160.277 85.3729 160.198 85.4313 160.127 85.4927C159.977 85.2287 159.745 84.9984 159.504 84.7988C159.559 84.7466 159.614 84.6914 159.669 84.6392C159.766 84.541 159.766 84.2923 159.623 84.2309C159.378 84.1265 159.124 84.0436 158.883 83.93C158.739 83.8625 158.687 84.0896 158.681 84.1756C158.666 84.4857 158.632 84.7651 158.687 85.0751C158.696 85.1335 158.739 85.2041 158.794 85.2317C158.819 85.2655 158.855 85.2778 158.901 85.2532C159.014 85.1887 159.121 85.1151 159.225 85.0352C159.354 85.1826 159.479 85.333 159.608 85.4804C159.696 85.5817 159.779 85.6892 159.873 85.7813C159.574 86.2357 159.546 86.8527 159.785 87.3716C160.103 88.0685 161.048 88.4953 161.729 88.0532C162.408 87.6111 162.665 86.426 162.212 85.7506C161.824 85.1089 161.002 84.9861 160.366 85.3269ZM161.313 87.6817C160.736 87.7922 160.066 87.5282 159.941 86.8957C159.727 85.8089 161.417 85.155 162.011 86.0361C162.252 86.6532 162.032 87.5435 161.31 87.6817H161.313Z" fill="#8DA0D0"/>
<path d="M164.622 86.4567C164.456 86.3063 164.154 86.3646 163.918 86.3984C163.931 86.1927 163.931 85.987 163.848 85.812C163.796 85.6984 163.698 85.6707 163.616 85.7721C163.481 85.9378 163.463 86.1988 163.46 86.4444C163.255 86.4628 163.053 86.4843 162.848 86.4966C162.631 86.5089 162.653 86.951 162.861 86.9755C163.053 87.0001 163.249 87.0155 163.441 87.0277C163.426 87.2948 163.423 87.5896 163.579 87.7891C163.64 87.8659 163.726 87.8689 163.781 87.783C163.918 87.5834 163.906 87.304 163.894 87.0492C164.138 87.0646 164.475 87.1045 164.631 86.9264C164.741 86.8005 164.747 86.5734 164.618 86.4567H164.622Z" fill="#8DA0D0"/>
<path d="M160.879 105.989C160.861 105.961 160.84 105.937 160.809 105.927C159.528 105.485 158.137 106.112 157.914 107.527C157.727 108.7 158.455 110.054 159.696 110.232C159.779 110.244 159.858 110.253 159.938 110.259C159.889 110.769 159.883 111.309 159.916 111.853C159.531 111.871 159.146 111.902 158.767 111.929C158.55 111.945 158.562 112.411 158.779 112.421C159.17 112.436 159.571 112.457 159.968 112.464C160.026 112.952 160.112 113.431 160.222 113.876C160.259 114.02 160.418 114.174 160.531 113.993C160.809 113.535 160.659 113.001 160.592 112.5C160.592 112.485 160.592 112.47 160.586 112.454C160.861 112.442 161.136 112.414 161.405 112.365C161.607 112.329 161.595 111.942 161.393 111.911C161.106 111.865 160.812 111.85 160.516 111.843C160.467 111.318 160.436 110.793 160.384 110.272C161.338 110.222 162.072 109.722 162.295 108.623C162.488 107.662 161.983 106.151 160.876 105.992L160.879 105.989ZM161.849 108.549C161.641 109.209 160.925 109.833 160.222 109.805C160.198 109.796 160.17 109.796 160.143 109.802C160.1 109.796 160.057 109.79 160.014 109.78C159.091 109.565 158.164 108.694 158.296 107.68C158.452 106.489 159.733 106.075 160.745 106.354C160.772 106.36 160.794 106.36 160.815 106.354C161.158 106.615 161.564 106.818 161.757 107.229C161.937 107.613 161.974 108.15 161.849 108.552V108.549Z" fill="#8DA0D0"/>
<path d="M191.832 112.682C191.832 112.682 191.813 112.709 191.807 112.722C191.783 112.688 191.749 112.663 191.709 112.66C190.808 112.547 189.906 112.758 189.086 112.243C188.132 111.641 187.704 110.358 188.001 109.289C188.065 109.105 187.983 108.81 187.784 108.875C185.598 109.581 185.821 113.096 186.961 114.567C187.668 115.478 188.762 115.411 189.774 115.11C191.052 114.732 191.716 114.134 192.021 112.844C192.046 112.743 191.917 112.525 191.832 112.682ZM187.802 114.422C186.258 113.615 186.151 110.49 187.646 109.55C187.432 110.511 187.704 111.546 188.331 112.319C189.071 113.231 190.386 113.443 191.492 113.179C190.646 114.244 189.12 115.113 187.802 114.422Z" fill="#8DA0D0"/>
</g>
<defs>
<clipPath id="clip0_8_1768">
<rect width="97" height="147" fill="white" transform="translate(119 8)"/>
</clipPath>
</defs>
</svg>
