<svg width="114" height="65" viewBox="0 0 114 65" fill="none" xmlns="http://www.w3.org/2000/svg">
<circle cx="57" cy="-14" r="61" fill="#99E1EF"/>
<circle cx="57" cy="-14" r="69.5" stroke="#99E1EF"/>
<circle cx="57" cy="-14" r="78.5" stroke="#99E1EF"/>
<g clip-path="url(#clip0_1_88)">
<path d="M90.2357 19.234C108.59 0.879377 108.59 -28.8794 90.2357 -47.234C71.8811 -65.5887 42.1223 -65.5887 23.7677 -47.234C5.41306 -28.8794 5.41306 0.879376 23.7677 19.234C42.1223 37.5887 71.8811 37.5887 90.2357 19.234Z" fill="url(#paint0_radial_1_88)"/>
<path d="M34.4556 -55.2462C34.2544 -55.1376 34.0532 -55.0209 33.8521 -54.9082C33.2002 -52.5021 32.645 -49.8465 32.311 -47.0179C32.0495 -44.9819 31.9087 -42.8655 31.8684 -40.7088C31.8161 -38.5562 31.8966 -36.3633 32.0817 -34.1825C32.1581 -33.0881 32.2989 -32.0057 32.4237 -30.9194C32.5846 -29.841 32.7295 -28.7627 32.9307 -27.7045C33.3049 -25.584 33.7676 -23.5078 34.2987 -21.5282C35.3368 -17.5529 36.6404 -13.9437 37.8717 -10.9018C39.1069 -7.85994 40.2939 -5.39346 41.155 -3.68341C41.5774 -2.82638 41.9355 -2.16248 42.1729 -1.70781C42.4143 -1.25314 42.5391 -1.01173 42.5391 -1.01173C42.5391 -1.01173 42.6678 -0.770306 42.9213 -0.323683C43.1788 0.118916 43.5369 0.782812 44.0278 1.60363C44.9935 3.25332 46.442 5.57898 48.3291 8.26274C50.2121 10.9505 52.566 13.9763 55.3101 17.0222C55.986 17.7947 56.7143 18.5391 57.4346 19.3076C58.1789 20.056 58.9152 20.8285 59.7039 21.5649C61.249 23.0657 62.8866 24.5142 64.5725 25.9064C66.7171 27.6767 68.9582 29.3264 71.2235 30.8152C71.5052 30.7267 71.7909 30.6341 72.0725 30.5416C69.6946 28.9563 67.3327 27.1939 65.0875 25.2907C63.4338 23.8945 61.8284 22.442 60.3155 20.9412C59.547 20.2049 58.8267 19.4323 58.0944 18.6839C57.3903 17.9114 56.6741 17.1711 56.0142 16.3985C53.3264 13.3567 51.0289 10.3389 49.1901 7.66724C47.3473 4.99555 45.935 2.68599 44.9935 1.04435C44.5147 0.227552 44.1646 -0.4283 43.9152 -0.866875C43.6657 -1.30947 43.541 -1.54687 43.541 -1.54687C43.541 -1.54687 43.4122 -1.78426 43.1708 -2.23088C42.9294 -2.67751 42.5713 -3.32933 42.1488 -4.17832C41.2837 -5.86422 40.0887 -8.29449 38.8414 -11.2921C37.5981 -14.2897 36.2743 -17.8466 35.2121 -21.7656C34.6648 -23.7211 34.1901 -25.7611 33.7957 -27.8574C33.5865 -28.9035 33.4296 -29.9658 33.2606 -31.028C33.1238 -32.0983 32.9749 -33.1686 32.8824 -34.2469C32.6731 -36.3995 32.5685 -38.5642 32.5927 -40.6927C32.6047 -42.8212 32.7134 -44.9216 32.9468 -46.9374C33.2525 -49.9229 33.8038 -52.7234 34.4596 -55.2382L34.4556 -55.2462Z" fill="#99E1EF"/>
<path d="M27.028 19.2674C26.7826 17.7947 26.4365 16.3301 26.006 14.9862C25.5835 13.6383 25.0363 12.4272 24.5293 11.4173C24.0143 10.4073 23.4993 9.61065 23.1331 9.06344C22.7629 8.51622 22.5376 8.21445 22.5376 8.21445C22.5376 8.21445 22.4813 8.138 22.3727 8.0012C22.268 7.86037 22.1031 7.65919 21.8938 7.4057C21.4794 6.8947 20.8557 6.18654 20.0711 5.38181C18.5059 3.76029 16.2527 1.80481 13.8788 0.0102733C13.1626 -0.53694 12.4222 -1.05197 11.6779 -1.53078C11.7784 -1.16463 11.8831 -0.798476 11.9917 -0.43635C12.4584 -0.0903177 12.9252 0.271806 13.3839 0.64198C15.6653 2.49687 17.834 4.48857 19.3107 6.10205C20.051 6.90677 20.6344 7.60286 21.0247 8.10581C21.2219 8.35528 21.3748 8.55243 21.4714 8.68924C21.572 8.82604 21.6243 8.89847 21.6243 8.89847C21.6243 8.89847 21.8496 9.18012 22.2157 9.69917C22.5819 10.2142 23.0889 10.9626 23.6079 11.9162C24.1189 12.8698 24.6701 14.0125 25.1168 15.296C25.5714 16.5796 25.9497 17.9878 26.2394 19.4203C26.4084 20.2451 26.5452 21.078 26.6618 21.8988C26.9194 22.1161 27.1769 22.3293 27.4344 22.5386C27.3418 21.4723 27.2131 20.3739 27.028 19.2754V19.2674Z" fill="#99E1EF"/>
<path d="M31.635 21.758C31.3534 20.905 31.1361 20.233 31.0114 19.7663C30.8786 19.3036 30.8102 19.0541 30.8102 19.0541C30.8102 19.0541 30.7458 18.8046 30.6251 18.3379C30.4964 17.8712 30.3394 17.1791 30.1383 16.2979C29.748 14.5316 29.3215 11.9725 28.8748 8.87835C28.4282 5.78418 27.9212 2.14682 27.0803 -1.69574C26.2434 -5.53831 25.1007 -9.59412 23.4993 -13.485C21.9059 -17.3718 19.8378 -21.0816 17.4115 -24.1959C16.2004 -25.753 14.9088 -27.1613 13.6052 -28.4086C13.2672 -28.7426 12.9171 -29.0564 12.5711 -29.3582C12.5107 -29.1811 12.4504 -29.0041 12.39 -28.823C12.6717 -28.5655 12.9533 -28.3 13.2269 -28.0183C14.4904 -26.767 15.7377 -25.3547 16.9086 -23.8096C19.2503 -20.7114 21.2299 -17.0338 22.7549 -13.1832C24.2879 -9.33259 25.3743 -5.31298 26.1629 -1.50261C26.9556 2.31179 27.4223 5.91696 27.8408 9.0232C28.2592 12.1294 28.6696 14.7247 29.0519 16.5273C29.249 17.4286 29.4019 18.1367 29.5307 18.6155C29.6514 19.0943 29.7158 19.3519 29.7158 19.3519C29.7158 19.3519 29.7882 19.6053 29.929 20.0801C30.0578 20.5589 30.2871 21.251 30.5849 22.1282C30.9551 23.1783 31.4902 24.5021 32.2507 25.9587C32.8542 26.3329 33.4658 26.695 34.0854 27.041C32.8703 25.0171 32.1098 23.1502 31.631 21.758H31.635Z" fill="#99E1EF"/>
<path d="M62.3595 28.4292C60.404 27.214 58.4726 25.9707 57.0483 25.0051C55.6279 24.0313 54.6784 23.3835 54.6784 23.3835C54.6784 23.3835 53.7248 22.7438 52.2964 21.7821C50.872 20.8124 49.001 19.4806 47.1542 18.1126C45.3154 16.7325 43.5007 15.3242 42.1488 14.2499C40.7969 13.1756 39.8875 12.4634 39.8352 12.5238C39.7869 12.5801 40.5916 13.4049 41.8631 14.5839C43.1306 15.7668 44.8768 17.2757 46.6633 18.7443C48.4578 20.2008 50.2926 21.6131 51.6928 22.6351C52.3889 23.1542 52.9844 23.5646 53.3948 23.8623C53.8052 24.1561 54.0426 24.3251 54.0426 24.3251C54.0426 24.3251 54.2841 24.482 54.7106 24.7556C55.1371 25.0252 55.7406 25.4316 56.481 25.8822C57.9496 26.8076 59.9373 27.9906 61.9571 29.1212C63.8361 30.1593 65.7273 31.1451 67.2442 31.8774C67.4695 31.8291 67.6948 31.7768 67.9201 31.7245C67.8839 31.7044 67.8477 31.6802 67.8075 31.6601C66.3107 30.7991 64.327 29.6322 62.3635 28.4332L62.3595 28.4292Z" fill="#99E1EF"/>
<path d="M28.6737 -36.5766C29.921 -32.3236 30.8907 -27.9902 31.5707 -23.8941C32.2507 -19.794 32.6329 -15.9354 32.822 -12.6199C33.0152 -9.3004 33.0916 -6.52007 33.1761 -4.57263C33.2646 -2.6252 33.3129 -1.51065 33.3129 -1.51065C33.3129 -1.51065 33.3733 -0.396107 33.5181 1.55133C33.6871 3.49877 33.9325 6.29117 34.5723 9.59859C34.8741 11.2563 35.3408 13.0267 35.9122 14.8736C36.0731 15.3282 36.2421 15.791 36.4071 16.2617C36.4916 16.4951 36.572 16.7325 36.6646 16.9659C36.7652 17.1952 36.8658 17.4286 36.9664 17.6619C37.1716 18.1287 37.3607 18.6075 37.586 19.0742C37.8234 19.5369 38.0648 20.0037 38.3062 20.4745C39.3001 22.3454 40.5434 24.1561 41.9677 25.8581C43.3961 27.556 45.0136 29.1293 46.7438 30.5577C47.4881 31.1733 48.2567 31.7567 49.0372 32.32C49.5965 32.4166 50.1558 32.5011 50.7231 32.5775C49.5321 31.7567 48.3693 30.8836 47.2588 29.9421C45.5809 28.5177 44.0117 26.9646 42.6397 25.2948C41.2676 23.6249 40.0806 21.8546 39.1391 20.0319C38.9098 19.5732 38.6804 19.1185 38.4551 18.6678C38.2418 18.2132 38.0608 17.7424 37.8676 17.2918C37.7711 17.0624 37.6785 16.8371 37.582 16.6118C37.4935 16.3824 37.421 16.1531 37.3406 15.9237C37.1836 15.465 37.0267 15.0144 36.8698 14.5718C36.3306 12.7652 35.892 11.031 35.6064 9.40545C35.0068 6.15838 34.7855 3.39817 34.6327 1.47085C34.4999 -0.46049 34.4516 -1.57101 34.4516 -1.57101C34.4516 -1.57101 34.3953 -2.68153 34.2906 -4.62092C34.1941 -6.56433 34.0935 -9.34466 33.8682 -12.6843C33.6469 -16.0279 33.2244 -19.9228 32.5001 -24.051C31.7759 -28.1793 30.7539 -32.5369 29.4462 -36.8059C28.1989 -40.8376 26.7826 -44.829 24.992 -48.4101C24.8271 -48.2572 24.6621 -48.1043 24.5012 -47.9473C26.175 -44.4387 27.5068 -40.5238 28.6777 -36.5726L28.6737 -36.5766Z" fill="#99E1EF"/>
</g>
<defs>
<radialGradient id="paint0_radial_1_88" cx="0" cy="0" r="1" gradientUnits="userSpaceOnUse" gradientTransform="translate(57.0029 -13.9988) scale(47)">
<stop stop-color="#00FFC2"/>
<stop offset="0.5" stop-color="#8EE1EE"/>
<stop offset="1" stop-color="#D1E1EE"/>
</radialGradient>
<clipPath id="clip0_1_88">
<rect width="94" height="94" fill="white" transform="translate(10 -61)"/>
</clipPath>
</defs>
</svg>
