<svg width="19" height="18" viewBox="0 0 19 18" fill="none" xmlns="http://www.w3.org/2000/svg">
<circle cx="9.02698" cy="9.00024" r="9" fill="#99E1EF"/>
<g clip-path="url(#clip0_668_17052)">
<path d="M13.9306 13.9036C16.6387 11.1956 16.6387 6.80493 13.9306 4.09686C11.2225 1.3888 6.8319 1.3888 4.12384 4.09686C1.41578 6.80493 1.41578 11.1956 4.12384 13.9036C6.8319 16.6117 11.2225 16.6117 13.9306 13.9036Z" fill="url(#paint0_radial_668_17052)"/>
<path d="M5.70068 2.91474C5.671 2.93077 5.64132 2.94798 5.61163 2.9646C5.51546 3.31961 5.43354 3.71142 5.38426 4.12875C5.34568 4.42914 5.3249 4.7414 5.31896 5.0596C5.31125 5.3772 5.32312 5.70074 5.35043 6.0225C5.36171 6.18397 5.38248 6.34366 5.40089 6.50395C5.42463 6.66304 5.446 6.82214 5.47569 6.97827C5.5309 7.29113 5.59917 7.59745 5.67753 7.88952C5.83069 8.47605 6.02303 9.00856 6.20469 9.45736C6.38694 9.90615 6.56207 10.2701 6.68911 10.5224C6.75144 10.6488 6.80428 10.7468 6.8393 10.8138C6.87492 10.8809 6.89332 10.9165 6.89332 10.9165C6.89332 10.9165 6.91232 10.9522 6.94972 11.0181C6.98771 11.0834 7.04055 11.1813 7.11297 11.3024C7.25545 11.5458 7.46916 11.8889 7.74759 12.2849C8.02541 12.6815 8.3727 13.1279 8.77757 13.5773C8.8773 13.6913 8.98475 13.8011 9.09102 13.9145C9.20084 14.0249 9.30948 14.1389 9.42583 14.2475C9.6538 14.4689 9.89541 14.6827 10.1442 14.8881C10.4606 15.1493 10.7912 15.3927 11.1255 15.6123C11.167 15.5993 11.2092 15.5856 11.2507 15.572C10.8999 15.3381 10.5514 15.078 10.2201 14.7972C9.97615 14.5912 9.73928 14.3769 9.51607 14.1555C9.40268 14.0469 9.29642 13.9329 9.18837 13.8225C9.08449 13.7085 8.97882 13.5993 8.88146 13.4853C8.4849 13.0365 8.14593 12.5912 7.87463 12.1971C7.60274 11.8029 7.39436 11.4621 7.25545 11.2199C7.18481 11.0994 7.13316 11.0026 7.09635 10.9379C7.05955 10.8726 7.04114 10.8376 7.04114 10.8376C7.04114 10.8376 7.02215 10.8026 6.98653 10.7367C6.95091 10.6708 6.89807 10.5746 6.83574 10.4493C6.7081 10.2006 6.53179 9.84204 6.34776 9.39977C6.16432 8.9575 5.96901 8.43271 5.81229 7.8545C5.73155 7.56599 5.6615 7.26501 5.60332 6.95571C5.57245 6.80136 5.5493 6.64464 5.52437 6.48792C5.50418 6.33001 5.48222 6.1721 5.46856 6.013C5.43769 5.69539 5.42226 5.37601 5.42582 5.06197C5.4276 4.74793 5.44363 4.43804 5.47806 4.14063C5.52318 3.70014 5.60451 3.28696 5.70127 2.91592L5.70068 2.91474Z" fill="#99E1EF"/>
<path d="M4.60486 13.9085C4.56865 13.6913 4.5176 13.4752 4.45408 13.2769C4.39174 13.078 4.31101 12.8993 4.23621 12.7503C4.16022 12.6013 4.08423 12.4838 4.03021 12.403C3.97559 12.3223 3.94235 12.2778 3.94235 12.2778C3.94235 12.2778 3.93404 12.2665 3.91801 12.2463C3.90257 12.2255 3.87824 12.1959 3.84737 12.1585C3.78622 12.0831 3.6942 11.9786 3.57844 11.8599C3.34751 11.6206 3.01507 11.3321 2.66481 11.0673C2.55914 10.9866 2.44991 10.9106 2.34009 10.84C2.35493 10.894 2.37036 10.948 2.38639 11.0014C2.45526 11.0525 2.52412 11.1059 2.5918 11.1605C2.9284 11.4342 3.24837 11.7281 3.46624 11.9661C3.57547 12.0849 3.66155 12.1876 3.71914 12.2618C3.74823 12.2986 3.77078 12.3277 3.78503 12.3478C3.79987 12.368 3.80759 12.3787 3.80759 12.3787C3.80759 12.3787 3.84084 12.4203 3.89486 12.4968C3.94888 12.5728 4.02368 12.6832 4.10026 12.8239C4.17565 12.9646 4.25698 13.1332 4.32288 13.3226C4.38996 13.512 4.44576 13.7198 4.48851 13.9311C4.51344 14.0528 4.53362 14.1757 4.55084 14.2968C4.58883 14.3288 4.62683 14.3603 4.66482 14.3912C4.65117 14.2339 4.63217 14.0718 4.60486 13.9097V13.9085Z" fill="#99E1EF"/>
<path d="M5.28462 14.276C5.24306 14.1502 5.21101 14.051 5.1926 13.9822C5.17301 13.9139 5.16292 13.8771 5.16292 13.8771C5.16292 13.8771 5.15342 13.8403 5.13561 13.7714C5.11662 13.7025 5.09346 13.6004 5.06378 13.4704C5.0062 13.2098 4.94327 12.8323 4.87737 12.3757C4.81148 11.9192 4.73668 11.3826 4.61261 10.8156C4.48913 10.2487 4.32053 9.65029 4.08426 9.07623C3.84917 8.50276 3.54404 7.95542 3.18607 7.49593C3.00738 7.26619 2.81682 7.05841 2.62447 6.87438C2.57461 6.82511 2.52296 6.77881 2.4719 6.73428C2.463 6.7604 2.4541 6.78652 2.44519 6.81324C2.48675 6.85123 2.5283 6.89041 2.56867 6.93197C2.75508 7.11659 2.93911 7.32496 3.11186 7.55292C3.45736 8.01004 3.74944 8.55263 3.97443 9.12075C4.20061 9.68888 4.3609 10.2819 4.47725 10.8441C4.5942 11.4069 4.66307 11.9388 4.72481 12.3971C4.78655 12.8554 4.8471 13.2383 4.9035 13.5043C4.93258 13.6372 4.95514 13.7417 4.97414 13.8124C4.99195 13.883 5.00145 13.921 5.00145 13.921C5.00145 13.921 5.01213 13.9584 5.03291 14.0285C5.05191 14.0991 5.08575 14.2012 5.12968 14.3306C5.18429 14.4856 5.26325 14.6809 5.37545 14.8958C5.46449 14.951 5.55473 15.0044 5.64615 15.0555C5.46687 14.7569 5.35467 14.4814 5.28403 14.276H5.28462Z" fill="#99E1EF"/>
<path d="M9.8177 15.2603C9.52918 15.081 9.24423 14.8976 9.03408 14.7551C8.82452 14.6114 8.68442 14.5158 8.68442 14.5158C8.68442 14.5158 8.54372 14.4215 8.33298 14.2796C8.12283 14.1365 7.84678 13.94 7.57429 13.7382C7.303 13.5345 7.03526 13.3268 6.83579 13.1683C6.63633 13.0098 6.50216 12.9047 6.49444 12.9136C6.48732 12.9219 6.60605 13.0436 6.79364 13.2175C6.98064 13.3921 7.23829 13.6147 7.50187 13.8314C7.76664 14.0463 8.03734 14.2546 8.24393 14.4054C8.34663 14.482 8.43449 14.5426 8.49504 14.5865C8.5556 14.6298 8.59062 14.6548 8.59062 14.6548C8.59062 14.6548 8.62624 14.6779 8.68917 14.7183C8.7521 14.7581 8.84114 14.818 8.95037 14.8845C9.16706 15.021 9.46032 15.1956 9.75833 15.3624C10.0356 15.5156 10.3146 15.661 10.5384 15.769C10.5716 15.7619 10.6049 15.7542 10.6381 15.7465C10.6328 15.7435 10.6274 15.74 10.6215 15.737C10.4007 15.6099 10.108 15.4378 9.81829 15.2609L9.8177 15.2603Z" fill="#99E1EF"/>
<path d="M4.84767 5.66927C5.0317 6.29676 5.17477 6.93612 5.2751 7.54046C5.37543 8.14539 5.43182 8.7147 5.45972 9.20387C5.48822 9.69363 5.4995 10.1038 5.51197 10.3912C5.52503 10.6785 5.53215 10.8429 5.53215 10.8429C5.53215 10.8429 5.54105 11.0074 5.56243 11.2947C5.58736 11.582 5.62357 11.994 5.71796 12.482C5.76249 12.7266 5.83135 12.9878 5.91565 13.2603C5.93939 13.3274 5.96433 13.3956 5.98867 13.4651C6.00113 13.4995 6.01301 13.5345 6.02666 13.569C6.0415 13.6028 6.05634 13.6372 6.07118 13.6717C6.10146 13.7405 6.12936 13.8112 6.16261 13.88C6.19763 13.9483 6.23325 14.0172 6.26887 14.0866C6.4155 14.3627 6.59894 14.6298 6.80909 14.8809C7.01984 15.1315 7.25848 15.3636 7.51375 15.5743C7.62358 15.6652 7.73697 15.7512 7.85213 15.8343C7.93465 15.8486 8.01717 15.8611 8.10087 15.8723C7.92515 15.7512 7.75359 15.6224 7.58974 15.4835C7.34219 15.2733 7.11067 15.0442 6.90823 14.7978C6.7058 14.5515 6.53067 14.2903 6.39175 14.0213C6.35792 13.9537 6.32408 13.8866 6.29083 13.8201C6.25937 13.753 6.23266 13.6835 6.20416 13.6171C6.18991 13.5832 6.17626 13.55 6.16201 13.5167C6.14895 13.4829 6.13827 13.4491 6.12639 13.4152C6.10324 13.3475 6.08009 13.2811 6.05694 13.2158C5.97739 12.9492 5.91268 12.6933 5.87053 12.4535C5.78208 11.9744 5.74943 11.5672 5.72687 11.2828C5.70728 10.9979 5.70015 10.834 5.70015 10.834C5.70015 10.834 5.69184 10.6702 5.67641 10.384C5.66216 10.0973 5.64732 9.6871 5.61407 9.19437C5.58142 8.70105 5.51909 8.12639 5.41223 7.51731C5.30537 6.90822 5.15459 6.2653 4.96165 5.63544C4.77762 5.0406 4.56866 4.4517 4.30448 3.92335C4.28014 3.94591 4.2558 3.96847 4.23206 3.99162C4.47901 4.50928 4.67551 5.0869 4.84826 5.66987L4.84767 5.66927Z" fill="#99E1EF"/>
</g>
<defs>
<radialGradient id="paint0_radial_668_17052" cx="0" cy="0" r="1" gradientUnits="userSpaceOnUse" gradientTransform="translate(9.0274 9.00042) scale(6.93443)">
<stop stop-color="#00FFC2"/>
<stop offset="0.5" stop-color="#8EE1EE"/>
<stop offset="1" stop-color="#D1E1EE"/>
</radialGradient>
<clipPath id="clip0_668_17052">
<rect width="13.8689" height="13.8689" fill="white" transform="translate(2.09253 2.06582)"/>
</clipPath>
</defs>
</svg>
