<svg width="149" height="65" viewBox="0 0 149 65" fill="none" xmlns="http://www.w3.org/2000/svg">
<g filter="url(#filter0_d_6_9245)">
<rect x="10.5" y="10.5" width="128" height="44" rx="16" fill="white"/>
<path d="M58 27.5C58 28.8807 56.8807 30 55.5 30C54.1192 30 53 28.8807 53 27.5C53 26.1193 54.1192 25 55.5 25C56.8807 25 58 26.1193 58 27.5Z" stroke="#5480F0" stroke-width="1.5"/>
<path d="M47.7368 31.3815L53.2602 28.6198" stroke="#5480F0" stroke-width="1.5"/>
<path d="M48 32.5C48 33.8807 46.8807 35 45.5 35C44.1193 35 43 33.8807 43 32.5C43 31.1192 44.1193 30 45.5 30C46.8807 30 48 31.1192 48 32.5Z" stroke="#5480F0" stroke-width="1.5"/>
<path d="M53.2628 36.3815L47.7446 33.6224" stroke="#5480F0" stroke-width="1.5"/>
<path d="M58 37.5C58 38.8807 56.8807 40 55.5 40C54.1192 40 53 38.8807 53 37.5C53 36.1192 54.1192 35 55.5 35C56.8807 35 58 36.1192 58 37.5Z" stroke="#5480F0" stroke-width="1.5"/>
<path d="M66.125 37.8672L66.875 36.0469C67.6771 36.6094 68.4661 36.8906 69.2422 36.8906C70.4349 36.8906 71.0312 36.474 71.0312 35.6406C71.0312 35.25 70.8906 34.8776 70.6094 34.5234C70.3281 34.1693 69.7474 33.7734 68.8672 33.3359C67.9922 32.8932 67.401 32.5312 67.0938 32.25C66.7917 31.9635 66.5573 31.625 66.3906 31.2344C66.2292 30.8438 66.1484 30.4115 66.1484 29.9375C66.1484 29.0521 66.4714 28.3177 67.1172 27.7344C67.7682 27.151 68.6016 26.8594 69.6172 26.8594C70.9401 26.8594 71.9115 27.1068 72.5312 27.6016L71.9141 29.3516C71.2005 28.8411 70.4479 28.5859 69.6562 28.5859C69.1875 28.5859 68.8229 28.7109 68.5625 28.9609C68.3073 29.2057 68.1797 29.526 68.1797 29.9219C68.1797 30.5781 68.9062 31.2604 70.3594 31.9688C71.125 32.3438 71.6771 32.6901 72.0156 33.0078C72.3542 33.3203 72.612 33.6875 72.7891 34.1094C72.9661 34.526 73.0547 34.9922 73.0547 35.5078C73.0547 36.4349 72.6875 37.1979 71.9531 37.7969C71.224 38.3958 70.2448 38.6953 69.0156 38.6953C67.9479 38.6953 66.9844 38.4193 66.125 37.8672ZM80.1562 38.5V33.3438C80.1562 32.8281 79.9948 32.4141 79.6719 32.1016C79.349 31.7891 78.9271 31.6328 78.4062 31.6328C78.0833 31.6328 77.7578 31.7214 77.4297 31.8984C77.1016 32.0703 76.8672 32.2682 76.7266 32.4922V38.5H74.7422V27.0156L76.7266 26.5469V30.6641C77.2318 30.2057 77.9271 29.9766 78.8125 29.9766C79.8594 29.9766 80.6719 30.2682 81.25 30.8516C81.8281 31.4297 82.1172 32.2604 82.1172 33.3438V38.5H80.1562ZM88.8828 37.6641C88.7057 37.9557 88.3958 38.1953 87.9531 38.3828C87.5156 38.5651 87.0573 38.6562 86.5781 38.6562C85.6771 38.6562 84.9688 38.4323 84.4531 37.9844C83.9375 37.5312 83.6797 36.8906 83.6797 36.0625C83.6797 35.0938 84.0417 34.3359 84.7656 33.7891C85.4948 33.2422 86.5286 32.9688 87.8672 32.9688C88.0964 32.9688 88.3672 33.0078 88.6797 33.0859C88.6797 32.1016 88.0573 31.6094 86.8125 31.6094C86.0781 31.6094 85.4635 31.7318 84.9688 31.9766L84.5469 30.4609C85.2188 30.138 86.0182 29.9766 86.9453 29.9766C88.2214 29.9766 89.1562 30.2682 89.75 30.8516C90.3438 31.4297 90.6406 32.5286 90.6406 34.1484V35.9375C90.6406 37.0521 90.8646 37.7526 91.3125 38.0391C91.151 38.3203 90.9714 38.4922 90.7734 38.5547C90.5755 38.6224 90.349 38.6562 90.0938 38.6562C89.8125 38.6562 89.5599 38.5521 89.3359 38.3438C89.112 38.1354 88.9609 37.9089 88.8828 37.6641ZM88.6953 34.5625C88.362 34.4948 88.112 34.4609 87.9453 34.4609C86.4036 34.4609 85.6328 34.9661 85.6328 35.9766C85.6328 36.7266 86.0677 37.1016 86.9375 37.1016C88.1094 37.1016 88.6953 36.5156 88.6953 35.3438V34.5625ZM97.5938 31.9531C97.2448 31.724 96.862 31.6094 96.4453 31.6094C95.9922 31.6094 95.5885 31.8151 95.2344 32.2266C94.8854 32.638 94.7109 33.1406 94.7109 33.7344V38.5H92.7578V30.1328H94.7109V30.8984C95.2578 30.2839 95.9844 29.9766 96.8906 29.9766C97.5573 29.9766 98.0677 30.0781 98.4219 30.2812L97.5938 31.9531ZM107.07 34.9141H101.094C101.13 35.5807 101.359 36.099 101.781 36.4688C102.203 36.8385 102.771 37.0234 103.484 37.0234C104.375 37.0234 105.052 36.7917 105.516 36.3281L106.273 37.8203C105.586 38.3776 104.56 38.6562 103.195 38.6562C101.919 38.6562 100.909 38.2839 100.164 37.5391C99.4245 36.7891 99.0547 35.7448 99.0547 34.4062C99.0547 33.0885 99.4609 32.0208 100.273 31.2031C101.091 30.3854 102.07 29.9766 103.211 29.9766C104.424 29.9766 105.398 30.3385 106.133 31.0625C106.867 31.7865 107.234 32.7083 107.234 33.8281C107.234 34.0677 107.18 34.4297 107.07 34.9141ZM101.164 33.4453H105.273C105.138 32.2214 104.461 31.6094 103.242 31.6094C102.128 31.6094 101.435 32.2214 101.164 33.4453Z" fill="#5480F0"/>
</g>
<defs>
<filter id="filter0_d_6_9245" x="0.5" y="0.5" width="148" height="64" filterUnits="userSpaceOnUse" color-interpolation-filters="sRGB">
<feFlood flood-opacity="0" result="BackgroundImageFix"/>
<feColorMatrix in="SourceAlpha" type="matrix" values="0 0 0 0 0 0 0 0 0 0 0 0 0 0 0 0 0 0 127 0" result="hardAlpha"/>
<feOffset/>
<feGaussianBlur stdDeviation="5"/>
<feComposite in2="hardAlpha" operator="out"/>
<feColorMatrix type="matrix" values="0 0 0 0 0 0 0 0 0 0 0 0 0 0 0 0 0 0 0.15 0"/>
<feBlend mode="normal" in2="BackgroundImageFix" result="effect1_dropShadow_6_9245"/>
<feBlend mode="normal" in="SourceGraphic" in2="effect1_dropShadow_6_9245" result="shape"/>
</filter>
</defs>
</svg>
