<svg width="199" height="44" viewBox="0 0 199 44" fill="none" xmlns="http://www.w3.org/2000/svg">
<rect width="199" height="44" rx="16" fill="#F6F7FA"/>
<path d="M47.5 17C47.5 18.3807 46.3807 19.5 45 19.5C43.6192 19.5 42.5 18.3807 42.5 17C42.5 15.6193 43.6192 14.5 45 14.5C46.3807 14.5 47.5 15.6193 47.5 17Z" stroke="#5480F0" stroke-width="1.5"/>
<path d="M37.2368 20.8815L42.7602 18.1198" stroke="#5480F0" stroke-width="1.5"/>
<path d="M37.5 22C37.5 23.3807 36.3807 24.5 35 24.5C33.6193 24.5 32.5 23.3807 32.5 22C32.5 20.6192 33.6193 19.5 35 19.5C36.3807 19.5 37.5 20.6192 37.5 22Z" stroke="#5480F0" stroke-width="1.5"/>
<path d="M42.7628 25.8815L37.2446 23.1224" stroke="#5480F0" stroke-width="1.5"/>
<path d="M47.5 27C47.5 28.3807 46.3807 29.5 45 29.5C43.6192 29.5 42.5 28.3807 42.5 27C42.5 25.6192 43.6192 24.5 45 24.5C46.3807 24.5 47.5 25.6192 47.5 27Z" stroke="#5480F0" stroke-width="1.5"/>
<path d="M55.625 27.3672L56.375 25.5469C57.1771 26.1094 57.9661 26.3906 58.7422 26.3906C59.9349 26.3906 60.5312 25.974 60.5312 25.1406C60.5312 24.75 60.3906 24.3776 60.1094 24.0234C59.8281 23.6693 59.2474 23.2734 58.3672 22.8359C57.4922 22.3932 56.901 22.0312 56.5938 21.75C56.2917 21.4635 56.0573 21.125 55.8906 20.7344C55.7292 20.3438 55.6484 19.9115 55.6484 19.4375C55.6484 18.5521 55.9714 17.8177 56.6172 17.2344C57.2682 16.651 58.1016 16.3594 59.1172 16.3594C60.4401 16.3594 61.4115 16.6068 62.0312 17.1016L61.4141 18.8516C60.7005 18.3411 59.9479 18.0859 59.1562 18.0859C58.6875 18.0859 58.3229 18.2109 58.0625 18.4609C57.8073 18.7057 57.6797 19.026 57.6797 19.4219C57.6797 20.0781 58.4062 20.7604 59.8594 21.4688C60.625 21.8438 61.1771 22.1901 61.5156 22.5078C61.8542 22.8203 62.112 23.1875 62.2891 23.6094C62.4661 24.026 62.5547 24.4922 62.5547 25.0078C62.5547 25.9349 62.1875 26.6979 61.4531 27.2969C60.724 27.8958 59.7448 28.1953 58.5156 28.1953C57.4479 28.1953 56.4844 27.9193 55.625 27.3672ZM69.6562 28V22.8438C69.6562 22.3281 69.4948 21.9141 69.1719 21.6016C68.849 21.2891 68.4271 21.1328 67.9062 21.1328C67.5833 21.1328 67.2578 21.2214 66.9297 21.3984C66.6016 21.5703 66.3672 21.7682 66.2266 21.9922V28H64.2422V16.5156L66.2266 16.0469V20.1641C66.7318 19.7057 67.4271 19.4766 68.3125 19.4766C69.3594 19.4766 70.1719 19.7682 70.75 20.3516C71.3281 20.9297 71.6172 21.7604 71.6172 22.8438V28H69.6562ZM78.3828 27.1641C78.2057 27.4557 77.8958 27.6953 77.4531 27.8828C77.0156 28.0651 76.5573 28.1562 76.0781 28.1562C75.1771 28.1562 74.4688 27.9323 73.9531 27.4844C73.4375 27.0312 73.1797 26.3906 73.1797 25.5625C73.1797 24.5938 73.5417 23.8359 74.2656 23.2891C74.9948 22.7422 76.0286 22.4688 77.3672 22.4688C77.5964 22.4688 77.8672 22.5078 78.1797 22.5859C78.1797 21.6016 77.5573 21.1094 76.3125 21.1094C75.5781 21.1094 74.9635 21.2318 74.4688 21.4766L74.0469 19.9609C74.7188 19.638 75.5182 19.4766 76.4453 19.4766C77.7214 19.4766 78.6562 19.7682 79.25 20.3516C79.8438 20.9297 80.1406 22.0286 80.1406 23.6484V25.4375C80.1406 26.5521 80.3646 27.2526 80.8125 27.5391C80.651 27.8203 80.4714 27.9922 80.2734 28.0547C80.0755 28.1224 79.849 28.1562 79.5938 28.1562C79.3125 28.1562 79.0599 28.0521 78.8359 27.8438C78.612 27.6354 78.4609 27.4089 78.3828 27.1641ZM78.1953 24.0625C77.862 23.9948 77.612 23.9609 77.4453 23.9609C75.9036 23.9609 75.1328 24.4661 75.1328 25.4766C75.1328 26.2266 75.5677 26.6016 76.4375 26.6016C77.6094 26.6016 78.1953 26.0156 78.1953 24.8438V24.0625ZM87.0938 21.4531C86.7448 21.224 86.362 21.1094 85.9453 21.1094C85.4922 21.1094 85.0885 21.3151 84.7344 21.7266C84.3854 22.138 84.2109 22.6406 84.2109 23.2344V28H82.2578V19.6328H84.2109V20.3984C84.7578 19.7839 85.4844 19.4766 86.3906 19.4766C87.0573 19.4766 87.5677 19.5781 87.9219 19.7812L87.0938 21.4531ZM96.5703 24.4141H90.5938C90.6302 25.0807 90.8594 25.599 91.2812 25.9688C91.7031 26.3385 92.2708 26.5234 92.9844 26.5234C93.875 26.5234 94.5521 26.2917 95.0156 25.8281L95.7734 27.3203C95.0859 27.8776 94.0599 28.1562 92.6953 28.1562C91.4193 28.1562 90.4089 27.7839 89.6641 27.0391C88.9245 26.2891 88.5547 25.2448 88.5547 23.9062C88.5547 22.5885 88.9609 21.5208 89.7734 20.7031C90.5911 19.8854 91.5703 19.4766 92.7109 19.4766C93.9245 19.4766 94.8984 19.8385 95.6328 20.5625C96.3672 21.2865 96.7344 22.2083 96.7344 23.3281C96.7344 23.5677 96.6797 23.9297 96.5703 24.4141ZM90.6641 22.9453H94.7734C94.638 21.7214 93.9609 21.1094 92.7422 21.1094C91.6276 21.1094 90.9349 21.7214 90.6641 22.9453ZM113.922 28.0078H111.953L110.766 21.8359L108.461 28.1562H107.734L105.43 21.8359L104.195 28.0078H102.234L104.539 16.5547H105.617L108.094 24.2656L110.516 16.5547H111.586L113.922 28.0078ZM118.758 29.3438C118.549 29.901 118.102 30.362 117.414 30.7266C116.732 31.0964 115.935 31.2812 115.023 31.2812V29.5547C116.529 29.5547 117.281 29.1771 117.281 28.4219C117.281 27.9219 117.073 27.1562 116.656 26.125L114.039 19.6328H116.062L118.344 25.4141L120.398 19.6328H122.422L118.758 29.3438ZM128 27.3672L128.75 25.5469C129.552 26.1094 130.341 26.3906 131.117 26.3906C132.31 26.3906 132.906 25.974 132.906 25.1406C132.906 24.75 132.766 24.3776 132.484 24.0234C132.203 23.6693 131.622 23.2734 130.742 22.8359C129.867 22.3932 129.276 22.0312 128.969 21.75C128.667 21.4635 128.432 21.125 128.266 20.7344C128.104 20.3438 128.023 19.9115 128.023 19.4375C128.023 18.5521 128.346 17.8177 128.992 17.2344C129.643 16.651 130.477 16.3594 131.492 16.3594C132.815 16.3594 133.786 16.6068 134.406 17.1016L133.789 18.8516C133.076 18.3411 132.323 18.0859 131.531 18.0859C131.062 18.0859 130.698 18.2109 130.438 18.4609C130.182 18.7057 130.055 19.026 130.055 19.4219C130.055 20.0781 130.781 20.7604 132.234 21.4688C133 21.8438 133.552 22.1901 133.891 22.5078C134.229 22.8203 134.487 23.1875 134.664 23.6094C134.841 24.026 134.93 24.4922 134.93 25.0078C134.93 25.9349 134.562 26.6979 133.828 27.2969C133.099 27.8958 132.12 28.1953 130.891 28.1953C129.823 28.1953 128.859 27.9193 128 27.3672ZM143.18 20.2969L142.344 21.7578C141.885 21.3255 141.271 21.1094 140.5 21.1094C139.76 21.1094 139.174 21.3568 138.742 21.8516C138.315 22.3411 138.102 23.0208 138.102 23.8906C138.102 25.6458 138.938 26.5234 140.609 26.5234C141.333 26.5234 141.971 26.2839 142.523 25.8047L143.242 27.3438C142.674 27.6979 142.177 27.9219 141.75 28.0156C141.328 28.1094 140.828 28.1562 140.25 28.1562C138.958 28.1562 137.938 27.7812 137.188 27.0312C136.443 26.276 136.07 25.2292 136.07 23.8906C136.07 22.5729 136.479 21.5078 137.297 20.6953C138.115 19.8828 139.229 19.4766 140.641 19.4766C141.615 19.4766 142.461 19.75 143.18 20.2969ZM144.258 23.7969C144.258 22.5208 144.625 21.4818 145.359 20.6797C146.099 19.8776 147.073 19.4766 148.281 19.4766C149.552 19.4766 150.539 19.862 151.242 20.6328C151.945 21.4036 152.297 22.4583 152.297 23.7969C152.297 25.1302 151.938 26.1901 151.219 26.9766C150.505 27.763 149.526 28.1562 148.281 28.1562C147.01 28.1562 146.021 27.7604 145.312 26.9688C144.609 26.1719 144.258 25.1146 144.258 23.7969ZM146.289 23.7969C146.289 25.6406 146.953 26.5625 148.281 26.5625C148.891 26.5625 149.372 26.3229 149.727 25.8438C150.086 25.3646 150.266 24.6823 150.266 23.7969C150.266 21.9792 149.604 21.0703 148.281 21.0703C147.672 21.0703 147.188 21.3099 146.828 21.7891C146.469 22.2682 146.289 22.9375 146.289 23.7969ZM158.703 21.4531C158.354 21.224 157.971 21.1094 157.555 21.1094C157.102 21.1094 156.698 21.3151 156.344 21.7266C155.995 22.138 155.82 22.6406 155.82 23.2344V28H153.867V19.6328H155.82V20.3984C156.367 19.7839 157.094 19.4766 158 19.4766C158.667 19.4766 159.177 19.5781 159.531 19.7812L158.703 21.4531ZM168.18 24.4141H162.203C162.24 25.0807 162.469 25.599 162.891 25.9688C163.312 26.3385 163.88 26.5234 164.594 26.5234C165.484 26.5234 166.161 26.2917 166.625 25.8281L167.383 27.3203C166.695 27.8776 165.669 28.1562 164.305 28.1562C163.029 28.1562 162.018 27.7839 161.273 27.0391C160.534 26.2891 160.164 25.2448 160.164 23.9062C160.164 22.5885 160.57 21.5208 161.383 20.7031C162.201 19.8854 163.18 19.4766 164.32 19.4766C165.534 19.4766 166.508 19.8385 167.242 20.5625C167.977 21.2865 168.344 22.2083 168.344 23.3281C168.344 23.5677 168.289 23.9297 168.18 24.4141ZM162.273 22.9453H166.383C166.247 21.7214 165.57 21.1094 164.352 21.1094C163.237 21.1094 162.544 21.7214 162.273 22.9453Z" fill="#5480F0"/>
</svg>
