<svg width="18" height="19" viewBox="0 0 18 19" fill="none" xmlns="http://www.w3.org/2000/svg">
<path d="M11.439 8.51672C10.6987 7.63172 10.329 7.18922 9.903 7.25672C9.47775 7.32497 9.279 7.85897 8.8815 8.92697L8.778 9.20297C8.6655 9.50672 8.6085 9.65822 8.49825 9.76997C8.38875 9.88172 8.23725 9.94097 7.93575 10.0595L7.6605 10.1667C6.59775 10.583 6.066 10.7915 6.00525 11.2167C5.94525 11.642 6.39524 12.0035 7.29599 12.725L7.5285 12.9125C7.785 13.1172 7.91325 13.22 7.98675 13.3602C8.06175 13.5005 8.073 13.6632 8.09625 13.988L8.118 14.2835C8.2005 15.4257 8.2425 15.9972 8.63025 16.1922C9.018 16.3872 9.49575 16.076 10.4505 15.455L10.6972 15.2937C10.9687 15.1175 11.1045 15.029 11.2597 15.0035C11.4157 14.9787 11.5747 15.02 11.8905 15.1025L12.1792 15.1775C13.293 15.467 13.8502 15.6125 14.151 15.3072C14.451 15.002 14.2957 14.4492 13.9852 13.3422L13.9042 13.0572C13.8165 12.7422 13.7722 12.5847 13.794 12.4295C13.8165 12.2735 13.9027 12.137 14.0745 11.8625L14.232 11.6135C14.8372 10.6497 15.1395 10.1682 14.937 9.78497C14.7352 9.40172 14.1622 9.37022 13.0155 9.30872L12.7185 9.29222C12.393 9.27497 12.2295 9.26597 12.0877 9.19472C11.9452 9.12347 11.8402 8.99747 11.6302 8.74547L11.439 8.51672Z" fill="#E48D21"/>
<path d="M11.1585 4.37525L11.2957 4.76675C11.4465 5.1965 11.5222 5.41175 11.6685 5.56925C11.8155 5.72825 12.0165 5.81225 12.4192 5.9795L12.786 6.1325C14.2035 6.722 14.9122 7.0175 14.9925 7.61975C15.0262 7.87025 14.9422 8.10575 14.745 8.36825C14.682 8.35125 14.6184 8.33625 14.5545 8.32325C14.16 8.243 13.6582 8.216 13.1467 8.18825L12.7792 8.16875L12.6067 8.159L12.4935 8.024L12.2565 7.74125C11.9265 7.34525 11.604 6.959 11.3025 6.6905C10.9822 6.404 10.4467 6.0305 9.72524 6.146C8.99624 6.263 8.60774 6.79325 8.39774 7.17125C8.20349 7.52225 8.02874 7.99175 7.85174 8.4665L7.72424 8.81L7.67024 8.95475C7.62974 8.96975 7.58324 8.9885 7.52549 9.01175L7.18349 9.14525C6.71099 9.3305 6.24374 9.51275 5.89574 9.713C5.52224 9.92825 4.99574 10.3257 4.89149 11.0577C4.78874 11.783 5.17499 12.3125 5.46674 12.6267C5.68424 12.86 5.97749 13.1067 6.29024 13.3602C5.11349 13.679 4.48799 13.7982 4.13249 13.4142C3.73199 12.9822 3.93899 12.1992 4.35374 10.6317L4.46024 10.2267C4.57799 9.7805 4.63724 9.5585 4.60799 9.33725C4.57799 9.11675 4.46324 8.9225 4.23374 8.53475L4.02524 8.18225C3.21749 6.8165 2.81399 6.134 3.08249 5.59025C3.35249 5.04725 4.11674 5.003 5.64599 4.91525L6.04124 4.89275C6.47624 4.86725 6.69299 4.85525 6.88274 4.754C7.07174 4.65275 7.21199 4.475 7.49249 4.118L7.74749 3.794C8.73449 2.53925 9.22799 1.91225 9.79499 2.009C10.362 2.10575 10.6275 2.86175 11.1577 4.3745L11.1585 4.37525Z" fill="#E48D21"/>
</svg>
