<svg width="234" height="217" viewBox="0 0 234 217" fill="none" xmlns="http://www.w3.org/2000/svg">
<path opacity="0.2" d="M-22.6224 0H-89V248.143H234C230.392 242.565 224.57 237.274 215.568 237.79C215.568 237.79 203.217 237.254 198.161 244.748C198.161 244.748 176.823 198.723 127.972 222.807C127.972 222.807 128.534 208.892 116.74 204.609C104.947 200.326 92.596 212.639 92.596 212.639C92.596 212.639 89.2272 180.529 62.8334 170.891C36.4448 161.258 14.5445 178.385 14.5445 178.385C14.5445 178.385 15.6692 173.035 6.11975 168.216C6.11975 168.216 22.4017 150.553 -0.0556335 136.637C-0.0556335 136.637 17.9134 127.54 3.31322 109.342C3.31322 109.342 18.4757 99.7087 11.738 79.9069L3.67772 74.1401C3.67772 74.1401 0.88681 70.418 -6.63717 73.3411C-6.63717 73.3411 -13.0521 62.9786 -25.0384 64.0407C-25.0384 64.0407 -26.4338 40.6557 -54.5928 37.7326C-54.5928 37.7326 -34.5149 27.6332 -40.6487 9.56342C-40.6487 9.56342 -28.9956 8.25323 -22.6172 0L-22.6224 0Z" fill="url(#paint0_radial_6_14928)"/>
<defs>
<radialGradient id="paint0_radial_6_14928" cx="0" cy="0" r="1" gradientUnits="userSpaceOnUse" gradientTransform="translate(15.6848 71.6438) scale(178.883 170.499)">
<stop offset="0.06" stop-color="#FCE085"/>
<stop offset="0.96" stop-color="#E988FD"/>
</radialGradient>
</defs>
</svg>
