<svg width="114" height="70" viewBox="0 0 114 70" fill="none" xmlns="http://www.w3.org/2000/svg">
<g clip-path="url(#clip0_6_104)">
<circle cx="57" cy="-14" r="61" fill="#FEDE44"/>
<g clip-path="url(#clip1_6_104)">
<path d="M56.6536 32.7516C82.6651 32.7516 103.752 11.6651 103.752 -14.3464C103.752 -40.3579 82.6651 -61.4444 56.6536 -61.4444C30.642 -61.4444 9.55554 -40.3579 9.55554 -14.3464C9.55554 11.6651 30.642 32.7516 56.6536 32.7516Z" fill="url(#paint0_radial_6_104)"/>
<path style="mix-blend-mode:multiply" opacity="0.45" d="M56.6536 -61.4444C56.4276 -61.4444 56.2017 -61.4444 55.9607 -61.4294C69.2602 -55.5854 78.5533 -42.301 78.5533 -26.8476C78.5533 -5.98715 61.639 10.9272 40.7785 10.9272C28.5032 10.9272 17.6136 5.06816 10.7153 -3.999C15.4296 17.0272 34.2116 32.7365 56.6536 32.7365C82.6652 32.7365 103.752 11.6501 103.752 -14.3615C103.752 -40.3731 82.6652 -61.4444 56.6536 -61.4444Z" fill="url(#paint1_radial_6_104)"/>
<path style="mix-blend-mode:multiply" opacity="0.45" d="M88.1326 -44.3945C92.6059 -37.5415 95.2116 -29.3629 95.2116 -20.5669C95.2116 3.56199 75.6464 23.1272 51.5175 23.1272C38.8054 23.1272 27.3886 17.6748 19.4059 9.01433C27.1928 20.9733 40.658 28.8958 56.0059 28.8958C80.1348 28.8958 99.7 9.33063 99.7 -14.7983C99.7 -26.2301 95.302 -36.6227 88.1175 -44.4096L88.1326 -44.3945Z" fill="url(#paint2_radial_6_104)"/>
<path style="mix-blend-mode:screen" d="M60.675 11.379C58.7321 9.05951 56.759 7.43285 55.3281 6.39359C54.6052 5.88149 54.0479 5.47482 53.6261 5.2489C53.2195 5.00791 53.0086 4.87235 53.0086 4.87235C53.0086 4.87235 52.7978 4.7368 52.3911 4.49581C51.9694 4.28495 51.3518 3.95359 50.5686 3.54693C48.9721 2.79384 46.6526 1.82989 43.7607 0.986432C38.0071 -0.790852 30.0847 -1.70962 22.3429 -3.0953C18.4871 -3.84838 14.6615 -4.84246 11.2424 -6.18295C10.881 -6.31851 10.5496 -6.48418 10.2032 -6.61974C10.2484 -6.3185 10.3086 -6.00221 10.3689 -5.70098C10.5647 -5.61061 10.7454 -5.52024 10.9412 -5.44493C14.3903 -3.999 18.2461 -2.92962 22.1471 -2.10122C26.0481 -1.30295 29.9642 -0.715544 33.594 -0.0377661C37.239 0.62495 40.5827 1.3931 43.3842 2.25162C46.1857 3.09507 48.4299 4.07408 49.9661 4.79705C50.7192 5.18865 51.3066 5.50495 51.6982 5.71581C52.0898 5.9568 52.2857 6.0773 52.2857 6.0773C52.2857 6.0773 52.4965 6.19779 52.8881 6.43878C53.2797 6.6647 53.837 7.02618 54.5299 7.52322C55.9155 8.48717 57.7982 10.0235 59.696 12.2225C63.5518 16.5 67.016 23.6393 68.4017 31.2756C68.7331 31.1852 69.0494 31.0948 69.3657 31.0045C68.6879 27.1788 67.5884 23.4435 66.0973 20.0998C64.561 16.6657 62.6481 13.6684 60.675 11.379Z" fill="url(#paint3_radial_6_104)"/>
<path style="mix-blend-mode:screen" d="M53.837 32.2696C52.5267 29.0314 51.4573 26.9528 51.4573 26.9528C51.4573 26.9528 51.1862 26.4407 50.6891 25.537C50.2072 24.6333 49.4842 23.3682 48.5202 21.9072C46.6225 19.0003 43.5951 15.1746 39.438 12.8249C35.3262 10.4301 30.642 9.54149 27.223 9.04445C25.5059 8.80347 24.06 8.66791 23.0509 8.57754C22.0417 8.50223 21.4694 8.47211 21.4543 8.53235C21.4543 8.57754 22.0116 8.69803 23.0057 8.86371C23.9997 9.04445 25.4155 9.28544 27.1175 9.58668C30.4914 10.2343 35.04 11.2887 38.9109 13.6835C42.8118 16.018 45.6133 19.7383 47.4057 22.6C48.3094 24.0459 48.9872 25.2961 49.4541 26.1847C49.921 27.0733 50.177 27.5854 50.177 27.5854C50.177 27.5854 51.2163 29.5133 52.5267 32.5408C53.0086 32.5859 53.4906 32.6311 53.9876 32.6462C53.9274 32.5106 53.8822 32.3751 53.822 32.2395L53.837 32.2696Z" fill="url(#paint4_radial_6_104)"/>
<path style="mix-blend-mode:screen" d="M101.824 -27.676C100.137 -24.5583 98.4047 -20.7928 96.9286 -16.922C95.1062 -11.801 93.7054 -6.52937 92.9975 -2.49283C92.5607 -0.489615 92.4402 1.21236 92.2444 2.38718C92.0788 3.56199 91.9884 4.23977 91.9884 4.23977C91.9884 4.23977 91.9432 4.91754 91.883 6.10742C91.8528 7.2973 91.6269 8.99927 91.6721 11.0326C91.6269 12.8099 91.6721 14.8432 91.8077 17.0121C92.1993 16.5753 92.5909 16.1385 92.9523 15.6867C92.9072 14.0299 92.9222 12.4635 92.9825 11.0627C92.9825 9.04446 93.2235 7.38767 93.2686 6.21285C93.359 5.03804 93.4042 4.37532 93.4042 4.37532C93.4042 4.37532 93.4795 3.71261 93.6301 2.53779C93.8109 1.37804 93.8862 -0.308876 94.2928 -2.28196C94.9104 -6.25826 96.1906 -11.4847 97.8775 -16.5906C99.1578 -20.1904 100.649 -23.6997 102.11 -26.7121C102.02 -27.0284 101.929 -27.3597 101.839 -27.676H101.824Z" fill="url(#paint5_radial_6_104)"/>
<path style="mix-blend-mode:screen" d="M84.9244 13.7136C84.2466 10.6862 83.6894 7.83952 83.3881 5.36939C83.2074 4.13433 83.0869 3.00471 82.9965 2.01063C82.8911 1.0015 82.8158 0.127916 82.7857 -0.595047C82.7103 -2.04097 82.6652 -2.86937 82.6652 -2.86937C82.6652 -2.86937 82.635 -3.69776 82.6049 -5.14369C82.5748 -5.86665 82.5748 -6.74023 82.6049 -7.74937C82.6049 -8.7585 82.635 -9.88813 82.7103 -11.1383C82.8007 -13.6234 83.117 -16.5002 83.5387 -19.5728C84.0057 -22.6454 84.6834 -25.8837 85.5118 -29.1069C86.3854 -32.3 87.4247 -35.4629 88.5392 -38.3699C89.6237 -41.081 90.7232 -43.5662 91.7926 -45.7049C91.657 -45.8555 91.5215 -46.0062 91.3859 -46.1568C90.196 -44.018 88.9911 -41.4575 87.8012 -38.6711C86.5963 -35.7642 85.4817 -32.6012 84.5328 -29.378C83.6291 -26.1397 82.8911 -22.8713 82.3639 -19.7686C81.882 -16.6659 81.5205 -13.7439 81.3849 -11.2136C81.2945 -9.96345 81.2494 -8.80369 81.2343 -7.77949C81.2042 -6.75529 81.1891 -5.86666 81.2192 -5.12863C81.2494 -3.65258 81.2494 -2.80912 81.2494 -2.80912C81.2494 -2.80912 81.3096 -1.96567 81.4 -0.50468C81.4452 0.233344 81.5205 1.12198 81.641 2.13112C81.7464 3.15532 81.882 4.30001 82.0778 5.55014C82.4242 8.05038 83.0266 10.9272 83.7647 13.9847C84.4575 16.6506 85.3462 19.437 86.3402 22.2084C86.6264 21.9825 86.9126 21.7415 87.1837 21.5005C86.3101 18.8798 85.5269 16.244 84.9094 13.7136H84.9244Z" fill="url(#paint6_radial_6_104)"/>
<path style="mix-blend-mode:screen" d="M74.9385 20.8077C74.0197 17.1627 73.5377 14.7077 73.5377 14.7077C73.5377 14.7077 72.9805 12.2677 72.3629 8.56248C71.7303 4.8573 71.1731 -0.128131 71.0375 -5.14369C70.9019 -10.1592 71.2484 -15.1748 71.7755 -18.9101C72.0165 -20.7778 72.2876 -22.3291 72.4985 -23.4136C72.6943 -24.498 72.7997 -25.1155 72.7395 -25.1306C72.6943 -25.1306 72.4985 -24.5432 72.2123 -23.4738C71.9261 -22.4044 71.5647 -20.8681 71.2333 -19.0005C70.5254 -15.2652 70.0434 -10.2044 70.0434 -5.14369C70.0434 -0.0678845 70.5254 4.99285 71.0827 8.74322C71.6249 12.5087 72.1671 14.9938 72.1671 14.9938C72.1671 14.9938 72.6943 17.479 73.6884 21.139C74.2758 23.3079 75.059 25.8985 75.9627 28.6247C76.3091 28.4741 76.6706 28.3084 77.017 28.1427C76.1886 25.4617 75.4807 22.9314 74.9535 20.8077H74.9385Z" fill="url(#paint7_radial_6_104)"/>
</g>
<circle cx="57" cy="-14" r="69.5" stroke="#FEDE44"/>
<circle cx="57" cy="-14" r="78.5" stroke="#FEDE44"/>
</g>
<defs>
<radialGradient id="paint0_radial_6_104" cx="0" cy="0" r="1" gradientUnits="userSpaceOnUse" gradientTransform="translate(42.7817 -19.4825) scale(86.0627)">
<stop offset="0.08" stop-color="#FFE245"/>
<stop offset="1" stop-color="#E38427"/>
</radialGradient>
<radialGradient id="paint1_radial_6_104" cx="0" cy="0" r="1" gradientUnits="userSpaceOnUse" gradientTransform="translate(43.5348 -60.6913) scale(85.4452 85.4452)">
<stop offset="0.08" stop-color="#FFE245"/>
<stop offset="1" stop-color="#E38427"/>
</radialGradient>
<radialGradient id="paint2_radial_6_104" cx="0" cy="0" r="1" gradientUnits="userSpaceOnUse" gradientTransform="translate(47.737 -11.7558) scale(70.7148 70.7148)">
<stop offset="0.08" stop-color="#FFE245"/>
<stop offset="1" stop-color="#E38427"/>
</radialGradient>
<radialGradient id="paint3_radial_6_104" cx="0" cy="0" r="1" gradientUnits="userSpaceOnUse" gradientTransform="translate(39.7844 12.3279) scale(24.8368 24.8368)">
<stop offset="0.08" stop-color="#FFE245"/>
<stop offset="1" stop-color="#E38427"/>
</radialGradient>
<radialGradient id="paint4_radial_6_104" cx="0" cy="0" r="1" gradientUnits="userSpaceOnUse" gradientTransform="translate(37.736 20.5968) scale(14.3237 14.3237)">
<stop offset="0.08" stop-color="#FFE245"/>
<stop offset="1" stop-color="#E38427"/>
</radialGradient>
<radialGradient id="paint5_radial_6_104" cx="0" cy="0" r="1" gradientUnits="userSpaceOnUse" gradientTransform="translate(96.8835 -5.33949) scale(16.2215)">
<stop offset="0.08" stop-color="#FFE245"/>
<stop offset="1" stop-color="#E38427"/>
</radialGradient>
<radialGradient id="paint6_radial_6_104" cx="0" cy="0" r="1" gradientUnits="userSpaceOnUse" gradientTransform="translate(86.4908 -11.9817) scale(24.4602 24.4602)">
<stop offset="0.08" stop-color="#FFE245"/>
<stop offset="1" stop-color="#E38427"/>
</radialGradient>
<radialGradient id="paint7_radial_6_104" cx="0" cy="0" r="1" gradientUnits="userSpaceOnUse" gradientTransform="translate(73.5227 1.73952) scale(19.1585 19.1585)">
<stop offset="0.08" stop-color="#FFE245"/>
<stop offset="1" stop-color="#E38427"/>
</radialGradient>
<clipPath id="clip0_6_104">
<rect width="114" height="70" fill="white"/>
</clipPath>
<clipPath id="clip1_6_104">
<rect width="94.196" height="94.196" fill="white" transform="translate(9.55554 -61.4444)"/>
</clipPath>
</defs>
</svg>
