<svg width="19" height="18" viewBox="0 0 19 18" fill="none" xmlns="http://www.w3.org/2000/svg">
<circle cx="9.02698" cy="9.00024" r="9" fill="#FEDE44"/>
<g clip-path="url(#clip0_668_16988)">
<path d="M8.97587 15.898C12.8136 15.898 15.9248 12.7869 15.9248 8.94913C15.9248 5.11137 12.8136 2.00025 8.97587 2.00025C5.1381 2.00025 2.02698 5.11137 2.02698 8.94913C2.02698 12.7869 5.1381 15.898 8.97587 15.898Z" fill="url(#paint0_radial_668_16988)"/>
<path style="mix-blend-mode:multiply" opacity="0.45" d="M8.9759 2.00025C8.94256 2.00025 8.90923 2.00025 8.87368 2.00247C10.8359 2.86469 12.207 4.82469 12.207 7.10469C12.207 10.1825 9.71145 12.678 6.63368 12.678C4.82256 12.678 3.2159 11.8136 2.19812 10.4758C2.89368 13.578 5.66479 15.8958 8.9759 15.8958C12.8137 15.8958 15.9248 12.7847 15.9248 8.94691C15.9248 5.10913 12.8137 2.00025 8.9759 2.00025Z" fill="url(#paint1_radial_668_16988)"/>
<path style="mix-blend-mode:multiply" opacity="0.45" d="M8.78699 2.44025C9.41143 2.7158 9.96921 3.11136 10.4359 3.59802C10.1737 3.1758 9.85365 2.7958 9.48477 2.46691C9.28699 2.44914 9.08477 2.43802 8.88032 2.43802C8.84921 2.43802 8.8181 2.43802 8.78699 2.44025Z" fill="url(#paint2_radial_668_16988)"/>
<path style="mix-blend-mode:multiply" opacity="0.45" d="M13.6203 4.5158C14.2803 5.52691 14.6648 6.73358 14.6648 8.03136C14.6648 11.5914 11.7781 14.478 8.21812 14.478C6.34257 14.478 4.65812 13.6736 3.48035 12.3958C4.62924 14.1602 6.6159 15.3291 8.88035 15.3291C12.4403 15.3291 15.327 12.4425 15.327 8.88247C15.327 7.1958 14.6781 5.66247 13.6181 4.51358L13.6203 4.5158Z" fill="url(#paint3_radial_668_16988)"/>
<path style="mix-blend-mode:screen" d="M3.76688 6.38691C4.32243 6.7358 4.94021 6.98691 5.4291 7.09136C5.67355 7.14469 5.88688 7.16024 6.03577 7.15802C6.18466 7.1558 6.27132 7.14024 6.27132 7.14024C6.27132 7.14024 6.35799 7.13136 6.50243 7.08469C6.64688 7.04247 6.8491 6.95136 7.0491 6.78913C7.45355 6.46913 7.79577 5.8358 7.84021 5.16691C7.8891 4.49802 7.69577 3.85358 7.53355 3.39802C7.45132 3.16913 7.37355 2.98024 7.31799 2.84913C7.26243 2.71802 7.22688 2.64469 7.22021 2.64913C7.20466 2.6558 7.31577 2.96024 7.45799 3.42469C7.59577 3.88469 7.76021 4.52247 7.69355 5.1558C7.63355 5.78691 7.29577 6.36469 6.9291 6.64024C6.74688 6.78024 6.57132 6.8558 6.44243 6.88913C6.31577 6.92691 6.24021 6.93358 6.24021 6.93358C6.24021 6.93358 6.16466 6.94913 6.03132 6.95358C5.89799 6.96025 5.70243 6.94913 5.4691 6.90247C5.00243 6.81358 4.39799 6.58469 3.84466 6.26025C3.49799 6.06025 3.17132 5.83136 2.88021 5.61358C2.86243 5.64691 2.84688 5.67802 2.8291 5.71136C3.11132 5.93802 3.42688 6.17802 3.7691 6.38691H3.76688Z" fill="url(#paint4_radial_668_16988)"/>
<path style="mix-blend-mode:screen" d="M9.5691 12.7447C9.28244 12.4025 8.99133 12.1625 8.78021 12.0091C8.67355 11.9336 8.59133 11.8736 8.5291 11.8402C8.4691 11.8047 8.43799 11.7847 8.43799 11.7847C8.43799 11.7847 8.40688 11.7647 8.34688 11.7291C8.28466 11.698 8.19355 11.6491 8.07799 11.5891C7.84244 11.478 7.50021 11.3358 7.07355 11.2114C6.22466 10.9491 5.05577 10.8136 3.91355 10.6091C3.34466 10.498 2.78021 10.3514 2.27577 10.1536C2.22244 10.1336 2.17355 10.1091 2.12244 10.0891C2.1291 10.1336 2.13799 10.1802 2.14688 10.2247C2.17577 10.238 2.20244 10.2514 2.23133 10.2625C2.74021 10.4758 3.3091 10.6336 3.88466 10.7558C4.46021 10.8736 5.03799 10.9602 5.57355 11.0602C6.11133 11.158 6.60466 11.2714 7.01799 11.398C7.43132 11.5225 7.76244 11.6669 7.9891 11.7736C8.10021 11.8314 8.18688 11.878 8.24466 11.9091C8.30244 11.9447 8.33133 11.9625 8.33133 11.9625C8.33133 11.9625 8.36244 11.9802 8.42021 12.0158C8.47799 12.0491 8.56021 12.1025 8.66244 12.1758C8.86688 12.318 9.14466 12.5447 9.42466 12.8691C9.99355 13.5002 10.5047 14.5536 10.7091 15.6802C10.758 15.6669 10.8047 15.6536 10.8513 15.6402C10.7513 15.0758 10.5891 14.5247 10.3691 14.0314C10.1424 13.5247 9.86021 13.0825 9.5691 12.7447Z" fill="url(#paint5_radial_668_16988)"/>
<path style="mix-blend-mode:screen" d="M4.56248 9.37802C5.15804 9.55358 5.75359 9.72691 6.31137 9.89136C6.59137 9.97358 6.86026 10.0514 7.11582 10.1269C7.37137 10.2002 7.62026 10.278 7.86693 10.2936C8.11359 10.3136 8.35582 10.258 8.53359 10.1514C8.71137 10.0491 8.83804 9.92247 8.93359 9.82024C9.12026 9.60913 9.20248 9.46913 9.20248 9.46913C9.20248 9.46913 9.29582 9.3358 9.41137 9.08247C9.52915 8.82913 9.65804 8.44913 9.72693 7.98025C9.76026 7.74691 9.78915 7.49136 9.78915 7.22025C9.80026 6.95136 9.78915 6.66691 9.76693 6.37358C9.72026 5.78691 9.59804 5.17136 9.42248 4.57136C9.15137 3.64247 8.76026 2.76025 8.39582 2.02913C8.36026 2.03136 8.32693 2.03358 8.29137 2.03802C8.64248 2.78247 9.02248 3.67802 9.28026 4.61358C9.4447 5.20691 9.55582 5.8158 9.59359 6.38913C9.60915 6.6758 9.62026 6.95358 9.6047 7.2158C9.60248 7.48025 9.57137 7.72691 9.53582 7.95136C9.46248 8.40247 9.33582 8.76247 9.22248 8.99802C9.11137 9.2358 9.02248 9.35802 9.02248 9.35802C9.02248 9.35802 8.94693 9.48913 8.77804 9.68691C8.60915 9.87802 8.32026 10.1447 7.87582 10.1047C7.65804 10.0936 7.41804 10.0247 7.16248 9.95358C6.90471 9.88247 6.63582 9.80691 6.35582 9.72913C5.79582 9.57358 5.19804 9.40691 4.60026 9.24025C3.70471 8.99358 2.80693 8.74691 2.03804 8.53358C2.03804 8.56691 2.03359 8.59802 2.03137 8.63136C2.79359 8.85802 3.67582 9.11802 4.56026 9.38025L4.56248 9.37802Z" fill="url(#paint6_radial_668_16988)"/>
<path style="mix-blend-mode:screen" d="M8.56025 15.8269C8.36692 15.3491 8.20914 15.0425 8.20914 15.0425C8.20914 15.0425 8.16914 14.9669 8.0958 14.8336C8.02469 14.7002 7.91803 14.5136 7.7758 14.298C7.4958 13.8691 7.04914 13.3047 6.4358 12.958C5.82914 12.6047 5.13803 12.4736 4.63358 12.4002C4.38025 12.3647 4.16692 12.3447 4.01803 12.3314C3.86914 12.3202 3.78469 12.3158 3.78247 12.3247C3.78247 12.3314 3.86469 12.3491 4.01136 12.3736C4.15803 12.4002 4.36692 12.4358 4.61803 12.4802C5.1158 12.5758 5.78692 12.7314 6.35803 13.0847C6.93358 13.4291 7.34692 13.978 7.61136 14.4002C7.74469 14.6136 7.84469 14.798 7.91358 14.9291C7.98247 15.0602 8.02025 15.1358 8.02025 15.1358C8.02025 15.1358 8.17358 15.4202 8.36692 15.8669C8.43803 15.8736 8.50914 15.8802 8.58247 15.8825C8.57358 15.8625 8.56692 15.8425 8.55803 15.8225L8.56025 15.8269Z" fill="url(#paint7_radial_668_16988)"/>
<path style="mix-blend-mode:screen" d="M15.6403 6.98247C15.3914 7.44247 15.1358 7.99802 14.9181 8.56913C14.6492 9.32469 14.4425 10.1025 14.3381 10.698C14.2736 10.9936 14.2558 11.2447 14.227 11.418C14.2025 11.5914 14.1892 11.6914 14.1892 11.6914C14.1892 11.6914 14.1825 11.7914 14.1736 11.9669C14.1692 12.1425 14.1358 12.3936 14.1425 12.6936C14.1358 12.9558 14.1425 13.2558 14.1625 13.5758C14.2203 13.5114 14.2781 13.4469 14.3314 13.3802C14.3247 13.1358 14.327 12.9047 14.3358 12.698C14.3358 12.4002 14.3714 12.1558 14.3781 11.9825C14.3914 11.8091 14.3981 11.7114 14.3981 11.7114C14.3981 11.7114 14.4092 11.6136 14.4314 11.4402C14.4581 11.2691 14.4692 11.0202 14.5292 10.7291C14.6203 10.1425 14.8092 9.37136 15.0581 8.61802C15.247 8.08691 15.467 7.56913 15.6825 7.12469C15.6692 7.07802 15.6558 7.02913 15.6425 6.98247H15.6403Z" fill="url(#paint8_radial_668_16988)"/>
<path style="mix-blend-mode:screen" d="M13.1469 13.0891C13.0469 12.6425 12.9646 12.2225 12.9202 11.858C12.8935 11.6758 12.8758 11.5091 12.8624 11.3625C12.8469 11.2136 12.8358 11.0847 12.8313 10.978C12.8202 10.7647 12.8135 10.6425 12.8135 10.6425C12.8135 10.6425 12.8091 10.5202 12.8046 10.3069C12.8002 10.2002 12.8002 10.0714 12.8046 9.92247C12.8046 9.77358 12.8091 9.60691 12.8202 9.42247C12.8335 9.0558 12.8802 8.63136 12.9424 8.17802C13.0113 7.72469 13.1113 7.24691 13.2335 6.77136C13.3624 6.30025 13.5158 5.83358 13.6802 5.40469C13.8402 5.00469 14.0024 4.63802 14.1602 4.32247C14.1402 4.30025 14.1202 4.27802 14.1002 4.2558C13.9246 4.57136 13.7469 4.94914 13.5713 5.36025C13.3935 5.78914 13.2291 6.2558 13.0891 6.73136C12.9558 7.20914 12.8469 7.69136 12.7691 8.14914C12.698 8.60691 12.6446 9.03802 12.6246 9.41136C12.6113 9.5958 12.6046 9.76691 12.6024 9.91802C12.598 10.0691 12.5958 10.2002 12.6002 10.3091C12.6046 10.5269 12.6046 10.6514 12.6046 10.6514C12.6046 10.6514 12.6135 10.7758 12.6269 10.9914C12.6335 11.1002 12.6446 11.2314 12.6624 11.3802C12.678 11.5314 12.698 11.7002 12.7269 11.8847C12.778 12.2536 12.8669 12.678 12.9758 13.1291C13.078 13.5225 13.2091 13.9336 13.3558 14.3425C13.398 14.3091 13.4402 14.2736 13.4802 14.238C13.3513 13.8514 13.2358 13.4625 13.1446 13.0891H13.1469Z" fill="url(#paint9_radial_668_16988)"/>
<path style="mix-blend-mode:screen" d="M11.3047 2.45136C11.3358 2.53358 11.3536 2.58025 11.3536 2.58025C11.3536 2.58025 11.3714 2.62691 11.4003 2.70914C11.4292 2.79136 11.4781 2.90691 11.5203 3.05136C11.6158 3.3358 11.7181 3.72247 11.7981 4.1158C11.8692 4.50914 11.9203 4.90913 11.9381 5.21136C11.9581 5.51136 11.9625 5.7158 11.9803 5.7158C11.9914 5.7158 12.0158 5.51358 12.0203 5.20913C12.0269 4.90469 11.9981 4.49802 11.9447 4.09136C11.8825 3.68913 11.7936 3.28913 11.7047 2.99358C11.6669 2.84469 11.6203 2.72469 11.5936 2.64025C11.5647 2.5558 11.5492 2.50691 11.5492 2.50691C11.5492 2.50691 11.5469 2.50025 11.5425 2.49136C11.4558 2.45802 11.3692 2.42469 11.2803 2.39358C11.2892 2.41358 11.2958 2.43358 11.3025 2.45136H11.3047Z" fill="url(#paint10_radial_668_16988)"/>
<path style="mix-blend-mode:screen" d="M11.6736 14.1358C11.5381 13.598 11.467 13.2358 11.467 13.2358C11.467 13.2358 11.3847 12.8758 11.2936 12.3291C11.2003 11.7825 11.1181 11.0469 11.0981 10.3069C11.0781 9.56691 11.1292 8.82691 11.207 8.2758C11.2425 8.00025 11.2825 7.77136 11.3136 7.61136C11.3425 7.45136 11.3581 7.36025 11.3492 7.35802C11.3425 7.35802 11.3136 7.44469 11.2714 7.60247C11.2292 7.76025 11.1759 7.98691 11.127 8.26247C11.0225 8.81358 10.9514 9.56025 10.9514 10.3069C10.9514 11.0558 11.0225 11.8025 11.1047 12.3558C11.1847 12.9114 11.2647 13.278 11.2647 13.278C11.2647 13.278 11.3425 13.6447 11.4892 14.1847C11.5759 14.5047 11.6914 14.8869 11.8247 15.2891C11.8759 15.2669 11.9292 15.2425 11.9803 15.218C11.8581 14.8225 11.7536 14.4491 11.6759 14.1358H11.6736Z" fill="url(#paint11_radial_668_16988)"/>
</g>
<defs>
<radialGradient id="paint0_radial_668_16988" cx="0" cy="0" r="1" gradientUnits="userSpaceOnUse" gradientTransform="translate(6.9292 8.19136) scale(12.6978)">
<stop offset="0.08" stop-color="#FFE245"/>
<stop offset="1" stop-color="#E38427"/>
</radialGradient>
<radialGradient id="paint1_radial_668_16988" cx="0" cy="0" r="1" gradientUnits="userSpaceOnUse" gradientTransform="translate(7.04034 2.11136) scale(12.6067)">
<stop offset="0.08" stop-color="#FFE245"/>
<stop offset="1" stop-color="#E38427"/>
</radialGradient>
<radialGradient id="paint2_radial_668_16988" cx="0" cy="0" r="1" gradientUnits="userSpaceOnUse" gradientTransform="translate(9.36921 2.95358) scale(1.33556)">
<stop offset="0.08" stop-color="#FFE245"/>
<stop offset="1" stop-color="#E38427"/>
</radialGradient>
<radialGradient id="paint3_radial_668_16988" cx="0" cy="0" r="1" gradientUnits="userSpaceOnUse" gradientTransform="translate(7.66035 9.33136) scale(10.4333 10.4333)">
<stop offset="0.08" stop-color="#FFE245"/>
<stop offset="1" stop-color="#E38427"/>
</radialGradient>
<radialGradient id="paint4_radial_668_16988" cx="0" cy="0" r="1" gradientUnits="userSpaceOnUse" gradientTransform="translate(5.33799 4.90469) scale(2.38444)">
<stop offset="0.08" stop-color="#FFE245"/>
<stop offset="1" stop-color="#E38427"/>
</radialGradient>
<radialGradient id="paint5_radial_668_16988" cx="0" cy="0" r="1" gradientUnits="userSpaceOnUse" gradientTransform="translate(6.48688 12.8847) scale(3.66444)">
<stop offset="0.08" stop-color="#FFE245"/>
<stop offset="1" stop-color="#E38427"/>
</radialGradient>
<radialGradient id="paint6_radial_668_16988" cx="0" cy="0" r="1" gradientUnits="userSpaceOnUse" gradientTransform="translate(5.91582 6.16247) scale(4.01111)">
<stop offset="0.08" stop-color="#FFE245"/>
<stop offset="1" stop-color="#E38427"/>
</radialGradient>
<radialGradient id="paint7_radial_668_16988" cx="0" cy="0" r="1" gradientUnits="userSpaceOnUse" gradientTransform="translate(6.18469 14.1047) scale(2.11333)">
<stop offset="0.08" stop-color="#FFE245"/>
<stop offset="1" stop-color="#E38427"/>
</radialGradient>
<radialGradient id="paint8_radial_668_16988" cx="0" cy="0" r="1" gradientUnits="userSpaceOnUse" gradientTransform="translate(14.9114 10.278) scale(2.39333)">
<stop offset="0.08" stop-color="#FFE245"/>
<stop offset="1" stop-color="#E38427"/>
</radialGradient>
<radialGradient id="paint9_radial_668_16988" cx="0" cy="0" r="1" gradientUnits="userSpaceOnUse" gradientTransform="translate(13.378 9.29802) scale(3.60889 3.60889)">
<stop offset="0.08" stop-color="#FFE245"/>
<stop offset="1" stop-color="#E38427"/>
</radialGradient>
<radialGradient id="paint10_radial_668_16988" cx="0" cy="0" r="1" gradientUnits="userSpaceOnUse" gradientTransform="translate(11.6514 4.05358) scale(1.20222)">
<stop offset="0.08" stop-color="#FFE245"/>
<stop offset="1" stop-color="#E38427"/>
</radialGradient>
<radialGradient id="paint11_radial_668_16988" cx="0" cy="0" r="1" gradientUnits="userSpaceOnUse" gradientTransform="translate(11.4647 11.3225) scale(2.82667)">
<stop offset="0.08" stop-color="#FFE245"/>
<stop offset="1" stop-color="#E38427"/>
</radialGradient>
<clipPath id="clip0_668_16988">
<rect width="13.8978" height="13.8978" fill="white" transform="translate(2.02698 2.00025)"/>
</clipPath>
</defs>
</svg>
