<svg width="61" height="34" viewBox="0 0 61 34" fill="none" xmlns="http://www.w3.org/2000/svg">
<path d="M32 0.567764C32 5.1931 36.0294 8.94268 41 8.94268C36.0294 8.94268 32 12.6922 32 17.3176C32 12.6922 27.9706 8.94268 23 8.94268C27.9706 8.94268 32 5.1931 32 0.567764Z" fill="#FFE447"/>
<path d="M55.9646 15.2432C54.4343 17.5163 55.174 20.5134 57.6168 21.9374C55.174 20.5134 51.9533 21.2018 50.423 23.4749C51.9533 21.2018 51.2135 18.2047 48.7707 16.7807C51.2135 18.2047 54.4343 17.5163 55.9646 15.2432Z" fill="#FFE447"/>
<path d="M5.28926 18.5173C8.21044 21.2356 12.9466 21.2356 15.8678 18.5173C12.9466 21.2356 12.9466 25.6428 15.8678 28.3611C12.9466 25.6428 8.21044 25.6428 5.28926 28.3611C8.21044 25.6428 8.21044 21.2356 5.28926 18.5173Z" fill="#FFE447"/>
</svg>
