<svg width="68" height="35" viewBox="0 0 68 35" fill="none" xmlns="http://www.w3.org/2000/svg">
<path d="M29.2485 9.03555L35 15L40.7514 9.03555C41.3908 8.37248 41.75 7.47322 41.75 6.53554C41.75 4.58291 40.2236 3 38.3407 3C37.4365 3 36.5694 3.3725 35.93 4.03553L35 5L34.07 4.03553C33.4306 3.3725 32.5635 3 31.6593 3C29.7764 3 28.25 4.58291 28.25 6.53554C28.25 7.47322 28.6092 8.37248 29.2485 9.03555Z" fill="#FF0000"/>
<g clip-path="url(#clip0_502_3572)">
<path d="M58.5381 19.5644L58.4589 23.9177L62.8122 23.8385C63.2961 23.8297 63.7637 23.629 64.1122 23.2806C64.8377 22.5551 64.8587 21.3998 64.1591 20.7001C63.8231 20.3642 63.3625 20.1804 62.8785 20.1892L62.1746 20.202L62.1874 19.4981C62.1962 19.0141 62.0124 18.5535 61.6764 18.2175C60.9768 17.5179 59.8215 17.5389 59.096 18.2644C58.7476 18.6129 58.5469 19.0805 58.5381 19.5644Z" fill="#FF0000"/>
</g>
<g clip-path="url(#clip1_502_3572)">
<path d="M5.71345 26.847L11.9197 28.6315L13.4774 22.3645C13.6506 21.6678 13.5426 20.9209 13.1771 20.288C12.4162 18.9701 10.7691 18.4965 9.49829 19.2302C8.888 19.5826 8.44786 20.1719 8.27469 20.8686L8.02282 21.8819L7.01927 21.5934C6.32934 21.395 5.59889 21.4815 4.9886 21.8339C3.71774 22.5676 3.30434 24.2308 4.06525 25.5487C4.43065 26.1816 5.02351 26.6486 5.71345 26.847Z" fill="#FF0000"/>
</g>
<defs>
<clipPath id="clip0_502_3572">
<rect width="9.45861" height="9.45861" fill="white" transform="translate(60.6885 15) rotate(45)"/>
</clipPath>
<clipPath id="clip1_502_3572">
<rect width="14.0287" height="14.0287" fill="white" transform="translate(0 22.0143) rotate(-30)"/>
</clipPath>
</defs>
</svg>
