<svg width="231" height="196" viewBox="0 0 231 196" fill="none" xmlns="http://www.w3.org/2000/svg">
<g clip-path="url(#clip0_6_4148)">
<path d="M200.405 8.66871C201.062 4.58756 198.283 0.747428 194.2 0.0915422C190.117 -0.564344 186.274 2.21239 185.618 6.29354C184.962 10.3747 187.74 14.2148 191.823 14.8707C195.907 15.5266 199.749 12.7499 200.405 8.66871Z" fill="url(#paint0_linear_6_4148)"/>
<path d="M196.21 31.5884C197.85 30.3306 198.16 27.9822 196.901 26.3431C195.643 24.704 193.293 24.3948 191.653 25.6526C190.013 26.9103 189.704 29.2587 190.962 30.8978C192.22 32.5369 194.57 32.8461 196.21 31.5884Z" fill="url(#paint1_linear_6_4148)"/>
<path d="M223.649 42.8395C223.111 42.8395 222.565 42.7794 222.019 42.6568C218.068 41.7585 215.582 37.8174 216.481 33.8662C216.917 31.952 218.071 30.323 219.731 29.277C221.391 28.231 223.361 27.8957 225.274 28.3311C229.225 29.2294 231.711 33.1706 230.812 37.1217C230.039 40.5249 227.002 42.8395 223.647 42.8395H223.649ZM222.202 41.8561C223.902 42.2414 225.652 41.9437 227.127 41.0153C228.601 40.087 229.628 38.6381 230.014 36.939C230.399 35.24 230.101 33.4909 229.172 32.017C228.243 30.5432 226.794 29.5172 225.094 29.1319C223.394 28.744 221.644 29.0443 220.169 29.9726C218.694 30.901 217.668 32.3498 217.282 34.0489C216.484 37.5571 218.692 41.0603 222.202 41.8586V41.8561Z" fill="url(#paint2_linear_6_4148)"/>
<path d="M19.7566 191.934C24.1555 187.538 24.1555 180.41 19.7566 176.013C15.3577 171.617 8.22562 171.617 3.8267 176.013C-0.572216 180.41 -0.572218 187.538 3.8267 191.934C8.22562 196.331 15.3577 196.331 19.7566 191.934Z" fill="url(#paint3_linear_6_4148)"/>
<path d="M202.358 95.5606C202.358 101.824 201.742 107.944 200.568 113.865C199.488 119.31 197.936 124.587 195.956 129.649C195.099 131.839 194.163 133.988 193.149 136.095C193.109 136.178 193.069 136.261 193.029 136.343C177.861 167.639 145.779 189.217 108.649 189.217C68.5075 189.217 34.2594 163.991 20.9147 128.533C20.3213 126.959 19.7705 125.366 19.2622 123.752C18.779 122.223 18.3359 120.679 17.9328 119.117C16.9964 115.509 16.2703 111.816 15.7696 108.052C15.4166 105.427 15.1762 102.77 15.0485 100.082C14.9759 98.5833 14.9409 97.077 14.9409 95.5606C14.9409 94.1518 14.9709 92.753 15.0335 91.3617C15.1236 89.3298 15.2764 87.3155 15.4942 85.3211C15.9098 81.4976 16.5557 77.7467 17.4195 74.0758C17.5672 73.4452 17.7225 72.8171 17.8827 72.1915C17.8827 72.189 17.8827 72.189 17.8827 72.1865C28.2705 31.7718 64.9697 1.90427 108.649 1.90427C146.295 1.90427 178.755 24.0897 193.655 56.0942C194.466 57.8358 195.227 59.6074 195.931 61.4066C197.293 64.8798 198.452 68.4531 199.393 72.114C201.329 79.6084 202.358 87.4631 202.358 95.5606Z" fill="url(#paint4_linear_6_4148)"/>
<path d="M69.1034 84.2827C79.5418 84.2827 88.0038 75.8254 88.0038 65.3928C88.0038 54.9601 79.5418 46.5029 69.1034 46.5029C58.6649 46.5029 50.2029 54.9601 50.2029 65.3928C50.2029 75.8254 58.6649 84.2827 69.1034 84.2827Z" fill="url(#paint5_linear_6_4148)"/>
<path d="M202.182 95.5606C202.197 100.74 201.784 105.92 200.928 111.027C200.79 111.856 200.598 112.754 199.942 113.277C199.301 113.787 198.404 113.785 197.583 113.76C138.023 111.888 78.4622 110.019 18.9017 108.147C18.2032 108.127 17.4446 108.082 16.9138 107.629C16.4155 107.206 16.2353 106.528 16.0926 105.893C15.6644 103.978 15.3139 102.039 15.0485 100.082C14.9759 98.5833 14.9409 97.077 14.9409 95.5606C14.9409 88.1662 15.7971 80.9746 17.4195 74.0758C17.5672 73.4452 17.7225 72.8171 17.8827 72.1915C17.8827 72.189 17.8827 72.189 17.8827 72.1865C18.7665 69.9219 21.0173 62.5577 23.3458 62.1197C26.2551 61.5742 28.7963 65.3627 31.1523 67.5798C33.3105 69.6091 35.1908 71.8812 36.7756 74.3836C39.2568 74.0557 40.4485 70.9979 42.7695 70.0646C44.9877 69.1687 47.4338 70.4549 49.4769 71.6986C53.5279 74.1683 57.5813 76.6356 61.6323 79.1029C63.9908 80.5392 66.5095 82.0231 69.2711 82.0156C73.61 82.0056 76.99 78.4273 80.8958 76.5355C86.459 73.8405 93.607 74.8465 98.2139 78.9703L114.408 65.2176C114.661 65.0024 114.924 64.7997 115.206 64.6296C118.929 62.3925 121.546 66.2085 124.317 68.413C133.005 75.3319 148.133 67.3245 156.049 75.1142L173.42 48.8075C174.251 47.5488 176.054 47.4287 177.045 48.5648L185.563 58.3212C186.927 59.8877 187.946 62.3625 190.075 61.3215C191.652 60.5483 192.653 58.3888 193.8 57.1276C199.293 69.1462 202.137 82.3509 202.18 95.5606H202.182Z" fill="url(#paint6_linear_6_4148)"/>
<path d="M202.358 95.5606C202.358 101.824 201.742 107.944 200.568 113.865C199.488 119.31 197.936 124.587 195.956 129.649C137.059 127.68 78.1592 125.716 19.2622 123.752C17.6649 118.692 16.4881 113.445 15.7696 108.052C15.4166 105.427 15.1762 102.77 15.0485 100.082C14.9759 98.5833 14.9409 97.077 14.9409 95.5606C14.9409 92.0974 15.1286 88.6817 15.4942 85.3211C16.8261 85.2486 18.1831 85.4087 19.435 85.7891C23.3608 86.9852 26.558 89.7677 29.8754 92.1824C33.1928 94.5972 37.0485 96.7792 41.137 96.4489C46.0017 96.0585 49.8674 92.2625 54.4793 90.6761C59.5718 88.9244 65.5706 90.1406 69.5766 93.7339C74.6666 89.4149 79.7566 85.0959 84.8466 80.7769C85.8205 79.9512 86.8571 79.0929 88.1164 78.8802C90.9331 78.4048 93.0687 81.1848 95.3045 82.9665C104.067 89.9604 118.894 82.5661 127.475 89.7852C132.878 81.6002 138.281 73.4177 143.686 65.2351C144.189 64.4694 144.735 63.6712 145.559 63.2683C147.131 62.5026 149.016 63.4985 150.228 64.7597C152.739 67.3671 153.876 71.1105 156.573 73.5253C158.748 75.4695 162.794 75.6122 164.469 73.7104C165.143 72.9447 166.279 72.8121 167.081 73.4377L173.843 78.7225C174.682 79.3782 175.553 80.0488 176.587 80.3015C178.182 80.6919 179.837 80.0162 181.279 79.2305C188.562 75.2644 189.131 68.5882 195.931 61.4066C200.079 71.9888 202.358 83.5095 202.358 95.5606Z" fill="url(#paint7_linear_6_4148)"/>
<path d="M202.358 95.5606C202.358 101.824 201.742 107.944 200.568 113.865C199.488 119.31 197.936 124.587 195.956 129.649C195.099 131.839 194.163 133.988 193.149 136.095C135.657 135.182 78.1317 133.721 20.9147 128.533C20.3213 126.959 19.7705 125.366 19.2622 123.752C17.6649 118.692 16.4881 113.445 15.7696 108.052C15.4166 105.427 15.1762 102.77 15.0485 100.082C14.9759 98.5833 14.9409 97.077 14.9409 95.5606C14.9409 94.1518 14.9709 92.753 15.0335 91.3617C21.1625 93.0632 30.0632 96.8042 33.0952 92.3976C33.8212 91.3467 35.316 91.204 36.1922 92.1349L42.4014 98.7285C43.3178 94.7098 44.8225 90.8237 46.8555 87.2379C47.0933 86.8175 47.3963 86.4321 47.7693 86.1244C49.4819 84.7131 51.0141 85.8191 52.2284 86.8751C56.009 90.1556 59.4516 93.824 62.4886 97.8026C64.4315 94.2193 69.3537 93.2484 73.262 94.402C77.1728 95.5556 80.38 98.2831 83.6824 100.67C86.9848 103.055 90.7854 105.234 94.8539 105.002C100.029 104.704 104.175 100.64 109.132 99.1263C114.057 97.6225 119.736 98.8936 123.549 102.354L138.616 89.51C139.49 88.7618 140.406 87.9936 141.52 87.7008C144.7 86.8625 147.314 90.0405 149.988 91.9547C158.871 98.3231 173.039 91.4092 181.457 98.3807C186.712 90.4158 191.967 82.451 197.223 74.4861C197.818 73.5878 198.479 72.6344 199.393 72.114C201.329 79.6084 202.358 87.4631 202.358 95.5606Z" fill="url(#paint8_linear_6_4148)"/>
<path d="M77.4682 28.171L79.5738 28.4062L80.9609 26.8072L81.2913 28.4112C82.4405 26.9949 85.0394 24.6627 90.3848 23.1964L89.6236 24.5176C89.6236 24.5176 91.6717 23.4266 96.2334 24.8804L91.6992 25.8764L93.4919 27.145C93.4919 27.145 89.1229 24.2323 81.5342 28.9442L83.3369 29.7049L81.4966 30.7508L81.3164 32.8603L79.7516 31.434L77.6885 31.9144L78.5623 29.9851L77.4682 28.1735V28.171Z" fill="url(#paint9_linear_6_4148)"/>
<g style="mix-blend-mode:soft-light" opacity="0.55">
<path d="M107.575 11.0102L108.659 10.4421L108.454 11.6482L109.33 12.5015L108.118 12.6792L107.575 13.7752L107.034 12.6792L105.823 12.5015L106.699 11.6482L106.491 10.4421L107.575 11.0102Z" fill="#E8F1FF"/>
</g>
<g style="mix-blend-mode:soft-light" opacity="0.55">
<path d="M168.71 39.7616L169.795 39.1911L169.589 40.3972L170.466 41.253L169.254 41.4282L168.71 42.5267L168.17 41.4282L166.958 41.253L167.834 40.3972L167.629 39.1911L168.71 39.7616Z" fill="#E8F1FF"/>
</g>
<g style="mix-blend-mode:soft-light" opacity="0.55">
<path d="M121.075 34.3942L122.159 33.8262L121.954 35.0323L122.83 35.8856L121.618 36.0607L121.075 37.1592L120.534 36.0607L119.323 35.8856L120.199 35.0323L119.991 33.8262L121.075 34.3942Z" fill="#E8F1FF"/>
</g>
<g style="mix-blend-mode:soft-light" opacity="0.55">
<path d="M137.577 49.4155L138.661 48.8475L138.453 50.0536L139.33 50.9069L138.118 51.0821L137.577 52.1806L137.034 51.0821L135.822 50.9069L136.698 50.0536L136.493 48.8475L137.577 49.4155Z" fill="#E8F1FF"/>
</g>
<g style="mix-blend-mode:soft-light" opacity="0.55">
<path d="M143.891 32.7277L144.975 32.1571L144.768 33.3632L145.646 34.219L144.435 34.3942L143.891 35.4927L143.351 34.3942L142.139 34.219L143.015 33.3632L142.807 32.1571L143.891 32.7277Z" fill="#E8F1FF"/>
</g>
<g style="mix-blend-mode:soft-light" opacity="0.55">
<path d="M111.701 47.749L112.785 47.1785L112.578 48.3846L113.456 49.2404L112.245 49.4155L111.701 50.5141L111.16 49.4155L109.949 49.2404L110.825 48.3846L110.617 47.1785L111.701 47.749Z" fill="#E8F1FF"/>
</g>
<g style="mix-blend-mode:soft-light" opacity="0.55">
<path d="M91.3312 66.2686L92.4153 65.7005L92.2075 66.9067L93.0863 67.7599L91.8745 67.9376L91.3312 69.0336L90.7904 67.9376L89.5786 67.7599L90.4549 66.9067L90.2471 65.7005L91.3312 66.2686Z" fill="#E8F1FF"/>
</g>
<g style="mix-blend-mode:soft-light" opacity="0.55">
<path d="M37.7646 56.1818L38.8487 55.6138L38.6408 56.8199L39.5171 57.6732L38.3054 57.8483L37.7646 58.9468L37.2212 57.8483L36.0095 57.6732L36.8883 56.8199L36.6804 55.6138L37.7646 56.1818Z" fill="#E8F1FF"/>
</g>
<g style="mix-blend-mode:soft-light" opacity="0.55">
<path d="M146.725 15.5393L147.807 14.9688L147.602 16.1749L148.478 17.0307L147.266 17.2059L146.725 18.3044L146.182 17.2059L144.97 17.0307L145.847 16.1749L145.641 14.9688L146.725 15.5393Z" fill="#E8F1FF"/>
</g>
<g style="mix-blend-mode:soft-light" opacity="0.55">
<path d="M122.89 20.4288L123.974 19.8583L123.769 21.0644L124.645 21.9202L123.434 22.0954L122.89 23.1939L122.349 22.0954L121.138 21.9202L122.014 21.0644L121.806 19.8583L122.89 20.4288Z" fill="#E8F1FF"/>
</g>
<g style="mix-blend-mode:soft-light" opacity="0.55">
<path d="M161.43 56.1818L162.514 55.6138L162.306 56.8199L163.185 57.6732L161.973 57.8483L161.43 58.9468L160.889 57.8483L159.677 57.6732L160.553 56.8199L160.346 55.6138L161.43 56.1818Z" fill="#E8F1FF"/>
</g>
<g style="mix-blend-mode:soft-light" opacity="0.55">
<path d="M72.4082 20.4288L73.4923 19.8583L73.2845 21.0644L74.1633 21.9202L72.9515 22.0954L72.4082 23.1939L71.8674 22.0954L70.6556 21.9202L71.5319 21.0644L71.3241 19.8583L72.4082 20.4288Z" fill="#E8F1FF"/>
</g>
<g style="mix-blend-mode:soft-light" opacity="0.55">
<path d="M86.8496 37.0767L87.9337 36.5087L87.7284 37.7148L88.6047 38.5681L87.3929 38.7457L86.8496 39.8417L86.3088 38.7457L85.097 38.5681L85.9733 37.7148L85.768 36.5087L86.8496 37.0767Z" fill="#E8F1FF"/>
</g>
<g style="mix-blend-mode:soft-light" opacity="0.55">
<path d="M47.6216 39.7616L48.7057 39.1911L48.4979 40.3972L49.3742 41.253L48.1624 41.4282L47.6216 42.5267L47.0783 41.4282L45.8665 41.253L46.7453 40.3972L46.5375 39.1911L47.6216 39.7616Z" fill="#E8F1FF"/>
</g>
<path d="M193.029 136.343C177.861 167.639 145.779 189.217 108.649 189.217C68.5075 189.217 34.2594 163.991 20.9147 128.533C20.3213 126.959 19.7705 125.366 19.2623 123.752C18.7791 122.223 18.3359 120.679 17.9328 119.117C34.3896 116.152 55.4657 118.682 69.6917 123.071C75.6881 124.92 80.2949 127.045 90.1495 129.204C97.31 130.771 109.18 132.78 131.571 132.269C163.418 131.544 164.574 126.904 177.596 130.225C178.177 130.373 185.525 132.329 193.029 136.343Z" fill="url(#paint10_linear_6_4148)"/>
<path d="M132.429 96.2362C132.447 96.0185 132.59 95.8533 132.747 95.8658C132.905 95.8784 133.02 96.0635 133.003 96.2812" stroke="#281922" stroke-width="0.76" stroke-miterlimit="10"/>
<path d="M133.754 103.971C133.754 103.971 134.189 104.394 133.947 106.451C133.824 107.484 133.291 110.009 132.645 112.421" stroke="#2D5D5E" stroke-width="0.86" stroke-miterlimit="10"/>
<path d="M140.862 98.2605C139.853 100.528 137.337 101.614 135.243 100.683C133.15 99.7519 132.227 97.1395 133.278 94.8924C134.42 92.4552 136.405 91.9322 138.423 93.0182C140.639 94.2093 141.868 95.996 140.859 98.2631L140.862 98.2605Z" fill="#1E7DF4"/>
<path d="M133.338 101.396C134.82 101.971 137.88 101.061 138.453 99.5793C138.453 99.5793 139.582 97.4123 139.437 96.549C139.184 95.0526 136.265 93.7864 135.006 93.5387C133.075 93.1583 132.109 96.629 132.109 96.629C130.905 99.3365 132.69 101.143 133.338 101.393V101.396Z" fill="#FF8F6A"/>
<path d="M139.7 99.3716C139.422 99.9946 138.628 100.285 137.862 99.9896L138.766 97.69C139.532 97.9828 140.198 98.253 139.7 99.3716Z" fill="#121420"/>
<path d="M139.855 94.8299C138.916 94.0066 134.868 92.3601 134.868 92.3601C134.868 92.3601 134.991 94.0291 136.353 95.6631C136.726 96.1111 137.229 96.534 137.73 96.8993C138.248 97.2746 138.511 97.9102 138.388 98.5358L138.473 98.4032C138.726 98.0103 139.234 97.8727 139.653 98.0854C139.653 98.0854 140.792 95.6556 139.853 94.8324L139.855 94.8299Z" fill="#1E7DF4"/>
<path d="M137.99 98.1454C137.99 98.1454 135.579 95.8158 132.159 95.1252C132.159 95.1252 132.527 92.3001 134.613 91.8221C135.962 91.5143 140.674 93.6938 137.99 98.1454Z" fill="#1E7DF4"/>
<path d="M149.697 116.515C148.518 115.289 144.242 112.854 142.246 111.595L141.668 111.125C141.525 110.992 141.41 110.88 141.41 110.88C141.408 110.88 141.405 110.882 141.403 110.885C141.04 110.482 139.615 108.895 139.495 108.89L138.356 108.62C138.185 108.613 138.083 108.81 138.188 108.945C138.361 109.168 138.406 109.248 138.679 109.316L138.921 109.376L139.37 109.904L137.872 109.166L137.151 108.933C136.969 108.88 136.771 108.888 136.593 108.958C136.593 108.958 136.5 109.018 136.485 109.065C136.473 109.113 136.48 109.163 136.51 109.203C136.51 109.203 136.608 109.386 136.976 109.531L137.62 109.739L138.631 110.224C138.871 110.387 138.659 110.359 138.596 110.332L137.394 109.804L136.415 109.518C136.232 109.466 136.035 109.473 135.857 109.543L135.844 109.548C135.799 109.566 135.764 109.604 135.749 109.651C135.737 109.699 135.744 109.749 135.774 109.789L135.782 109.799C135.894 109.951 136.057 110.064 136.24 110.116L137.141 110.377L138.513 111.11C138.736 111.273 138.561 111.293 138.451 111.235L137.552 110.78L136.591 110.439C136.41 110.374 136.212 110.374 136.03 110.432L136.017 110.437C135.97 110.452 135.935 110.489 135.917 110.534C135.902 110.582 135.907 110.632 135.935 110.674L135.942 110.684C136.047 110.845 136.202 110.965 136.383 111.027L137.269 111.338L138.358 111.953C138.396 111.976 138.378 112.033 138.336 112.031L138.195 112.026L137.236 111.69L136.636 111.273C136.435 111.165 136.265 111.182 136.092 111.328C136.022 111.388 136.03 111.498 136.11 111.545L136.891 112.158L137.94 112.646L138.438 112.784L141.59 113.735L145.353 118.669C145.353 118.669 145.877 119.703 147.642 120.433C150.238 121.509 152.103 119.022 149.692 116.515H149.697Z" fill="#121420"/>
<path d="M128.233 121.167C129.785 120.469 133.513 117.258 135.371 115.802L136.007 115.414C136.18 115.324 136.325 115.254 136.325 115.254C136.325 115.251 136.325 115.249 136.325 115.246C136.828 115.041 138.799 114.23 138.844 114.12L139.48 113.139C139.545 112.979 139.392 112.819 139.229 112.874C138.962 112.964 138.871 112.977 138.714 113.212L138.576 113.422L137.93 113.667L139.129 112.504L139.59 111.903C139.703 111.748 139.76 111.56 139.755 111.368C139.755 111.368 139.73 111.26 139.69 111.23C139.65 111.202 139.6 111.192 139.552 111.207C139.552 111.207 139.347 111.24 139.087 111.535L138.676 112.071L137.88 112.859C137.645 113.029 137.742 112.839 137.79 112.789L138.689 111.833L139.287 111.007C139.4 110.852 139.457 110.664 139.452 110.472V110.459C139.452 110.409 139.427 110.364 139.387 110.337C139.347 110.309 139.297 110.299 139.249 110.314L139.237 110.319C139.054 110.374 138.896 110.489 138.784 110.644L138.235 111.408L137.084 112.451C136.856 112.606 136.896 112.436 136.986 112.351L137.717 111.658L138.361 110.867C138.481 110.72 138.551 110.534 138.553 110.342V110.329C138.553 110.279 138.533 110.234 138.496 110.202C138.458 110.172 138.406 110.159 138.358 110.172H138.346C138.16 110.219 137.995 110.324 137.875 110.474L137.287 111.205L136.343 112.023C136.31 112.051 136.26 112.016 136.278 111.976L136.33 111.846L136.966 111.055L137.562 110.629C137.73 110.479 137.772 110.312 137.692 110.099C137.66 110.011 137.552 109.984 137.482 110.044L136.641 110.574L135.829 111.398L135.534 111.821L133.579 114.468L127.665 116.355C127.665 116.355 126.516 116.5 125.234 117.919C123.348 120.003 125.068 122.593 128.238 121.164L128.233 121.167Z" fill="#121420"/>
<path d="M137.645 102.56L137.87 100.34C138.123 100.11 138.316 99.8545 138.423 99.5793C138.423 99.5793 139.552 97.4123 139.407 96.549C139.154 95.0526 136.235 93.7864 134.976 93.5387C133.045 93.1583 132.079 96.629 132.079 96.629C130.875 99.3365 132.66 101.143 133.308 101.393C133.656 101.529 134.092 101.579 134.56 101.561L134.38 102.8C133.246 102.952 132.542 103.12 132.542 103.12C132.542 103.12 135.276 111.755 136.495 111.072C137.715 110.392 139.117 102.582 139.117 102.582C138.613 102.557 138.123 102.549 137.65 102.557L137.645 102.56Z" fill="#121420"/>
<path d="M149.95 113.44C148.145 111.105 147.92 103.666 143.446 102.9C143.446 102.9 143.441 102.922 143.431 102.96C143.058 102.905 141.14 102.637 139.112 102.585C139.112 102.585 137.547 103.918 135.744 103.918C134.347 103.918 132.537 103.123 132.537 103.123C132.537 103.123 132.304 103.801 132.041 104.824C127.665 105.682 127.427 113.027 125.637 115.341C124.072 117.366 123.348 118.744 124.322 120.924C125.066 122.588 126.703 122.666 127.482 122.668C130.366 122.668 129.57 119.107 131.633 115.844C131.658 115.859 131.681 115.874 131.706 115.887C131.706 115.949 131.706 116.014 131.703 116.074L131.751 115.912C131.886 115.987 132.019 116.054 132.144 116.114C131.538 118.176 132.424 119.788 132.84 120.959C133.403 122.543 133.626 124.375 136.818 124.873C137.039 125.313 137.169 125.573 137.169 125.573C140.486 126.572 143.506 126.374 143.879 115.089C143.886 114.836 143.884 114.39 143.874 113.822C146.037 117.118 145.183 120.769 148.102 120.769C148.881 120.769 150.519 120.691 151.262 119.025C152.236 116.845 151.513 115.466 149.948 113.442L149.95 113.44Z" fill="url(#paint11_linear_6_4148)"/>
<path d="M131.708 100.853C132.394 100.087 132.717 99.0638 132.545 98.0504C132.452 97.5074 132.439 96.9268 132.519 96.3338C133.018 92.5628 134.795 92.1374 136.761 92.4377C137.517 92.5528 138.17 92.9557 138.671 93.5462C138.914 93.834 139.237 94.0392 139.6 94.1493C141.247 94.6472 142.169 96.3313 141.843 97.9302C141.706 98.6009 141.856 99.3065 142.291 99.8345C143.002 100.695 143.396 101.789 143.378 102.927C143.365 103.661 143.721 104.351 144.294 104.807C145.734 105.948 146.463 107.889 145.909 109.846C145.316 111.943 143.315 113.379 141.137 113.279C139.249 113.192 137.717 112.051 137.011 110.492C136.58 109.543 135.717 108.86 134.683 108.728C134.643 108.723 134.6 108.718 134.56 108.71C130.612 108.105 129.385 103.455 131.713 100.853H131.708Z" fill="#1E7DF4"/>
<path d="M140.747 148.847C141.237 148.159 142.089 147.859 142.807 147.478C143.188 147.278 143.596 147.103 144.026 147.088C146.16 147.005 146.443 149.06 146.468 150.674C146.488 151.95 146.673 153.239 146.796 154.505C147.091 157.575 146.788 160.716 146.51 163.778C146.215 167.039 145.752 170.259 145.201 173.485C145.181 173.597 145.158 173.72 145.073 173.798C144.98 173.883 144.845 173.89 144.72 173.895C144.024 173.92 143.325 173.943 142.629 173.968C141.475 174.008 141.791 171.18 141.753 170.392C141.678 168.826 141.633 167.257 141.523 165.693C141.37 163.548 141.062 161.354 141.062 159.207C140.924 157.272 140.787 155.336 140.649 153.401C140.549 151.985 139.833 150.128 140.749 148.85L140.747 148.847Z" fill="#121420"/>
<path d="M128.814 149.298C128.932 148.907 129.147 148.567 129.43 148.219C130.284 147.168 131.924 146.718 133.183 147.266C134.33 147.764 135.521 149.263 135.684 150.361C135.872 151.625 135.945 153.026 135.945 154.23C135.945 157.312 136.413 160.3 136.538 163.371C136.673 166.664 136.636 169.957 136.851 173.255C136.851 173.29 136.145 173.622 136.085 173.635C135.602 173.715 134.262 174.188 133.856 173.91C133.631 173.755 133.518 173.029 133.433 172.774C133.293 172.354 133.158 171.931 133.028 171.508C132.532 169.882 132.119 168.23 131.791 166.563C131.568 165.43 131.493 164.321 131.238 163.195C130.965 161.989 130.702 160.778 130.542 159.55C130.391 158.413 130.076 157.275 129.846 156.151C129.725 155.568 129.69 154.93 129.538 154.362C129.139 152.856 128.666 151.49 128.721 149.898C128.729 149.683 128.761 149.488 128.817 149.303L128.814 149.298Z" fill="#121420"/>
<path d="M145.681 170.507C147.359 159.462 147.086 157.575 146.791 154.505C146.668 153.239 146.485 151.95 146.463 150.674C146.458 150.306 146.438 149.916 146.385 149.533C146.397 149.33 146.412 149.125 146.43 148.92L148.14 140.737C148.248 138.743 148.879 136.236 149.019 133.18C149.495 122.783 145.04 120.051 145.04 120.051L143.901 118.169C139.167 120.794 134.044 121.442 132.074 118.677L132.217 120.746C129.83 125.213 128.616 138.52 128.847 142.326C128.867 142.649 128.686 149.493 128.716 149.956C128.676 151.525 129.142 152.873 129.535 154.36C129.685 154.93 129.723 155.566 129.843 156.149C130.073 157.272 130.389 158.411 130.539 159.547C130.699 160.776 130.962 161.987 131.235 163.193C131.49 164.319 131.566 165.427 131.788 166.561C132.116 168.23 132.529 169.879 133.025 171.506L136.726 170.63C136.851 167.524 137.051 165.037 136.142 154.197C136.042 152.998 135.874 151.625 135.687 150.361C135.672 150.256 135.639 150.148 135.607 150.038C135.632 149.838 135.662 149.64 135.689 149.44L137.695 140.777L138.16 136.884C138.551 135.57 138.636 134.299 138.874 132.95C138.936 132.595 138.982 132.232 139.004 131.869L140.086 148.687C140.113 149.378 140.158 150.113 140.296 150.801C140.346 151.687 140.591 152.611 140.646 153.399C140.784 155.333 140.922 157.27 141.06 159.204C141.06 161.354 141.37 163.548 141.52 165.69C141.633 167.254 141.675 168.823 141.751 170.39" fill="url(#paint12_linear_6_4148)"/>
<path d="M145.066 120.051L143.926 118.169C139.192 120.794 134.069 121.442 132.099 118.677L132.242 120.746C132.242 120.746 134.763 124.077 145.066 120.053V120.051Z" fill="#E8F1FF"/>
<path d="M145.769 176.508C145.789 176.48 145.807 176.453 145.819 176.42C145.872 176.297 145.864 176.155 145.854 176.02C145.797 175.201 145.694 174.388 145.546 173.587C145.421 172.899 145.035 172.506 144.537 172.149C144.38 172.036 144.222 171.923 144.052 171.841C142.89 171.278 142.189 172.051 141.756 173.227C141.413 174.155 141.19 175.139 141.092 176.137C141.092 176.162 141.087 176.187 141.085 176.212L145.767 176.508H145.769Z" fill="url(#paint13_linear_6_4148)"/>
<path d="M145.819 176.102L143.811 175.977C143.861 174.976 143.896 173.975 143.914 172.972C143.919 172.669 143.924 172.366 143.926 172.064C143.926 171.993 143.769 171.986 143.769 172.054C143.759 173.12 143.731 174.185 143.686 175.251C143.676 175.489 143.663 175.727 143.653 175.965L142.975 175.922C143.02 174.901 143.08 173.88 143.155 172.859C143.178 172.549 143.203 172.239 143.228 171.926C143.233 171.858 143.075 171.846 143.07 171.916C142.977 173.014 142.905 174.115 142.847 175.216C142.835 175.449 142.825 175.679 142.815 175.912L141.152 175.807C141.042 175.799 140.947 175.897 140.939 176.022L140.932 176.157C140.924 176.285 141.007 176.393 141.117 176.398L145.784 176.69C145.894 176.698 145.989 176.6 145.997 176.475L146.004 176.34C146.012 176.212 145.929 176.105 145.819 176.1V176.102Z" fill="#1E7DF4"/>
<path d="M133.766 176.798C133.584 176.85 133.398 176.903 133.213 176.958C132.883 177.056 132.545 177.136 132.202 177.168C132.006 177.188 131.558 177.321 131.5 177.046C131.48 176.948 131.51 176.845 131.548 176.753C131.798 176.12 132.319 175.639 132.765 175.121C133.165 174.656 133.538 174.145 133.869 173.625C134.152 173.177 134.41 172.732 134.878 172.449C135.925 171.813 136.671 172.399 137.206 173.365C137.63 174.128 137.945 174.954 138.14 175.807C138.145 175.83 138.15 175.85 138.155 175.872C137.492 175.997 136.831 176.125 136.167 176.25C135.884 176.305 135.597 176.355 135.319 176.433C135.078 176.498 134.825 176.515 134.58 176.578C134.307 176.648 134.039 176.72 133.771 176.795L133.766 176.798Z" fill="url(#paint14_linear_6_4148)"/>
<path d="M131.523 176.775C133.005 176.493 134.485 176.21 135.967 175.93C135.762 175.071 135.564 174.211 135.381 173.347C135.326 173.087 135.271 172.827 135.216 172.564C135.206 172.509 135.364 172.501 135.376 172.564C135.566 173.482 135.767 174.398 135.98 175.312C136.025 175.507 136.072 175.704 136.12 175.9C136.373 175.852 136.628 175.802 136.881 175.754L137.006 175.732C136.791 174.869 136.528 174.015 136.217 173.18C136.125 172.929 136.027 172.679 135.927 172.431C135.902 172.369 136.06 172.354 136.08 172.409C136.44 173.292 136.751 174.198 137.006 175.121C137.059 175.314 137.109 175.509 137.159 175.702C137.427 175.652 137.695 175.599 137.96 175.549C138.11 175.522 138.25 175.584 138.27 175.694L138.293 175.809C138.313 175.917 138.208 176.03 138.058 176.057L131.621 177.283C131.47 177.311 131.33 177.248 131.31 177.138L131.288 177.023C131.268 176.916 131.373 176.803 131.523 176.775Z" fill="#1E7DF4"/>
<path d="M130.401 117.573C132.096 117.413 136.926 118.357 139.259 118.704L140.003 118.724C140.198 118.717 140.359 118.707 140.359 118.707C140.359 118.709 140.359 118.712 140.361 118.714C140.899 118.644 143.015 118.374 143.108 118.447L144.147 118.985C144.282 119.092 144.229 119.305 144.062 119.34C143.786 119.395 143.698 119.428 143.448 119.302L143.225 119.19L142.542 119.297L144.159 119.715L144.858 120.008C145.033 120.088 145.176 120.223 145.266 120.391C145.266 120.391 145.296 120.499 145.276 120.544C145.256 120.589 145.216 120.621 145.166 120.631C145.166 120.631 144.97 120.706 144.6 120.576L143.979 120.313L142.895 120.023C142.607 119.991 142.785 120.108 142.852 120.128L144.107 120.514L145.035 120.936C145.211 121.017 145.353 121.152 145.444 121.319L145.449 121.332C145.471 121.374 145.474 121.427 145.454 121.472C145.434 121.517 145.393 121.55 145.343 121.56H145.331C145.146 121.605 144.95 121.585 144.778 121.504L143.924 121.114L142.407 120.776C142.131 120.754 142.251 120.881 142.372 120.911L143.348 121.152L144.299 121.522C144.477 121.592 144.63 121.717 144.728 121.882L144.735 121.892C144.76 121.935 144.765 121.985 144.748 122.032C144.73 122.077 144.69 122.113 144.645 122.128H144.632C144.45 122.183 144.254 122.173 144.077 122.105L143.203 121.762L141.976 121.519C141.933 121.512 141.908 121.567 141.943 121.592L142.054 121.68L142.997 122.052L143.726 122.128C143.946 122.175 144.067 122.3 144.102 122.523C144.117 122.613 144.036 122.693 143.946 122.676L142.955 122.63L141.841 122.315L141.373 122.095L138.363 120.761L132.289 122.047C132.289 122.047 131.22 122.488 129.402 121.892C126.731 121.014 126.944 117.914 130.406 117.586L130.401 117.573Z" fill="#1E7DF4"/>
<path d="M122.773 102.357L122.735 99.1439L120.522 98.4782L119.683 99.3115C119.683 99.3115 119.568 99.8245 119.468 100.277C119.315 100.963 117.58 104.922 120.632 105.915C123.298 106.786 122.773 102.359 122.773 102.357Z" fill="#1E7DF4"/>
<path d="M118.511 99.5618L119.368 99.787C120.552 100.1 121.829 99.9796 122.888 99.3641C124.135 98.6384 124.768 97.4773 125.389 96.2537C125.389 96.2537 126.496 96.0035 126.393 95.0501C126.218 93.3936 123.106 91.8071 121.741 91.4493C119.65 90.9013 118.356 94.6397 118.356 94.6397C117.355 96.564 117.34 97.9403 117.595 98.726C117.73 99.1439 118.088 99.4491 118.511 99.5618Z" fill="#1E7DF4"/>
<path d="M120.75 89.3974C121.075 89.6026 121.486 89.5575 121.826 89.3749C122.197 89.1747 122.76 89.1547 123.534 89.8728C124.59 90.8537 125.013 91.7671 125.517 92.4802C125.512 91.717 125.912 91.0114 125.912 91.0114C125.775 92.0698 126.12 92.9106 126.12 92.9106C128.018 93.6863 127.57 95.4755 127.57 95.4755C127.677 94.9525 127.409 94.4996 127.046 94.1392C127.517 95.0926 127.289 96.5865 124.946 98.4007C124.828 98.4933 124.718 98.5833 124.61 98.6734L124.628 98.6834C123.313 99.3641 122.697 100.225 122.45 100.673L122.304 100.976C122.304 100.976 122.169 101.013 121.991 101.033L121.633 101.098L119.653 100.312C119.653 100.312 120.036 98.3006 120.154 97.1771C120.266 96.0911 119.19 96.4789 119.142 96.3288C117.983 95.7632 118.942 92.3126 118.962 91.7496C118.992 90.8737 119.718 88.7543 120.75 89.3974Z" fill="#121420"/>
<path d="M120.94 96.3463C120.532 96.9744 119.62 97.152 118.842 96.7041L119.763 95.1352C120.069 94.6147 120.84 94.5822 121.145 95.1026C121.32 95.4004 121.305 95.7858 120.94 96.3488V96.3463Z" fill="#1E7DF4"/>
<path d="M99.2629 86.1744L99.651 84.0575L99.701 82.0506C99.701 82.0181 99.666 81.9956 99.6384 82.0131L99.353 82.1682C99.3029 82.1957 99.2679 82.2433 99.2629 82.3008C99.2328 82.6662 98.9224 83.0966 99.1102 83.9073L98.662 84.688L99.2604 86.1769L99.2629 86.1744Z" fill="#2F8CF2"/>
<path d="M99.0275 89.4199L98.3866 88.5716L99.2629 86.1744L98.4842 84.0124L96.286 83.9499C96.306 84.2952 96.5889 84.5679 96.9344 84.5779H97.0296L96.3411 84.7706L96.0907 85.5914C96.3135 85.6039 96.5263 85.4938 96.6465 85.3036L96.7041 85.211L97.0671 85.2686C97.0671 85.2686 96.4062 88.1112 96.6766 89.012C96.8168 89.48 97.9159 90.5234 97.9159 90.5234L99.0275 89.4174V89.4199Z" fill="#1E7DF4"/>
<path d="M97.0321 84.5829L97.7106 84.5379L98.4943 85.7866L97.976 84.2877L97.0321 84.5829Z" fill="#2F8CF2"/>
<path d="M97.0672 85.2711L97.4928 85.3812L97.7206 86.0568L97.1999 85.5313L97.0271 85.4588L97.0672 85.2711Z" fill="#2F8CF2"/>
<path d="M96.962 85.769L97.3275 85.8466L97.6155 86.0468L97.2599 85.9367L96.9395 85.8716L96.962 85.769Z" fill="#2F8CF2"/>
<path d="M103.171 98.4958C101.569 97.7225 100.57 95.6556 100.57 95.6556L96.9144 89.3048C97.1548 89.2322 97.2775 88.5916 97.5504 88.3189C97.9059 87.9586 98.4066 87.931 98.6295 87.6783C98.6295 87.6783 100.167 90.0104 100.76 90.5334C104.393 93.7264 105.445 93.4661 106.576 94.955C108.396 97.3497 105.53 99.6318 103.171 98.4958Z" fill="#1E7DF4"/>
<path d="M103.306 103.13C102.295 102.012 96.8343 93.2109 96.9144 91.4968C97.0846 87.926 101.258 87.3605 104.375 91.4067C105.419 92.763 107.733 96.4989 108.829 98.7785C110.6 102.454 108.769 103.553 108.166 103.961C107.082 104.694 104.578 104.544 103.304 103.13H103.306Z" fill="url(#paint15_linear_6_4148)"/>
<path d="M114.162 173.587C113.859 173.785 113.401 173.525 113.066 173.512C112.26 173.485 111.451 173.517 110.65 173.615C110.665 173.615 110.494 172.481 110.492 172.394C110.492 172.099 110.534 171.806 110.557 171.513C110.657 170.152 110.269 168.806 110.302 167.449C110.319 166.721 110.397 165.925 110.913 165.407C111.543 164.772 112.683 164.822 113.371 165.397C114.353 166.213 114.305 167.569 114.235 168.725C114.187 169.524 114.055 170.337 114.245 171.115C114.315 171.398 114.425 171.671 114.485 171.956C114.578 172.409 114.575 173.145 114.247 173.515C114.22 173.545 114.19 173.57 114.16 173.592L114.162 173.587Z" fill="#1E7DF4"/>
<path d="M114.826 175.489C114.843 175.462 114.856 175.434 114.866 175.402C114.903 175.282 114.883 175.149 114.861 175.021C114.728 174.258 114.553 173.502 114.34 172.762C114.155 172.126 113.749 171.791 113.236 171.501C113.076 171.408 112.913 171.318 112.74 171.255C111.574 170.832 110.973 171.626 110.667 172.772C110.424 173.675 110.302 174.621 110.304 175.569C110.304 175.594 110.304 175.617 110.304 175.642L114.823 175.487L114.826 175.489Z" fill="url(#paint16_linear_6_4148)"/>
<path d="M114.838 175.104L112.9 175.169C112.855 174.223 112.795 173.277 112.718 172.334C112.695 172.049 112.67 171.763 112.645 171.478C112.64 171.413 112.487 171.42 112.492 171.483C112.583 172.486 112.655 173.492 112.713 174.498C112.725 174.723 112.735 174.949 112.748 175.171L112.092 175.194C112.039 174.228 112.002 173.262 111.979 172.296C111.972 172.001 111.967 171.708 111.962 171.413C111.962 171.348 111.809 171.353 111.809 171.418C111.824 172.459 111.854 173.502 111.904 174.543C111.914 174.761 111.927 174.981 111.937 175.199L110.332 175.254C110.227 175.256 110.144 175.357 110.146 175.477L110.151 175.604C110.156 175.724 110.244 175.817 110.352 175.814L114.858 175.662C114.964 175.659 115.046 175.559 115.044 175.439L115.039 175.312C115.034 175.191 114.946 175.099 114.838 175.101V175.104Z" fill="#1E7DF4"/>
<path d="M121.996 161.604C123.171 161.249 124.029 161.887 124.51 162.825C124.748 163.29 124.735 163.904 124.796 164.406C124.813 164.904 124.953 165.4 124.956 165.895C124.958 166.418 125.021 166.931 125.129 167.447C125.341 168.483 125.682 169.496 125.83 170.542C125.845 170.65 125.857 170.762 125.805 170.86C125.697 171.065 125.071 171.17 124.843 171.22C124.55 171.285 124.235 171.378 123.977 171.523C123.283 171.916 123.121 172.764 122.615 173.35C122.582 173.387 122.54 173.425 122.49 173.415C122.442 173.402 122.425 173.352 122.415 173.307C122.367 173.092 122.332 172.877 122.292 172.662C122.072 171.465 121.926 170.289 121.563 169.116C121.16 167.815 120.727 166.506 120.251 165.227C120.104 164.827 119.953 164.421 119.896 164.001C119.838 163.581 119.881 163.138 120.096 162.762C120.284 162.432 120.622 162.159 121.022 162.069C121.213 162.027 121.308 162.037 121.453 161.922C121.631 161.782 121.751 161.676 121.991 161.601L121.996 161.604Z" fill="#1E7DF4"/>
<path d="M121.285 175.704C121.383 175.309 121.671 174.954 121.859 174.576C122.242 173.798 122.092 172.934 122.217 172.114C122.334 171.333 122.74 170.537 123.524 170.139C123.942 169.927 124.448 169.847 124.908 169.957C126.093 170.234 126.794 171.613 126.736 172.644C126.706 173.187 126.526 173.715 126.31 174.226C125.997 174.961 125.361 175.096 124.618 175.342C124.132 175.502 123.646 175.659 123.161 175.82L121.293 175.885C121.263 175.83 121.273 175.767 121.285 175.707V175.704Z" fill="url(#paint17_linear_6_4148)"/>
<path d="M121.396 175.807C121.781 175.234 122.768 174.964 123.091 174.371C123.316 173.955 123.156 173.485 123.246 173.044C123.361 172.481 123.919 171.976 124.64 171.766C124.645 171.766 124.65 171.763 124.655 171.761C124.483 171.19 124.31 170.622 124.137 170.052C124.122 170.002 124.29 169.987 124.31 170.047C124.48 170.605 124.648 171.163 124.818 171.721C125.114 171.656 125.419 171.638 125.719 171.658C125.539 171.115 125.294 170.592 124.988 170.097C124.953 170.042 125.124 170.019 125.154 170.069C125.469 170.577 125.717 171.118 125.9 171.676C126.047 171.696 126.193 171.723 126.338 171.758C126.413 171.778 126.478 171.806 126.536 171.841C126.864 172.049 126.924 172.509 126.851 172.869C126.766 173.285 126.536 173.663 126.388 174.063C126.233 174.486 126.148 175.624 125.584 175.732C125.071 175.83 124.45 175.769 123.927 175.787L121.361 175.875C121.371 175.85 121.386 175.825 121.401 175.802L121.396 175.807Z" fill="#1E7DF4"/>
<path d="M125.875 165.29C125.87 165.21 125.862 165.13 125.857 165.05C125.81 164.462 125.755 163.873 125.692 163.285C125.684 163.205 125.674 163.125 125.667 163.048C125.559 162.062 125.437 161.081 125.311 160.098C125.301 160.017 125.291 159.937 125.281 159.855C125.174 158.997 125.063 158.136 124.966 157.275C124.958 157.197 124.948 157.122 124.941 157.045C124.903 156.702 124.866 156.357 124.831 156.014C124.783 155.526 124.73 155.04 124.675 154.555C124.668 154.477 124.658 154.4 124.65 154.322C124.553 153.461 124.448 152.603 124.332 151.745C124.327 151.702 124.32 151.66 124.315 151.617C124.31 151.582 124.305 151.547 124.3 151.512C124.202 150.806 124.077 150.103 123.994 149.398C123.952 149.032 124.034 148.675 124.077 148.312C124.087 148.234 124.095 148.157 124.1 148.079C124.1 148.031 124.105 147.981 124.102 147.931C124.222 146.925 124.34 145.917 124.455 144.911C124.465 144.833 124.473 144.756 124.483 144.676C124.57 143.915 124.653 143.154 124.736 142.391C124.743 142.314 124.753 142.236 124.761 142.158C124.856 141.265 124.943 140.369 125.028 139.476C125.036 139.398 125.043 139.321 125.051 139.243C125.129 138.403 125.201 137.562 125.266 136.721C125.291 136.386 125.316 136.048 125.341 135.713C125.346 135.635 125.351 135.557 125.359 135.48C125.429 134.461 125.489 133.445 125.534 132.425C125.539 132.347 125.542 132.269 125.544 132.192C125.577 131.461 125.602 130.73 125.617 130C125.637 129.162 125.852 128.156 125.744 127.332C125.637 126.512 125.008 124.152 124.275 123.516C124.15 123.406 124.112 124.885 123.972 124.785C123.071 124.124 121.964 123.664 120.975 123.546C120.91 123.539 120.845 123.531 120.782 123.529C120.494 123.509 120.209 123.516 119.926 123.551C119.803 123.566 119.683 123.586 119.563 123.611C118.218 123.889 117.014 124.757 116.238 125.836C116.165 125.936 116.095 126.041 116.03 126.144C115.99 126.209 115.95 126.274 115.912 126.339C115.825 126.494 115.745 126.652 115.667 126.812C115.567 126.424 115.444 126.044 115.297 125.691C115.061 125.13 114.761 124.635 114.38 124.267C113.907 123.809 113.259 123.501 112.555 123.311C112.437 123.279 112.32 123.251 112.199 123.226C111.298 123.038 110.339 123.028 109.546 123.143C109.49 123.151 109.435 123.158 109.383 123.169C109.323 123.179 109.26 123.191 109.2 123.204C108.649 123.314 108.108 123.499 107.645 123.814C107.385 123.992 107.165 124.184 106.982 124.387C106.854 124.53 106.746 124.677 106.651 124.83C106.03 125.836 106.043 127.077 106.018 128.393C105.993 129.74 106.073 131.083 106.183 132.425C106.188 132.505 106.196 132.582 106.203 132.66C106.263 133.373 106.331 134.084 106.393 134.797C106.401 134.874 106.408 134.954 106.413 135.032C106.413 135.034 106.413 135.037 106.413 135.039C106.504 136.08 106.569 137.121 106.619 138.162C106.624 138.242 106.626 138.32 106.629 138.398C106.669 139.248 106.696 140.102 106.724 140.952C106.724 141.032 106.729 141.11 106.731 141.19C106.764 142.269 106.794 143.35 106.834 144.428C106.834 144.508 106.839 144.586 106.842 144.666C106.877 145.607 106.919 146.545 106.979 147.483C106.984 147.561 106.989 147.641 106.994 147.719C107.009 147.961 107.027 148.204 107.047 148.444C107.132 149.555 107.242 150.666 107.362 151.775C107.37 151.852 107.38 151.93 107.387 152.008C107.48 152.861 107.58 153.712 107.68 154.562C107.69 154.642 107.7 154.723 107.708 154.803C107.81 155.678 107.913 156.557 108.011 157.433C108.021 157.513 108.028 157.593 108.038 157.673C108.126 158.466 108.206 159.259 108.276 160.052C108.284 160.13 108.289 160.208 108.296 160.285C108.349 160.893 108.396 161.504 108.434 162.112C108.464 162.602 108.476 163.093 108.484 163.586C108.484 163.666 108.484 163.743 108.487 163.823C108.497 164.699 108.492 165.575 108.532 166.446C108.534 166.526 108.539 166.604 108.544 166.684C108.582 167.327 108.644 167.967 108.759 168.6C108.83 168.415 108.99 168.34 109.18 168.323C109.29 168.313 109.41 168.32 109.531 168.335C109.751 168.363 109.971 168.418 110.119 168.43C110.63 168.475 111.143 168.493 111.656 168.493C111.774 168.493 111.889 168.493 112.007 168.49C112.019 168.49 112.032 168.49 112.044 168.49C112.24 168.488 113.609 168.443 114.623 168.373C114.746 168.365 114.863 168.355 114.971 168.348C115.417 168.31 115.732 168.268 115.735 168.223C115.777 167.494 115.802 166.766 115.812 166.038C115.812 165.958 115.812 165.878 115.815 165.798C115.825 164.832 115.812 163.868 115.782 162.903C115.782 162.825 115.777 162.745 115.775 162.667C115.74 161.589 115.685 160.51 115.627 159.432C115.622 159.352 115.62 159.272 115.615 159.189C115.567 158.361 115.519 157.533 115.472 156.704C115.467 156.624 115.462 156.544 115.459 156.464C115.409 155.588 115.364 154.715 115.329 153.839C115.327 153.759 115.322 153.679 115.319 153.599C115.299 153.069 115.282 152.536 115.272 152.005C115.264 151.675 115.259 151.344 115.254 151.017C115.254 150.937 115.254 150.857 115.249 150.779C115.231 149.64 115.221 148.502 115.224 147.363C115.224 147.283 115.224 147.206 115.224 147.126C115.224 146.37 115.231 145.617 115.241 144.863C115.244 144.663 115.246 144.461 115.251 144.258C115.251 144.178 115.254 144.1 115.256 144.02C115.274 143.092 115.299 142.163 115.334 141.235C115.337 141.155 115.339 141.077 115.344 140.997C115.367 140.407 115.394 139.819 115.424 139.231C115.429 139.121 115.437 139.011 115.442 138.901C115.454 138.996 115.467 139.088 115.477 139.183C115.487 139.261 115.494 139.338 115.504 139.416C115.534 139.666 115.562 139.916 115.589 140.167C115.597 140.247 115.607 140.327 115.615 140.407C115.675 140.985 115.735 141.563 115.792 142.141C115.8 142.219 115.807 142.296 115.815 142.374C115.902 143.275 115.985 144.173 116.065 145.074C116.073 145.151 116.078 145.229 116.085 145.306C116.165 146.247 116.243 147.188 116.313 148.129C116.318 148.207 116.326 148.284 116.331 148.362C116.356 148.7 116.381 149.035 116.406 149.373C116.301 150.146 116.361 150.927 116.441 151.702C116.448 151.78 116.458 151.857 116.466 151.935C116.466 151.935 116.466 151.938 116.466 151.94C116.546 152.681 116.636 153.421 116.731 154.16C116.856 155.118 116.994 156.074 117.147 157.03C117.159 157.105 117.172 157.182 117.184 157.257C117.197 157.335 117.209 157.413 117.222 157.49C117.357 158.301 117.5 159.112 117.655 159.922C117.665 159.98 117.678 160.04 117.688 160.098C117.693 160.118 117.695 160.135 117.7 160.155C117.893 161.136 118.178 162.107 118.441 163.075C118.464 163.153 118.484 163.233 118.506 163.31C118.506 163.318 118.511 163.325 118.511 163.333C118.759 164.256 119.01 165.162 119.287 166.061C119.31 166.136 119.335 166.213 119.358 166.288C119.553 166.911 119.763 167.532 119.993 168.152C120.309 168.017 120.629 167.89 120.955 167.772C121.075 167.727 121.195 167.685 121.315 167.644C122.45 167.254 123.624 166.964 124.818 166.781C124.941 166.764 125.066 166.744 125.189 166.729C125.442 166.696 125.694 166.666 125.95 166.641C125.93 166.188 125.902 165.738 125.867 165.29H125.875Z" fill="url(#paint18_linear_6_4148)"/>
<path d="M132.492 118.287C132.437 115.757 131.881 111.398 131.493 109.734C130.697 106.323 128.551 104.681 126.753 105.012C125.682 104.231 124.115 103.293 122.815 102.67C120.131 104.486 119.1 101.929 119.05 101.729C118.291 101.691 117.42 101.736 116.576 101.911C116.085 102.012 115.597 102.097 115.121 102.179C113.426 101.188 111.681 100.262 110.745 99.8595C106.053 97.8377 102.68 100.36 104.268 103.565C104.663 104.361 107.28 106.095 109.911 107.649C108.772 111.385 107.26 116.805 106.486 120.539C105.793 123.884 106.524 124.467 106.524 124.467C106.827 125.833 120.389 130.4 123.889 127.52C125.454 126.231 124.911 119.753 124.911 119.753C125.053 119.297 125.194 118.835 125.336 118.367C125.462 119.127 125.577 119.695 125.659 119.963C126.235 121.777 128.451 122.948 129.74 122.731C130.459 122.608 132.58 122.368 132.489 118.289L132.492 118.287Z" fill="url(#paint19_linear_6_4148)"/>
</g>
<defs>
<linearGradient id="paint0_linear_6_4148" x1="188.962" y1="13.3219" x2="196.465" y2="2.49031" gradientUnits="userSpaceOnUse">
<stop stop-color="#DEEBFB"/>
<stop offset="1" stop-color="#1E7DF4"/>
</linearGradient>
<linearGradient id="paint1_linear_6_4148" x1="193.113" y1="25.1605" x2="194.63" y2="31.5707" gradientUnits="userSpaceOnUse">
<stop stop-color="#DEEBFB"/>
<stop offset="1" stop-color="#1E7DF4"/>
</linearGradient>
<linearGradient id="paint2_linear_6_4148" x1="219.46" y1="41.5283" x2="227.829" y2="29.4503" gradientUnits="userSpaceOnUse">
<stop stop-color="#DEEBFB"/>
<stop offset="1" stop-color="#1E7DF4"/>
</linearGradient>
<linearGradient id="paint3_linear_6_4148" x1="21.7178" y1="187.969" x2="3.32601" y2="180.557" gradientUnits="userSpaceOnUse">
<stop stop-color="#DEEBFB"/>
<stop offset="0.11" stop-color="#D7E7FA"/>
<stop offset="0.26" stop-color="#C5DCFA"/>
<stop offset="0.44" stop-color="#A7CBF9"/>
<stop offset="0.64" stop-color="#7EB4F7"/>
<stop offset="0.85" stop-color="#4995F5"/>
<stop offset="1" stop-color="#1E7DF4"/>
</linearGradient>
<linearGradient id="paint4_linear_6_4148" x1="14.9409" y1="95.5606" x2="202.358" y2="95.5606" gradientUnits="userSpaceOnUse">
<stop stop-color="#DEEBFB"/>
<stop offset="0.22" stop-color="#A5C9F5"/>
<stop offset="0.49" stop-color="#68A4EE"/>
<stop offset="0.72" stop-color="#3B8AE9"/>
<stop offset="0.9" stop-color="#207AE7"/>
<stop offset="1" stop-color="#1674E6"/>
</linearGradient>
<linearGradient id="paint5_linear_6_4148" x1="62.0717" y1="48.8819" x2="75.0947" y2="79.4818" gradientUnits="userSpaceOnUse">
<stop stop-color="#DEEBFB"/>
<stop offset="0.16" stop-color="#DAE8FA"/>
<stop offset="0.31" stop-color="#CFE2FA"/>
<stop offset="0.45" stop-color="#BCD8F9"/>
<stop offset="0.58" stop-color="#A3C9F8"/>
<stop offset="0.71" stop-color="#81B6F7"/>
<stop offset="0.85" stop-color="#589EF6"/>
<stop offset="0.97" stop-color="#2883F4"/>
<stop offset="1" stop-color="#1E7DF4"/>
</linearGradient>
<linearGradient id="paint6_linear_6_4148" x1="108.562" y1="128.398" x2="108.562" y2="69.3214" gradientUnits="userSpaceOnUse">
<stop stop-color="#DEEBFB"/>
<stop offset="0.16" stop-color="#DAE8FA"/>
<stop offset="0.3" stop-color="#CFE2F9"/>
<stop offset="0.44" stop-color="#BCD7F7"/>
<stop offset="0.57" stop-color="#A2C7F4"/>
<stop offset="0.7" stop-color="#81B3F1"/>
<stop offset="0.83" stop-color="#579BEC"/>
<stop offset="0.96" stop-color="#287EE7"/>
<stop offset="1" stop-color="#1674E6"/>
</linearGradient>
<linearGradient id="paint7_linear_6_4148" x1="108.649" y1="144.778" x2="108.649" y2="78.5199" gradientUnits="userSpaceOnUse">
<stop offset="0.08" stop-color="#DEEBFB"/>
<stop offset="0.26" stop-color="#DBE9FA"/>
<stop offset="0.4" stop-color="#D1E3F9"/>
<stop offset="0.51" stop-color="#C1D9F7"/>
<stop offset="0.62" stop-color="#AACCF5"/>
<stop offset="0.73" stop-color="#8DBBF2"/>
<stop offset="0.83" stop-color="#69A5EE"/>
<stop offset="0.92" stop-color="#3F8CEA"/>
<stop offset="1" stop-color="#1674E6"/>
</linearGradient>
<linearGradient id="paint8_linear_6_4148" x1="108.649" y1="150.281" x2="108.649" y2="92.9982" gradientUnits="userSpaceOnUse">
<stop stop-color="#DEEBFB"/>
<stop offset="0.1" stop-color="#D6E6FA"/>
<stop offset="0.26" stop-color="#C1DAF8"/>
<stop offset="0.45" stop-color="#9FC5F4"/>
<stop offset="0.66" stop-color="#6FA9EF"/>
<stop offset="0.89" stop-color="#3385E9"/>
<stop offset="1" stop-color="#1674E6"/>
</linearGradient>
<linearGradient id="paint9_linear_6_4148" x1="77.8265" y1="29.0036" x2="94.649" y2="26.9464" gradientUnits="userSpaceOnUse">
<stop stop-color="#E98963"/>
<stop offset="0.17" stop-color="#E98162"/>
<stop offset="0.43" stop-color="#EA6D60"/>
<stop offset="0.73" stop-color="#EC4C5D"/>
<stop offset="1" stop-color="#EF2A5A"/>
</linearGradient>
<linearGradient id="paint10_linear_6_4148" x1="22.2667" y1="126.557" x2="132.157" y2="158.514" gradientUnits="userSpaceOnUse">
<stop stop-color="#DEEBFB"/>
<stop offset="0.11" stop-color="#D8E7FA"/>
<stop offset="0.25" stop-color="#C7DDF8"/>
<stop offset="0.42" stop-color="#ABCDF5"/>
<stop offset="0.6" stop-color="#85B6F1"/>
<stop offset="0.79" stop-color="#5499EC"/>
<stop offset="0.99" stop-color="#1875E6"/>
<stop offset="1" stop-color="#1674E6"/>
</linearGradient>
<linearGradient id="paint11_linear_6_4148" x1="123.882" y1="114.268" x2="151.705" y2="114.268" gradientUnits="userSpaceOnUse">
<stop stop-color="#DEEBFB"/>
<stop offset="1" stop-color="#1674E6"/>
</linearGradient>
<linearGradient id="paint12_linear_6_4148" x1="138.881" y1="152.586" x2="138.881" y2="124.662" gradientUnits="userSpaceOnUse">
<stop stop-color="#DEEBFB"/>
<stop offset="0.37" stop-color="#8EBBF2"/>
<stop offset="0.8" stop-color="#3888E9"/>
<stop offset="1" stop-color="#1674E6"/>
</linearGradient>
<linearGradient id="paint13_linear_6_4148" x1="141.085" y1="174.08" x2="145.862" y2="174.08" gradientUnits="userSpaceOnUse">
<stop stop-color="#DEEBFB"/>
<stop offset="0.11" stop-color="#D8E7FA"/>
<stop offset="0.25" stop-color="#C7DDF8"/>
<stop offset="0.42" stop-color="#ABCDF5"/>
<stop offset="0.6" stop-color="#85B6F1"/>
<stop offset="0.79" stop-color="#5499EC"/>
<stop offset="0.99" stop-color="#1875E6"/>
<stop offset="1" stop-color="#1674E6"/>
</linearGradient>
<linearGradient id="paint14_linear_6_4148" x1="131.493" y1="174.703" x2="138.15" y2="174.703" gradientUnits="userSpaceOnUse">
<stop stop-color="#DEEBFB"/>
<stop offset="0.11" stop-color="#D8E7FA"/>
<stop offset="0.25" stop-color="#C7DDF8"/>
<stop offset="0.42" stop-color="#ABCDF5"/>
<stop offset="0.6" stop-color="#85B6F1"/>
<stop offset="0.79" stop-color="#5499EC"/>
<stop offset="0.99" stop-color="#1875E6"/>
<stop offset="1" stop-color="#1674E6"/>
</linearGradient>
<linearGradient id="paint15_linear_6_4148" x1="106.122" y1="94.7747" x2="99.1629" y2="98.8718" gradientUnits="userSpaceOnUse">
<stop stop-color="#DEEBFB"/>
<stop offset="0.11" stop-color="#D7E7FA"/>
<stop offset="0.25" stop-color="#C5DCF8"/>
<stop offset="0.42" stop-color="#A8CBF5"/>
<stop offset="0.61" stop-color="#80B3F1"/>
<stop offset="0.81" stop-color="#4C94EB"/>
<stop offset="1" stop-color="#1674E6"/>
</linearGradient>
<linearGradient id="paint16_linear_6_4148" x1="112.462" y1="171.455" x2="112.577" y2="174.881" gradientUnits="userSpaceOnUse">
<stop stop-color="#DEEBFB"/>
<stop offset="0.11" stop-color="#D8E7FA"/>
<stop offset="0.25" stop-color="#C7DDF8"/>
<stop offset="0.42" stop-color="#ABCDF5"/>
<stop offset="0.6" stop-color="#85B6F1"/>
<stop offset="0.79" stop-color="#5499EC"/>
<stop offset="0.99" stop-color="#1875E6"/>
<stop offset="1" stop-color="#1674E6"/>
</linearGradient>
<linearGradient id="paint17_linear_6_4148" x1="121.27" y1="172.894" x2="126.738" y2="172.894" gradientUnits="userSpaceOnUse">
<stop stop-color="#DEEBFB"/>
<stop offset="0.11" stop-color="#D8E7FA"/>
<stop offset="0.25" stop-color="#C7DDF8"/>
<stop offset="0.42" stop-color="#ABCDF5"/>
<stop offset="0.6" stop-color="#85B6F1"/>
<stop offset="0.79" stop-color="#5499EC"/>
<stop offset="0.99" stop-color="#1875E6"/>
<stop offset="1" stop-color="#1674E6"/>
</linearGradient>
<linearGradient id="paint18_linear_6_4148" x1="117.577" y1="166.634" x2="115.949" y2="129.91" gradientUnits="userSpaceOnUse">
<stop stop-color="#DEEBFB"/>
<stop offset="0.11" stop-color="#D7E7FA"/>
<stop offset="0.25" stop-color="#C5DCF8"/>
<stop offset="0.42" stop-color="#A8CBF5"/>
<stop offset="0.61" stop-color="#80B3F1"/>
<stop offset="0.81" stop-color="#4C94EB"/>
<stop offset="1" stop-color="#1674E6"/>
</linearGradient>
<linearGradient id="paint19_linear_6_4148" x1="109.125" y1="112.904" x2="130.025" y2="117.648" gradientUnits="userSpaceOnUse">
<stop stop-color="#DEEBFB"/>
<stop offset="0.11" stop-color="#D7E7FA"/>
<stop offset="0.25" stop-color="#C5DCF8"/>
<stop offset="0.42" stop-color="#A8CBF5"/>
<stop offset="0.61" stop-color="#80B3F1"/>
<stop offset="0.81" stop-color="#4C94EB"/>
<stop offset="1" stop-color="#1674E6"/>
</linearGradient>
<clipPath id="clip0_6_4148">
<rect width="230.473" height="195.232" fill="white" transform="translate(0.5271 1.52588e-05)"/>
</clipPath>
</defs>
</svg>
