<svg width="36" height="36" viewBox="0 0 36 36" fill="none" xmlns="http://www.w3.org/2000/svg">
<circle opacity="0.2" cx="18" cy="18" r="18" fill="#5480F0"/>
<path d="M10 24C10 22.9391 10.4214 21.9217 11.1716 21.1716C11.9217 20.4214 12.9391 20 14 20H22C23.0609 20 24.0783 20.4214 24.8284 21.1716C25.5786 21.9217 26 22.9391 26 24C26 24.5304 25.7893 25.0391 25.4142 25.4142C25.0391 25.7893 24.5304 26 24 26H12C11.4696 26 10.9609 25.7893 10.5858 25.4142C10.2107 25.0391 10 24.5304 10 24Z" stroke="#5480F0" stroke-width="1.5" stroke-linejoin="round"/>
<path d="M18 16C19.6569 16 21 14.6569 21 13C21 11.3431 19.6569 10 18 10C16.3431 10 15 11.3431 15 13C15 14.6569 16.3431 16 18 16Z" stroke="#5480F0" stroke-width="1.5"/>
</svg>
